<?xml version="1.0" encoding="UTF-8"?>
<svg id="Layer_2" data-name="Layer 2" xmlns="http://www.w3.org/2000/svg" viewBox="0 0 510.05 133.48">
  <g id="Layer_1-2" data-name="Layer 1">
    <g>
      <path d="M26.84,129.94L.19,3.91l-.19-.75c0-1.12.68-1.68,2.05-1.68h24.05c1.49,0,2.3.68,2.42,2.05l12.86,82.03c.12.5.31.75.56.75s.43-.25.56-.75L54.99,3.54c.12-1.37.93-2.05,2.42-2.05h23.3c1.61,0,2.24.81,1.86,2.42l-26.84,126.02c-.25,1.37-1.06,2.05-2.42,2.05h-24.05c-1.37,0-2.18-.68-2.42-2.05Z"/>
      <path d="M100.29,123.41c-6.84-6.71-10.25-15.66-10.25-26.84v-59.66c0-11.19,3.42-20.13,10.25-26.84,6.83-6.71,15.97-10.07,27.4-10.07s20.6,3.36,27.5,10.07c6.9,6.71,10.35,15.66,10.35,26.84v59.66c0,11.19-3.45,20.13-10.35,26.84-6.9,6.71-16.06,10.07-27.5,10.07s-20.57-3.36-27.4-10.07ZM136.09,107.29c2.11-2.42,3.17-5.62,3.17-9.6v-61.89c0-3.98-1.06-7.18-3.17-9.6-2.11-2.42-4.91-3.64-8.39-3.64s-6.25,1.21-8.3,3.64c-2.05,2.42-3.08,5.62-3.08,9.6v61.89c0,3.98,1.03,7.18,3.08,9.6,2.05,2.42,4.82,3.64,8.3,3.64s6.27-1.21,8.39-3.64Z"/>
      <path d="M228.93,130.12l-14.35-51.45c-.25-.5-.56-.75-.93-.75h-6.34c-.62,0-.93.31-.93.93v50.89c0,.62-.22,1.15-.65,1.58-.44.44-.96.65-1.58.65h-21.81c-.62,0-1.15-.22-1.58-.65-.44-.43-.65-.96-.65-1.58V3.73c0-.62.22-1.15.65-1.58.43-.43.96-.65,1.58-.65h37.66c6.83,0,12.92,1.65,18.27,4.94,5.34,3.29,9.48,7.92,12.4,13.89,2.92,5.97,4.38,12.8,4.38,20.51s-1.4,13.8-4.19,19.39c-2.8,5.59-6.68,9.94-11.65,13.05-.25.13-.44.28-.56.47-.13.19-.13.4,0,.65l17.15,54.99.19.75c0,1.24-.68,1.86-2.05,1.86h-22.37c-1.37,0-2.24-.62-2.61-1.86ZM206.37,24.98v31.88c0,.62.31.93.93.93h8.39c3.85,0,6.99-1.52,9.41-4.57,2.42-3.04,3.64-7.11,3.64-12.21s-1.21-9.35-3.64-12.4c-2.42-3.04-5.56-4.57-9.41-4.57h-8.39c-.62,0-.93.31-.93.93Z"/>
      <path d="M321.2,129.94l-2.98-17.9c0-.62-.37-.93-1.12-.93h-23.68c-.75,0-1.12.31-1.12.93l-2.98,17.9c-.13,1.37-.93,2.05-2.42,2.05h-21.81c-1.62,0-2.24-.81-1.86-2.42L290.63,3.54c.25-1.37,1.05-2.05,2.42-2.05h25.17c1.37,0,2.17.68,2.42,2.05l27.22,126.02.19.75c0,1.12-.68,1.68-2.05,1.68h-22.37c-1.49,0-2.3-.68-2.42-2.05ZM296.78,90.79h16.78c.62,0,.87-.31.75-.93l-8.76-50.89c-.13-.37-.31-.56-.56-.56s-.44.19-.56.56l-8.39,50.89c0,.62.25.93.75.93Z"/>
      <path d="M363.43,123.51c-6.78-6.65-10.16-15.57-10.16-26.75v-60.4c0-11.06,3.38-19.88,10.16-26.47,6.77-6.59,15.75-9.88,26.94-9.88s20.35,3.29,27.12,9.88c6.77,6.59,10.16,15.41,10.16,26.47v2.05c0,.62-.22,1.15-.65,1.58-.44.44-.96.65-1.58.65l-21.81.93c-1.49,0-2.24-.68-2.24-2.05v-4.85c0-3.6-1-6.52-2.98-8.76-1.99-2.24-4.66-3.36-8.02-3.36s-5.84,1.12-7.83,3.36c-1.99,2.24-2.98,5.16-2.98,8.76v64.32c0,3.61.99,6.5,2.98,8.67,1.99,2.18,4.6,3.26,7.83,3.26s6.03-1.09,8.02-3.26c1.99-2.17,2.98-5.06,2.98-8.67v-5.03c0-.62.22-1.15.65-1.58s.96-.65,1.58-.65l21.81.93c.62,0,1.15.22,1.58.65.43.44.65.96.65,1.58v1.86c0,11.19-3.42,20.1-10.25,26.75-6.84,6.65-15.85,9.97-27.03,9.97s-20.17-3.32-26.94-9.97Z"/>
      <path d="M509.39,23.4c-.44.44-.96.65-1.58.65h-38.96c-.62,0-.93.31-.93.93v29.46c0,.62.31.93.93.93h22.37c.62,0,1.15.22,1.58.65.43.44.65.96.65,1.58v18.08c0,.62-.22,1.15-.65,1.58s-.96.65-1.58.65h-22.37c-.62,0-.93.31-.93.93v29.64c0,.62.31.93.93.93h38.96c.62,0,1.15.22,1.58.65.43.44.65.96.65,1.58v18.08c0,.62-.22,1.15-.65,1.58s-.96.65-1.58.65h-63.94c-.62,0-1.15-.22-1.58-.65-.44-.43-.65-.96-.65-1.58V3.73c0-.62.22-1.15.65-1.58.43-.43.96-.65,1.58-.65h63.94c.62,0,1.15.22,1.58.65.43.44.65.96.65,1.58v18.08c0,.62-.22,1.15-.65,1.58Z"/>
    </g>
  </g>
</svg>