<?xml version="1.0" encoding="UTF-8"?>
<svg id="Layer_2" data-name="Layer 2" xmlns="http://www.w3.org/2000/svg" xmlns:xlink="http://www.w3.org/1999/xlink" viewBox="0 0 600 370">
  <defs>
    <clipPath id="clippath">
      <rect x="0" y="0" width="600" height="370" rx="30" ry="30" style="fill: none;"/>
    </clipPath>
  </defs>
  <g id="Layer_1-2" data-name="Layer 1">
    <g>
      <rect x="0" y="0" width="600" height="370" rx="30" ry="30" style="fill: #f6b0bc;"/>
      <g style="clip-path: url(#clippath);">
        <g style="opacity: .25;">
          <g>
            <path d="M-61.89,216.23l25.45,41.46c1.46,2.37,4.39,3.38,7,2.4l10.1-3.81c2.02-.76,4.29-.34,5.9,1.09l1.13,1c3.47,3.08,2.11,8.78-2.37,9.96l-12.76,2.4c-2.23.59-3.89,2.44-4.25,4.71l-1.56,9.91c-.38,2.42.8,4.82,2.95,6l8.78,4.8c.58.32,1.2.53,1.85.64l17.29,2.82c2.69.44,4.71,2.69,4.86,5.41l.36,6.48c.09,1.53-.43,3.02-1.44,4.17l-15.44,17.49c-1.99,2.26-1.93,5.66.14,7.84l8.82,9.29c.87.91,1.41,2.08,1.56,3.34l3.38,29.54c.21,1.81,1.26,3.42,2.83,4.35l17.33,10.18c1.71,1,3.82,1.07,5.58.16l23.61-12.05c1.05-.54,1.92-1.38,2.48-2.42l10.47-19.48c.61-1.13,1.58-2.03,2.75-2.56l36.38-16.2c1.4-.62,2.98-.67,4.41-.13l27.57,10.39c1.32.5,2.78.5,4.1,0l23.97-9.06c1.89-.72,3.28-2.37,3.65-4.36l3.72-19.76c.31-1.66-.11-3.36-1.16-4.68l-18-22.7c-.99-1.25-1.43-2.86-1.2-4.44l1.57-10.84c.48-3.3-1.91-6.32-5.23-6.62l-28.69-2.57c-2.78-.25-4.99-2.44-5.26-5.22l-.13-1.38c-.14-1.45.27-2.89,1.14-4.06l17.93-23.8c1.8-2.38,1.49-5.74-.7-7.77l-10.55-8.83c-4.38-4.04-12.99,2.51-13.84,3.13-3.6,2.59-7.87,2.04-9.69-.36-1.75-2.11-1.64-6.62,2.64-9.35l17.75-9.87c2.48-1.38,3.6-4.35,2.65-7.03l-15.79-44.23c-1.1-3.08-4.52-4.65-7.57-3.46l-153.61,59.63c-3.38,1.31-4.74,5.36-2.85,8.45Z" style="fill: none; stroke: #f1eee9; stroke-miterlimit: 10;"/>
            <path d="M-30.07,248.54l-21.24-33.15-.13-.19c-.12-.32.01-.55.4-.7l6.88-2.6c.43-.16.73-.05.91.32l12.54,22.06c.09.13.17.18.24.15.07-.03.1-.12.08-.27l-5.29-24.8c-.11-.4.05-.69.47-.85l6.66-2.52c.46-.17.73-.01.79.49l5.95,38.94c.08.42-.08.7-.47.85l-6.88,2.6c-.39.15-.7.04-.91-.32ZM13.73,231.92L.11,195.89c-.07-.18-.06-.35.02-.52.08-.17.2-.29.38-.36l10.77-4.07c1.95-.74,3.87-.93,5.76-.56,1.88.36,3.57,1.24,5.05,2.63,1.48,1.39,2.64,3.19,3.47,5.39.79,2.1,1.09,4.1.9,6-.2,1.9-.84,3.57-1.92,4.99-.06.06-.09.13-.11.19-.02.07,0,.13.07.19l10.85,13.87.13.19c.13.36,0,.61-.38.75l-6.4,2.42c-.39.15-.71.06-.95-.25l-9.67-13.16c-.13-.12-.24-.15-.35-.11l-1.81.69c-.18.07-.23.19-.17.37l5.5,14.55c.07.18.06.35-.02.52-.08.17-.21.29-.38.36l-6.24,2.36c-.18.07-.35.06-.52-.02-.17-.08-.29-.2-.36-.38ZM13.37,208.24c.07.18.19.23.37.17l2.4-.91c1.1-.42,1.83-1.19,2.2-2.32.36-1.13.27-2.43-.28-3.88-.56-1.49-1.36-2.54-2.38-3.15-1.02-.61-2.08-.7-3.19-.29l-2.4.91c-.18.07-.23.19-.17.37l3.45,9.12ZM37.48,222.88l-5.79-39c-.08-.42.08-.7.47-.85l7.2-2.72c.39-.15.7-.04.91.32l21.4,33.09.13.19c.12.32-.01.55-.4.7l-6.4,2.42c-.43.16-.73.05-.91-.32l-2.79-4.8c-.07-.18-.21-.23-.42-.15l-6.77,2.56c-.21.08-.29.21-.22.39l1.08,5.44c.11.41-.04.69-.47.85l-6.24,2.36c-.46.17-.73.01-.8-.49ZM42.89,208.16l4.8-1.81c.18-.07.21-.18.11-.35l-8.01-13.61c-.08-.09-.15-.13-.22-.1-.07.03-.1.1-.1.22l3.1,15.46c.07.18.17.24.31.19ZM94.1,159.84c-.17-.08-.35-.08-.52-.02l-18.28,6.91c-.18.07-.31.19-.38.36-.08.17-.08.35-.02.52l13.62,36.03c.07.18.19.31.36.38.17.08.35.08.52.01l18.28-6.91c.18-.07.3-.19.38-.36.08-.17.08-.34.02-.52l-1.95-5.17c-.07-.18-.19-.3-.36-.38-.17-.08-.35-.08-.52-.01l-11.14,4.21c-.18.07-.3.01-.37-.17l-3.2-8.48c-.07-.18-.01-.3.17-.37l6.4-2.42c.18-.07.3-.19.38-.36.08-.17.08-.34.02-.52l-1.95-5.17c-.07-.18-.19-.3-.36-.38-.17-.08-.35-.08-.52-.02l-6.4,2.42c-.18.07-.3.01-.37-.17l-3.18-8.42c-.07-.18-.01-.3.17-.37l11.14-4.21c.18-.07.3-.19.38-.36.08-.17.08-.35.02-.52l-1.95-5.17c-.07-.18-.19-.3-.36-.38ZM118.15,229.24c-.2,1.02.3,1.62,1.23,1.8.81.15.74.6.51,1.11-1.07,2.37-2.64,4.38-4.45,6.21-1.93,1.95-3.91,3.86-5.82,5.84-2.8,2.9-5.55,5.84-8.33,8.76-.86.9-1.71,1.81-2.61,2.66-.81.77-1.16,1.64-1.11,2.79.12,2.33.01,4.68.21,7,.12,1.39,0,2.55-1.08,3.47-.54.46-1.13.84-1.69,1.28-.93.72-.88,1.32.16,1.84,1.88.94,3.79,1.8,5.65,2.77,1.93,1.01,3.8,2.16,5.75,3.13,1.5.75,3.18,1.15,4.61,2,1.34.8,2.67,1.29,4.2,1.31,2.73.04,5.46.11,8.2.11,2.05,0,4.1-.04,6.14-.18,2.04-.14,4.07-.41,6.1-.66,1.44-.18,2.76.16,3.96.91.32.2.51.8.53,1.23.06,1.31.08,2.63-.03,3.93-.03.39-.47.78-.78,1.11-.57.59-1.13,1.22-1.79,1.69-.58.41-1.27.8-1.96.89-1.42.19-2.87.19-4.31.23-.53.02-1.06-.11-1.59-.07-.27.02-.54.23-.75.42-.04.04.14.45.31.58,1.46,1.12,2.96,2.19,4.4,3.33.73.58,1.35,1.31,2.06,1.93,1.86,1.63,3.75,3.21,5.6,4.85,1.18,1.05,2.33,2.13,3.43,3.26,1.15,1.18,2.31,2.38,3.33,3.68,1.21,1.53,2.36,3.12,3.39,4.78,1.85,2.97,3.3,6.15,4.35,9.48.83,2.62.91,5.29.32,8-.61,2.8-2.06,5.06-4.05,6.99-1.45,1.4-3.04,2.66-4.6,3.95-.19.16-.59.06-.88.13-1.88.45-3.75.98-5.64,1.35-1.26.24-2.57.24-3.85.37-.85.09-1.7.34-2.54.31-.89-.03-1.79-.27-2.67-.51-2.04-.56-4.06-1.16-6.09-1.76-1.34-.39-2.71-.73-4.03-1.21-3.19-1.16-6.36-2.37-9.52-3.59-1.54-.6-3.05-1.29-4.59-1.9-2.82-1.12-5.66-2.2-8.48-3.34-.88-.36-1.75-.79-2.54-1.31-1.25-.83-2.52-.15-2.94,1.46-.64,2.47-1.65,4.81-3.41,6.7-.77.82-1.82,1.37-2.6,2.18-.64.67-1.13,1.51-1.57,2.33-.86,1.62-2.25,2.38-3.97,2.69-.38.07-.75.26-1.11.45-1.43.76-2.88,1.39-4.52.64-1.9-.87-3.89-.87-5.91-.65-.64.07-1.37.17-1.94-.06-1.9-.77-3.82-1.55-5.58-2.59-1.26-.74-2.36-.99-3.1.73-1.16,2.7-2.58,5.29-3.87,7.93-.89,1.82-1.71,3.67-2.64,5.47-1.47,2.86-2.99,5.69-4.53,8.51-1.09,2-2.2,3.99-3.4,5.92-.83,1.33-1.83,2.56-2.74,3.83-.4.56-.9,1.09-1.14,1.71-.55,1.41-1.62,2.25-2.81,3.03-.93.61-1.79,1.32-2.73,1.91-1,.64-2.04,1.25-3.09,1.79-1.43.74-2.87,1.46-4.35,2.08-.56.23-1.24.25-1.86.23-1.96-.06-3.94,0-5.86-.34-1.42-.25-2.77-.97-4.11-1.59-.92-.43-1.94-.87-2.61-1.59-1.51-1.64-3.04-3.3-3.81-5.49-.79-2.24-1.78-4.41-2.47-6.67-.5-1.65-.7-3.39-.92-5.1-.21-1.63-.41-3.29-.37-4.92.07-2.75.34-5.49.5-8.24.07-1.32-.07-2.66.14-3.96.49-3.18,1.13-6.33,1.7-9.49.12-.67.21-1.36.22-2.04,0-.15-.36-.4-.58-.45-.18-.03-.45.13-.62.27-1.46,1.21-2.94,2.4-4.36,3.65-1.96,1.72-2.88,1.38-4.93.25-1.08-.6-2.07-1.42-2.97-2.29-2.27-2.21-1.97-2.61-.19-4.51,1.26-1.34,2.89-2.34,4.38-3.45,1.64-1.22,3.37-2.32,4.97-3.59,2.49-1.98,4.91-4.05,7.32-6.13.9-.77,1.79-1.59,2.51-2.53.44-.58.57-1.41.82-2.14.31-.9.55-1.82.89-2.71,1.17-3.06,2.37-6.1,3.53-9.17.21-.54.22-1.16.42-1.7.28-.73.57-1.47,1.02-2.1.49-.7.7-1.43.2-2.05-.24-.3-.98-.26-1.5-.27-1.43-.03-2.83.1-3.71-1.52-.47-.87-1.38-1.48-2.03-2.26-.84-1.01-1.7-2.02-2.39-3.13-.97-1.54-2.45-1.78-4.03-1.9-1.52-.12-3.05-.23-4.57-.37-5.02-.45-10.05-.94-15.07-1.36-1.33-.11-2.71.15-4.02-.05-2.08-.31-4.13-.84-6.18-1.34-.77-.19-1.53-.48-2.23-.85-.19-.1-.32-.83-.18-.99.45-.48.14-.88.08-1.34-.08-.61-.12-1.27.05-1.85.27-.9.79-1.72,1.08-2.62.61-1.85,2.18-2.26,3.77-2.63,1.41-.34,2.85-.64,4.3-.27,1.48.38,2.93.85,4.4,1.25,3.17.85,6.34,1.7,9.52,2.52,3.35.87,6.7,1.71,10.06,2.54,1.23.31,2.53.41,3.7.87.94.37,1.84,1.04,2.56,1.77,1.64,1.66,3.16,3.45,4.73,5.18.85.94,2,1.07,3.15,1.11.7.02,1.45-.03,2.08-.29.56-.23,1.11-.72,1.44-1.23.59-.9.97-1.93,1.51-2.87,1.22-2.12,2.46-4.25,3.76-6.32.73-1.17.34-3.12-1.48-3.62-1.44-.4-2.77-1.21-4.14-1.85-.21-.1-.41-.22-.63-.31-2.65-1.21-5.28-2.45-7.96-3.6-.98-.42-2.06-.56-3.07-.9-.27-.09-.51-.41-.65-.68-1.23-2.31-.73-4.76-.6-7.18.14-2.6.29-5.2.36-7.8.03-1.08-.9-1.54-1.63-2.1-1.71-1.31-12.9-9.88-16.36-12.66-2.01.27-3.9.02-5.65-.75-2.68-1.18-4.62-3.37-5.83-6.57l-6.45-17.06c-1.21-3.2-1.2-6.13.03-8.78,1.23-2.66,3.48-4.6,6.75-5.84,3.27-1.24,6.25-1.27,8.95-.09,2.7,1.17,4.65,3.36,5.86,6.56l6.45,17.06c1.21,3.2,1.19,6.13-.06,8.79-.17.36-.36.71-.57,1.05,1.23,1.18,2.54,2.43,3.97,3.6,2.05,1.68,9.3,7.24,10.78,8.57.74.66,1.25,1.58,1.93,2.46.11,1.75.28,3.47.33,5.19.14,4.86-.88,9.66-.11,10.04,2.35,1.17,6.74,3.43,9.07,4.63,1.34.69,1.68-4.62,2.17-5.7.31-1.23.03-1.78-1.17-1.82-2.19-.07-3.6-1.17-4.99-2.79-1.72-2.01-2.19-4.32-2.14-6.73.04-1.99,1.45-3.45,2.95-4.56,1.97-1.46,4.04-2.73,4.97-5.18.2-.53.66-.96,1.04-1.41.49-.58.45-1.14.07-1.76-.16-.25-.3-.6-.27-.88.17-1.43.09-3.04,1.61-3.84.86-.45,1.87-.61,2.81-.94.5-.17,1.02-.36,1.47-.64,1.78-1.12,3.41-1.56,4.98.08.62.64,1.2,1.2,1.48,2.08.33,1.02,1.35.97,2.16,1.22.15.04.32.03.45.09,2.15,1.11,4.4.65,6.65.52,2.69-.15,5.2.28,6.94,2.74,1.97,2.78,2.45,5.73,1.17,8.88-.31.75-.97,1.36-1.49,2.02-.65.83-.46,1.67.45,2.15.87.46,4.73,4.53,5.06,3.73,1.85-4.44,3.67-9.11,4.07-9.81.95-1.69-5.92-7.66-7.58-9.52-1.61-1.82-2.63-3.92-2.23-6.41.4-2.41,1-4.79,1.45-7.2.31-1.63,1.19-7.95,1.83-12.47-2.53-1.19-4.38-3.33-5.55-6.43l-6.53-17.27c-1.2-3.16-1.18-6.05.04-8.67,1.22-2.62,3.44-4.53,6.63-5.74,3.23-1.22,6.17-1.26,8.82-.11,2.65,1.15,4.57,3.31,5.77,6.47l.22.59c.07.18.06.35-.02.52-.08.17-.21.29-.38.36l-6.14,2.62c-.43.16-.71.05-.86-.34l-.52-1.39c-.39-1.03-.99-1.76-1.8-2.18-.81-.42-1.7-.46-2.65-.09-.92.35-1.55.95-1.88,1.81-.33.85-.3,1.8.09,2.83l6.95,18.39c.39,1.03.99,1.75,1.79,2.16.8.41,1.67.44,2.59.09.96-.36,1.61-.96,1.94-1.8.33-.84.31-1.77-.08-2.8l-.54-1.44c-.07-.18-.06-.35.02-.52.08-.17.2-.29.38-.36l6.34-2.09c.18-.07.35-.06.52.01.17.08.29.21.36.38l.2.53c1.21,3.2,1.2,6.12-.04,8.76-1.03,2.2-2.74,3.89-5.13,5.09-.01.08-.02.15-.04.24-.73,3.44-3.43,17.02-4.16,20.72-.16.82-.1,1.59.54,2.23,2.04,2.08,4.13,4.11,6.09,6.26,1.22,1.34,2.27,2.85,3.35,4.33.91,1.25-1.13,2.96-1.95,4.73-2.35,5.06-5,10.81-5.97,12.94-.23.51-.4.99.08,1.62,1.06,1.39,2.54,1.86,4.06,2.33,1.29.39,2.59.77,3.86,1.23,1.36.5,2.67,1.1,4.02,1.63.69.27,1.32.25,1.9-.35.94-.99,1.92-1.93,2.91-2.87.79-.75.64-1.71.66-2.65.04-1.7.15-3.4.24-5.1.03-.58.07-1.17.16-1.74.1-.67.1-1.43.44-1.98,1.3-2.14,2.69-4.22,4.09-6.3,1.67-2.47,3.4-4.89,5.07-7.36,2.42-3.58,4.79-7.2,7.22-10.77.28-.41.81-.68,1.27-.92.98-.51,2-.93,2.98-1.42,1-.5,1.74-.23,2.54.53.52.5,1.3.81,2.02,1.02.74.21,1.17.5,1.01,1.33ZM46.34,352.69c-1.3-.73-4.61-3.2-5.8-4.35-1.33-1.29-2.51-2.74-3.71-4.15-1.07-1.25-2.09-2.55-3.13-3.83-.8-.99-1.55-2.01-2.37-2.97-.41-.48-1.13-.29-1.28.29-.1.37-.13.75-.2,1.13-.92,4.98-.04,9.82,1.3,14.58.71,2.51,3.73,10.49,4.5,11.93.6,1.14.98,1.43,1.89,2.32,1.27,1.24,1.83,1.26,2.92-.21.56-.75,5.05-9.4,5.58-10.17,1.05-2.33,1.45-3.6.3-4.56ZM27.11,323.83c.5-2.21,1.02-4.42,1.49-6.63.12-.55-.17-.73-.67-.48-.27.13-.57.26-.77.46-1.35,1.34-2.65,2.74-4.03,4.05-1.74,1.66-3.46,3.28-4.05,5.8-.68,2.93-1.79,5.78-2.32,8.73-.71,3.91-1.11,7.87-1.52,11.83-.29,2.82-.49,5.66-.49,8.49,0,1.45.14,2.88-.15,4.33-.17.86-.3,1.82-.09,2.64.58,2.3,1.32,4.56,2.04,6.82.66,2.11,1.84,3.93,3.11,5.72,1.06,1.49,2.44,2.24,4.19,2.16,1.08-.04,2.16-.31,3.2-.61,1.53-.43,3.04-.97,4.47-1.44.56-.21,1.06-.38,1.53-.58,1.26-.56,1.58-1.63.72-2.5-1.92-1.92-3.18-4.26-4.19-6.73-1.1-2.71-2.08-5.47-3.12-8.21-.08-.22-.17-.44-.23-.67-.45-1.84-.94-3.67-1.34-5.52-.33-1.52-.71-3.05-.79-4.58-.12-2.1-.02-4.21.08-6.32.07-1.57.21-3.16.47-4.71.45-2.72,1.01-5.42,1.55-8.12.27-1.32.6-2.63.9-3.95ZM38.63,307.41c-.38.31-.76.62-1.13.93-.04.03-.04.09-.06.14-.52,1.29-1.07,2.58-1.55,3.88-.37,1.01-.71,2.04-.99,3.08-.58,2.17-1.06,4.36-1.68,6.51-.42,1.45-.67,2.85.15,4.24.23.39.56.76.69,1.18.32,1.03.55,2.09.94,3.61.65,1.06,1.45,2.55,2.44,3.9,1.12,1.53,2.45,2.91,3.63,4.4,1.73,2.18,3.9,3.8,6.21,5.29,2.94,1.9,3.17,2.91,3.88,1.75.32-.52.5-1.13.74-1.7.61-1.46,1.23-2.91,1.83-4.37.81-1.98,1.71-2.36-.45-4.12-.28-.22-3.77-3.45-5.59-5.93-1.87-2.55-3.58-5.19-4.6-8.2-1.01-3.01-2.01-6.04-2.92-9.08-.42-1.41-.58-2.9-.92-4.33-.1-.42-.4-.79-.61-1.19ZM34.57,297.53c-.43-.33-.6-.58-.81-.6-1.64-.22-3.19.26-3.89,1.98-.48,1.17-.94,2.34-1.39,3.52-.11.28-.16.59-.18.89,0,.15.1.39.22.45.11.05.36-.03.47-.13.7-.65,1.39-1.31,2.08-1.98.72-.71,1.48-1.39,2.14-2.16.5-.58.88-1.27,1.36-1.97ZM36.72,288.1c-.4-.38-.98-.92-1.52-.13-.4.59-.77,1.2-1.07,1.85-.28.6-.2,1.24.57,1.33.82.1,1.65-.01,2.48-.03.77-.26.99-.76.67-1.41-.29-.58-.66-1.17-1.13-1.61ZM-6.05,232.05c.85.47,1.77.52,2.76.14.99-.38,1.66-1.02,2.01-1.95.34-.92.3-1.95-.13-3.09l-6.69-17.7c-.43-1.14-1.08-1.94-1.94-2.4-.87-.46-1.8-.51-2.79-.13-.99.38-1.65,1.02-1.98,1.94-.32.91-.27,1.94.16,3.08l6.69,17.7c.43,1.14,1.07,1.94,1.92,2.41ZM85.09,278.4c.15.32.68.61,1.07.65,2.29.23,4.58.41,6.88.53.47.02.96-.3,1.44-.46-.37-.33-.68-.77-1.1-.98-1.37-.68-2.76-1.34-4.18-1.9-.62-.25-1.33-.25-1.96-.35-.71.56-1.3.92-1.76,1.4-.26.27-.5.84-.38,1.1ZM77.45,275.24c.39.1.95.43,1.2.27.76-.48,1.45-1.1,2.06-1.77.17-.18.1-.94-.08-1.04-.82-.46-1.7-.84-2.59-1.12-.19-.06-.78.43-.79.68-.03.9.1,1.82.2,2.96ZM107.41,319.73c.32-2.06.6-4.14.62-6.22.02-2.22-.04-4.51-.53-6.66-.51-2.25-2.98-9.16-3.86-9.89-1.97-1.64-4.15-3.06-6.34-4.4-2.5-1.52-5.11-2.85-7.68-4.24-.31-.16-.68-.26-1.02-.26-.15,0-.46.42-.42.52.33.78.7,1.55,1.13,2.28,1.06,1.8,2.42,3.46,3.18,5.37,1.83,4.62,4.05,9.15,4.19,14.28.07,2.33.24,4.66.17,6.99-.06,1.86-.16,1.68-.42,3.53-.13.93.24,1.49,1.05,1.82,1.29.53,2.58,1.05,3.87,1.57,1.05.42,2.1.85,3.16,1.27,1.06.42,1.54.08,1.62-1.01.06-.88,1.07-3.47,1.3-4.95ZM128.17,326.88c-.32-1.23-3.32-8.19-4.43-10.44-.58-1.17-1.14-2.36-1.84-3.46-1.74-2.73-3.98-5.03-6.43-7.12-.32-.27-.87-.48-1.24-.39-.22.06-.41.74-.4,1.14.03,1.39.22,2.78.24,4.17.05,3.51.17,7.02.02,10.52-.12,2.74.13,3.01-.97,5.53-.59,1.37-.07,2.42,1.03,2.88,3.06,1.38,11.73,4.43,13.68,4.92,1.25.31,1.95-.07,2.15-1.44.4-2.66-1.18-3.87-1.81-6.33ZM103.26,288.14c-.4-.02-.81.25-1.22.39.16.33.29.67.48.98.18.28.38.57.64.75,1.01.69,2.07,1.3,3.08,2,1.63,1.13,3.26,2.27,4.84,3.47,2.5,1.9,4.97,3.85,7.44,5.78,2.09,1.64,4.12,3.36,5.66,5.55,1.65,2.35,3.25,4.74,4.71,7.21.99,1.68,1.81,3.48,2.52,5.3,1.09,2.81,1.97,5.69,3.01,8.52.72,1.98.97,4.02.93,6.11-.01.75.22,1.51,1.07,1.54.71.02,1.45-.25,2.14-.5.69-.25,1.31-.7,2-.95.96-.35,2.03-.46,2.92-.92,1.46-.75,2.84-1.67,4.21-2.59.98-.65,1.55-3.71,1.01-4.66-.65-1.13-1.27-2.29-1.8-3.48-.53-1.19-.94-2.44-1.4-3.66-.46-1.22-.81-2.51-1.42-3.65-.57-1.06-1.29-2.12-2.16-2.92-.96-.88-2.05-1.5-2.82-2.72-1.16-1.86-2.69-3.51-4.22-5.1-1.54-1.59-3.22-3.05-4.93-4.45-2.61-2.13-5.28-4.18-7.95-6.23-1.11-.85-2.24-1.7-3.43-2.43-1.14-.7-2.36-1.29-3.59-1.82-.91-.39-1.88-.74-2.85-.89-1.3-.19-2.63-.14-3.94-.23-1.65-.11-3.29-.3-4.94-.38Z" style="fill: none; stroke: #f1eee9; stroke-miterlimit: 10;"/>
          </g>
        </g>
      </g>
      <g>
        <path d="M92.15,180.52c0-.92-.36-1.73-1.07-2.41-.71-.68-1.72-1.02-3.02-1.02-1.1,0-1.97.23-2.6.68-.64.45-.96,1.06-.96,1.83,0,.4.08.75.23,1.07s.42.6.81.86.89.48,1.52.68c.63.2,1.42.38,2.39.56,2.42.44,4.26,1.18,5.54,2.21s1.91,2.56,1.91,4.58v.39c0,1.08-.19,2.05-.58,2.92-.38.87-.94,1.61-1.67,2.22-.72.62-1.6,1.09-2.64,1.42-1.03.33-2.2.5-3.49.5-1.52,0-2.85-.21-4-.64-1.15-.43-2.12-1.02-2.88-1.78-.77-.76-1.35-1.65-1.75-2.67-.4-1.02-.59-2.14-.59-3.35v-.99h4.35v.79c0,1.38.4,2.49,1.2,3.31.8.82,2.05,1.24,3.74,1.24,1.32,0,2.3-.29,2.93-.86.64-.57.96-1.25.96-2.04,0-.37-.07-.73-.2-1.07-.13-.34-.36-.65-.69-.92-.33-.27-.78-.52-1.35-.74-.57-.22-1.3-.41-2.18-.56-1.16-.2-2.23-.46-3.2-.77s-1.81-.74-2.52-1.27c-.71-.53-1.27-1.19-1.66-1.98-.4-.79-.59-1.76-.59-2.9v-.2c0-.94.19-1.82.58-2.62.38-.8.92-1.5,1.61-2.09.69-.59,1.53-1.05,2.51-1.38.98-.33,2.07-.49,3.28-.49,1.36,0,2.57.19,3.63.58,1.05.38,1.94.91,2.65,1.57.71.66,1.25,1.42,1.62,2.27.36.86.54,1.76.54,2.7v1.19h-4.35v-.79Z" style="fill: #ed1e4c;"/>
        <path d="M100.98,173.46h14.57v4.15h-10.22v5.27h9.82v4.15h-9.82v5.34h10.61v4.15h-14.96v-23.07Z" style="fill: #ed1e4c;"/>
        <path d="M131.67,194.36h.59v-20.9h4.35v23.07h-8.5l-2.7-20.9h-.59v20.9h-4.35v-23.07h8.5l2.7,20.9Z" style="fill: #ed1e4c;"/>
        <path d="M140.14,173.46h8.37c2.86,0,4.98.67,6.36,1.99,1.38,1.33,2.08,3.39,2.08,6.18v6.72c0,2.79-.69,4.85-2.08,6.18s-3.51,1.99-6.36,1.99h-8.37v-4.19h2.18v-14.73h-2.18v-4.15ZM148.51,192.38c1.52,0,2.58-.36,3.18-1.07.6-.71.91-1.83.91-3.35v-6.33c0-1.32-.3-2.32-.91-3-.6-.68-1.67-1.02-3.18-1.02h-1.85v14.77h1.85Z" style="fill: #ed1e4c;"/>
        <path d="M179.69,173.46h7.65l1.32,17.34v3.36h.79v-3.36l1.32-17.34h7.65v23.07h-3.96v-15.43l.4-5.27h-.79l-1.71,20.7h-6.53l-1.78-20.7h-.79l.4,5.27v15.43h-3.96v-23.07Z" style="fill: #ed1e4c;"/>
        <path d="M201.84,173.46h14.57v4.15h-10.22v5.27h9.82v4.15h-9.82v5.34h10.61v4.15h-14.96v-23.07Z" style="fill: #ed1e4c;"/>
        <path d="M253.49,191.59h-7.84l-1.12,4.94h-4.55l5.5-23.07h8.17l5.5,23.07h-4.55l-1.12-4.94ZM246.57,187.44h5.97l-2.67-11.8h-.59l-2.7,11.8Z" style="fill: #ed1e4c;"/>
        <path d="M282.73,173.46h14.77v4.15h-10.42v5.27h10.22v4.15h-10.22v9.49h-4.35v-23.07Z" style="fill: #ed1e4c;"/>
        <path d="M301.58,182.43c0-2.99.75-5.31,2.26-6.95,1.5-1.65,3.59-2.47,6.25-2.47s4.74.82,6.25,2.47c1.5,1.65,2.26,3.97,2.26,6.95v5.14c0,3.08-.75,5.42-2.26,7.02-1.51,1.6-3.59,2.41-6.25,2.41s-4.74-.8-6.25-2.41-2.26-3.94-2.26-7.02v-5.14ZM310.09,193.04c.79,0,1.45-.13,1.98-.38s.96-.61,1.29-1.07c.33-.46.56-1.01.69-1.65.13-.64.2-1.34.2-2.11v-5.67c0-.73-.08-1.41-.23-2.04-.15-.64-.4-1.19-.73-1.65s-.76-.83-1.29-1.1c-.53-.27-1.17-.41-1.91-.41s-1.38.14-1.91.41c-.53.28-.96.64-1.29,1.1s-.57,1.01-.73,1.65c-.15.64-.23,1.32-.23,2.04v5.67c0,.77.07,1.47.2,2.11.13.64.36,1.19.69,1.65.33.46.76.82,1.29,1.07s1.19.38,1.98.38Z" style="fill: #ed1e4c;"/>
        <path d="M338.07,196.54h-4.35v-6.92c0-.53-.14-.96-.41-1.29-.28-.33-.73-.49-1.37-.49h-5.01v8.7h-4.35v-23.07h8.83c1.19,0,2.23.17,3.13.49.9.33,1.65.79,2.26,1.37.6.58,1.06,1.26,1.38,2.03.32.77.48,1.59.48,2.47v.79c0,.95-.25,1.83-.76,2.65s-1.29,1.46-2.34,1.89v.59c.77.09,1.38.38,1.83.89.45.5.68,1.14.68,1.91v7.98ZM326.93,183.68h4.15c1.05,0,1.86-.25,2.41-.74.55-.49.82-1.19.82-2.09v-.4c0-.77-.27-1.43-.82-1.99-.55-.56-1.35-.84-2.41-.84h-4.15v6.07Z" style="fill: #ed1e4c;"/>
        <path d="M341.07,173.46h7.65l1.32,17.34v3.36h.79v-3.36l1.32-17.34h7.65v23.07h-3.96v-15.43l.4-5.27h-.79l-1.71,20.7h-6.53l-1.78-20.7h-.79l.4,5.27v15.43h-3.96v-23.07Z" style="fill: #ed1e4c;"/>
        <path d="M374.53,191.59h-7.84l-1.12,4.94h-4.55l5.5-23.07h8.17l5.5,23.07h-4.55l-1.12-4.94ZM367.6,187.44h5.97l-2.67-11.8h-.59l-2.7,11.8Z" style="fill: #ed1e4c;"/>
        <path d="M383.39,173.46h4.35v18.92h10.48v4.15h-14.83v-23.07Z" style="fill: #ed1e4c;"/>
        <path d="M423.74,173.46h14.57v4.15h-10.22v5.27h9.82v4.15h-9.82v5.34h10.61v4.15h-14.96v-23.07Z" style="fill: #ed1e4c;"/>
        <path d="M441.93,173.46h7.65l1.32,17.34v3.36h.79v-3.36l1.32-17.34h7.65v23.07h-3.96v-15.43l.4-5.27h-.79l-1.71,20.7h-6.53l-1.78-20.7h-.79l.4,5.27v15.43h-3.96v-23.07Z" style="fill: #ed1e4c;"/>
        <path d="M475.39,191.59h-7.84l-1.12,4.94h-4.55l5.5-23.07h8.17l5.5,23.07h-4.55l-1.12-4.94ZM468.46,187.44h5.97l-2.67-11.8h-.59l-2.7,11.8Z" style="fill: #ed1e4c;"/>
        <path d="M483.92,173.46h15.43v4.15h-5.54v14.77h5.54v4.15h-15.43v-4.15h5.54v-14.77h-5.54v-4.15Z" style="fill: #ed1e4c;"/>
        <path d="M504.43,173.46h4.35v18.92h10.48v4.15h-14.83v-23.07Z" style="fill: #ed1e4c;"/>
      </g>
      <line x1="284.64" y1="164.62" x2="396.43" y2="205.39" style="fill: none; stroke: #ed1e4c; stroke-linecap: round; stroke-miterlimit: 10; stroke-width: 4px;"/>
    </g>
  </g>
</svg>