<?xml version="1.0" encoding="UTF-8"?>
<svg id="Layer_2" data-name="Layer 2" xmlns="http://www.w3.org/2000/svg" viewBox="0 0 181.87 188.77">
  <g id="Layer_2-2" data-name="Layer 2">
    <path d="M180,32.96c.46-3.94,1.92-7.64,1.86-11.89-.25-6.39-4.41-11.87-10.3-13.92-4.52-1.6-9.34-1.21-14.09-1.03-3.56.1-7.09.61-10.57,1.37-5.84,1.18-12.15,1.78-17.53,4.26-1.73.62-3.47.73-4.9-.45-2.01-1.69-4.17-5.91-7.06-7.79-4.1-3.14-9.64-4.45-14.62-2.81-6.99,2.67-8.48,5.57-16.41,3.85-5.68-.89-11.44.25-17.11,2.1-1.84.6-3.72,1.16-5.63,1.38-4.81.69-9.67-1.09-14.63-.35-2.66.31-5.17,1.48-7.68,2.29-4.62,1.93-9.15-.37-13.82-.67-4.45-.21-8.67,1.75-12.77,3.04C.85,15.55-2.84,24.88,2.07,37.85c4.69,12.38,9.69,26.02,20.47,34.54,3.36,2.91,2.53,6.85,1.02,10.61-3.97,9.02-.22,17.81,7.96,23.18,2.09,1.49,4.67,2.69,6.8,3.99,2.16,1.32,2.75,2.68.1,3.94-4.33,1.77-9.25,3.55-12.43,7.28-5.16,5.6-5.33,12.02-3.67,18.94.61,3.49.13,6.92-.8,10.32-2.71,10.01-2.11,22.03,5.48,29.73,8.73,9.34,22.75,10.74,33.9,4.82,6.14-2.78,10.41-7.22,15.61-10.7,4.41-2.6,9.46-.18,14.19-.12,5.23.3,10.09-2.16,14.63-.19,3.2,1.4,5.74,4.37,8.67,6.4,2.99,2.24,6.27,4.27,9.77,5.7,11.02,4.67,24.87,2.84,32.49-6.74,5.03-6.11,6.84-14.8,5.9-22.51-.34-4.49-2.31-8.7-2.65-13.14-.23-3.19.67-6.41.97-9.61.87-10.96-7.41-16.28-16.48-20.03-2.56-1.36-2.36-2.6-.19-3.93,2.14-1.29,4.81-2.48,6.88-4.06,6.78-4.6,11.39-13.86,8.17-22-1.3-4.21-5.14-11.75,1.42-13.05,1.37-.32,3-.46,4.72-.89,5.75-1.28,11.07-5.92,11.73-12.01.48-3.18-.36-6.35-.11-9.18.18-3.56,1.93-6.81,2.66-10.26.37-1.95.44-3.88.69-5.77l.02-.17Z"/>
    <g>
      <path d="M29.71,61.5c-.74,0-1.44-.24-2.18-.76-.59-.4-.85-.84-1.1-1.27-.12-.21-.24-.4-.39-.6-.61-.91-1.06-1.62-1.51-2.33-.45-.71-.88-1.4-1.46-2.25l-.04-.06-.05-.05c-.1-.11-.2-.21-.27-.4l-.14-.35-.03-.05c-.19-.33-.33-.62-.47-.9-.14-.29-.29-.59-.49-.94-.81-1.53-1.7-3.23-2.59-5.15l-2.37-6.04c-.14-.35-.26-.63-.38-.91-.14-.32-.27-.61-.42-.98-.37-.77-.56-1.26-.85-2l-.83-2.12c-.22-.72-.44-1.39-.65-2.02-.43-1.28-.79-2.39-1.2-3.97v-.08c-.1-.55-.05-.96.18-1.5.14-.38.36-.57.53-.73.08-.07.15-.13.22-.21l.07-.08.2-.08.21-.05s.13-.02.22-.04c.21-.05.4-.09.62-.09.15,0,.3.02.46.06.9.27,1.4.57,2.03.95l.38.23c.23.12.32.26.38.37l.04.09.05.05.02.05c.19.4.31.7.42.99.12.3.21.53.33.81l.07.16.13.12c.12.11.2.23.25.36l.11.27c.06.14.1.29.14.44.05.18.09.31.14.44.33.84.51,1.31.81,2.22.13.34.23.63.33.92.1.29.19.57.33.91l.04.1c.2.51.38.9.56,1.29.21.45.4.86.61,1.39.37.77.56,1.26.85,2,.28.71.43,1.09.75,1.76l.02.06c.24.61.37.93.67,1.54l.89,2.26c.14.35.27.6.42.9l.19.37,1.6-.47v-.11c-.06-.62-.09-1.1-.12-1.58-.03-.47-.06-.93-.11-1.53-.01-.89-.05-1.43-.11-2.24l-.03-.34c-.05-.75-.09-1.37-.12-1.97-.05-.98-.1-1.83-.21-3.01-.07-.65-.15-1.1-.25-1.63-.06-.32-.12-.65-.18-1.05-.06-.4-.09-.74-.12-1.06-.04-.48-.09-.93-.22-1.54-.11-.55-.22-.99-.33-1.42-.15-.6-.3-1.19-.42-1.94-.07-.32-.15-.61-.22-.89-.26-.94-.48-1.74-.32-2.85.07-.73.44-1.24,1.05-1.48.16-.06.31-.11.55-.13.21-.02.38-.03.54-.03.95,0,1.71.28,2.66.63l.32.12c.59.26.84.57,1.08.87.12.15.23.28.37.42l.08.07.12.3.02.08c.16.73.31,1.4.46,2.03l.03.13c.31,1.32.58,2.46.85,4.11.39,2.01.53,3.25.73,5.12l.06.59c.14,1,.17,1.55.21,2.59.01.18.01.3,0,.42,0,.11,0,.17,0,.24v.11c.09,1.82.14,2.93.29,4.96.02.69.07,1.12.12,1.69l.05.49c.07.72.16,1.31.25,1.87.12.79.23,1.54.3,2.55l.04.43c.08.93.15,1.67.05,2.73l-.03.29c-.19,1.82-.31,3.03-.78,4.91-.17.57-.48.83-.93,1.08-.27.13-.5.25-.71.37-.39.21-.71.38-1.06.52-.43.17-.88.35-1.55.4-.09,0-.18.01-.27.01Z" style="fill: #f9f7f2;"/>
      <path d="M50.89,57.5c-.23,0-.47-.04-.77-.13-1.98-.62-3.39-1.46-4.63-2.2-.99-.58-1.78-1.33-2.34-2.23-.31-.45-.66-1.03-.8-1.79-.07-.41-.22-.8-.37-1.19-.13-.34-.27-.69-.35-1.06l-.03-.11-.05-.1c-.27-.51-.35-1.02-.38-1.35-.14-.85-.21-1.59-.28-2.38-.13-1.35-.19-2.7-.25-3.89-.06-.65-.06-1.27,0-1.88.05-.72.14-1.41.23-2.13l.12-1c.29-2.12.51-3.51.88-5.16.29-1.14.69-2.3,1.23-3.53.14-.32.29-.64.45-.95.19-.38.34-.69.48-1,.18-.3.33-.54.5-.76,1.14-1.65,2.22-2.96,3.95-4.22.23-.19.48-.29.74-.31.07,0,.13,0,.19,0,.19,0,.36.02.5.04.14.02.29.04.38.04h.1s.25-.03.25-.03l.27-.07c.61-.15,1.18-.3,1.71-.35.15-.01.31-.02.46-.02.98,0,1.89.32,2.93,1.05.89.59,1.37,1.33,1.84,2.04.1.15.21.31.31.47.22.3.46.6.69.9.39.5.76.97,1.09,1.48.51.67.88,1.32,1.18,1.88l.02.04.03.04c.22.32.38.64.5.91.06.15.13.27.2.39.18.31.34.59.42.93.07.31.16.61.26.9.17.55.34,1.08.39,1.67.05.54.11,1.05.17,1.55v.11c.08.56.15,1.11.2,1.69.05.58.11,1.18.12,1.9.04,1.1.04,1.76-.1,2.82-.08.53-.13.98-.18,1.4-.15,1.31-.27,2.31-.87,4.17l-.04.14v.14c0,.27-.01.54-.03.81v.07s-.03.08-.03.08c-.14.43-.34.88-.54,1.31-.08.22-.19.5-.37.79-.39.59-.7,1.16-1.03,1.76-.54.99-1.09,1.99-1.95,3.06-.63.83-1.2,1.21-2.25,1.83-.39.24-.73.31-1.02.37-.21.04-.38.08-.58.16-.26.08-.45.16-.63.23-.22.09-.43.17-.69.25l-.18.05c-.21.07-.4.13-.67.15-.19.02-.36.06-.52.1-.27.07-.47.11-.69.13-.06,0-.12,0-.18,0ZM50.77,26.35c-.41.7-.79,1.44-1.16,2.28-.74,1.64-1.12,2.97-1.24,4.29l-.03.45c-.03.54-.06,1.05-.19,1.72-.07.48-.16.84-.24,1.21-.09.38-.17.72-.23,1.15-.06.41-.07.77-.08,1.11,0,.36-.01.75-.08,1.17v.09s0,.09,0,.09c.07,1.34.16,2.86.3,4.42.09.95.17,1.84.31,2.75v.09c.02.13.03.23.05.32l.02.09.04.09c.21.46.31.85.41,1.22.16.63.3,1.17.76,1.67.39.39.77.56,1.27.56.08,0,.17,0,.26-.01l.51-.05.23-.33.13-.2c.11-.17.2-.32.31-.47.35-.46.59-.89.82-1.31.17-.31.34-.61.54-.9.35-.57.63-1.25.91-1.9l.17-.41c.21-.53.35-1.02.53-1.65l.17-.58c.17-.5.31-.87.45-1.24.14-.36.28-.71.43-1.19.1-.26.13-.34.16-.52l.03-.31c.08-.72.13-1.19.15-1.99l.02-.34c.02-.2.03-.35,0-.6-.01-.38,0-.68,0-.96,0-.47.01-.84-.03-1.26l-.04-.41c-.16-1.07-.27-1.66-.63-2.62-.31-.81-.63-1.35-1-1.97l-.25-.42c-.36-.71-.83-1.56-1.48-2.21-.26-.24-.5-.52-.7-.76l-.24-.28-.77-.89-.6,1.01Z" style="fill: #f9f7f2;"/>
      <path d="M79.91,63.73c-.11,0-.24-.01-.38-.01-.27,0-.48-.01-.58-.02l-.32-.04c-.98-.12-1.05-.15-1.89-.6-.85-.46-1.05-1.06-1.27-1.7-.06-.16-.12-.35-.2-.54-.22-.46-.33-.96-.41-1.36l-.11-.51c-.03-.12-2.58-12.82-2.58-12.82l-.02-.05c-.17-.49-.25-.86-.34-1.24-.07-.3-.13-.55-.21-.85-.17-.6-.88-4.21-1.3-6.37,0,0-.29-1.47-.31-1.59-.44-1.81-.82-3.6-1.18-5.34-.1-.46-.2-.94-.24-1.44-.08-.65-.2-1.23-.35-1.91-.14-.66-.28-1.32-.46-1.91l-.02-.08c-.01-.07-.04-.18-.08-.29-.08-.25-.13-.44-.17-.63-.1-.47-.32-1.81-.37-2.36v-.1s.02-.1.02-.1c.11-.32.19-.52.27-.71.25-.52,1.19-.89,4.3-1.94,1.39-.47,2.31-.79,2.67-.98.38-.18.64-.26.94-.36l.35-.11c.83-.24,1.42-.36,2.1-.51l.85-.18c.28-.06.5-.07.76-.08l.29-.02c.4-.03.73-.04,1.06-.06.45-.02.8-.04,1.26-.07.11-.01.19-.02.28-.02h0c.14,0,.24-.03.4-.09.12-.04.25-.09.39-.11.19-.04.38-.06.59-.06.16,0,.33.01.51.03,1.38.31,2.29.55,3.58,1.39,1.29.9,2.36,2.35,2.7,3.68l.03.14c.26,1.23-.3,2.15-.84,3.04l-.14.23c-.62,1-1.67,2.01-2.61,2.87l-1.09,1.01,1.42.43c.98.3,4.22,1.28,4.92,1.36,1.44.15,2.18.59,2.35,1.4.02.08.04.18.08.29.07.25.14.47.18.67.11.53.08.98-.08,1.35-.32.82-1.38,2.3-2.44,2.53-.17.04-.34.05-.51.05-.21,0-.44-.03-.7-.08-.59-.14-1.25-.38-1.96-.62-.95-.33-1.92-.67-2.65-.78-.52-.07-.95-.1-1.49-.1h-.18c-1.1,0-5.35-1.04-7.19-1.7l-1.38-.49.26,1.44.27,1.38c.72,3.74,1.09,5.56,1.19,5.9l.03.11c.08.4.12.58.3.96.53,1.17,1.71,7.05,2.76,12.23l.03.12c.54,2.65,1,4.94,1.2,5.71l.02.09c.08.38.19.92-.14,1.44-.25.38-.64.54-.95.68l-.26.11-.04.03c-.27.16-.56.24-.76.29l-.07.02h-.07Z" style="fill: #f9f7f2;"/>
      <path d="M101.14,61.82c-.18,0-.4-.02-.62-.09l-.3-.08c-.83-.22-1.48-.4-2.32-1.25-.5-.47-.67-1.37-.76-1.91v-.05s.01-.49.01-.49l.07-.36c.04-.21.07-.36.08-.6v-.04s.01-.04.01-.04c.18-.81.26-1.33.38-2.1l.76-8.94c.11-.5.14-.76.18-1.11l.05-.44c.15-.92.23-1.43.32-2.36.08-.57.1-1.03.12-1.48.02-.48.04-.96.12-1.56.08-.46.17-.81.26-1.15.09-.36.17-.67.24-1.06.07-.36.08-.51.09-.92l.04-.96c.07-.4.08-.52.1-.94.05-.34.09-.59.13-.82l.02-.12c.1-.54.18-1.01.24-1.65v-.05s.02-.05.02-.05c.05-.17.06-.31.06-.52v-.04s.01-.04.01-.04c.18-.82.26-1.34.38-2.12l.07-.43c.06-.21.06-.29.07-.49v-.08c.06-.41.1-.8.13-1.17v-.15c.09-.77.16-1.44.31-2.32l.24-1.14c.33-1.54.73-3.43.93-5.03.06-.27.07-.36.08-.71.05-.29.06-.5.08-.69.04-.53.07-1.01.43-1.57l.11-.16c.71-.99,1.28-1.77,2.57-2.16.23-.07.43-.14.59-.2.41-.14.68-.23.98-.23.36.01.65.14,1.05.31l.43.18c1.29.56,1.89,1.38,2.52,2.26.18.25.36.5.57.77.31.36.38.71.43.99.02.1.03.17.05.24l.02.06.03.06c.77,1.64,1.23,3.2,1.76,5l.43,1.45c.41,1.15.62,1.81.87,3.06.26.98.37,1.65.5,2.43l.08.5c.2.79.31,1.21.46,1.99.33,1.34.55,2.41.78,3.53l.16.75c.17.73.32,1.45.47,2.18.15.76.29,1.45.46,2.16.13.71.22,1.31.34,2.11l.04.27.15.75c.16.78.39,2.09.52,2.98v.05s.02.05.02.05c.06.21.06.39.06.55,0,.08,0,.16.01.23.04.19.07.32.11.46l.03.11c.1.38.18.73.21,1.22.02.21.03.35.04.48,0,.17.02.26.03.35v.07s-.02.94-.02.94v.07c.04.3.03.57.03.74v.07c-.12.88-.57,1.36-1.26,1.85-.37.31-.75.44-1.21.44h-.44c-.22-.02-.37-.05-.49-.07h-.06s-.39-.01-.39-.01c-.15,0-.23-.02-.31-.06-.16-.06-.26-.12-.34-.19l-.11-.1-.14-.05c-.33-.13-.51-.41-.63-.59l-.07-.1c-.65-1.03-.87-1.4-1.18-2.39-.2-.48-.22-.82-.24-1.16-.01-.24-.03-.43-.08-.64v-.03s-.01-.03-.01-.03c-.04-.45-.2-1.38-.29-1.82l-.39-2.2c-.06-.48-.12-.89-.19-1.28-.09-.58-.18-1.11-.23-1.69v-.12s-.15-.74-.15-.74l-.75.04c-.28.01-.59.03-.91.04-1.39.06-2.85.12-3.61.29l-.52.12-.12.52c-.07.3-.12.62-.19.99l-.1.54c-.03.2-.04.39-.05.58-.01.28-.02.51-.06.79l-.09.93c-.56,6.12-.9,9.44-1,9.89l-.04.19c-.02.17-.04.24-.06.29l-.03.1-.04.89c0,.1,0,.19,0,.27,0,.23,0,.42-.03.65v.05s-.01.06-.01.06c-.02.48-.04.8-.18,1.29-.44,1.78-1.54,2.87-2.86,2.87h-.1Z" style="fill: #f9f7f2;"/>
      <path d="M139.06,59.25c-.07,0-.14,0-.2-.02-.26-.04-.47-.16-.66-.26-.19-.1-.29-.15-.4-.18-.42-.13-.63-.16-1.08-.24-.14-.02-.27-.04-.39-.05-.15-.01-.28-.03-.41-.05-.27-.05-.49-.12-.72-.24-.61-.34-.98-.66-1.36-.99-.24-.21-.48-.41-.78-.64,0,0-1.14-.89-1.27-.99-.21-.17-.39-.29-.56-.4-.32-.2-.61-.39-.91-.72-1.35-1.43-2.06-2.4-3.15-3.87l-.3-.41c-.15-.21-.19-.39-.21-.52v-.06s-.04-.06-.04-.06c-.12-.31-.22-.55-.31-.79-.12-.3-.23-.56-.36-.89-.35-.95-.5-1.46-.7-2.37l-.04-.15c-.15-.64-.25-1.09-.36-1.77-.05-.48-.04-.8-.03-1.13,0-.2.01-.38,0-.6-.01-.44.02-.77.05-1.14l.04-.47c0-.21.02-.37.03-.53.01-.18.03-.32.03-.51,0-.27.05-.48.1-.68.03-.12.05-.2.06-.3.07-.4.1-.6.24-1.03.16-.41.26-.72.35-1.02.1-.33.21-.67.37-1.07.21-.63.39-1.07.62-1.63l.48-1.17c.47-1.14.84-2.03,1.53-3.31.45-.85.85-1.33,1.35-1.95l.32-.39c.38-.48.66-.76.99-1.09l.27-.27.38-.36c.52-.49.94-.88,1.56-1.29.61-.38,1.27-.75,1.92-1.11.61-.31,1.24-.59,1.65-.76.46-.17.89-.33,1.21-.45l.07-.03s.2-.01.26-.01c.22,0,.38.03.51.05.46.08.8.23,1.11.49.15.14.33.27.52.41.59.42,1.13.8,1.35,1.3l.04.09v.24c0,.3,0,.59-.06.93-.02.13-.06.28-.1.42-.04.15-.07.24-.08.32v.09s-.06.08-.06.08c-.31.53-.73.87-1.13,1.16l-.07.04c-.38.22-.75.44-1.12.7-1.4.81-2.64,1.94-3.73,3.38-.23.31-.44.69-.63,1.02l-.16.27c-.91,1.65-1.31,2.67-1.77,3.86-.23.58-.46,1.18-.78,1.91l-.14.29-.03.15-.03.08c-.21.51-.32.83-.46,1.32l-.06.16c-.04.1-.06.16-.08.22l-.04.13v.24c-.02.76-.04,1.21.04,2.05.01.2.02.37.03.53.03.72.06,1.21.29,1.9.21.85.46,1.32.94,2.07.22.45.44.68.79,1,.69.69,1.12,1.04,1.98,1.67.37.27.67.44,1.05.65l.41.23c.54.33.8.49,1.39.82.83.51,1.36,1.08,1.97,1.73l.41.44c.5.54.69.76,1.06,1.53l.03.07c.04.12.08.22.12.32.08.21.17.41.21.69v.04s0,.19,0,.19c.01.32.02.71-.26,1.1-.75.82-1.82,1.23-2.77,1.52-.12.04-.24.05-.36.05Z" style="fill: #f9f7f2;"/>
      <path d="M156.59,59.12c-.78,0-1.82-.04-2.96-.31-.25-.06-.52-.11-.81-.16-.92-.17-2.01-.37-3.22-.87-.39-.13-.7-.57-.9-.86-.07-.1-.11-.16-.16-.22-.44-.51-.63-.84-.82-1.39-.31-.77-.44-1.41-.44-2.11.06-.85.18-1.5.36-2.47.04-.23.07-.43.09-.61.04-.33.09-.66.2-1.11.09-.48.18-.78.28-1.1.06-.19.11-.35.16-.53l.02-.09v-.1c0-.09.02-.18.05-.3l.02-.06v-.06c.1-.69.19-1.17.31-1.75l.11-.55c.07-.48.15-.93.22-1.35.17-.96.31-1.77.31-2.69,0-.05,0-.09,0-.14l.06-.68-.65-.21c-.19-.06-.47-.09-1.56-.16-.75-.05-2.14-.15-2.43-.24l-.08-.06c-.24-.13-.51-.28-.67-.64-.32-.65-.38-1.11-.45-1.65l-.05-.37v-.05c-.06-.19-.07-.33-.07-.47,0-.14,0-.28.05-.45.06-.37.27-.6.57-.7.35-.08,1.71-.13,4.1-.15h.49c.5-.02.86-.03,1.2-.12l.47-.12.13-.47c.16-.56.26-1.08.39-1.8l.03-.14c.17-.89.23-1.34.34-2.22v-.05s0-.32,0-.32c0-.83.04-1.53.07-2.18.03-.59.06-1.12.06-1.66v-.71s-.36-.32-.36-.32c-.17-.14-.36-.31-.53-.54-.26-.36-.39-.64-.55-.96l-.13-.27c-.08-.17-.15-.29-.21-.41-.07-.13-.13-.24-.2-.38l-.04-.08-.06-.07c-.12-.14-.17-.29-.17-.45v-.12l.05-.17c.02-.05.06-.17.1-.29.21-.61.44-1.14,1.13-1.33,1.2-.3,1.95-.36,2.75-.36.4,0,.77.01,1.19.03.59.02,1.28.04,2.18.04h.23c.7,0,1.37-.02,1.98-.25.25-.08.46-.09.68-.09h2.96c.38.01.71,0,1.06-.04.53-.05.89-.08,1.16-.11.45-.04.68-.07.97-.07h.73c.72.07,1.41.35,1.79.73.56.56.81.88,1.12,1.55.33.61.47.98.46,1.64,0,.35-.24.64-.64.79-.3.12-.54.14-.74.15-.1,0-.17.01-.23.02l-.28.04-.22.22-.06.06c-.14.14-.36.36-.75.46-1.11.35-1.74.41-2.46.41-.28,0-.54-.01-.83-.02-.48-.02-.99-.04-1.65-.04h0c-.34,0-.63.03-.99.08-.26.03-.5.06-.78.09-.25.02-.47.03-.67.03-.31,0-.53.02-.78.05l-.73.1v2.36c-.04.73-.06,1.43-.07,2.12v.21c-.02.65-.04,1.3-.07,1.94,0,.49-.05.93-.15,1.33l-.25,1.01,1.04.05c.72.03,1.26.03,2,.04,0,0,.2,0,.21,0,.57,0,.96-.01,1.35-.02.4-.01.79-.02,1.24-.02h.77c.72,0,1.12.08,1.76.26.32.08.51.19.73.42l.03.03.02.03c.34.48.47.84.59,1.33.07.36.07.68.07.93,0,.24,0,.57-.07.91-.14.43-.4.56-.67.65-.57.17-.97.26-1.38.34l-.57.12-.4.13c-.43.15-.78.28-1.22.28h0c-.49,0-.95.08-1.41.26l-.04.02h-.05c-.35.07-.65.07-.95.07h-.41c-.35,0-.64-.02-.92-.04-.24-.01-.47-.03-.71-.03h-.11c-.25,0-.5,0-.78.07-.23.03-.57.17-.76.65l-.11.28v.09c-.12.69-.24,1.31-.4,2.17-.02.13-.02.22-.02.31,0,.13,0,.28-.03.47-.06.54-.12.9-.23,1.38-.02.12-.04.19-.07.26l-.06.13-.04.53c-.03.47-.06.87-.15,1.49-.06.79-.13,1.21-.31,1.96-.11.57-.29.96-.46,1.3-.13.28-.24.51-.3.81l-.21,1.02h1.25c.68,0,1.25-.04,1.81-.09.65-.06,1.29-.12,2.09-.12h1.08s.24.04.24.04c.65.1,1.12.17,1.84.4l.07.02.06.04c.23.15.38.31.54.54.14.28.25.41.41.61l.18.23c.19.3.36.9.54,1.6l.1.41v.08c.06.24.11.49.11.78,0,.49-.18.9-.55,1.27l-.06.05c-.66.55-1.31.57-2,.58-.16,0-.31,0-.46.02-.58.03-1.13.07-1.66.11h-.15c-1.11.09-2.15.17-3.16.17h-.07Z" style="fill: #f9f7f2;"/>
    </g>
    <path d="M135.85,175.09c-.44,0-.88-.02-1.32-.07-7.72-.49-13.21-5.35-19.03-10.49l-.67-.59c-1.02-.85-1.98-1.77-2.91-2.66-1.58-1.52-3.21-3.09-5.12-4.29-.71-.37-1.41-.55-2.13-.55-1.41,0-2.74.65-3.85,1.29-2.69,1.64-5.82,3.39-9.17,3.51-3.05,0-5.9-1.44-8.52-2.98-1.75-1.18-3.33-1.76-4.8-1.76s-2.87.62-4.04,1.85c-1.39,1.21-2.85,2.56-4.26,3.87-5.09,4.73-10.35,9.61-16.81,11.84-1.82.62-3.71.94-5.6.94-6.48,0-13.63-3.95-14.02-12.62-.49-5.51.82-11.15,4.24-18.33,1.89-3.67.88-5.47-2.11-8.13-1.52-1.55-2.61-4.4-1.63-6.24,1.11-1.93,3.58-2.65,5.96-3.34.48-.14.95-.28,1.4-.42.53-.16,1.09-.33,1.65-.49,3.25-.96,6.61-1.95,9.13-3.89l.56-.51c2.4-2.17,5.39-4.87,5.85-8.24v-.06s0-.06,0-.06c.02-4.12-2.83-8.6-6.47-10.18-1.01-.51-2.1-1.04-3.18-1.56-.68-.33-1.35-.66-2.02-.98-1.13-.64-2.45-1.22-3.86-1.83-3.79-1.65-7.71-3.36-8.69-6.86-.2-1.21.19-2.62,1.11-3.87,1.06-1.45,2.64-2.44,4.22-2.67.35-.05.7-.08,1.04-.08,3.07,0,5.83,2,8.49,3.94.38.27.75.54,1.12.81,1.44,1.15,3.08,2.24,4.66,3.29,3.04,2.02,6.18,4.11,8.26,6.91.31.41.58.9.88,1.42.6,1.07,1.21,2.18,2.26,2.85.42.25.86.37,1.32.37,1.77,0,3.52-1.77,3.52-3.57.14-1.74-1.42-3.4-2.9-4.82-3.96-3.43-5.65-6.23-3.36-11.28,1.49-3.14,1.95-5.76-.39-9.05-.54-.98-1.22-2.04-1.94-3.15-1.8-2.8-3.85-5.98-3.71-8.13.22-2.95,3.57-5.01,6.44-5.01.2,0,.41.01.6.03,2.26.28,3.65,2.94,4.88,5.29l.36.68c.55.9,1.1,1.92,1.7,3.01,1.43,2.62,3.05,5.6,4.71,7.18l.07.06.08.05c.74.45,1.49.68,2.24.68,2.07,0,3.68-1.72,5.1-3.23.79-.85,1.54-1.64,2.27-2.08,1.15-.72,2.62-1.12,4.15-1.12s2.91.39,3.96,1.1c.74.49,1.41,1.24,2.11,2.04,1.33,1.5,2.83,3.21,5.15,3.21.19,0,.38-.01.58-.04,2.32-.27,3.79-2.8,4.97-4.82.19-.33.37-.64.55-.93.76-1.09,1.47-2.47,2.23-3.92,1.52-2.92,3.09-5.93,5.14-6.84.35-.13.79-.2,1.27-.2,2.68,0,6.1,2.29,6.33,5.15.07,2.14-.74,3.36-1.96,5.21-.49.74-1.04,1.57-1.6,2.57-.2.33-.43.7-.67,1.07-.77,1.22-1.56,2.47-2.12,3.77-1.41,2.69-.53,5.32.33,7.85.75,2.22,1.46,4.32.54,6.38l-.03.06-.02.06c-.32,1.15-1.78,2.48-3.19,3.76-2.24,2.04-4.56,4.14-3.77,6.65.56,1.45,2.13,2.51,3.67,2.51.67,0,1.29-.2,1.8-.58,1.01-.74,1.66-1.85,2.28-2.92.32-.55.62-1.06.96-1.5,2.13-2.84,5.3-4.97,8.36-7.03,1.37-.92,2.78-1.87,4.09-2.88,3.92-3.1,7.03-4.6,9.54-4.6s4.24,1.48,5.53,4.51c1.68,4.23-4.49,7.22-5.2,7.54-1.77.92-3.61,1.76-5.38,2.57-2.66,1.22-5.42,2.49-7.95,3.99-2.67,1.76-4.63,5.13-5.01,8.61-.25,3.04,2.01,5.31,3.82,7.14l.12.12c2.22,2.27,4.97,3.93,8.67,5.22,1.25.59,2.75,1.01,4.21,1.41,2.96.82,5.76,1.59,7.22,4.02.81,1.54.39,3.83-1.01,5.27-.36.42-.79.77-1.25,1.13-.96.76-2.05,1.61-2.31,3.1-.24,1.37.58,3.01,1.46,4.75.28.55.56,1.11.81,1.66,1.44,3.08,2.44,6.1,3,9l.04.18c.79,4.25,1.12,10.21-1.89,14.4-2.49,3.46-6.75,5.62-11.12,5.62h0Z" style="fill: #f9f7f2;"/>
  </g>
</svg>