<?xml version="1.0" encoding="UTF-8"?>
<svg id="Layer_2" data-name="Layer 2" xmlns="http://www.w3.org/2000/svg" viewBox="0 0 196.68 227.96">
  <g id="Layer_2-2" data-name="Layer 2">
    <path d="M1.57,9.11l9.96,52.06c.57,2.98,3.18,5.14,6.21,5.14h21.76c2.35.01,4.51,1.31,5.6,3.39l.76,1.45c2.35,4.47-1.23,9.76-6.25,9.24l-23.93-2.47c-2.5-.26-4.91.98-6.15,3.16l-5.41,9.5c-1.32,2.32-1.04,5.22.69,7.25l7.1,8.27c.47.54,1.02,1,1.64,1.36l16.54,9.54c2.57,1.48,3.77,4.55,2.87,7.38l-2.12,6.74c-.5,1.59-1.61,2.92-3.08,3.69l-22.47,11.88c-2.9,1.53-4.15,5.02-2.88,8.05l5.41,12.87c.53,1.27.64,2.67.3,4L.19,203.03c-.49,1.93-.04,3.97,1.21,5.52l13.74,17.05c1.36,1.68,3.48,2.56,5.63,2.32l28.7-3.19c1.28-.14,2.49-.67,3.46-1.52l18.17-15.82c1.06-.92,2.39-1.46,3.79-1.54l43.31-2.5c1.66-.1,3.3.47,4.55,1.57l24.09,21.21c1.16,1.02,2.64,1.58,4.18,1.58h27.92c2.21,0,4.25-1.15,5.4-3.03l11.41-18.71c.96-1.57,1.18-3.47.63-5.22l-9.6-30.07c-.53-1.66-.35-3.47.49-4.99l5.78-10.44c1.76-3.18.49-7.18-2.78-8.76l-28.25-13.67c-2.74-1.33-4.15-4.41-3.35-7.35l.39-1.45c.41-1.53,1.39-2.85,2.73-3.69l27.44-17.35c2.75-1.74,3.73-5.28,2.28-8.18l-7.35-14.67c-.97-1.93-2.86-3.24-5.01-3.46l-8.14-.84c-1.14-.12-2.3.08-3.34.57l-8.56,4.03c-4.46,2.1-9.5-1.48-8.99-6.38h0c.3-2.88,2.51-5.18,5.37-5.6l31.8-4.67c3.06-.45,5.35-3.05,5.41-6.14l.95-51.17c.07-3.56-2.82-6.48-6.38-6.45L7.73,1.59c-3.95.03-6.9,3.64-6.16,7.52Z"/>
  </g>
</svg>