<?xml version="1.0" encoding="UTF-8"?>
<svg id="Layer_2" data-name="Layer 2" xmlns="http://www.w3.org/2000/svg" viewBox="0 0 181.87 188.77">
  <g id="Layer_2-2" data-name="Layer 2">
    <path d="M180,32.96c.46-3.94,1.92-7.64,1.86-11.89-.25-6.39-4.41-11.87-10.3-13.92-4.52-1.6-9.34-1.21-14.09-1.03-3.56.1-7.09.61-10.57,1.37-5.84,1.18-12.15,1.78-17.53,4.26-1.73.62-3.47.73-4.9-.45-2.01-1.69-4.17-5.91-7.06-7.79-4.1-3.14-9.64-4.45-14.62-2.81-6.99,2.67-8.48,5.57-16.41,3.85-5.68-.89-11.44.25-17.11,2.1-1.84.6-3.72,1.16-5.63,1.38-4.81.69-9.67-1.09-14.63-.35-2.66.31-5.17,1.48-7.68,2.29-4.62,1.93-9.15-.37-13.82-.67-4.45-.21-8.67,1.75-12.77,3.04C.85,15.55-2.84,24.88,2.07,37.85c4.69,12.38,9.69,26.02,20.47,34.54,3.36,2.91,2.53,6.85,1.02,10.61-3.97,9.02-.22,17.81,7.96,23.18,2.09,1.49,4.67,2.69,6.8,3.99,2.16,1.32,2.75,2.68.1,3.94-4.33,1.77-9.25,3.55-12.43,7.28-5.16,5.6-5.33,12.02-3.67,18.94.61,3.49.13,6.92-.8,10.32-2.71,10.01-2.11,22.03,5.48,29.73,8.73,9.34,22.75,10.74,33.9,4.82,6.14-2.78,10.41-7.22,15.61-10.7,4.41-2.6,9.46-.18,14.19-.12,5.23.3,10.09-2.16,14.63-.19,3.2,1.4,5.74,4.37,8.67,6.4,2.99,2.24,6.27,4.27,9.77,5.7,11.02,4.67,24.87,2.84,32.49-6.74,5.03-6.11,6.84-14.8,5.9-22.51-.34-4.49-2.31-8.7-2.65-13.14-.23-3.19.67-6.41.97-9.61.87-10.96-7.41-16.28-16.48-20.03-2.56-1.36-2.36-2.6-.19-3.93,2.14-1.29,4.81-2.48,6.88-4.06,6.78-4.6,11.39-13.86,8.17-22-1.3-4.21-5.14-11.75,1.42-13.05,1.37-.32,3-.46,4.72-.89,5.75-1.28,11.07-5.92,11.73-12.01.48-3.18-.36-6.35-.11-9.18.18-3.56,1.93-6.81,2.66-10.26.37-1.95.44-3.88.69-5.77l.02-.17Z" style="fill: #ee204c;"/>
    <g>
      <g>
        <path d="M31.84,61.88c-.47.18-.99.39-1.79.46-1.06.08-2.01-.21-3-.9-.74-.5-1.08-1.07-1.35-1.54-.1-.16-.19-.34-.33-.52-.65-.96-1.11-1.68-1.56-2.4-.43-.69-.87-1.37-1.43-2.22-.13-.14-.31-.34-.44-.67l-.12-.29c-.19-.35-.34-.64-.49-.94-.14-.28-.28-.56-.47-.89-.84-1.58-1.73-3.29-2.62-5.21l-2.39-6.09c-.14-.36-.26-.63-.39-.91-.13-.3-.27-.6-.42-.98-.36-.76-.56-1.27-.86-2.03l-.82-2.09c-.24-.77-.46-1.43-.67-2.06-.43-1.3-.8-2.43-1.22-4.03l-.03-.13c-.12-.74-.05-1.32.24-2,.19-.55.54-.85.76-1.04.04-.04.09-.08.14-.13l.21-.23.44-.17.27-.06c.1-.01.19-.03.27-.05.32-.07.79-.18,1.44-.02,1.04.31,1.61.65,2.27,1.05l.37.22c.42.22.61.56.7.72l.05.06.07.15c.2.43.33.75.46,1.07.09.23.18.46.31.74.15.14.34.36.47.68l.11.27c.07.17.12.34.17.52.03.12.07.24.12.36.34.86.53,1.34.82,2.27.12.3.22.6.33.91.09.27.18.54.31.87l.04.11c.2.51.38.9.56,1.28.2.42.39.84.61,1.39.36.76.56,1.26.86,2.03.27.69.41,1.04.71,1.67l.04.09c.25.63.36.92.65,1.5l.04.1.87,2.22c.14.35.26.59.42.89l.16.3s0-.08-.01-.12c-.05-.64-.08-1.12-.11-1.61-.03-.46-.06-.92-.11-1.51-.02-.94-.06-1.48-.11-2.3l-.02-.29c-.05-.75-.09-1.39-.12-1.99-.05-.97-.1-1.81-.21-2.97-.06-.62-.15-1.06-.24-1.56-.06-.32-.12-.66-.19-1.07-.06-.43-.1-.78-.13-1.11-.04-.47-.08-.88-.2-1.44-.11-.54-.22-.97-.32-1.39-.15-.6-.31-1.22-.43-2.02-.06-.28-.15-.59-.23-.89-.24-.89-.5-1.82-.31-3.1.09-1,.65-1.79,1.58-2.15.2-.08.45-.17.82-.18,1.4-.14,2.39.23,3.54.65l.31.12c.83.36,1.19.81,1.46,1.14.08.1.17.22.29.34l.21.2.19.48.04.16c.18.83.34,1.53.5,2.19.31,1.33.58,2.49.86,4.17.4,2.04.54,3.31.75,5.22l.06.54c.14.99.18,1.58.22,2.65.02.17.02.32,0,.48,0,.04,0,.09,0,.13v.11c.09,1.89.15,3,.29,4.98.02.72.07,1.14.12,1.7l.05.45c.07.7.16,1.28.24,1.83.12.81.24,1.58.3,2.63l.04.41c.08.98.15,1.75.05,2.88l-.03.3c-.19,1.86-.32,3.09-.8,5.03-.29.94-.84,1.34-1.35,1.62-.31.15-.54.28-.76.39-.37.2-.72.39-1.11.54Z" style="fill: #f7b1bd;"/>
        <path d="M51.14,58.34c-.4.04-.79-.01-1.27-.15-2.09-.66-3.54-1.52-4.83-2.28-1.11-.64-1.99-1.49-2.63-2.52-.34-.5-.74-1.17-.91-2.09-.05-.34-.19-.68-.32-1.04-.14-.35-.29-.75-.38-1.18-.33-.63-.43-1.23-.48-1.66-.14-.84-.21-1.6-.28-2.42-.12-1.32-.19-2.63-.25-3.9-.06-.65-.06-1.33.01-2.01.05-.71.14-1.41.23-2.15.04-.32.08-.65.12-1,.3-2.17.52-3.57.89-5.24.3-1.22.72-2.42,1.28-3.69.15-.35.32-.69.49-1.03.15-.3.3-.6.43-.91l.04-.09.05-.08c.17-.27.33-.54.53-.79,1.15-1.67,2.29-3.05,4.11-4.37.31-.26.72-.43,1.16-.47.35-.03.65,0,.89.04.11.01.23.03.29.03l.19-.02.21-.05c.64-.16,1.24-.32,1.84-.37,1.4-.13,2.6.23,3.95,1.17,1.02.68,1.58,1.52,2.07,2.27.1.15.2.3.3.45.2.27.43.57.66.86.38.49.77.99,1.13,1.53.5.66.88,1.32,1.22,1.95.26.38.44.74.58,1.06.06.15.12.25.18.35.17.29.38.66.48,1.13.07.28.16.57.24.85.17.54.36,1.15.42,1.83.05.57.12,1.11.18,1.64.07.56.13,1.12.19,1.71s.11,1.21.12,1.97c.04,1.12.04,1.82-.1,2.94-.08.55-.13,1-.18,1.41-.15,1.32-.27,2.37-.91,4.31,0,.3-.02.6-.04.89v.16s-.06.17-.06.17c-.16.49-.37.96-.58,1.42-.08.2-.21.53-.42.88-.39.6-.7,1.16-1.02,1.75-.55,1-1.11,2.03-2.02,3.16-.74.97-1.43,1.41-2.48,2.03-.5.31-.96.41-1.29.47-.14.03-.28.05-.45.12-.28.09-.46.16-.63.23-.22.09-.44.17-.72.26l-.19.06c-.22.07-.47.15-.84.19-.17.02-.31.05-.45.09-.25.06-.49.12-.76.14ZM49.04,47.41c.21.46.32.9.42,1.29.16.61.26.97.55,1.29.24.24.44.31.84.28h.11c.04-.07.09-.15.13-.21.1-.16.2-.33.33-.5.33-.43.54-.81.77-1.22.18-.33.36-.65.57-.96.3-.5.58-1.16.85-1.8l.15-.36c.19-.49.33-.98.51-1.61l.16-.53c.18-.55.33-.93.48-1.32.13-.34.27-.69.42-1.15.11-.29.11-.3.13-.38l.03-.26c.08-.7.12-1.17.15-1.94l.02-.37c.01-.15.02-.27,0-.47-.01-.46-.01-.78,0-1.08,0-.41.01-.76-.02-1.14l-.04-.41c-.15-.98-.24-1.5-.58-2.39-.28-.73-.57-1.22-.94-1.83l-.25-.42c-.38-.74-.81-1.5-1.35-2.04-.27-.24-.52-.54-.75-.81-.08-.1-.16-.19-.23-.27-.39.66-.76,1.38-1.11,2.18-.7,1.57-1.06,2.81-1.17,4.03l-.03.42c-.03.54-.07,1.1-.2,1.83-.07.47-.16.86-.25,1.25-.08.33-.15.66-.22,1.09-.06.38-.06.71-.07,1.05,0,.37-.02.77-.09,1.24.08,1.42.16,2.88.3,4.39.09.93.17,1.81.31,2.69.02.17.02.27.04.36l.04.09Z" style="fill: #f7b1bd;"/>
        <path d="M80.02,64.59l-.21-.02c-.08,0-.22,0-.36-.01-.25,0-.49-.01-.61-.03l-.32-.04c-1.08-.14-1.25-.19-2.18-.69-1.14-.62-1.44-1.48-1.67-2.17-.05-.15-.11-.32-.18-.5-.24-.49-.36-1.06-.46-1.51l-.11-.51c-.03-.14-2.46-12.25-2.57-12.78-.18-.53-.27-.94-.37-1.33-.06-.24-.11-.5-.2-.8-.16-.57-.72-3.37-1.32-6.43-.16-.79-.27-1.4-.31-1.58-.44-1.79-.81-3.6-1.18-5.34-.1-.49-.21-.99-.25-1.54-.07-.59-.2-1.17-.34-1.84-.13-.61-.26-1.25-.43-1.81l-.03-.12c-.02-.1-.06-.21-.09-.32-.06-.2-.12-.42-.17-.63-.11-.5-.33-1.87-.39-2.45l-.03-.29.09-.27c.12-.35.21-.56.29-.77l.04-.09c.38-.78,1.24-1.14,4.77-2.33.99-.33,2.21-.75,2.54-.93.46-.23.77-.32,1.1-.42l.34-.11c.88-.25,1.48-.38,2.18-.53l.85-.18c.35-.07.63-.09.9-.1l.27-.02c.41-.03.75-.05,1.1-.06.36-.02.73-.03,1.19-.07.1-.01.22-.02.34-.02,0,0,.08-.03.12-.04.16-.06.33-.11.49-.14.42-.09.85-.1,1.37-.04h.07s.07.02.07.02c1.39.31,2.4.58,3.81,1.5,1.48,1.03,2.67,2.67,3.06,4.18l.04.17c.33,1.56-.38,2.72-.95,3.66l-.14.23c-.67,1.09-1.75,2.13-2.75,3.05,1.76.54,4.26,1.27,4.77,1.33.66.07,2.71.27,3.09,2.07.02.07.05.17.08.28.06.22.13.45.18.68.15.71.1,1.34-.14,1.88-.35.92-1.58,2.7-3.04,3.01-.49.1-.96.1-1.55-.02-.66-.16-1.35-.4-2.08-.66-.9-.32-1.83-.64-2.49-.74-.6-.09-1.02-.1-1.55-.1-1.31,0-5.7-1.11-7.48-1.75.02.11.16.82.27,1.37.28,1.47,1.04,5.38,1.17,5.83l.03.13c.09.42.11.52.25.81.54,1.19,1.51,5.91,2.83,12.44.55,2.7,1.02,5.03,1.22,5.78l.03.12c.09.45.27,1.28-.26,2.08-.39.6-.96.84-1.33,1-.06.03-.13.05-.19.08-.36.22-.75.33-1.03.39l-.21.04Z" style="fill: #f7b1bd;"/>
        <path d="M101.11,62.67c-.21,0-.52-.02-.86-.14l-.25-.07c-.87-.23-1.69-.45-2.7-1.47-.68-.63-.88-1.71-1-2.35l-.03-.14.03-.65s.06-.34.09-.44c.03-.15.06-.26.07-.45v-.12s.03-.11.03-.11c.18-.81.25-1.31.37-2.08l.75-8.91c.11-.5.14-.75.18-1.08l.06-.44c.16-.95.23-1.44.32-2.34.08-.56.09-.98.11-1.43.02-.49.04-1,.13-1.64.09-.52.18-.88.28-1.24.08-.3.16-.6.22-.99.06-.32.06-.43.08-.81l.04-1.02.02-.09c.06-.31.06-.41.08-.8v-.08s.02-.08.02-.08c.05-.33.1-.62.15-.89.09-.52.17-.97.23-1.58v-.12s.05-.12.05-.12c.02-.07.02-.11.03-.32v-.12s.03-.11.03-.11c.17-.8.25-1.31.37-2.07l.08-.48.02-.08q.02-.07.03-.26v-.11c.07-.51.11-.94.15-1.34.08-.74.14-1.44.3-2.37l.25-1.17c.32-1.51.72-3.39.92-4.96v-.07s.03-.07.03-.07c.04-.16.04-.23.05-.5v-.09s.02-.09.02-.09c.04-.21.05-.4.06-.57.04-.53.08-1.18.55-1.92l.13-.19c.75-1.03,1.45-2.01,3.01-2.48.23-.07.42-.14.58-.19.45-.15.84-.29,1.33-.27.46.02.85.19,1.3.38l.42.18c1.51.65,2.21,1.62,2.88,2.55.17.23.35.48.55.74.44.5.53,1.04.59,1.37,0,.05.02.11.03.16.79,1.7,1.26,3.28,1.81,5.12.14.46.28.94.43,1.44.41,1.14.64,1.85.89,3.15.26.96.37,1.66.51,2.46l.08.5c.19.72.3,1.17.45,1.97.33,1.33.55,2.43.79,3.59l.14.68c.17.71.32,1.45.47,2.18.14.71.29,1.41.46,2.13.15.76.23,1.37.35,2.18l.04.28.14.7c.16.78.39,2.1.53,3.02.09.33.09.6.09.78,0,.04,0,.08,0,.13.03.14.08.31.12.47.1.39.2.8.23,1.38.02.17.03.33.04.48,0,.09,0,.17.02.25l.03.15v.17s-.03.81-.03.81c.04.37.03.69.02.88v.11c-.17,1.27-.87,1.94-1.62,2.47-.75.64-1.59.6-1.88.59h-.29c-.28-.02-.45-.05-.61-.08-.11,0-.25,0-.37,0-.23,0-.41-.06-.57-.12-.26-.09-.45-.22-.57-.33-.59-.23-.88-.69-1.04-.92l-.06-.09c-.66-1.05-.94-1.51-1.29-2.61-.23-.54-.25-.99-.27-1.36,0-.15-.01-.32-.06-.5l-.02-.09v-.1c-.04-.38-.19-1.27-.28-1.72l-.39-2.22c-.06-.54-.13-.95-.2-1.35-.09-.54-.18-1.09-.23-1.71,0-.01,0-.02,0-.03-.31.02-.64.03-.99.04-.96.04-2.64.1-3.39.27-.07.28-.12.59-.18.94l-.1.55c-.02.17-.03.34-.04.51-.01.26-.02.53-.07.84-.09.9-.91,10.03-1.09,10.87l-.04.19c-.02.15-.05.26-.07.34l-.03.8c0,.09,0,.17,0,.24,0,.21.01.46-.04.78-.02.52-.04.92-.21,1.5-.54,2.2-2.01,3.55-3.82,3.48Z" style="fill: #f7b1bd;"/>
        <path d="M138.71,60.07c-.39-.07-.69-.23-.92-.35-.08-.04-.19-.1-.23-.11-.39-.12-.55-.14-1-.22-.12-.02-.23-.03-.33-.04-.16-.01-.31-.03-.46-.06-.36-.06-.67-.17-.98-.33-.7-.39-1.12-.75-1.53-1.1-.21-.18-.43-.38-.73-.59-.27-.22-1.06-.82-1.3-1.01-.2-.17-.36-.27-.51-.37-.3-.19-.67-.43-1.05-.84-1.37-1.46-2.1-2.45-3.2-3.94l-.3-.41c-.26-.37-.33-.68-.36-.85-.12-.32-.22-.57-.32-.81-.11-.26-.22-.53-.35-.86-.37-1-.53-1.56-.73-2.5l-.03-.14c-.15-.64-.26-1.11-.37-1.83-.06-.58-.05-.94-.04-1.28,0-.17.01-.34,0-.56-.01-.49.02-.86.05-1.25l.04-.44c0-.16.02-.34.03-.52.01-.14.02-.28.03-.46,0-.36.07-.64.12-.87.02-.07.04-.15.05-.24.07-.42.11-.67.27-1.15.17-.43.26-.72.34-1.01.11-.36.22-.71.39-1.14.2-.61.39-1.07.64-1.66l.48-1.15c.47-1.15.85-2.07,1.57-3.39.49-.92.94-1.46,1.45-2.09l.31-.37c.4-.51.7-.81,1.05-1.15l.27-.27.4-.38c.53-.5.99-.94,1.69-1.38.63-.39,1.3-.77,1.97-1.14.66-.34,1.31-.62,1.74-.8.48-.18.91-.34,1.22-.46l.18-.07.19-.02c.4-.03.7.02.91.05.61.1,1.09.32,1.52.68.17.16.35.28.53.4.59.42,1.25.89,1.57,1.6l.12.26v.42c0,.33,0,.67-.07,1.07-.03.16-.07.34-.12.51-.02.08-.05.15-.06.22l-.04.24-.12.21c-.39.68-.92,1.1-1.38,1.43l-.1.06c-.36.21-.72.42-1.09.68l-.05.04-.05.03c-1.26.73-2.42,1.78-3.44,3.13-.19.26-.38.6-.57.93l-.16.28c-.87,1.59-1.27,2.59-1.72,3.75-.23.58-.47,1.19-.79,1.93l-.1.21-.02.14-.08.18c-.18.46-.29.75-.42,1.2l-.04.11-.05.13c-.02.05-.04.09-.05.14v.11c-.02.81-.04,1.22.03,2,.02.25.03.44.03.62.03.65.05,1.04.24,1.62l.02.05v.06c.18.69.37,1.06.83,1.76l.04.07.04.07c.12.25.24.39.56.68.69.69,1.1,1.02,1.92,1.62.33.25.6.39.97.6l.4.22c.56.34.82.5,1.4.83.96.58,1.55,1.22,2.17,1.9l.41.44c.52.56.77.85,1.2,1.74l.05.09.03.1c.03.1.07.18.1.26.09.21.2.48.26.86l.02.1v.25c.02.37.04.98-.42,1.61l-.04.06-.05.05c-.85.94-2.06,1.39-3.12,1.72-.31.09-.63.12-.95.06Z" style="fill: #f7b1bd;"/>
        <path d="M156.59,59.97c-.82,0-1.93-.04-3.15-.34-.24-.05-.51-.1-.81-.16-.92-.17-2.06-.38-3.35-.91-.6-.2-1.01-.78-1.28-1.16-.05-.06-.09-.13-.13-.18-.48-.55-.73-.98-.96-1.65-.34-.83-.49-1.57-.48-2.39v-.09c.07-.86.19-1.53.38-2.54.03-.2.06-.39.08-.57.05-.35.09-.71.22-1.2.09-.48.19-.83.3-1.16.05-.15.1-.31.15-.49,0-.16.03-.31.08-.51.1-.72.19-1.22.31-1.84l.1-.51c.06-.45.14-.9.22-1.33.16-.94.29-1.69.3-2.55,0-.07,0-.14,0-.21-.3-.1-3.68-.22-4.07-.44l-.17-.09c-.27-.14-.76-.41-1.03-1.04-.36-.74-.44-1.32-.51-1.89l-.04-.31c-.08-.28-.08-.5-.08-.69s0-.39.08-.67c.1-.6.52-1.09,1.12-1.29l.06-.02h.07c.65-.16,4.21-.17,4.71-.18.44,0,.75-.02,1.01-.09.15-.53.25-1.05.38-1.77l.02-.12c.16-.86.22-1.31.33-2.16v-.27c0-.85.04-1.56.07-2.22.03-.56.06-1.09.06-1.62v-.33s-.04-.04-.07-.06c-.18-.15-.42-.36-.65-.67-.31-.44-.47-.76-.63-1.1l-.13-.26c-.08-.16-.14-.28-.21-.39-.06-.12-.13-.23-.2-.38-.14-.17-.37-.5-.36-.99v-.26s.1-.3.1-.3c.04-.1.07-.19.1-.29.18-.55.52-1.57,1.72-1.89,1.33-.33,2.14-.39,3.03-.39.35,0,.73.01,1.16.03.57.02,1.26.04,2.16.04.71,0,1.38,0,1.91-.2.44-.14.77-.14,1.06-.14h2.68c.44.01.79.01,1.17-.03.56-.05.91-.08,1.18-.11.5-.05.75-.07,1.08-.07h.7s.06,0,.06,0c.94.09,1.81.45,2.33.97.59.6.92,1,1.29,1.8.36.66.55,1.16.54,2,0,.72-.46,1.32-1.21,1.59-.39.16-.74.18-.97.2-.08,0-.13,0-.18.02-.01.01-.03.03-.04.04-.21.21-.56.57-1.18.72-1.17.37-1.89.44-2.71.44-.26,0-.53-.01-.86-.03-.42-.02-.92-.04-1.58-.04-.3,0-.56.03-.89.08-.25.03-.5.07-.8.09-.27.02-.5.03-.71.03-.26,0-.46.01-.69.04v1.62c-.04.76-.05,1.45-.07,2.13-.02.73-.04,1.45-.07,2.17,0,.52-.06,1.02-.18,1.49.71.03,1.25.03,1.99.04h.17c.51,0,.93-.01,1.33-.02.42-.01.84-.03,1.34-.02h.7c.81,0,1.29.1,1.98.29.45.11.78.3,1.11.64l.08.08.06.09c.42.59.59,1.06.73,1.62.1.48.09.86.09,1.14,0,.26,0,.65-.09,1.07l-.02.08-.03.08c-.28.82-.97,1.05-1.19,1.12-.62.19-1.04.28-1.48.37l-.57.12c-.07.02-.21.07-.34.12-.41.15-.88.32-1.47.31-.37,0-.73.06-1.1.2l-.12.04-.13.02c-.46.08-.83.07-1.27.07h-.23c-.36,0-.68-.02-.97-.04-.22-.01-.43-.03-.66-.03-.3,0-.51,0-.74.06,0,0,0,0-.01,0-.04,0-.07.03-.1.12l-.07.2c-.11.7-.23,1.32-.39,2.2-.01.07,0,.12,0,.16,0,.15,0,.36-.04.6-.06.52-.12.9-.24,1.42-.03.17-.07.31-.12.41l-.03.39c-.03.49-.06.91-.15,1.56-.06.76-.13,1.24-.32,2.03-.12.63-.34,1.1-.51,1.47-.12.25-.2.42-.24.62.07,0,.13,0,.21,0,.62,0,1.16-.05,1.73-.1.66-.06,1.35-.12,2.22-.12h1.09s.3.05.3.05c.66.1,1.18.18,1.96.43l.18.06.16.11c.32.22.56.46.77.78l.05.07.04.07c.07.13.12.21.28.39l.19.23.03.05c.28.43.46,1.07.67,1.87l.11.41.02.12c.05.27.11.57.11.95,0,.71-.27,1.34-.8,1.87l-.09.08c-.92.76-1.82.78-2.54.8-.14,0-.28,0-.43.02-.64.04-1.23.08-1.8.12-1.15.08-2.24.16-3.3.16Z" style="fill: #f7b1bd;"/>
      </g>
      <path d="M149.69,154.92l-.03-.18c-.61-3.18-1.7-6.25-3.06-9.18-.96-2.16-2.46-4.44-2.2-5.92.31-1.78,2.24-2.48,3.33-3.78,1.56-1.61,2.18-4.31,1.13-6.31-2.42-4.01-7.94-3.94-11.87-5.79-3.22-1.12-6.04-2.65-8.35-5.01-1.79-1.8-3.92-3.88-3.7-6.57.33-2.96,1.96-6.23,4.6-7.97,4.18-2.47,8.9-4.27,13.26-6.52,3.31-1.53,7.17-4.75,5.62-8.65-3.64-8.53-10.97-4.52-16.37-.25-4.19,3.23-9.41,5.81-12.6,10.06-1.03,1.35-1.72,3.26-3.08,4.25-1.37,1.02-3.57.01-4.15-1.5-1.09-3.46,6.06-6.66,6.97-9.92,2.15-4.81-3.35-9.48-.86-14.23.71-1.62,1.82-3.23,2.75-4.76,1.92-3.44,3.78-4.84,3.67-8.25-.31-3.86-5.52-6.87-8.79-5.65-3.42,1.51-5.4,7.69-7.75,11.1-1.24,2.02-2.67,5.09-4.9,5.36-3.37.4-4.85-3.49-7.26-5.07-2.54-1.72-6.48-1.61-9.02-.02-2.68,1.59-5.02,6.91-8.73,4.63-2.21-2.11-4.44-7-6.24-9.97-1.39-2.61-2.93-6.04-5.9-6.41-3.44-.37-7.71,2.08-7.98,5.77-.22,3.34,3.84,8.27,5.77,11.79,2.1,2.93,1.81,5.17.34,8.25-2.44,5.37-.73,8.54,3.55,12.24,1.47,1.4,2.75,2.84,2.64,4.2,0,1.64-2.05,3.36-3.53,2.49-1.34-.86-1.94-2.78-2.91-4.06-3.27-4.39-8.82-6.95-13.11-10.39-3.31-2.34-6.96-5.46-11.26-4.81-3.45.49-6.62,4.09-6.03,7.61,1.47,5.26,8.65,6.76,12.99,9.22,1.73.85,3.52,1.7,5.24,2.56,3.52,1.53,5.98,5.78,5.96,9.4-.45,3.29-3.71,6.02-6.09,8.19-2.82,2.17-6.93,3.14-10.52,4.25-2.76.88-6.31,1.49-7.85,4.17-1.18,2.22.06,5.49,1.82,7.28,2.85,2.53,3.55,3.95,1.91,7.12-2.79,5.86-4.91,12.13-4.32,18.73.48,10.76,11.25,15.69,20.75,12.45,8.45-2.92,14.74-10.12,21.4-15.93,2.39-2.51,5.18-1.7,7.79.06,2.81,1.66,5.72,3.1,8.98,3.1,3.48-.12,6.67-1.85,9.57-3.62,1.63-.94,3.36-1.67,5.11-.76,2.95,1.85,5.2,4.61,7.92,6.87,6.01,5.3,11.89,10.76,20.17,11.29,4.99.52,10.27-1.8,13.22-5.9,3.05-4.25,2.95-10.15,2.03-15.05Z" style="fill: #f7b1bd;"/>
    </g>
  </g>
</svg>