<?xml version="1.0" encoding="UTF-8"?>
<svg id="Layer_2" data-name="Layer 2" xmlns="http://www.w3.org/2000/svg" viewBox="0 0 614.25 711.94">
  <g id="Layer_1-2" data-name="Layer 1">
    <g>
      <path d="M216.53,523.09c-2.89-10.37-5.16-20.82-4.76-31.65.4-10.81.86-21.63,1.64-32.42.36-5,1.63-9.92,2.29-14.9.19-1.46-.33-3.01-.52-4.52-1.58.53-3.16,1.06-4.73,1.6-.15.05-.24.25-.36.38-3.21,3.49-6.49,6.92-9.61,10.5-2.41,2.76-4.73,5.62-6.87,8.6-4.46,6.19-8.64,12.59-13.19,18.71-3.07,4.12-5.56,8.26-4.61,13.67.27,1.53.86,3.08.77,4.6-.22,3.66-.75,7.31-1.34,12.63.81,4.16,1.55,9.87,3.07,15.35,1.73,6.23,4.29,12.21,6.25,18.38,2.87,9.02,7.86,16.79,13.4,24.32,7.07,9.6,6.59,13.07,10.23,10.24,1.65-1.28,2.96-3,4.41-4.53,3.7-3.9,7.41-7.78,11.08-11.71,4.96-5.31,8.29-5.46,3.52-13.64-.61-1.04-7.85-15.52-10.66-25.61Z"/>
      <path d="M227.63,373.61c-1.97,1.39-3.9,2.9-5.63,4.59-1.6,1.57-2.12,3.7.21,4.92,2.48,1.3,5.28,1.96,7.94,2.9,2.76.11,4.06-1.23,3.81-3.68-.22-2.21-.69-4.52-1.64-6.49-.81-1.68-2.03-4.11-4.7-2.23Z"/>
      <path d="M151.1,489.48c2.44-3.89,5.09-7.65,7.63-11.47,4.26-6.43,8.55-12.83,12.73-19.31,1.04-1.61.33-2.53-1.56-2.35-1.02.1-2.11.14-3.02.55-5.92,2.65-11.73,5.53-17.7,8.05-7.55,3.2-14.96,6.26-19.87,13.59-5.71,8.51-12.64,16.24-17.91,24.99-6.96,11.58-13.02,23.72-19.07,35.82-4.32,8.62-8.38,17.42-11.78,26.44-1.74,4.62-3.03,9.33-5.69,13.59-1.57,2.53-3.15,5.42-3.48,8.29-.93,8.01-1.28,16.1-1.73,24.16-.42,7.5,1.14,14.72,3.03,21.95,1.58,6.03,5.09,10.06,10.74,11.93,3.48,1.15,7.25,1.59,10.92,1.92,5.4.48,10.84.57,15.97.81,2.05,0,3.82.08,5.58-.02,4.68-.25,7-3.29,5.3-7.08-3.79-8.42-5-17.38-5.22-26.46-.24-9.95-.06-19.91-.05-29.87,0-.8-.03-1.61.07-2.4.77-6.4,1.44-12.81,2.39-19.18.78-5.22,1.4-10.55,2.99-15.55,2.16-6.82,5.01-13.44,7.86-20.01,2.13-4.92,4.45-9.8,7.15-14.43,4.71-8.11,9.74-16.03,14.72-23.98Z"/>
      <path d="M171.99,572.19c-2.68-5.7-4.68-11.73-6.81-17.68-1.9-5.27-3.6-10.62-5.35-15.95-1.34-4.1-2.51-8.26-3.98-12.31-.73-2-3.25-2.27-4.43-.63-.75,1.05-1.31,2.24-1.98,3.36-8.91,14.73-11.93,31.22-13.4,47.99-.77,8.85-.73,37.88-.03,43.37.55,4.34,1.4,5.74,3.23,9.65,2.57,5.47,4.3,6.21,9.53,2.85,2.69-1.73,27.38-23.84,30.01-25.66,6.16-6.16,8.94-9.7,6.45-14.15-3.27-3.88-10.84-15.74-13.23-20.83Z"/>
      <path d="M255.05,94.51h8.73c4.01,0,7.27-1.58,9.79-4.75,2.52-3.17,3.78-7.4,3.78-12.7s-1.26-9.73-3.78-12.9c-2.52-3.17-5.79-4.75-9.79-4.75h-8.73c-.65,0-.97.32-.97.97v33.16c0,.65.32.97.97.97Z"/>
      <path d="M189.03,415.99c3.02-1.22,6.02-2.51,9-3.82,3.15-1.39,6.37-2.66,9.4-4.29,2.3-1.24,4.34-2.97,6.69-4.62-.96-1.55-1.23-2.56-1.86-2.9-4.94-2.67-10.45-3.01-14.76,1.62-2.92,3.14-5.8,6.32-8.65,9.54-.68.77-1.23,1.69-1.64,2.63-.21.48-.17,1.37.15,1.69.3.31,1.18.34,1.67.15Z"/>
      <path d="M172.25,57.86c-3.62,0-6.5,1.26-8.63,3.78-2.13,2.52-3.2,5.85-3.2,9.99v64.38c0,4.14,1.07,7.47,3.2,9.99,2.13,2.52,5.01,3.78,8.63,3.78s6.53-1.26,8.73-3.78c2.2-2.52,3.3-5.85,3.3-9.99v-64.38c0-4.14-1.1-7.47-3.3-9.99-2.2-2.52-5.11-3.78-8.73-3.78Z"/>
      <path d="M348.12,128.83h17.45c.65,0,.9-.32.78-.97l-9.11-52.94c-.13-.39-.33-.58-.58-.58s-.45.19-.58.58l-8.73,52.94c0,.65.26.97.78.97Z"/>
      <path d="M400.57,406.53c7.01,3.48,14.09,6.83,21.25,9.97,1.47.64,3.41.2,5.13.26-.76-1.5-1.24-3.26-2.33-4.45-3.53-3.82-7.17-7.57-11.01-11.07-1.68-1.53-3.95-2.39-5.82-3.47-2.94.91-5.25,1.36-7.29,2.35-1.14.55-2.62,2.08-2.54,3.06.09,1.2,1.42,2.76,2.61,3.35Z"/>
      <path d="M476.73,609.29c.47-4.3-.72-30.08-1.53-38.55-.43-4.42-.79-8.88-1.7-13.22-2.27-10.78-6.62-20.8-11.9-30.4-.68-1.24-2.21-2.57-3.48-2.72-.77-.09-2.19,1.86-2.64,3.13-1.57,4.47-2.65,9.12-4.26,13.58-4.06,11.23-7.91,22.56-12.6,33.52-3.67,8.59-3.22,9.73-9.75,16.44-3.53,3.63-3.12,7.61-.19,10.4,8.07,8.07,32.01,28.23,37.63,32.13,3.62,2.51,6.28,2.12,8.58-1.98,4.48-7.98.91-13.74,1.85-22.34Z"/>
      <path d="M613.32,627.01l-29.98-93.91c-1.66-5.19-1.1-10.82,1.54-15.59l18.06-32.61c5.49-9.92,1.53-22.42-8.68-27.36l-88.23-42.71c-8.56-4.14-12.95-13.79-10.46-22.96l1.23-4.54c1.29-4.78,4.33-8.89,8.52-11.54l85.7-54.18c8.59-5.43,11.66-16.48,7.11-25.56l-22.97-45.83c-3.03-6.04-8.93-10.12-15.65-10.81l-25.43-2.61c-24.5-1.68-18.55-26.88-6.5-29.26l57.37-8.43c9.57-1.41,16.71-9.52,16.89-19.19l2.96-159.8c.21-11.13-8.81-20.23-19.94-20.13L24.15,4.97c-12.33.11-21.56,11.37-19.24,23.48l31.12,162.58c1.78,9.31,9.92,16.04,19.4,16.05l19.12.03c3.92,0,7.51,3.35,9.34,8.7,0,0,5.23,31.34-18.91,27.51l-15.99.05c-7.79-.8-15.32,3.07-19.2,9.88l-16.9,29.66c-4.13,7.25-3.26,16.32,2.17,22.65l22.17,25.84c1.46,1.7,3.19,3.14,5.13,4.25l51.65,29.79c8.03,4.63,11.76,14.22,8.98,23.06l-6.64,21.06c-1.56,4.96-5.02,9.1-9.61,11.53l-70.18,37.1c-9.05,4.78-12.95,15.69-8.99,25.13l16.88,40.19c1.66,3.95,1.99,8.34.94,12.49L.6,634.1c-1.52,6.02-.12,12.41,3.78,17.24l42.92,53.24c4.24,5.25,10.86,7.98,17.57,7.24l89.65-9.95c4-.44,7.76-2.1,10.8-4.73l56.76-49.39c3.3-2.87,7.47-4.57,11.84-4.82l135.27-7.79c5.19-.3,10.29,1.46,14.2,4.9l75.24,66.25c3.61,3.18,8.25,4.93,13.06,4.93h87.18c6.89,0,13.29-3.59,16.88-9.48l35.62-58.42c2.98-4.89,3.7-10.84,1.95-16.3ZM498.79,38.27c0-.65.22-1.19.68-1.65.45-.45,1-.68,1.65-.68h66.51c.65,0,1.19.23,1.65.68.45.45.68,1,.68,1.65v18.81c0,.65-.23,1.2-.68,1.65-.45.45-1,.68-1.65.68h-40.53c-.65,0-.97.32-.97.97v30.64c0,.65.32.97.97.97h23.27c.65,0,1.19.23,1.65.68.45.45.68,1,.68,1.65v18.81c0,.65-.23,1.2-.68,1.65-.45.45-1,.68-1.65.68h-23.27c-.65,0-.97.32-.97.97v30.83c0,.65.32.97.97.97h40.53c.65,0,1.19.23,1.65.68.45.45.68,1,.68,1.65v18.81c0,.65-.23,1.2-.68,1.65-.45.45-1,.68-1.65.68h-66.51c-.65,0-1.2-.22-1.65-.68-.45-.45-.68-1-.68-1.65V38.27ZM313.22,169.17l28.51-131.09c.26-1.42,1.1-2.13,2.52-2.13h26.18c1.42,0,2.26.71,2.52,2.13l28.31,131.09.19.78c0,1.16-.71,1.75-2.13,1.75h-23.27c-1.55,0-2.39-.71-2.52-2.13l-3.1-18.62c0-.65-.39-.97-1.16-.97h-24.63c-.78,0-1.16.32-1.16.97l-3.1,18.62c-.13,1.42-.97,2.13-2.52,2.13h-22.69c-1.68,0-2.33-.84-1.94-2.52ZM226.73,38.27c0-.65.22-1.19.68-1.65.45-.45,1-.68,1.65-.68h39.17c7.11,0,13.44,1.71,19,5.14,5.56,3.43,9.86,8.24,12.9,14.45,3.04,6.21,4.56,13.32,4.56,21.33s-1.46,14.35-4.36,20.17c-2.91,5.82-6.95,10.34-12.12,13.57-.26.13-.45.29-.58.48-.13.19-.13.42,0,.68l17.84,57.21.19.78c0,1.29-.71,1.94-2.13,1.94h-23.27c-1.42,0-2.33-.65-2.71-1.94l-14.93-53.52c-.26-.52-.58-.78-.97-.78h-6.59c-.65,0-.97.32-.97.97v52.94c0,.65-.23,1.2-.68,1.65-.45.45-1,.68-1.65.68h-22.69c-.65,0-1.2-.22-1.65-.68-.45-.45-.68-1-.68-1.65V38.27ZM69.86,171.69c-1.42,0-2.26-.71-2.52-2.13L39.61,38.47l-.19-.78c0-1.16.71-1.75,2.13-1.75h25.01c1.55,0,2.39.71,2.52,2.13l13.38,85.32c.13.52.32.78.58.78s.45-.26.58-.78l12.99-85.32c.13-1.42.97-2.13,2.52-2.13h24.24c1.68,0,2.33.84,1.94,2.52l-27.92,131.09c-.26,1.42-1.1,2.13-2.52,2.13h-25.02ZM570.2,629.42c-.52,9.34-3.46,17.93-8.62,25.86-5.31,8.17-12.66,13.62-21.31,17.36-6.31,2.72-12.88,4.82-19.39,7.03-.81.28-1.94-.53-2.95-.66-6.53-.83-13.1-1.38-19.58-2.5-4.3-.74-8.45-2.34-12.69-3.46-2.82-.74-5.83-.96-8.47-2.07-2.8-1.19-5.38-3.02-7.87-4.82-5.82-4.22-11.53-8.59-17.28-12.92-3.81-2.87-7.75-5.59-11.36-8.69-8.75-7.53-17.39-15.2-25.99-22.9-4.19-3.75-8.16-7.76-12.32-11.56-7.63-6.97-15.38-13.81-22.96-20.83-2.37-2.19-4.62-4.61-6.5-7.23-2.99-4.16-7.85-3.53-11.11,1.11-5,7.11-11.03,13.33-18.92,17.22-3.42,1.69-7.43,2.16-10.88,3.81-2.84,1.36-5.42,3.44-7.82,5.53-4.7,4.11-10.01,4.86-15.88,3.77-1.3-.24-2.72-.07-4.06.1-5.47.68-10.82.96-15.15-3.41-5.01-5.07-11.34-7.44-18.03-9.2-2.12-.56-4.57-1.11-6.09-2.52-5.12-4.74-10.29-9.54-14.66-14.95-3.11-3.86-6.32-6.01-10.74-1.42-6.95,7.2-14.57,13.74-21.87,20.6-5.01,4.72-9.86,9.62-14.97,14.23-8.12,7.32-16.35,14.52-24.64,21.64-5.88,5.05-11.81,10.05-17.95,14.75-4.24,3.25-8.9,5.93-13.35,8.9-1.95,1.3-4.17,2.38-5.7,4.07-3.44,3.82-7.87,5.21-12.59,6.28-3.69.83-7.3,2.03-10.99,2.8-3.97.83-7.98,1.52-12.01,1.99-5.43.63-10.89,1.18-16.34,1.38-2.06.07-4.25-.7-6.21-1.5-6.16-2.54-12.54-4.75-18.25-8.12-4.22-2.49-7.66-6.43-11.16-10-2.42-2.47-5.15-5.09-6.39-8.19-2.82-7.04-5.69-14.16-5.51-22.06.18-8.07-.37-16.17.18-24.21.39-5.83,1.84-11.63,3.2-17.35,1.29-5.45,2.64-10.96,4.73-16.13,3.52-8.67,7.7-17.06,11.5-25.62,1.82-4.11,3-8.56,5.19-12.43,5.39-9.51,11.22-18.77,16.82-28.16,1.19-1.99,2.29-4.06,3.15-6.21.19-.48-.65-1.71-1.31-2.12-.55-.33-1.58-.12-2.3.13-6.11,2.08-12.23,4.11-18.27,6.38-8.31,3.13-10.82.93-15.99-5.12-2.73-3.2-4.89-7.02-6.7-10.86-4.58-9.76-3.13-10.67,4.83-14.58,5.62-2.76,12.01-3.97,18.11-5.7,6.69-1.9,13.53-3.32,20.14-5.46,10.3-3.33,20.5-7,30.68-10.7,3.79-1.38,7.61-2.92,11.02-5.03,2.11-1.31,3.52-3.81,5.18-5.83,2.05-2.49,3.94-5.13,6.08-7.55,7.39-8.34,14.89-16.58,22.28-24.92,1.31-1.48,2.09-3.43,3.4-4.9,1.76-1.98,3.6-3.99,5.76-5.46,2.39-1.62,3.95-3.71,3.1-6.3-.42-1.26-2.82-2.02-4.45-2.67-4.53-1.82-9.15-3.08-10-9.29-.46-3.32-2.63-6.37-3.75-9.64-1.45-4.22-2.97-8.47-3.85-12.84-1.23-6.07-5.65-8.61-10.53-10.89-4.71-2.21-9.44-4.4-14.12-6.67-15.45-7.49-30.85-15.08-46.35-22.46-4.11-1.96-8.8-2.79-12.74-5-6.25-3.5-12.15-7.65-18.08-11.69-2.23-1.52-4.3-3.37-6.07-5.39-.49-.56-.03-3.03.62-3.35,2.01-1,1.5-2.63,1.87-4.18.48-2.03,1.16-4.19,2.39-5.81,1.93-2.55,4.57-4.53,6.58-7.03,4.16-5.17,9.66-4.56,15.16-3.85,4.89.63,9.84,1.37,14.01,4.3,4.25,2.98,8.3,6.25,12.51,9.28,9.06,6.53,18.14,13.04,27.27,19.48,9.61,6.78,19.27,13.5,28.95,20.18,3.55,2.45,7.58,4.34,10.74,7.22,2.55,2.32,4.61,5.52,6.03,8.71,3.23,7.27,5.92,14.78,8.84,22.18,1.58,4.01,5.09,5.83,8.68,7.33,2.19.91,4.65,1.65,6.96,1.58,2.07-.06,4.38-.95,6.08-2.19,2.95-2.16,5.42-4.98,8.26-7.31,6.46-5.29,12.93-10.56,19.57-15.61,3.72-2.83,4.84-9.53-.36-13.32-4.11-3-7.35-7.2-10.97-10.87-.56-.57-1.06-1.19-1.62-1.75-6.98-7.03-13.87-14.17-21-21.04-2.6-2.5-5.88-4.28-8.69-6.58-.74-.61-1.13-1.91-1.27-2.95-1.13-8.82,3.41-16.02,6.74-23.57,3.58-8.11,7.18-16.2,10.55-24.4,1.39-3.39-1-5.99-2.67-8.66-3.87-6.22-29.16-46.92-36.85-60-6.72-1.58-12.42-4.62-17.08-9.2-7.11-6.98-10.67-16.29-10.67-27.92v-62.05c0-11.63,3.55-20.94,10.67-27.92,7.11-6.98,16.61-10.47,28.51-10.47s21.43,3.49,28.6,10.47c7.18,6.98,10.76,16.29,10.76,27.92v62.05c0,11.64-3.59,20.94-10.76,27.92-.98.95-2.01,1.83-3.08,2.65,2.49,5.25,5.16,10.81,8.3,16.24,4.51,7.8,20.9,34.25,24.02,40.26,1.55,2.99,2.09,6.52,3.18,10.14-1.74,5.72-3.29,11.38-5.2,16.91-5.42,15.65-14.42,29.68-12.43,31.82,6.06,6.54,17.32,19.04,23.3,25.66,3.45,3.82,10.92-12.69,13.76-15.54,2.46-3.55,2.25-5.63-1.55-7.21-6.88-2.85-10.06-8.07-12.53-14.88-3.06-8.46-1.77-16.37,1.3-24,2.53-6.29,8.75-9.24,14.88-10.98,8.01-2.27,16.14-3.81,22.06-10.51,1.27-1.44,3.26-2.27,5-3.24,2.26-1.26,2.82-3.09,2.34-5.53-.2-1-.24-2.27.2-3.11,2.28-4.34,3.95-9.58,9.73-10.3,3.29-.41,6.7.31,10.06.4,1.81.05,3.68.1,5.45-.26,6.99-1.41,12.72-.87,15.76,6.26,1.19,2.78,2.39,5.26,2.22,8.4-.19,3.63,3.12,4.72,5.41,6.48.41.31.97.46,1.31.83,5.51,6.11,13.21,7.36,20.53,9.67,8.73,2.75,16.21,7.16,18.81,17.07,2.93,11.21.92,21.2-6.96,29.67-1.88,2.03-4.73,3.16-7.17,4.63-3.09,1.87-3.48,4.76-1.15,7.4,2.21,2.5,9.59,20.12,11.63,17.95,11.24-11.9,22.65-24.56,24.75-26.32,5.06-4.25-9.64-31.5-12.68-39.43-2.95-7.72-3.67-15.63.62-23.07,4.16-7.21,8.94-14.07,13.29-21.17,2.96-4.82,13.35-23.86,20.82-37.49-6.61-6.84-9.95-15.88-9.95-27.15v-62.83c0-11.51,3.52-20.68,10.57-27.54,7.05-6.85,16.39-10.28,28.02-10.28s21.17,3.43,28.22,10.28c7.05,6.85,10.57,16.03,10.57,27.54v2.13c0,.65-.23,1.2-.68,1.65-.45.45-1,.68-1.65.68l-22.69.97c-1.55,0-2.33-.71-2.33-2.13v-5.04c0-3.75-1.04-6.79-3.1-9.11-2.07-2.33-4.85-3.49-8.34-3.49s-6.08,1.16-8.14,3.49c-2.07,2.33-3.1,5.37-3.1,9.11v66.9c0,3.75,1.03,6.76,3.1,9.02,2.07,2.26,4.78,3.39,8.14,3.39s6.27-1.13,8.34-3.39c2.07-2.26,3.1-5.27,3.1-9.02v-5.24c0-.65.22-1.19.68-1.65.45-.45,1-.68,1.65-.68l22.69.97c.65,0,1.19.23,1.65.68.45.45.68,1,.68,1.65v1.94c0,11.64-3.56,20.91-10.67,27.83-5.91,5.75-13.41,9.07-22.45,10.04-.14.24-.26.45-.42.7-6.47,10.06-31.39,50.06-38.18,60.95-1.5,2.4-2.22,4.94-.97,7.75,4.01,9.06,8.21,18.05,11.86,27.26,2.28,5.75,3.8,11.82,5.45,17.81,1.4,5.08-7.18,8.06-11.9,12.69-13.56,13.28-28.94,28.38-34.59,34.01-1.35,1.35-2.47,2.66-1.7,5.25,1.69,5.69,5.83,8.97,10.14,12.29,3.64,2.81,7.33,5.56,10.81,8.57,3.72,3.21,7.18,6.72,10.82,10.02,1.86,1.69,3.91,2.38,6.46,1.16,4.18-2.01,8.45-3.84,12.72-5.65,3.42-1.45,4.08-4.66,5.29-7.65,2.17-5.37,4.57-10.66,6.92-15.96.8-1.81,1.63-3.62,2.61-5.34,1.14-2.01,2.05-4.43,3.76-5.77,6.71-5.24,13.65-10.21,20.6-15.12,8.28-5.85,16.72-11.46,24.99-17.31,12.01-8.49,23.9-17.15,35.94-25.59,1.38-.97,3.39-1.2,5.16-1.41,3.71-.44,7.47-.55,11.19-.94,3.79-.4,5.82,1.35,7.44,4.73,1.07,2.23,3.16,4.15,5.19,5.68,2.1,1.58,3.13,3,1.62,5.44-1.85,3-1.01,5.53,1.75,7.2,2.41,1.46,1.64,2.81.29,4.16-6.24,6.25-13.66,10.76-21.62,14.41-8.5,3.89-17.09,7.59-25.54,11.58-12.39,5.85-24.69,11.91-37.04,17.85-3.82,1.84-7.63,3.69-11.53,5.34-3.5,1.48-5.68,3.83-6.87,7.54-2.43,7.56-5.58,14.9-7.74,22.53-1.29,4.56-3.08,8.13-7.63,9.75-2.26.81-4.63,1.32-6.93,2.03-3.8,1.16-4.39,3.13-1.69,6.05,4.85,5.24,9.88,10.3,14.64,15.62,4.95,5.53,9.48,11.43,14.52,16.87,3.88,4.18,8.74,7.49,12.27,11.92,3.3,4.15,6.96,7.32,11.79,9.23,8.65,3.42,17.26,6.93,25.96,10.2,6.52,2.45,13.1,4.79,19.76,6.8,6.66,2,13.44,3.6,20.19,5.24,4.79,1.17,8.6,3.85,11.49,7.67.77,1.01.65,3.17.2,4.56-1.37,4.24-2.92,8.46-4.81,12.49-.57,1.21-2.43,1.92-3.83,2.58-2.52,1.21-5.06,2.51-7.74,3.21-2.34.61-5.02,1.02-7.31.49-4.75-1.11-9.37-2.86-14-4.45-1.7-.59-3.26-1.63-4.97-2.15-.86-.26-1.99.07-2.88.43-.19.08-.1,1.61.28,2.21,3.29,5.32,6.78,10.52,9.99,15.88,1.64,2.74,2.72,5.8,4.23,8.63,3.96,7.41,8.09,14.73,11.99,22.17,2.49,4.75,4.84,9.59,6.99,14.51,2.25,5.16,4.48,10.36,6.18,15.72,2.01,6.33,3.74,12.77,5.04,19.28,2.32,11.67,3.11,23.53,2.44,35.41Z"/>
      <path d="M541.55,618.32c-.26-4.43-.06-8.89-.06-13.33s.43-8.95-.13-13.32c-.52-4.07-1.55-8.28-3.37-11.91-2-3.97-4.73-7.23-5.69-12.04-1.46-7.31-4.32-14.42-7.3-21.31-2.98-6.91-6.58-13.58-10.34-20.1-5.73-9.92-11.79-19.66-17.81-29.4-2.51-4.06-5.08-8.11-8-11.86-2.8-3.6-5.96-6.95-9.24-10.13-2.43-2.35-5.09-4.63-8.02-6.26-3.91-2.17-8.21-3.6-12.28-5.47-5.11-2.35-10.11-4.92-15.26-7.16-1.25-.54-2.89-.18-4.34-.23.11,1.23.12,2.49.37,3.69.23,1.09.53,2.27,1.15,3.15,2.4,3.4,5.04,6.63,7.4,10.06,3.84,5.56,7.65,11.14,11.24,16.87,5.68,9.05,11.18,18.22,16.74,27.35,4.7,7.73,9.08,15.66,11.34,24.48,2.42,9.46,4.64,19.01,6.32,28.63,1.14,6.53,1.59,13.25,1.64,19.89.08,10.25-.57,20.49-.69,30.74-.08,7.19-1.76,13.95-4.38,20.56-.94,2.37-1.12,5.08,1.54,6.17,2.24.92,4.93.96,7.43.99,2.5.03,5.02-.64,7.52-.61,3.48.04,7.01.97,10.42.58,5.56-.64,11.06-1.9,16.52-3.16,3.91-.9,9.39-9.94,8.8-13.62-.7-4.39-1.27-8.81-1.53-13.24Z"/>
      <path d="M435.05,520.69c1.08-7.78,1.54-32.73-.38-36.1-4.31-7.6-9.51-14.74-14.9-21.64-6.13-7.84-12.84-15.23-19.35-22.75-.77-.89-1.86-1.66-2.95-2.05-.49-.17-1.98.77-1.96,1.17.12,2.87.35,5.76.84,8.6,1.2,6.99,3.54,13.93,3.65,20.92.26,16.9,1.88,34.01-3.82,50.49-2.59,7.49-4.86,15.12-7.88,22.44-2.42,5.86-2.53,5.14-5.59,10.72-1.55,2.82-1.03,5.03,1.15,7.07,3.46,3.24,6.94,6.45,10.42,9.66,2.83,2.62,5.68,5.23,8.52,7.83,2.86,2.62,4.8,2.12,6.37-1.26,1.26-2.72,7.57-9.76,10.09-14.19,3.5-6.16,6.91-12.46,9.46-19.05,2.73-7.06,5.3-14.4,6.33-21.84Z"/>
      <path d="M390.62,379.7c-2.05-2.46-4.39-4.72-6.91-6.68-.54-.42-3,.43-3.34,1.22-1.19,2.84-1.85,5.9-2.94,9.66,1.11.79,2.49,2.52,3.49,2.32,3-.6,5.94-1.76,8.69-3.14.76-.38,1.45-2.86,1.01-3.39Z"/>
    </g>
  </g>
</svg>