<?xml version="1.0" encoding="UTF-8"?>
<svg id="Layer_2" data-name="Layer 2" xmlns="http://www.w3.org/2000/svg" viewBox="0 0 196.68 227.96">
  <g id="Layer_2-2" data-name="Layer 2">
    <path d="M1.57,9.11l9.96,52.06c.57,2.98,3.18,5.14,6.21,5.14h21.76c2.35.01,4.51,1.31,5.6,3.39l.76,1.45c2.35,4.47-1.23,9.76-6.25,9.24l-23.93-2.47c-2.5-.26-4.91.98-6.15,3.16l-5.41,9.5c-1.32,2.32-1.04,5.22.69,7.25l7.1,8.27c.47.54,1.02,1,1.64,1.36l16.54,9.54c2.57,1.48,3.77,4.55,2.87,7.38l-2.12,6.74c-.5,1.59-1.61,2.92-3.08,3.69l-22.47,11.88c-2.9,1.53-4.15,5.02-2.88,8.05l5.41,12.87c.53,1.27.64,2.67.3,4L.19,203.03c-.49,1.93-.04,3.97,1.21,5.52l13.74,17.05c1.36,1.68,3.48,2.56,5.63,2.32l28.7-3.19c1.28-.14,2.49-.67,3.46-1.52l18.17-15.82c1.06-.92,2.39-1.46,3.79-1.54l43.31-2.5c1.66-.1,3.3.47,4.55,1.57l24.09,21.21c1.16,1.02,2.64,1.58,4.18,1.58h27.92c2.21,0,4.25-1.15,5.4-3.03l11.41-18.71c.96-1.57,1.18-3.47.63-5.22l-9.6-30.07c-.53-1.66-.35-3.47.49-4.99l5.78-10.44c1.76-3.18.49-7.18-2.78-8.76l-28.25-13.67c-2.74-1.33-4.15-4.41-3.35-7.35l.39-1.45c.41-1.53,1.39-2.85,2.73-3.69l27.44-17.35c2.75-1.74,3.73-5.28,2.28-8.18l-7.35-14.67c-.97-1.93-2.86-3.24-5.01-3.46l-8.14-.84c-1.14-.12-2.3.08-3.34.57l-8.56,4.03c-4.46,2.1-9.5-1.48-8.99-6.38h0c.3-2.88,2.51-5.18,5.37-5.6l31.8-4.67c3.06-.45,5.35-3.05,5.41-6.14l.95-51.17c.07-3.56-2.82-6.48-6.38-6.45L7.73,1.59c-3.95.03-6.9,3.64-6.16,7.52Z" style="fill: #f7b1bd;"/>
    <g>
      <path d="M181.74,190.34c-.41-2.08-.97-4.15-1.61-6.17-.54-1.72-1.26-3.38-1.98-5.03-.69-1.57-1.44-3.12-2.24-4.65-1.25-2.38-2.57-4.73-3.84-7.1-.48-.9-.83-1.89-1.35-2.76-1.03-1.72-2.15-3.38-3.2-5.09-.12-.19-.15-.68-.09-.71.29-.12.65-.22.92-.14.55.17,1.05.5,1.59.69,1.48.51,2.96,1.07,4.48,1.43.73.17,1.59.04,2.34-.16.86-.22,1.67-.64,2.48-1.03.45-.21,1.04-.44,1.23-.83.61-1.29,1.1-2.64,1.54-4,.14-.45.18-1.14-.06-1.46-.93-1.22-2.15-2.08-3.68-2.46-2.16-.53-4.33-1.04-6.47-1.68-2.13-.64-4.24-1.39-6.33-2.18-2.79-1.05-5.54-2.17-8.31-3.27-1.55-.61-2.72-1.62-3.77-2.95-1.13-1.42-2.69-2.48-3.93-3.82-1.61-1.74-3.07-3.63-4.65-5.4-1.52-1.7-3.13-3.32-4.69-5-.86-.93-.68-1.56.54-1.94.74-.23,1.49-.39,2.22-.65,1.46-.52,2.03-1.66,2.44-3.12.69-2.44,1.7-4.79,2.48-7.21.38-1.19,1.08-1.94,2.2-2.42,1.25-.53,2.47-1.12,3.69-1.71,3.96-1.9,7.89-3.84,11.86-5.71,2.71-1.28,5.46-2.46,8.18-3.71,2.55-1.17,4.92-2.61,6.92-4.61.43-.43.68-.87-.09-1.33-.88-.53-1.15-1.34-.56-2.3.48-.78.15-1.24-.52-1.74-.65-.49-1.32-1.1-1.66-1.82-.52-1.08-1.17-1.64-2.38-1.52-1.19.12-2.39.16-3.58.3-.56.07-1.21.14-1.65.45-3.86,2.7-7.66,5.48-11.51,8.19-2.65,1.87-5.35,3.67-8,5.54-2.23,1.57-4.45,3.16-6.6,4.84-.55.43-.84,1.21-1.21,1.85-.31.55-.58,1.13-.84,1.71-.75,1.7-1.52,3.39-2.21,5.11-.39.96-.6,1.99-1.69,2.45-1.37.58-2.73,1.16-4.07,1.81-.82.39-1.47.17-2.07-.37-1.17-1.06-2.27-2.18-3.46-3.21-1.11-.96-2.3-1.84-3.46-2.74-1.38-1.06-2.71-2.12-3.25-3.94-.25-.83.11-1.25.55-1.68,1.81-1.8,6.73-6.64,11.08-10.89,1.51-1.48,4.26-2.44,3.81-4.06-.53-1.92-1.02-3.86-1.75-5.7-1.17-2.95-2.51-5.83-3.8-8.73-.4-.9-.17-1.71.31-2.48,2.17-3.49,10.15-16.29,12.22-19.52.08-.13.15-.25.22-.37,2.88-.32,5.27-1.38,7.15-3.21,2.28-2.21,3.42-5.18,3.42-8.91v-.62c0-.21-.07-.38-.22-.53-.15-.14-.32-.22-.53-.22l-7.26-.31c-.21,0-.38.07-.53.22-.15.15-.22.32-.22.53v1.68c0,1.2-.33,2.16-.99,2.89-.66.72-1.55,1.09-2.67,1.09s-1.95-.36-2.61-1.09c-.66-.72-.99-1.69-.99-2.89v-21.42c0-1.2.33-2.17.99-2.92.66-.75,1.53-1.12,2.61-1.12s2.01.37,2.67,1.12c.66.75.99,1.72.99,2.92v1.61c0,.46.25.68.75.68l7.26-.31c.21,0,.38-.07.53-.22.14-.14.22-.32.22-.53v-.68c0-3.68-1.13-6.62-3.38-8.82-2.26-2.19-5.27-3.29-9.03-3.29s-6.72,1.1-8.97,3.29c-2.26,2.19-3.38,5.13-3.38,8.82v20.12c0,3.62,1.07,6.52,3.2,8.71-2.4,4.37-5.78,10.57-6.73,12.12-1.39,2.27-2.92,4.47-4.26,6.78-1.38,2.38-1.15,4.91-.2,7.39.97,2.54,5.68,11.27,4.06,12.63-.67.56-4.33,4.62-7.93,8.43-.65.69-3.02-4.95-3.72-5.75-.75-.85-.62-1.77.37-2.37.78-.47,1.69-.84,2.3-1.48,2.52-2.71,3.17-5.91,2.23-9.5-.83-3.17-3.23-4.58-6.02-5.47-2.34-.74-4.81-1.14-6.57-3.1-.11-.12-.29-.17-.42-.27-.73-.56-1.79-.91-1.73-2.08.05-1.01-.33-1.8-.71-2.69-.98-2.28-2.81-2.46-5.05-2-.56.11-1.16.1-1.74.08-1.08-.03-2.17-.26-3.22-.13-1.85.23-2.39,1.91-3.12,3.3-.14.27-.13.68-.07,1,.15.78-.03,1.37-.75,1.77-.56.31-1.19.58-1.6,1.04-1.9,2.14-4.5,2.64-7.06,3.37-1.96.55-3.95,1.5-4.76,3.51-.98,2.44-1.4,4.97-.42,7.68.79,2.18,1.81,3.85,4.01,4.76,1.22.5,1.28,1.17.5,2.31-.91.91-3.3,6.2-4.41,4.97-1.91-2.12-5.52-6.12-7.46-8.22-.64-.69,2.25-5.18,3.98-10.19.61-1.77,1.11-3.58,1.67-5.41-.35-1.16-.52-2.29-1.02-3.25-1-1.93-6.25-10.39-7.69-12.89-1.02-1.77-1.89-3.57-2.69-5.28.37-.28.73-.58,1.07-.91,2.3-2.24,3.45-5.22,3.45-8.94v-19.87c0-3.73-1.15-6.71-3.45-8.94-2.3-2.24-5.35-3.35-9.16-3.35s-6.85,1.12-9.13,3.35c-2.28,2.24-3.42,5.22-3.42,8.94v19.87c0,3.73,1.14,6.71,3.42,8.94,1.46,1.43,3.23,2.4,5.32,2.91,2.34,4,10.64,17.36,11.9,19.38.53.85,1.3,1.69.85,2.77-1.08,2.62-2.23,5.22-3.38,7.81-1.07,2.42-2.52,4.72-2.16,7.55.04.33.17.75.41.94.9.74,1.95,1.3,2.78,2.11,2.29,2.2,4.49,4.48,6.73,6.74.18.18.34.38.52.56,1.16,1.18,2.2,2.52,3.51,3.48,1.66,1.22,1.31,3.36.12,4.27-2.13,1.62-4.2,3.31-6.27,5-.91.75-1.7,1.65-2.65,2.34-.54.4-1.28.68-1.95.7-.74.02-1.53-.22-2.23-.51-1.15-.48-2.28-1.06-2.78-2.35-.93-2.37-1.8-4.78-2.83-7.1-.45-1.02-1.11-2.05-1.93-2.79-1.01-.92-2.3-1.53-3.44-2.31-3.1-2.14-6.19-4.29-9.27-6.46-2.92-2.06-5.83-4.15-8.73-6.24-1.35-.97-2.65-2.02-4.01-2.97-1.34-.94-2.92-1.18-4.49-1.38-1.76-.23-3.52-.42-4.85,1.23-.64.8-1.49,1.44-2.11,2.25-.39.52-.61,1.21-.76,1.86-.12.5.04,1.02-.6,1.34-.21.1-.36.89-.2,1.07.57.65,1.23,1.24,1.94,1.73,1.9,1.29,3.79,2.62,5.79,3.74,1.26.71,2.76.97,4.08,1.6,4.96,2.36,9.89,4.79,14.84,7.19,1.5.73,3.01,1.43,4.52,2.13,1.56.73,2.98,1.54,3.37,3.49.28,1.4.77,2.76,1.23,4.11.36,1.05,1.05,2.02,1.2,3.09.27,1.99,1.75,2.39,3.2,2.98.52.21,1.29.45,1.43.86.27.83-.23,1.5-.99,2.02-.69.47-1.28,1.12-1.84,1.75-.42.47-.67,1.1-1.09,1.57-2.36,2.67-4.77,5.31-7.13,7.98-.68.77-1.29,1.62-1.95,2.42-.53.65-.98,1.45-1.66,1.87-1.09.68-2.31,1.17-3.53,1.61-3.26,1.19-6.52,2.36-9.82,3.43-2.12.68-4.31,1.14-6.45,1.75-1.95.55-4,.94-5.8,1.83-2.55,1.25-3.02,1.54-1.55,4.67.58,1.23,1.27,2.45,2.14,3.48,1.65,1.94,2.46,2.64,5.12,1.64,1.93-.73,3.9-1.38,5.85-2.04.23-.08.56-.15.74-.04.21.13.48.52.42.68-.27.69-.63,1.35-1.01,1.99-1.79,3.01-3.66,5.97-5.39,9.02-.7,1.24-1.08,2.67-1.66,3.98-1.22,2.74-2.55,5.43-3.68,8.2-.67,1.65-1.1,3.42-1.52,5.16-.43,1.83-.9,3.69-1.02,5.56-.17,2.57,0,5.17-.06,7.75-.06,2.53.86,4.81,1.77,7.06.4.99,1.27,1.83,2.05,2.62,1.12,1.14,2.22,2.41,3.57,3.2,1.83,1.08,3.87,1.79,5.84,2.6.63.26,1.33.51,1.99.48,1.75-.06,3.49-.24,5.23-.44,1.29-.15,2.57-.37,3.84-.64,1.18-.25,2.34-.63,3.52-.9,1.51-.34,2.93-.79,4.03-2.01.49-.54,1.2-.89,1.82-1.3,1.43-.95,2.92-1.81,4.27-2.85,1.97-1.51,3.87-3.11,5.75-4.72,2.66-2.28,5.29-4.59,7.89-6.93,1.64-1.47,3.19-3.05,4.79-4.56,2.34-2.2,4.78-4.29,7-6.6,1.42-1.47,2.44-.78,3.44.46,1.4,1.73,3.05,3.27,4.69,4.79.49.45,1.27.63,1.95.81,2.14.56,4.17,1.32,5.77,2.94,1.38,1.4,3.1,1.31,4.85,1.09.43-.05.88-.11,1.3-.03,1.88.35,3.58.11,5.08-1.21.77-.67,1.59-1.34,2.5-1.77,1.1-.53,2.39-.68,3.48-1.22,2.52-1.24,4.46-3.24,6.06-5.51,1.04-1.49,2.6-1.69,3.56-.36.6.84,1.32,1.61,2.08,2.32,2.43,2.25,4.91,4.44,7.35,6.67,1.33,1.22,2.6,2.5,3.95,3.7,2.75,2.47,5.52,4.92,8.32,7.33,1.16.99,2.42,1.87,3.64,2.78,1.84,1.39,3.67,2.78,5.53,4.14.8.58,1.62,1.17,2.52,1.54.85.36,1.81.43,2.71.66,1.36.36,2.69.87,4.06,1.11,2.07.36,4.18.53,6.27.8.32.04.68.3.94.21,2.08-.71,4.19-1.38,6.21-2.25,2.77-1.2,5.12-2.94,6.82-5.56,1.65-2.54,2.59-5.29,2.76-8.28.21-3.8-.04-7.6-.78-11.34ZM51.36,22.93c0-1.32.34-2.39,1.02-3.2.68-.81,1.6-1.21,2.76-1.21s2.09.4,2.79,1.21c.7.81,1.06,1.87,1.06,3.2v20.61c0,1.33-.35,2.39-1.06,3.2-.7.81-1.64,1.21-2.79,1.21s-2.08-.4-2.76-1.21c-.68-.81-1.02-1.87-1.02-3.2v-20.61ZM59.9,132.74c.13-.3.31-.6.52-.84.91-1.03,1.83-2.05,2.77-3.05,1.38-1.48,3.14-1.37,4.73-.52.2.11.29.43.59.93-.75.53-1.41,1.08-2.14,1.48-.97.52-2,.93-3.01,1.37-.96.42-1.91.83-2.88,1.22-.16.06-.44.05-.53-.05-.1-.1-.11-.39-.05-.54ZM38.81,175.57c-.51,1.6-.71,3.31-.96,4.98-.3,2.04-.52,4.09-.76,6.14-.03.25-.02.51-.02.77,0,3.19-.06,6.38.02,9.56.07,2.91.46,5.78,1.67,8.47.55,1.21-.2,2.19-1.7,2.27-.56.03-1.13,0-1.79,0-1.64-.08-3.38-.11-5.11-.26-1.18-.1-2.38-.25-3.5-.61-1.81-.6-2.94-1.89-3.44-3.82-.6-2.31-1.1-4.63-.97-7.03.14-2.58.26-5.17.55-7.74.11-.92.61-1.85,1.11-2.65.85-1.36,1.26-2.87,1.82-4.35,1.09-2.89,2.39-5.71,3.77-8.47,1.94-3.87,3.88-7.76,6.11-11.47,1.69-2.8,3.91-5.28,5.73-8,1.57-2.35,3.94-3.33,6.36-4.35,1.91-.81,3.77-1.73,5.67-2.58.29-.13.64-.14.97-.18.6-.06.83.24.5.75-1.34,2.07-2.71,4.12-4.08,6.18-.81,1.23-1.66,2.43-2.44,3.67-1.6,2.54-3.2,5.08-4.71,7.68-.86,1.48-1.61,3.04-2.29,4.62-.91,2.11-1.82,4.22-2.52,6.41ZM57.19,194.55c-.84.58-8.75,7.66-9.61,8.22-1.68,1.08-2.23.84-3.05-.91-.59-1.25-.86-1.7-1.03-3.09-.22-1.76-.24-11.05.01-13.89.47-5.37,1.44-10.65,4.29-15.37.22-.36.39-.74.63-1.07.38-.52,1.18-.44,1.42.2.47,1.3.84,2.63,1.28,3.94.56,1.71,1.11,3.42,1.71,5.11.68,1.9,1.32,3.84,2.18,5.66.77,1.63,3.19,5.43,4.24,6.67.8,1.42-.09,2.56-2.06,4.53ZM71.57,180.2c-1.17,1.26-2.36,2.5-3.55,3.75-.47.49-.88,1.04-1.41,1.45-1.17.91-1.01-.21-3.28-3.28-1.77-2.41-3.37-4.9-4.29-7.79-.63-1.97-1.45-3.89-2-5.89-.49-1.76-.73-3.59-.98-4.92.19-1.7.36-2.87.43-4.04.03-.48-.16-.98-.25-1.47-.3-1.73.49-3.06,1.48-4.38,1.46-1.96,2.8-4.01,4.22-5.99.69-.95,1.43-1.87,2.2-2.75,1-1.15,2.05-2.24,3.08-3.36.04-.04.07-.11.12-.12.5-.18,1.01-.34,1.52-.51.06.48.23.98.17,1.45-.21,1.6-.62,3.17-.73,4.77-.25,3.45-.4,6.92-.52,10.38-.13,3.47.6,6.81,1.52,10.13.9,3.23,3.22,7.87,3.41,8.2,1.53,2.62.46,2.67-1.13,4.37ZM73.64,123.74c-.85-.3-1.75-.51-2.54-.93-.75-.39-.58-1.07-.07-1.57.55-.54,1.17-1.02,1.8-1.47.85-.6,1.24.18,1.5.71.31.63.46,1.37.53,2.08.08.79-.34,1.22-1.22,1.18ZM128.19,128.26c.65-.32,1.39-.46,2.33-.75.6.35,1.33.62,1.86,1.11,1.23,1.12,2.4,2.32,3.53,3.54.35.38.5.94.75,1.42-.55-.02-1.17.12-1.64-.08-2.29-1.01-4.56-2.08-6.8-3.19-.38-.19-.81-.69-.84-1.07-.02-.31.45-.8.81-.98ZM120.8,123.06c.35-1.2.56-2.19.94-3.09.11-.25.9-.53,1.07-.39.81.63,1.56,1.35,2.21,2.14.14.17-.08.96-.32,1.08-.88.44-1.82.81-2.78,1-.32.06-.76-.49-1.12-.74ZM130.97,184.5c-.5,1.08-1.12,1.24-2.04.4-.91-.83-1.82-1.67-2.73-2.51-1.11-1.03-2.23-2.06-3.34-3.09-.7-.65-.86-1.36-.37-2.26.98-1.78,1.02-1.56,1.79-3.43.97-2.34,1.69-4.78,2.52-7.18,1.83-5.28,1.31-10.75,1.22-16.17-.03-2.24-.78-4.46-1.17-6.7-.16-.91-.23-1.83-.27-2.75,0-.13.47-.43.63-.37.35.12.7.37.95.66,2.09,2.41,4.23,4.78,6.2,7.29,1.73,2.21,3.39,4.5,4.77,6.93.61,1.08.46,9.07.12,11.56-.33,2.38-1.15,4.73-2.03,6.99-.82,2.11-1.91,4.13-3.03,6.1-.81,1.42-2.83,3.67-3.23,4.54ZM152,202.38c-.74,1.31-1.59,1.44-2.75.63-1.8-1.25-9.46-7.7-12.05-10.29-.94-.89-1.07-2.17.06-3.33,2.09-2.15,1.94-2.51,3.12-5.26,1.5-3.51,2.74-7.14,4.04-10.73.52-1.43.86-2.92,1.36-4.35.14-.41.6-1.03.85-1,.41.05.9.47,1.12.87,1.69,3.07,3.08,6.28,3.81,9.73.29,1.39.41,2.82.54,4.23.26,2.71.64,10.97.49,12.34-.3,2.75.84,4.6-.59,7.15ZM171.02,206.72c-1.75.4-3.51.81-5.29,1.01-1.09.13-2.22-.17-3.34-.18-.8,0-1.61.21-2.41.2-.8-.01-1.66-.02-2.38-.32-.85-.35-.8-1.22-.49-1.98.84-2.12,1.38-4.28,1.4-6.58.04-3.28.25-6.56.22-9.84-.02-2.13-.16-4.28-.53-6.37-.54-3.08-1.25-6.14-2.02-9.17-.72-2.82-2.13-5.36-3.63-7.84-1.78-2.92-3.54-5.86-5.36-8.76-1.15-1.83-2.37-3.62-3.6-5.4-.76-1.1-1.6-2.13-2.37-3.22-.2-.28-.29-.66-.37-1.01-.08-.38-.08-.79-.12-1.18.47.02.99-.1,1.39.08,1.65.72,3.25,1.54,4.89,2.29,1.3.6,2.68,1.06,3.93,1.75.94.52,1.79,1.25,2.57,2,1.05,1.02,2.06,2.09,2.96,3.24.94,1.2,1.76,2.5,2.56,3.8,1.93,3.12,3.87,6.24,5.7,9.41,1.21,2.09,2.36,4.22,3.31,6.44.95,2.21,1.87,4.48,2.34,6.82.31,1.54,1.18,2.59,1.82,3.86.58,1.16.91,2.51,1.08,3.81.18,1.4.04,2.84.04,4.26s-.06,2.85.02,4.27c.08,1.42.27,2.84.49,4.24.19,1.18-1.57,4.07-2.82,4.36Z" style="fill: #ee204c;"/>
      <path d="M21.56,54.29c.08.46.35.68.81.68h8.01c.46,0,.72-.23.81-.68l8.94-41.97c.12-.54-.08-.81-.62-.81h-7.76c-.5,0-.77.23-.81.68l-4.16,27.32c-.04.17-.1.25-.19.25s-.15-.08-.19-.25l-4.28-27.32c-.04-.46-.31-.68-.81-.68h-8.01c-.46,0-.68.19-.68.56l.06.25,8.88,41.97Z" style="fill: #ee204c;"/>
      <path d="M73.34,54.97h7.26c.21,0,.38-.07.53-.22.14-.14.22-.32.22-.53v-16.95c0-.21.1-.31.31-.31h2.11c.12,0,.23.08.31.25l4.78,17.14c.12.41.41.62.87.62h7.45c.46,0,.68-.21.68-.62l-.06-.25-5.71-18.32c-.04-.08-.04-.16,0-.22.04-.06.1-.11.19-.16,1.66-1.03,2.95-2.48,3.88-4.35.93-1.86,1.4-4.01,1.4-6.46,0-2.57-.49-4.84-1.46-6.83-.97-1.99-2.35-3.53-4.13-4.63-1.78-1.1-3.81-1.65-6.08-1.65h-12.54c-.21,0-.38.07-.53.22s-.22.32-.22.53v41.97c0,.21.07.38.22.53.14.15.32.22.53.22ZM81.35,19.33c0-.21.1-.31.31-.31h2.79c1.28,0,2.33.51,3.14,1.52.81,1.01,1.21,2.39,1.21,4.13s-.4,3.05-1.21,4.07c-.81,1.01-1.85,1.52-3.14,1.52h-2.79c-.21,0-.31-.1-.31-.31v-10.62Z" style="fill: #ee204c;"/>
      <path d="M100.91,54.97h7.26c.5,0,.77-.23.81-.68l.99-5.96c0-.21.12-.31.37-.31h7.89c.25,0,.37.1.37.31l.99,5.96c.04.46.31.68.81.68h7.45c.45,0,.68-.19.68-.56l-.06-.25-9.07-41.97c-.08-.46-.35-.68-.81-.68h-8.38c-.46,0-.72.23-.81.68l-9.13,41.97c-.12.54.08.81.62.81ZM114.01,23.99c.04-.12.1-.19.19-.19s.14.06.19.19l2.92,16.95c.04.21-.04.31-.25.31h-5.59c-.17,0-.25-.1-.25-.31l2.79-16.95Z" style="fill: #ee204c;"/>
      <path d="M160.46,54.97h21.3c.21,0,.38-.07.53-.22s.22-.32.22-.53v-6.02c0-.21-.07-.38-.22-.53-.15-.14-.32-.22-.53-.22h-12.98c-.21,0-.31-.1-.31-.31v-9.87c0-.21.1-.31.31-.31h7.45c.21,0,.38-.07.53-.22.14-.14.22-.32.22-.53v-6.02c0-.21-.07-.38-.22-.53-.15-.14-.32-.22-.53-.22h-7.45c-.21,0-.31-.1-.31-.31v-9.81c0-.21.1-.31.31-.31h12.98c.21,0,.38-.07.53-.22.14-.14.22-.32.22-.53v-6.02c0-.21-.07-.38-.22-.53-.15-.14-.32-.22-.53-.22h-21.3c-.21,0-.38.07-.53.22-.15.15-.22.32-.22.53v41.97c0,.21.07.38.22.53.14.15.32.22.53.22Z" style="fill: #ee204c;"/>
    </g>
  </g>
</svg>