<?xml version="1.0" encoding="UTF-8"?>
<svg id="Layer_2" data-name="Layer 2" xmlns="http://www.w3.org/2000/svg" xmlns:xlink="http://www.w3.org/1999/xlink" viewBox="0 0 600 370">
  <defs>
    <clipPath id="clippath">
      <rect x="0" y="0" width="600" height="370" rx="30" ry="30" style="fill: none;"/>
    </clipPath>
  </defs>
  <g id="Layer_1-2" data-name="Layer 1">
    <g>
      <rect x="0" y="0" width="600" height="370" rx="30" ry="30" style="fill: #f1eee9;"/>
      <g style="clip-path: url(#clippath);">
        <g style="opacity: .25;">
          <path d="M453.82,155.34l-6.1,48.26c-.35,2.76,1.31,5.39,3.96,6.25l10.26,3.35c2.05.67,3.56,2.42,3.92,4.54l.25,1.48c.78,4.57-3.84,8.17-8.08,6.29l-11.46-6.12c-2.1-.93-4.56-.54-6.26,1.01l-7.42,6.75c-1.81,1.65-2.4,4.26-1.45,6.53l3.84,9.24c.25.61.61,1.17,1.05,1.66l11.72,13.02c1.82,2.02,1.99,5.04.41,7.26l-3.77,5.28c-.89,1.24-2.23,2.09-3.74,2.35l-22.99,3.98c-2.96.51-5.05,3.21-4.8,6.2l1.06,12.77c.1,1.26-.2,2.51-.87,3.58l-15.85,25.16c-.97,1.54-1.16,3.46-.51,5.16l7.15,18.78c.71,1.85,2.31,3.22,4.25,3.62l25.95,5.38c1.16.24,2.36.12,3.45-.34l20.36-8.64c1.18-.5,2.5-.6,3.75-.27l38.51,10.13c1.48.39,2.74,1.34,3.52,2.66l15,25.36c.72,1.22,1.86,2.13,3.2,2.57l24.36,7.93c1.93.63,4.04.21,5.58-1.11l15.27-13.08c1.28-1.1,2.02-2.69,2.03-4.38l.17-28.97c0-1.6.68-3.12,1.85-4.22l8.01-7.47c2.44-2.27,2.47-6.13.06-8.44l-20.77-19.96c-2.01-1.94-2.36-5.03-.84-7.37l.76-1.16c.8-1.22,2.02-2.09,3.43-2.45l28.88-7.34c2.89-.74,4.76-3.54,4.31-6.5l-2.71-13.49c-.89-5.89-11.7-6.17-12.76-6.22-4.43-.23-7.41-3.33-7.33-6.35-.04-2.74,2.87-6.19,7.91-5.64l20.02,3.42c2.8.48,5.54-1.14,6.47-3.83l15.37-44.38c1.07-3.09-.62-6.45-3.74-7.44l-157.13-49.63c-3.46-1.09-7.06,1.21-7.51,4.81Z" style="fill: none; stroke: #f6b0bc; stroke-miterlimit: 10;"/>
          <path d="M458.43,200.45l4.18-39.15.02-.23c.11-.33.36-.42.75-.29l6.99,2.28c.43.14.6.42.51.83l-4.03,25.06c-.01.16.02.25.09.27.07.02.15-.03.23-.16l11.39-22.66c.16-.39.47-.51.9-.37l6.77,2.21c.47.15.57.45.31.88l-19.73,34.09c-.2.37-.5.5-.9.37l-6.99-2.28c-.4-.13-.57-.4-.51-.83ZM502.98,214.9l11.93-36.63c.06-.18.17-.31.34-.4.17-.09.34-.1.52-.04l10.95,3.56c1.99.65,3.6,1.7,4.84,3.17,1.24,1.46,2,3.2,2.29,5.21.28,2.01.06,4.14-.67,6.38-.69,2.13-1.71,3.88-3.05,5.24-1.34,1.36-2.88,2.26-4.62,2.69-.08.01-.15.04-.21.08-.05.04-.07.11-.06.19l-.22,17.61-.02.23c-.12.36-.38.48-.77.35l-6.5-2.12c-.4-.13-.59-.39-.58-.79l.7-16.31c-.03-.17-.09-.27-.2-.31l-1.84-.6c-.18-.06-.3,0-.36.18l-4.82,14.79c-.06.18-.17.31-.34.4-.17.09-.34.1-.52.04l-6.34-2.06c-.18-.06-.31-.17-.4-.34-.09-.17-.1-.34-.04-.52ZM517.52,196.2c-.06.18,0,.3.18.36l2.44.79c1.12.36,2.18.22,3.17-.44.99-.66,1.73-1.72,2.21-3.21.49-1.52.53-2.83.12-3.95-.42-1.11-1.18-1.85-2.3-2.22l-2.44-.79c-.18-.06-.3,0-.36.18l-3.02,9.27ZM527.17,222.71l19.89-34.04c.2-.37.5-.5.9-.37l7.32,2.38c.4.13.57.4.51.83l-4.02,39.21-.02.23c-.11.33-.36.42-.75.29l-6.5-2.12c-.43-.14-.6-.42-.51-.82l.83-5.48c.06-.18-.02-.31-.24-.38l-6.88-2.24c-.22-.07-.35-.02-.41.17l-2.56,4.92c-.17.39-.46.51-.9.37l-6.34-2.06c-.47-.15-.57-.45-.31-.88ZM540.59,214.62l4.88,1.59c.18.06.28,0,.3-.2l2.27-15.62c0-.12-.04-.19-.11-.22-.07-.02-.14.01-.22.11l-7.26,14c-.06.18-.02.29.13.34ZM610.78,208.98c-.09-.17-.22-.28-.4-.34l-18.59-6.05c-.18-.06-.36-.05-.52.04-.17.09-.28.22-.34.4l-11.93,36.63c-.06.18-.05.35.04.52.08.17.22.28.4.34l18.59,6.05c.18.06.35.05.52-.04.17-.08.28-.22.34-.4l1.71-5.26c.06-.18.05-.35-.04-.52-.09-.17-.22-.28-.4-.34l-11.33-3.69c-.18-.06-.24-.18-.18-.36l2.81-8.62c.06-.18.18-.24.36-.18l6.5,2.12c.18.06.35.05.52-.04.17-.09.28-.22.34-.4l1.71-5.26c.06-.18.05-.35-.04-.52-.09-.17-.22-.28-.4-.34l-6.5-2.12c-.18-.06-.24-.18-.18-.36l2.79-8.56c.06-.18.18-.24.36-.18l11.33,3.69c.18.06.35.05.52-.04.17-.09.28-.22.34-.4l1.71-5.26c.06-.18.05-.35-.04-.52ZM586.1,278.16c-.79.67-.79,1.45-.17,2.17.54.63.2.93-.3,1.19-2.31,1.18-4.8,1.76-7.35,2.06-2.73.31-5.47.57-8.19.91-4,.51-7.98,1.08-11.98,1.62-1.23.17-2.47.34-3.71.44-1.11.09-1.93.55-2.61,1.48-1.37,1.89-2.92,3.66-4.21,5.59-.77,1.16-1.6,1.99-3.02,2.03-.71.02-1.41-.05-2.12-.06-1.17-.02-1.51.48-1.02,1.54.88,1.9,1.82,3.78,2.67,5.69.88,2,1.61,4.06,2.52,6.04.7,1.52,1.76,2.89,2.34,4.45.54,1.46,1.28,2.68,2.45,3.65,2.1,1.74,4.19,3.51,6.33,5.21,1.6,1.28,3.22,2.53,4.9,3.7,1.68,1.17,3.43,2.23,5.17,3.3,1.23.76,2.05,1.86,2.51,3.19.12.35-.11.95-.36,1.29-.77,1.06-1.59,2.1-2.48,3.05-.27.29-.85.31-1.31.37-.81.11-1.64.24-2.45.19-.71-.04-1.5-.17-2.09-.53-1.23-.74-2.36-1.65-3.51-2.52-.42-.32-.76-.75-1.19-1.05-.22-.15-.56-.16-.84-.14-.06,0-.17.44-.12.64.44,1.79.94,3.56,1.35,5.35.21.91.23,1.87.4,2.8.43,2.43.92,4.85,1.33,7.29.26,1.55.48,3.12.63,4.69.16,1.65.31,3.3.3,4.95-.02,1.95-.12,3.91-.35,5.85-.41,3.47-1.27,6.86-2.54,10.12-1,2.56-2.6,4.69-4.76,6.44-2.23,1.8-4.78,2.66-7.53,2.91-2.01.19-4.04.17-6.06.2-.25,0-.49-.32-.76-.45-1.75-.83-3.54-1.58-5.24-2.48-1.13-.6-2.15-1.42-3.23-2.12-.72-.46-1.54-.8-2.18-1.35-.68-.59-1.23-1.33-1.76-2.06-1.24-1.71-2.44-3.45-3.65-5.18-.8-1.15-1.66-2.27-2.38-3.46-1.76-2.9-3.48-5.83-5.18-8.76-.83-1.43-1.57-2.91-2.39-4.35-1.5-2.64-3.04-5.26-4.52-7.91-.46-.83-.87-1.71-1.16-2.61-.46-1.44-1.87-1.7-3.21-.7-2.04,1.53-4.3,2.72-6.85,3.09-1.11.16-2.27-.07-3.39.07-.92.12-1.83.47-2.69.83-1.69.72-3.24.45-4.78-.39-.34-.19-.75-.27-1.14-.34-1.59-.31-3.11-.72-3.92-2.33-.94-1.87-2.49-3.11-4.2-4.21-.54-.35-1.18-.73-1.47-1.26-1-1.79-2.01-3.6-2.74-5.51-.52-1.36-1.22-2.25-2.87-1.37-2.6,1.38-5.32,2.51-7.98,3.77-1.83.86-3.63,1.79-5.48,2.61-2.94,1.3-5.89,2.57-8.86,3.81-2.1.88-4.21,1.73-6.36,2.49-1.48.52-3.03.85-4.54,1.27-.66.19-1.38.28-1.96.62-1.31.76-2.67.74-4.09.61-1.11-.1-2.22-.1-3.33-.22-1.18-.13-2.37-.3-3.54-.54-1.58-.32-3.15-.66-4.69-1.1-.58-.17-1.13-.58-1.6-.99-1.49-1.27-3.07-2.47-4.36-3.93-.95-1.08-1.55-2.49-2.21-3.81-.45-.91-.97-1.89-1.04-2.87-.15-2.22-.3-4.47.47-6.67.79-2.24,1.37-4.55,2.25-6.75.64-1.59,1.57-3.08,2.47-4.56.86-1.41,1.73-2.82,2.79-4.08,1.77-2.1,3.7-4.07,5.54-6.11.88-.98,1.62-2.12,2.58-3,2.37-2.17,4.84-4.22,7.26-6.34.51-.45,1.01-.93,1.45-1.45.1-.12-.03-.54-.17-.71-.12-.14-.43-.18-.65-.17-1.9.03-3.79.03-5.69.12-2.61.12-3.11-.72-4-2.89-.47-1.14-.73-2.41-.88-3.64-.39-3.14.1-3.27,2.68-3.63,1.82-.26,3.72-.02,5.58.05,2.04.08,4.08.3,6.12.31,3.18,0,6.36-.09,9.55-.2,1.18-.04,2.39-.12,3.54-.4.71-.17,1.33-.74,1.98-1.16.8-.51,1.57-1.08,2.38-1.56,2.82-1.66,5.67-3.28,8.49-4.94.5-.29.9-.77,1.4-1.06.67-.39,1.37-.79,2.11-1,.82-.24,1.44-.68,1.44-1.48,0-.39-.6-.82-1-1.15-1.1-.92-2.28-1.69-1.95-3.51.17-.97-.15-2.02-.17-3.04-.02-1.31-.06-2.64.09-3.94.21-1.81-.79-2.92-1.95-4-1.12-1.04-2.24-2.09-3.34-3.15-3.64-3.5-7.25-7.02-10.91-10.49-.97-.92-2.2-1.58-3.11-2.56-1.43-1.55-2.7-3.24-3.99-4.91-.48-.63-.89-1.33-1.21-2.06-.09-.2.27-.85.48-.88.65-.1.66-.6.9-1,.32-.52.71-1.07,1.2-1.41.77-.54,1.69-.85,2.48-1.37,1.63-1.07,3.11-.39,4.59.3,1.31.62,2.62,1.28,3.52,2.48.92,1.22,1.75,2.5,2.65,3.73,1.94,2.65,3.88,5.3,5.85,7.92,2.07,2.77,4.16,5.52,6.25,8.27.77,1.01,1.72,1.9,2.34,2.99.5.88.79,1.96.89,2.98.24,2.32.31,4.67.45,7,.08,1.26.89,2.09,1.76,2.84.53.45,1.15.89,1.8,1.08.58.17,1.31.13,1.9-.06,1.02-.33,1.97-.9,2.97-1.29,2.28-.89,4.57-1.77,6.89-2.58,1.3-.45,2.22-2.22,1.11-3.76-.87-1.21-1.4-2.68-2.08-4.03-.1-.21-.19-.43-.29-.64-1.31-2.6-2.58-5.22-3.95-7.79-.5-.94-1.25-1.73-1.83-2.63-.15-.24-.14-.64-.09-.94.49-2.57,2.41-4.16,4.03-5.97,1.74-1.94,3.48-3.87,5.17-5.86.7-.82.26-1.76.04-2.66-.52-2.09-3.88-15.78-4.84-20.12-1.73-1.05-3.05-2.42-3.94-4.12-1.35-2.6-1.5-5.52-.44-8.77l5.65-17.34c1.06-3.25,2.9-5.53,5.52-6.83,2.62-1.3,5.59-1.41,8.92-.33,3.32,1.08,5.67,2.93,7.04,5.53,1.37,2.6,1.53,5.53.47,8.78l-5.65,17.34c-1.06,3.25-2.91,5.53-5.55,6.82-.36.18-.73.33-1.1.46.22,1.7.46,3.49.84,5.29.55,2.59,2.72,11.47,3.05,13.43.16.98,0,2.01-.03,3.12-1.01,1.44-1.95,2.88-2.99,4.25-2.94,3.88-6.73,6.98-6.37,7.76,1.1,2.38,3.11,6.9,4.17,9.29.62,1.38,4.21-2.55,5.26-3.09,1.01-.77,1.14-1.37.22-2.15-1.66-1.42-2.08-3.17-2.15-5.3-.08-2.64,1-4.73,2.55-6.59,1.28-1.53,3.29-1.79,5.16-1.71,2.44.1,4.86.4,7.12-.93.49-.29,1.12-.34,1.69-.45.75-.15,1.07-.61,1.16-1.33.04-.3.14-.65.34-.85,1.03-1.01,1.98-2.32,3.66-1.99.96.19,1.85.7,2.78,1.03.5.18,1.02.36,1.54.42,2.08.24,3.63.91,3.84,3.18.08.89.19,1.69-.14,2.55-.38,1,.44,1.6.92,2.3.09.13.23.22.29.35.98,2.21,3.02,3.26,4.86,4.57,2.19,1.56,3.88,3.48,3.7,6.48-.2,3.4-1.67,6.01-4.64,7.66-.71.39-1.61.45-2.43.64-1.03.24-1.41,1.01-.99,1.96.39.9.85,6.49,1.62,6.08,4.22-2.3,8.56-4.8,9.31-5.1,1.8-.73.17-9.68.05-12.17-.12-2.43.4-4.7,2.27-6.39,1.82-1.64,3.78-3.12,5.64-4.71,1.27-1.08,5.9-5.45,9.23-8.58-1.22-2.51-1.33-5.34-.31-8.49l5.72-17.56c1.05-3.21,2.87-5.46,5.46-6.73,2.59-1.27,5.51-1.38,8.77-.32,3.29,1.07,5.6,2.88,6.95,5.44,1.34,2.56,1.49,5.44.45,8.66l-.19.6c-.06.18-.17.31-.34.4-.17.09-.34.1-.52.04l-6.43-1.79c-.43-.14-.59-.41-.46-.81l.46-1.41c.34-1.05.33-1.99-.04-2.83-.37-.84-1.04-1.42-2.01-1.73-.94-.31-1.8-.23-2.59.23-.79.46-1.36,1.22-1.7,2.26l-6.09,18.69c-.34,1.05-.33,1.98.05,2.8.37.82,1.03,1.38,1.97,1.69.98.32,1.85.25,2.64-.19.78-.44,1.35-1.19,1.69-2.24l.48-1.46c.06-.18.17-.31.34-.4.17-.09.34-.1.52-.04l6.25,2.34c.18.06.31.17.4.34.08.17.1.34.04.52l-.18.54c-1.06,3.25-2.9,5.52-5.51,6.81-2.18,1.07-4.57,1.32-7.19.76-.06.05-.11.1-.18.16-2.72,2.22-13.33,11.13-16.21,13.56-.64.53-1.07,1.18-.98,2.08.29,2.9.65,5.79.83,8.7.11,1.81-.01,3.65-.1,5.47-.07,1.55-2.74,1.6-4.48,2.46-5,2.48-10.67,5.3-12.76,6.36-.5.25-.93.52-.95,1.31-.05,1.74.81,3.04,1.71,4.36.76,1.12,1.54,2.22,2.24,3.38.75,1.23,1.39,2.53,2.11,3.78.37.64.88,1.02,1.7.91,1.35-.18,2.71-.3,4.07-.42,1.09-.09,1.56-.93,2.17-1.66,1.1-1.3,2.25-2.56,3.38-3.83.39-.43.79-.86,1.22-1.25.5-.46.98-1.05,1.58-1.27,2.35-.85,4.74-1.61,7.13-2.35,2.84-.88,5.71-1.68,8.56-2.56,4.13-1.28,8.24-2.62,12.37-3.88.47-.14,1.06-.03,1.57.08,1.08.22,2.14.53,3.21.76,1.1.23,1.5.91,1.65,2,.09.72.5,1.45.93,2.06.44.63.6,1.12-.04,1.67ZM452.83,329.5c-.56-1.38-1.6-5.38-1.8-7.02-.23-1.84-.24-3.71-.3-5.56-.05-1.65-.04-3.3-.04-4.94,0-1.27.05-2.54,0-3.8-.02-.63-.7-.93-1.18-.58-.31.23-.57.51-.86.76-3.83,3.31-6.17,7.64-8.11,12.19-1.02,2.4-3.65,10.52-3.96,12.12-.24,1.26-.13,1.73.02,2.99.22,1.76.64,2.13,2.4,1.66.91-.24,9.82-4.17,10.72-4.44,2.28-1.16,3.38-1.9,3.09-3.37ZM455.89,294.95c1.78-1.41,3.56-2.81,5.31-4.24.44-.35.32-.68-.22-.8-.29-.07-.6-.15-.89-.12-1.89.2-3.78.48-5.68.64-2.4.21-4.75.39-6.79,1.99-2.37,1.86-5.01,3.39-7.28,5.36-3,2.6-5.8,5.44-8.59,8.27-1.99,2.02-3.93,4.11-5.7,6.32-.91,1.13-1.7,2.33-2.83,3.28-.67.56-1.37,1.23-1.73,2-.99,2.15-1.82,4.38-2.68,6.59-.8,2.06-1.02,4.22-1.15,6.41-.11,1.83.51,3.27,1.92,4.31.87.64,1.88,1.11,2.88,1.53,1.47.63,2.98,1.15,4.39,1.68.57.19,1.06.37,1.56.5,1.33.36,2.26-.28,2.12-1.5-.29-2.7.18-5.31.95-7.87.84-2.8,1.8-5.57,2.7-8.35.07-.22.14-.45.24-.66.8-1.72,1.57-3.45,2.41-5.14.69-1.39,1.35-2.82,2.25-4.07,1.22-1.71,2.62-3.3,4.02-4.88,1.04-1.18,2.14-2.33,3.31-3.38,2.06-1.84,4.18-3.59,6.29-5.36,1.04-.86,2.12-1.67,3.17-2.51ZM475.16,289.36c-.49,0-.98,0-1.47.02-.05,0-.09.05-.14.07-1.21.68-2.44,1.34-3.64,2.06-.92.55-1.83,1.14-2.7,1.78-1.81,1.33-3.56,2.73-5.39,4.03-1.23.87-2.3,1.8-2.53,3.4-.06.45-.04.94-.2,1.35-.39,1-.87,1.97-1.52,3.41-.15,1.24-.46,2.9-.54,4.57-.08,1.9.09,3.8.07,5.7-.02,2.78.67,5.41,1.53,8.01,1.1,3.33.65,4.25,1.93,3.79.58-.21,1.1-.57,1.64-.86,1.39-.75,2.78-1.5,4.16-2.26,1.87-1.03,2.81-.77,2.22-3.49-.08-.35-.78-5.05-.65-8.13.14-3.16.45-6.29,1.55-9.28,1.09-2.99,2.21-5.97,3.41-8.91.56-1.36,1.36-2.62,1.99-3.96.19-.39.18-.87.26-1.31ZM478.18,279.11c-.13-.52-.11-.83-.25-.98-1.14-1.19-2.65-1.79-4.27-.89-1.1.61-2.2,1.24-3.28,1.88-.26.15-.5.36-.7.59-.1.12-.17.37-.11.49.06.11.3.2.45.19.96-.06,1.91-.15,2.86-.25,1.01-.1,2.02-.16,3.02-.34.76-.14,1.48-.44,2.29-.68ZM485.76,273.1c-.07-.54-.19-1.33-1.11-1.05-.68.21-1.35.46-1.99.77-.59.29-.93.84-.39,1.39.57.59,1.3,1.03,1.96,1.53.76.28,1.24.03,1.4-.68.14-.64.22-1.32.13-1.96ZM487.47,202.62c.37.9,1.06,1.51,2.07,1.84,1.01.33,1.94.24,2.78-.26.84-.5,1.45-1.33,1.83-2.49l5.86-17.99c.38-1.16.37-2.19-.01-3.09-.39-.9-1.08-1.52-2.09-1.85-1.01-.33-1.93-.24-2.76.27-.83.51-1.43,1.34-1.8,2.5l-5.86,17.99c-.38,1.16-.38,2.18-.01,3.08ZM529.55,295.82c-.08.34.15.9.43,1.17,1.64,1.61,3.31,3.19,5.03,4.72.35.31.93.37,1.41.54-.08-.49-.05-1.02-.25-1.46-.64-1.39-1.31-2.77-2.07-4.1-.33-.58-.89-1.03-1.31-1.5-.9-.01-1.59-.1-2.25,0-.37.05-.92.34-.99.62ZM525.57,288.56c.24.32.47.93.76.97.89.1,1.82.05,2.71-.09.25-.04.66-.67.59-.86-.35-.87-.8-1.72-1.32-2.49-.11-.17-.88-.15-1.04.04-.59.68-1.06,1.48-1.7,2.43ZM521.09,342.02c1.54-1.4,3.06-2.85,4.38-4.46,1.41-1.72,2.79-3.54,3.76-5.53,1.01-2.08,3.41-9.01,3.18-10.12-.51-2.51-1.32-4.98-2.19-7.4-1-2.75-2.2-5.42-3.34-8.12-.13-.32-.37-.63-.64-.84-.12-.09-.62.04-.65.15-.23.81-.43,1.64-.55,2.48-.3,2.06-.28,4.21-.89,6.18-1.47,4.75-2.57,9.67-5.66,13.76-1.41,1.86-2.73,3.78-4.24,5.55-1.21,1.42-1.18,1.21-2.54,2.49-.69.65-.75,1.31-.32,2.08.67,1.22,1.35,2.43,2.03,3.65.55.99,1.11,1.98,1.67,2.96.56.99,1.15,1.03,1.89.23.6-.65,3.01-2.04,4.11-3.05ZM532.81,360.58c.52-1.16,2.54-8.47,3.08-10.91.28-1.27.59-2.55.73-3.85.35-3.22.04-6.42-.56-9.58-.08-.41-.38-.92-.73-1.08-.21-.1-.78.32-1.02.64-.84,1.11-1.57,2.31-2.43,3.41-2.16,2.77-4.26,5.58-6.57,8.22-1.81,2.07-1.79,2.43-4.22,3.71-1.32.69-1.56,1.84-1,2.89,1.52,2.99,6.37,10.8,7.59,12.4.78,1.03,1.56,1.16,2.58.23,1.98-1.82,1.5-3.76,2.55-6.07ZM537.62,314.78c-.3-.27-.79-.31-1.19-.46-.08.35-.19.7-.23,1.06-.03.33-.06.68.03.98.36,1.17.8,2.31,1.15,3.48.57,1.9,1.12,3.81,1.61,5.74.76,3.05,1.47,6.11,2.19,9.17.61,2.59,1.11,5.2.94,7.87-.18,2.87-.43,5.73-.84,8.57-.28,1.93-.76,3.85-1.35,5.71-.91,2.87-2.02,5.68-2.99,8.53-.68,2-1.76,3.74-3.09,5.35-.48.58-.77,1.32-.13,1.87.54.46,1.29.72,1.99.95.7.24,1.46.28,2.16.51.97.33,1.87.91,2.86,1.11,1.61.33,3.26.48,4.9.62,1.17.1,3.53-1.92,3.7-3,.2-1.29.45-2.58.78-3.84.33-1.26.79-2.49,1.2-3.73.4-1.24.94-2.46,1.18-3.73.22-1.18.32-2.45.14-3.63-.2-1.29-.66-2.45-.49-3.88.26-2.17.1-4.42-.1-6.62-.2-2.2-.6-4.39-1.06-6.56-.7-3.29-1.51-6.57-2.3-9.84-.33-1.36-.68-2.73-1.16-4.04-.46-1.26-1.03-2.48-1.66-3.67-.46-.88-1-1.76-1.67-2.48-.89-.96-1.97-1.75-2.93-2.65-1.21-1.12-2.38-2.29-3.61-3.39Z" style="fill: none; stroke: #f6b0bc; stroke-miterlimit: 10;"/>
        </g>
      </g>
      <path d="M30,0h540c16.56,0,30,13.44,30,30v27.5H0v-27.5C0,13.44,13.44,0,30,0Z" style="fill: #f6b0bc;"/>
      <g>
        <path d="M48.57,17.21h7.65l1.32,17.34v3.36h.79v-3.36l1.32-17.34h7.65v23.07h-3.96v-15.43l.4-5.27h-.79l-1.71,20.7h-6.53l-1.78-20.7h-.79l.4,5.27v15.43h-3.96v-23.07Z" style="fill: #ed1e4c;"/>
        <path d="M69.6,26.18c0-2.99.75-5.31,2.26-6.95,1.5-1.65,3.59-2.47,6.25-2.47s4.74.82,6.25,2.47c1.5,1.65,2.26,3.97,2.26,6.95v5.14c0,3.08-.75,5.42-2.26,7.02-1.51,1.6-3.59,2.41-6.25,2.41s-4.74-.8-6.25-2.41c-1.51-1.6-2.26-3.94-2.26-7.02v-5.14ZM78.11,36.79c.79,0,1.45-.13,1.98-.38s.96-.61,1.29-1.07.56-1.01.69-1.65c.13-.64.2-1.34.2-2.11v-5.67c0-.73-.08-1.41-.23-2.04-.15-.64-.4-1.19-.73-1.65s-.76-.83-1.29-1.1c-.53-.27-1.17-.41-1.91-.41s-1.38.14-1.91.41c-.53.28-.96.64-1.29,1.1s-.57,1.01-.73,1.65c-.15.64-.23,1.32-.23,2.04v5.67c0,.77.07,1.47.2,2.11.13.64.36,1.19.69,1.65s.76.82,1.29,1.07,1.19.38,1.98.38Z" style="fill: #ed1e4c;"/>
        <path d="M89.97,17.21h16.61v4.15h-6.13v18.92h-4.35v-18.92h-6.13v-4.15Z" style="fill: #ed1e4c;"/>
        <path d="M110.74,17.21h15.43v4.15h-5.54v14.77h5.54v4.15h-15.43v-4.15h5.54v-14.77h-5.54v-4.15Z" style="fill: #ed1e4c;"/>
        <path d="M130.12,26.18c0-2.99.75-5.31,2.26-6.95,1.5-1.65,3.59-2.47,6.25-2.47s4.74.82,6.25,2.47c1.5,1.65,2.26,3.97,2.26,6.95v5.14c0,3.08-.75,5.42-2.26,7.02-1.51,1.6-3.59,2.41-6.25,2.41s-4.74-.8-6.25-2.41c-1.51-1.6-2.26-3.94-2.26-7.02v-5.14ZM138.62,36.79c.79,0,1.45-.13,1.98-.38s.96-.61,1.29-1.07.56-1.01.69-1.65c.13-.64.2-1.34.2-2.11v-5.67c0-.73-.08-1.41-.23-2.04-.15-.64-.4-1.19-.73-1.65s-.76-.83-1.29-1.1c-.53-.27-1.17-.41-1.91-.41s-1.38.14-1.91.41c-.53.28-.96.64-1.29,1.1s-.57,1.01-.73,1.65c-.15.64-.23,1.32-.23,2.04v5.67c0,.77.07,1.47.2,2.11.13.64.36,1.19.69,1.65s.76.82,1.29,1.07,1.19.38,1.98.38Z" style="fill: #ed1e4c;"/>
        <path d="M161.93,38.11h.59v-20.9h4.35v23.07h-8.5l-2.7-20.9h-.59v20.9h-4.35v-23.07h8.5l2.7,20.9Z" style="fill: #ed1e4c;"/>
        <path d="M205.5,23.94v2.7h3.03v4.15h-3.03v9.49h-8.24c-1.1,0-2.08-.15-2.93-.46-.86-.31-1.57-.73-2.14-1.27-.57-.54-1.01-1.17-1.3-1.91-.3-.74-.45-1.53-.45-2.39v-.39c0-1.32.37-2.38,1.1-3.18.74-.8,1.66-1.36,2.79-1.66v-.59c-1.12-.31-2.05-.86-2.79-1.65-.74-.79-1.1-1.85-1.1-3.16v-.39c0-.86.15-1.65.45-2.39.3-.74.73-1.37,1.3-1.89.57-.53,1.29-.95,2.14-1.25s1.83-.46,2.93-.46h3.59v3.96h-3.16c-.92,0-1.67.21-2.24.64-.57.43-.86,1.09-.86,1.99v.2c0,.92.29,1.59.86,2.01.57.42,1.32.63,2.24.63h3.66v-2.7h4.15ZM201.35,30.6h-3.66c-.92,0-1.67.23-2.24.69-.57.46-.86,1.15-.86,2.08v.2c0,.92.29,1.62.86,2.08.57.46,1.32.69,2.24.69h3.66v-5.73Z" style="fill: #ed1e4c;"/>
        <path d="M237.97,28.62h9.89v11.67h-3.96v-2.57h-.59c-.26.86-.77,1.58-1.52,2.16-.75.58-1.87.87-3.36.87-1.05,0-2.04-.2-2.97-.59s-1.73-.98-2.41-1.76c-.68-.78-1.22-1.75-1.62-2.9s-.59-2.5-.59-4.04v-5.41c0-1.49.21-2.82.64-3.97.43-1.15,1.02-2.13,1.78-2.92.76-.79,1.66-1.39,2.72-1.8,1.05-.41,2.22-.61,3.49-.61s2.49.21,3.53.64c1.03.43,1.91,1.02,2.64,1.78.73.76,1.27,1.65,1.65,2.67.37,1.02.56,2.12.56,3.28v.4h-4.35v-.4c0-1.38-.36-2.43-1.07-3.15-.71-.71-1.72-1.07-3.02-1.07s-2.24.41-3.03,1.24-1.19,2.24-1.19,4.24v4.88c0,3.56,1.45,5.34,4.35,5.34,1.3,0,2.28-.35,2.95-1.04.67-.69,1.01-1.62,1.01-2.79h-5.54v-4.15Z" style="fill: #ed1e4c;"/>
        <path d="M267.47,40.29h-4.35v-6.92c0-.53-.14-.96-.41-1.29-.28-.33-.73-.49-1.37-.49h-5.01v8.7h-4.35v-23.07h8.83c1.19,0,2.23.17,3.13.49.9.33,1.65.79,2.26,1.37.6.58,1.07,1.26,1.38,2.03.32.77.48,1.59.48,2.47v.79c0,.95-.25,1.83-.76,2.65s-1.29,1.46-2.34,1.89v.59c.77.09,1.38.38,1.83.89.45.5.68,1.14.68,1.91v7.98ZM256.33,27.43h4.15c1.05,0,1.86-.25,2.41-.74.55-.49.82-1.19.82-2.09v-.4c0-.77-.27-1.43-.82-1.99-.55-.56-1.35-.84-2.41-.84h-4.15v6.07Z" style="fill: #ed1e4c;"/>
        <path d="M283.75,35.34h-7.84l-1.12,4.94h-4.55l5.5-23.07h8.17l5.5,23.07h-4.55l-1.12-4.94ZM276.83,31.19h5.97l-2.67-11.8h-.59l-2.7,11.8Z" style="fill: #ed1e4c;"/>
        <path d="M296.64,31.58v8.7h-4.35v-23.07h9.03c1.19,0,2.22.19,3.1.58.88.38,1.61.89,2.19,1.52.58.63,1.02,1.34,1.32,2.14.3.8.45,1.62.45,2.46v.79c0,.86-.15,1.7-.45,2.52-.3.82-.74,1.56-1.32,2.21-.58.65-1.31,1.17-2.19,1.57-.88.4-1.91.59-3.1.59h-4.68ZM296.64,27.43h4.25c.97,0,1.73-.26,2.29-.79.56-.53.84-1.21.84-2.04v-.4c0-.83-.28-1.52-.84-2.04-.56-.53-1.32-.79-2.29-.79h-4.25v6.07Z" style="fill: #ed1e4c;"/>
        <path d="M312.1,17.21h4.35v9.43h7.45v-9.43h4.35v23.07h-4.35v-9.49h-7.45v9.49h-4.35v-23.07Z" style="fill: #ed1e4c;"/>
        <path d="M332.63,17.21h15.43v4.15h-5.54v14.77h5.54v4.15h-15.43v-4.15h5.54v-14.77h-5.54v-4.15Z" style="fill: #ed1e4c;"/>
        <path d="M360.58,36.79c.83,0,1.52-.13,2.06-.38s.96-.59,1.25-1.02.5-.92.61-1.48.17-1.14.17-1.73v-.59h4.35v.59c0,2.75-.72,4.86-2.16,6.35-1.44,1.48-3.53,2.22-6.28,2.22s-4.72-.8-6.26-2.41c-1.54-1.6-2.31-3.94-2.31-7.02v-5.14c0-1.47.2-2.8.59-3.97s.97-2.16,1.71-2.97c.75-.8,1.65-1.42,2.7-1.85,1.06-.43,2.24-.64,3.56-.64s2.57.2,3.62.59c1.06.39,1.94.97,2.65,1.71.71.75,1.25,1.65,1.61,2.7.36,1.05.54,2.24.54,3.56v.59h-4.35v-.59c0-.55-.07-1.1-.2-1.65s-.35-1.04-.66-1.48c-.31-.44-.72-.8-1.25-1.07-.53-.27-1.19-.41-1.98-.41-.73,0-1.35.14-1.88.41-.53.28-.97.65-1.32,1.12-.35.47-.61,1.02-.77,1.65-.17.63-.25,1.28-.25,1.96v5.8c0,.75.08,1.43.23,2.06.15.62.4,1.17.72,1.63.33.46.76.82,1.3,1.07.54.25,1.19.38,1.96.38Z" style="fill: #ed1e4c;"/>
        <path d="M392.29,17.21h8.37c2.86,0,4.98.67,6.36,1.99,1.38,1.33,2.08,3.39,2.08,6.18v6.72c0,2.79-.69,4.85-2.08,6.18-1.38,1.33-3.5,1.99-6.36,1.99h-8.37v-4.19h2.17v-14.73h-2.17v-4.15ZM400.66,36.13c1.52,0,2.58-.36,3.18-1.07.6-.71.91-1.83.91-3.35v-6.33c0-1.32-.3-2.32-.91-3-.6-.68-1.67-1.02-3.18-1.02h-1.85v14.77h1.85Z" style="fill: #ed1e4c;"/>
        <path d="M413.65,17.21h14.57v4.15h-10.22v5.27h9.82v4.15h-9.82v5.34h10.61v4.15h-14.96v-23.07Z" style="fill: #ed1e4c;"/>
        <path d="M445.16,24.27c0-.92-.36-1.73-1.07-2.41-.71-.68-1.72-1.02-3.02-1.02-1.1,0-1.97.23-2.6.68-.64.45-.96,1.06-.96,1.83,0,.4.08.75.23,1.07s.42.6.81.86.89.48,1.52.68c.63.2,1.42.38,2.39.56,2.42.44,4.26,1.18,5.54,2.21s1.91,2.56,1.91,4.58v.39c0,1.08-.19,2.05-.58,2.92s-.94,1.61-1.66,2.22c-.73.62-1.6,1.09-2.64,1.42-1.03.33-2.2.5-3.49.5-1.52,0-2.85-.21-4-.64-1.15-.43-2.12-1.02-2.88-1.78-.77-.76-1.35-1.65-1.75-2.67-.4-1.02-.59-2.14-.59-3.35v-.99h4.35v.79c0,1.38.4,2.49,1.2,3.31s2.05,1.24,3.74,1.24c1.32,0,2.3-.29,2.93-.86.64-.57.96-1.25.96-2.04,0-.37-.07-.73-.2-1.07s-.36-.65-.69-.92c-.33-.27-.78-.52-1.35-.74-.57-.22-1.3-.41-2.18-.56-1.17-.2-2.23-.46-3.2-.77s-1.81-.74-2.52-1.27-1.27-1.19-1.66-1.98-.59-1.76-.59-2.9v-.2c0-.94.19-1.82.58-2.62.38-.8.92-1.5,1.62-2.09.69-.59,1.53-1.05,2.5-1.38.98-.33,2.07-.49,3.28-.49,1.36,0,2.57.19,3.63.58,1.05.38,1.94.91,2.65,1.57.71.66,1.25,1.42,1.62,2.27.36.86.54,1.76.54,2.7v1.19h-4.35v-.79Z" style="fill: #ed1e4c;"/>
        <path d="M453.67,17.21h15.43v4.15h-5.54v14.77h5.54v4.15h-15.43v-4.15h5.54v-14.77h-5.54v-4.15Z" style="fill: #ed1e4c;"/>
        <path d="M480.03,28.62h9.89v11.67h-3.96v-2.57h-.59c-.26.86-.77,1.58-1.52,2.16s-1.87.87-3.36.87c-1.05,0-2.04-.2-2.97-.59s-1.72-.98-2.41-1.76c-.68-.78-1.22-1.75-1.62-2.9s-.59-2.5-.59-4.04v-5.41c0-1.49.21-2.82.64-3.97s1.02-2.13,1.78-2.92,1.66-1.39,2.72-1.8c1.06-.41,2.22-.61,3.49-.61s2.49.21,3.53.64c1.03.43,1.91,1.02,2.64,1.78.72.76,1.27,1.65,1.65,2.67.37,1.02.56,2.12.56,3.28v.4h-4.35v-.4c0-1.38-.36-2.43-1.07-3.15-.71-.71-1.72-1.07-3.02-1.07s-2.24.41-3.03,1.24c-.79.82-1.19,2.24-1.19,4.24v4.88c0,3.56,1.45,5.34,4.35,5.34,1.3,0,2.28-.35,2.95-1.04.67-.69,1-1.62,1-2.79h-5.54v-4.15Z" style="fill: #ed1e4c;"/>
        <path d="M504.85,38.11h.59v-20.9h4.35v23.07h-8.5l-2.7-20.9h-.59v20.9h-4.35v-23.07h8.5l2.7,20.9Z" style="fill: #ed1e4c;"/>
        <path d="M514.51,17.21h14.57v4.15h-10.22v5.27h9.82v4.15h-9.82v5.34h10.61v4.15h-14.96v-23.07Z" style="fill: #ed1e4c;"/>
        <path d="M549.88,40.29h-4.35v-6.92c0-.53-.14-.96-.41-1.29-.27-.33-.73-.49-1.37-.49h-5.01v8.7h-4.35v-23.07h8.83c1.19,0,2.23.17,3.13.49.9.33,1.65.79,2.26,1.37s1.07,1.26,1.38,2.03c.32.77.48,1.59.48,2.47v.79c0,.95-.25,1.83-.76,2.65-.51.82-1.29,1.46-2.34,1.89v.59c.77.09,1.38.38,1.83.89.45.5.67,1.14.67,1.91v7.98ZM538.74,27.43h4.15c1.05,0,1.86-.25,2.41-.74.55-.49.82-1.19.82-2.09v-.4c0-.77-.28-1.43-.82-1.99-.55-.56-1.35-.84-2.41-.84h-4.15v6.07Z" style="fill: #ed1e4c;"/>
      </g>
      <g>
        <g>
          <path d="M253.89,92.88c0-.5-.1-.93-.3-1.31-.2-.38-.46-.69-.8-.94-.34-.25-.72-.44-1.16-.57-.44-.13-.9-.2-1.38-.2-.42,0-.82.05-1.2.16-.38.11-.72.27-1.02.47s-.54.46-.71.75c-.18.3-.26.65-.26,1.04v.13c0,.42.09.78.26,1.08.17.3.43.55.78.77.34.21.77.39,1.28.52.51.14,1.11.26,1.79.36,1.6.25,2.79.72,3.54,1.41.76.69,1.14,1.62,1.14,2.79v.26c0,.66-.11,1.26-.34,1.8-.23.55-.56,1.02-1.01,1.41-.44.39-1,.7-1.65.92s-1.42.33-2.28.33c-.98,0-1.84-.14-2.59-.43-.75-.29-1.38-.68-1.88-1.18-.5-.5-.89-1.09-1.15-1.77s-.39-1.42-.39-2.22v-.66h1.84v.52c0,1.34.37,2.35,1.1,3.02.74.67,1.76,1.01,3.07,1.01,1.14,0,1.99-.25,2.57-.75s.86-1.17.86-2v-.13c0-.8-.3-1.41-.89-1.84-.59-.42-1.55-.73-2.88-.92-.77-.1-1.47-.26-2.09-.47-.62-.21-1.15-.49-1.59-.83s-.77-.75-1.01-1.24c-.23-.48-.35-1.05-.35-1.71v-.26c0-.6.12-1.15.37-1.64.25-.5.59-.93,1.04-1.29.44-.36.98-.65,1.6-.84.62-.2,1.3-.3,2.05-.3.86,0,1.63.12,2.31.37s1.25.58,1.72,1c.47.42.82.9,1.06,1.47s.36,1.15.36,1.76v.92h-1.84v-.79Z" style="fill: #aca6a2;"/>
          <path d="M260.26,88.46v10.15c0,1.24.29,2.18.86,2.81.58.63,1.43.95,2.55.95s1.97-.32,2.55-.95c.58-.63.86-1.57.86-2.81v-10.15h1.84v10.15c0,1.78-.47,3.14-1.4,4.07s-2.22,1.4-3.85,1.4-2.92-.47-3.85-1.4c-.93-.93-1.4-2.29-1.4-4.07v-10.15h1.84Z" style="fill: #aca6a2;"/>
          <path d="M281.85,103.78h-1.84v-5.12c0-.38-.09-.67-.26-.88-.17-.2-.48-.31-.92-.31h-4.77v6.3h-1.84v-15.32h5.47c.79,0,1.47.11,2.06.34.58.23,1.07.53,1.46.91.39.38.68.82.88,1.32.2.5.3,1.03.3,1.59v.66c0,.57-.16,1.14-.47,1.71-.31.57-.8,1.01-1.46,1.31v.26c.44.07.78.25,1.03.53s.37.67.37,1.18v5.51ZM274.07,95.77h3.41c1.04,0,1.81-.22,2.31-.67.5-.44.75-1.1.75-1.96v-.39c0-.77-.25-1.4-.75-1.87-.5-.47-1.27-.71-2.31-.71h-3.41v5.6Z" style="fill: #aca6a2;"/>
          <path d="M293.45,102.99h.26v-14.53h1.84v15.32h-3.68l-4.42-14.53h-.26v14.53h-1.84v-15.32h3.68l4.42,14.53Z" style="fill: #aca6a2;"/>
          <path d="M307.13,99.97h-6.56l-1.12,3.81h-1.97l4.64-15.32h3.46l4.64,15.32h-1.97l-1.12-3.81ZM303.71,89.25l-2.65,9.01h5.56l-2.65-9.01h-.26Z" style="fill: #aca6a2;"/>
          <path d="M311.55,88.46h3.5l2.06,14.53h.26l2.06-14.53h3.5v15.32h-1.71v-14.53h-.26l-2.06,14.53h-3.33l-2.06-14.53h-.26v14.53h-1.71v-15.32Z" style="fill: #aca6a2;"/>
          <path d="M325.99,88.46h9.28v1.71h-7.44v5.08h7.31v1.71h-7.31v5.12h7.57v1.71h-9.41v-15.32Z" style="fill: #aca6a2;"/>
        </g>
        <g>
          <path d="M244.77,114.14h11.03v2.76h-4.07v12.56h-2.89v-12.56h-4.07v-2.76Z" style="fill: #ed1e4c;"/>
          <path d="M266.28,126.17h-5.21l-.74,3.28h-3.02l3.65-15.32h5.43l3.65,15.32h-3.02l-.74-3.28ZM261.68,123.42h3.96l-1.77-7.83h-.39l-1.79,7.83Z" style="fill: #ed1e4c;"/>
          <path d="M271.37,126.7h1.44v-9.8h-1.44v-2.76h6.72c.73,0,1.37.1,1.94.31s1.04.48,1.42.83c.39.35.68.77.88,1.26.2.49.3,1.02.3,1.59v.26c0,.88-.24,1.58-.73,2.1-.49.52-1.1.89-1.85,1.09v.39c.74.21,1.36.57,1.85,1.11s.73,1.24.73,2.11v.26c0,.57-.1,1.1-.3,1.59-.2.49-.49.91-.88,1.27-.39.36-.86.64-1.42.84-.56.21-1.21.31-1.94.31h-6.72v-2.76ZM275.71,120.4h2.1c.61,0,1.11-.13,1.49-.38s.57-.69.57-1.3v-.13c0-.61-.19-1.05-.57-1.3-.38-.25-.88-.38-1.49-.38h-2.1v3.5ZM275.71,126.7h2.1c.61,0,1.11-.13,1.49-.39.38-.26.57-.7.57-1.31v-.13c0-.61-.19-1.05-.57-1.31-.38-.26-.88-.39-1.49-.39h-2.1v3.54Z" style="fill: #ed1e4c;"/>
          <path d="M293.06,126.17h-5.21l-.74,3.28h-3.02l3.65-15.32h5.43l3.65,15.32h-3.02l-.74-3.28ZM288.46,123.42h3.96l-1.77-7.83h-.39l-1.79,7.83Z" style="fill: #ed1e4c;"/>
          <path d="M303.89,127.14c.55,0,1.01-.08,1.37-.25.36-.17.63-.39.83-.68.2-.29.33-.61.4-.99.07-.37.11-.75.11-1.15v-.39h2.89v.39c0,1.82-.48,3.23-1.43,4.21-.96.99-2.35,1.48-4.17,1.48s-3.14-.53-4.16-1.6c-1.02-1.06-1.53-2.62-1.53-4.66v-3.41c0-.98.13-1.86.39-2.64.26-.78.64-1.44,1.14-1.97.5-.53,1.09-.94,1.79-1.23s1.49-.43,2.36-.43,1.71.13,2.41.39c.7.26,1.29.64,1.76,1.14.47.5.83,1.09,1.07,1.79s.36,1.49.36,2.36v.39h-2.89v-.39c0-.36-.04-.73-.13-1.09-.09-.36-.23-.69-.44-.98-.2-.29-.48-.53-.83-.71s-.79-.27-1.31-.27c-.48,0-.9.09-1.25.27s-.64.43-.88.74-.4.68-.51,1.09-.16.85-.16,1.3v3.85c0,.5.05.95.15,1.37.1.42.26.78.48,1.08s.51.54.86.71c.36.17.79.25,1.3.25Z" style="fill: #ed1e4c;"/>
          <path d="M317.28,127.14c.55,0,1.01-.08,1.37-.25.36-.17.63-.39.83-.68.2-.29.33-.61.4-.99.07-.37.11-.75.11-1.15v-.39h2.89v.39c0,1.82-.48,3.23-1.43,4.21-.96.99-2.35,1.48-4.17,1.48s-3.14-.53-4.16-1.6c-1.02-1.06-1.53-2.62-1.53-4.66v-3.41c0-.98.13-1.86.39-2.64.26-.78.64-1.44,1.14-1.97.5-.53,1.09-.94,1.79-1.23s1.49-.43,2.36-.43,1.71.13,2.41.39c.7.26,1.29.64,1.76,1.14.47.5.83,1.09,1.07,1.79s.36,1.49.36,2.36v.39h-2.89v-.39c0-.36-.04-.73-.13-1.09-.09-.36-.23-.69-.44-.98-.2-.29-.48-.53-.83-.71s-.79-.27-1.31-.27c-.48,0-.9.09-1.25.27s-.64.43-.88.74-.4.68-.51,1.09-.16.85-.16,1.3v3.85c0,.5.05.95.15,1.37.1.42.26.78.48,1.08s.51.54.86.71c.36.17.79.25,1.3.25Z" style="fill: #ed1e4c;"/>
          <path d="M325.27,114.14h2.89v6.26h4.94v-6.26h2.89v15.32h-2.89v-6.3h-4.94v6.3h-2.89v-15.32Z" style="fill: #ed1e4c;"/>
          <path d="M338.9,114.14h10.24v2.76h-3.68v9.8h3.68v2.76h-10.24v-2.76h3.68v-9.8h-3.68v-2.76Z" style="fill: #ed1e4c;"/>
        </g>
      </g>
      <g>
        <g>
          <path d="M253.28,174.88h.26v-14.53h1.84v15.32h-3.68l-4.42-14.53h-.26v14.53h-1.84v-15.32h3.68l4.42,14.53Z" style="fill: #aca6a2;"/>
          <path d="M266.95,171.86h-6.56l-1.12,3.81h-1.97l4.64-15.32h3.46l4.64,15.32h-1.97l-1.12-3.81ZM263.54,161.14l-2.65,9.01h5.56l-2.65-9.01h-.26Z" style="fill: #aca6a2;"/>
          <path d="M271.37,160.35h3.5l2.06,14.53h.26l2.06-14.53h3.5v15.32h-1.71v-14.53h-.26l-2.06,14.53h-3.33l-2.06-14.53h-.26v14.53h-1.71v-15.32Z" style="fill: #aca6a2;"/>
          <path d="M285.82,160.35h9.28v1.71h-7.44v5.08h7.31v1.71h-7.31v5.12h7.57v1.71h-9.41v-15.32Z" style="fill: #aca6a2;"/>
        </g>
        <g>
          <path d="M244.77,186.02h11.03v2.76h-4.07v12.56h-2.89v-12.56h-4.07v-2.76Z" style="fill: #ed1e4c;"/>
          <path d="M258.03,191.98c0-1.98.5-3.52,1.5-4.62,1-1.09,2.38-1.64,4.15-1.64s3.15.55,4.15,1.64c1,1.09,1.5,2.63,1.5,4.62v3.41c0,2.04-.5,3.6-1.5,4.66-1,1.07-2.38,1.6-4.15,1.6s-3.15-.53-4.15-1.6c-1-1.06-1.5-2.62-1.5-4.66v-3.41ZM263.67,199.02c.53,0,.96-.08,1.31-.25.35-.17.63-.4.85-.71s.37-.67.46-1.09.13-.89.13-1.4v-3.76c0-.48-.05-.93-.15-1.36s-.26-.79-.48-1.09c-.22-.31-.5-.55-.85-.73s-.77-.27-1.27-.27-.92.09-1.27.27-.63.43-.85.73c-.22.31-.38.67-.48,1.09-.1.42-.15.88-.15,1.36v3.76c0,.51.04.98.13,1.4s.24.79.46,1.09.5.54.85.71c.35.17.79.25,1.31.25Z" style="fill: #ed1e4c;"/>
          <path d="M270.85,186.02h5.08l.88,11.51v2.23h.52v-2.23l.88-11.51h5.08v15.32h-2.63v-10.24l.26-3.5h-.52l-1.14,13.74h-4.33l-1.18-13.74h-.52l.26,3.5v10.24h-2.63v-15.32Z" style="fill: #ed1e4c;"/>
          <path d="M284.24,186.02h5.08l.88,11.51v2.23h.52v-2.23l.88-11.51h5.08v15.32h-2.63v-10.24l.26-3.5h-.52l-1.14,13.74h-4.33l-1.18-13.74h-.52l.26,3.5v10.24h-2.63v-15.32Z" style="fill: #ed1e4c;"/>
          <path d="M306.45,198.06h-5.21l-.74,3.28h-3.02l3.65-15.32h5.43l3.65,15.32h-3.02l-.74-3.28ZM301.85,195.3h3.96l-1.77-7.83h-.39l-1.79,7.83Z" style="fill: #ed1e4c;"/>
          <path d="M319.86,190.71c0-.61-.24-1.15-.71-1.6s-1.14-.68-2-.68c-.73,0-1.31.15-1.73.45-.42.3-.63.7-.63,1.21,0,.26.05.5.15.71.1.21.28.4.54.57.25.17.59.32,1.01.45.42.13.94.26,1.59.37,1.6.29,2.83.78,3.68,1.47.85.69,1.27,1.7,1.27,3.04v.26c0,.71-.13,1.36-.38,1.94s-.62,1.07-1.1,1.48c-.48.41-1.06.72-1.75.94-.69.22-1.46.33-2.32.33-1.01,0-1.89-.14-2.66-.43-.77-.29-1.4-.68-1.91-1.18-.51-.5-.9-1.09-1.16-1.77s-.39-1.42-.39-2.22v-.66h2.89v.52c0,.92.27,1.65.8,2.2.53.55,1.36.82,2.48.82.88,0,1.52-.19,1.95-.57s.63-.83.63-1.36c0-.25-.04-.49-.13-.71-.09-.23-.24-.43-.46-.61s-.52-.35-.9-.49c-.38-.15-.86-.27-1.44-.37-.77-.13-1.48-.3-2.12-.51-.64-.21-1.2-.49-1.67-.84-.47-.35-.84-.79-1.1-1.31-.26-.53-.39-1.17-.39-1.93v-.13c0-.63.13-1.21.38-1.74.25-.53.61-1,1.07-1.39.46-.39,1.01-.7,1.66-.92s1.38-.33,2.18-.33c.9,0,1.71.13,2.41.38.7.26,1.29.6,1.76,1.04.47.44.83.94,1.07,1.51.24.57.36,1.17.36,1.79v.79h-2.89v-.53Z" style="fill: #ed1e4c;"/>
          <path d="M324.98,191.98c0-1.98.5-3.52,1.5-4.62,1-1.09,2.38-1.64,4.15-1.64s3.15.55,4.15,1.64c1,1.09,1.5,2.63,1.5,4.62v3.41c0,2.04-.5,3.6-1.5,4.66-1,1.07-2.38,1.6-4.15,1.6s-3.15-.53-4.15-1.6c-1-1.06-1.5-2.62-1.5-4.66v-3.41ZM330.63,199.02c.53,0,.96-.08,1.31-.25.35-.17.63-.4.85-.71s.37-.67.46-1.09.13-.89.13-1.4v-3.76c0-.48-.05-.93-.15-1.36s-.26-.79-.48-1.09c-.22-.31-.5-.55-.85-.73s-.77-.27-1.27-.27-.92.09-1.27.27-.63.43-.85.73c-.22.31-.38.67-.48,1.09-.1.42-.15.88-.15,1.36v3.76c0,.51.04.98.13,1.4s.24.79.46,1.09.5.54.85.71c.35.17.79.25,1.31.25Z" style="fill: #ed1e4c;"/>
        </g>
      </g>
      <g>
        <g>
          <path d="M247.28,241.25v6.3h-1.84v-15.32h5.47c.79,0,1.47.11,2.06.34.58.23,1.07.53,1.46.91.39.38.68.82.88,1.32.2.5.3,1.03.3,1.59v.66c0,.55-.1,1.09-.3,1.6-.2.51-.49.96-.89,1.35-.39.39-.88.69-1.47.92s-1.26.34-2.03.34h-3.63ZM247.28,239.54h3.41c2.04,0,3.06-.88,3.06-2.62v-.39c0-.77-.25-1.4-.75-1.87-.5-.47-1.27-.71-2.31-.71h-3.41v5.6Z" style="fill: #aca6a2;"/>
          <path d="M258.88,232.24h1.84v13.61h8.01v1.71h-9.85v-15.32Z" style="fill: #aca6a2;"/>
          <path d="M280.35,243.75h-6.56l-1.12,3.81h-1.97l4.64-15.32h3.46l4.64,15.32h-1.97l-1.12-3.81ZM276.93,233.02l-2.65,9.01h5.56l-2.65-9.01h-.26Z" style="fill: #aca6a2;"/>
          <path d="M290.54,246.15c.63,0,1.16-.11,1.61-.32.44-.21.81-.5,1.09-.85.28-.36.5-.77.63-1.22.14-.46.21-.94.21-1.46v-.26h1.84v.26c0,.77-.12,1.5-.35,2.18s-.58,1.27-1.03,1.77-1.01.9-1.68,1.18c-.67.28-1.44.43-2.32.43-1.69,0-3.01-.53-3.96-1.6-.95-1.06-1.42-2.62-1.42-4.66v-3.41c0-1.98.47-3.52,1.42-4.62.95-1.09,2.27-1.64,3.96-1.64.88,0,1.65.14,2.32.43.67.28,1.23.68,1.68,1.18s.79,1.09,1.03,1.77.35,1.4.35,2.18v.26h-1.84v-.26c-.01-.5-.09-.98-.23-1.44-.14-.47-.35-.88-.63-1.24s-.65-.64-1.08-.85c-.44-.21-.97-.32-1.6-.32-1.18,0-2.07.43-2.66,1.29s-.89,1.99-.89,3.39v3.15c0,1.5.3,2.66.89,3.47.59.81,1.48,1.21,2.66,1.21Z" style="fill: #aca6a2;"/>
          <path d="M299.21,232.24h9.28v1.71h-7.44v5.08h7.31v1.71h-7.31v5.12h7.57v1.71h-9.41v-15.32Z" style="fill: #aca6a2;"/>
          <path d="M333.91,243.75h-6.56l-1.12,3.81h-1.97l4.64-15.32h3.46l4.64,15.32h-1.97l-1.12-3.81ZM330.5,233.02l-2.65,9.01h5.56l-2.65-9.01h-.26Z" style="fill: #aca6a2;"/>
          <path d="M347.02,246.76h.26v-14.53h1.84v15.32h-3.68l-4.42-14.53h-.26v14.53h-1.84v-15.32h3.68l4.42,14.53Z" style="fill: #aca6a2;"/>
          <path d="M352.31,232.24h5.03c1.9,0,3.28.45,4.16,1.36.88.9,1.31,2.35,1.31,4.33v3.94c0,1.98-.44,3.43-1.31,4.33-.88.9-2.26,1.36-4.16,1.36h-5.03v-1.73h1.31v-11.88h-1.31v-1.71ZM357.08,245.85c.67,0,1.25-.07,1.74-.2.49-.13.89-.35,1.21-.67.32-.31.56-.73.71-1.26s.23-1.19.23-1.99v-3.68c0-.8-.08-1.47-.23-1.99s-.39-.94-.71-1.26c-.32-.31-.73-.54-1.21-.67-.49-.13-1.07-.2-1.74-.2h-1.62v11.9h1.62Z" style="fill: #aca6a2;"/>
          <path d="M379.09,232.24h5.03c1.9,0,3.28.45,4.16,1.36.88.9,1.31,2.35,1.31,4.33v3.94c0,1.98-.44,3.43-1.31,4.33-.88.9-2.26,1.36-4.16,1.36h-5.03v-1.73h1.31v-11.88h-1.31v-1.71ZM383.86,245.85c.67,0,1.25-.07,1.74-.2.49-.13.89-.35,1.21-.67.32-.31.56-.73.71-1.26s.23-1.19.23-1.99v-3.68c0-.8-.08-1.47-.23-1.99s-.39-.94-.71-1.26c-.32-.31-.73-.54-1.21-.67-.49-.13-1.07-.2-1.74-.2h-1.62v11.9h1.62Z" style="fill: #aca6a2;"/>
          <path d="M400.86,243.75h-6.56l-1.12,3.81h-1.97l4.64-15.32h3.46l4.64,15.32h-1.97l-1.12-3.81ZM397.45,233.02l-2.65,9.01h5.56l-2.65-9.01h-.26Z" style="fill: #aca6a2;"/>
          <path d="M405.59,232.24h10.76v1.71h-4.46v13.61h-1.84v-13.61h-4.46v-1.71Z" style="fill: #aca6a2;"/>
          <path d="M419.73,232.24h9.28v1.71h-7.44v5.08h7.31v1.71h-7.31v5.12h7.57v1.71h-9.41v-15.32Z" style="fill: #aca6a2;"/>
          <path d="M445.76,238.19c0-1.98.47-3.52,1.42-4.62.95-1.09,2.27-1.64,3.96-1.64s3.01.55,3.96,1.64c.95,1.09,1.42,2.63,1.42,4.62v3.41c0,2.04-.47,3.6-1.42,4.66-.95,1.07-2.27,1.6-3.96,1.6s-3.01-.53-3.96-1.6c-.95-1.06-1.42-2.62-1.42-4.66v-3.41ZM451.14,246.15c1.18,0,2.07-.4,2.66-1.21.59-.81.89-1.97.89-3.47v-3.15c0-1.4-.29-2.53-.89-3.39s-1.48-1.29-2.66-1.29-2.07.43-2.66,1.29-.89,1.99-.89,3.39v3.15c0,1.5.29,2.66.89,3.47.59.81,1.48,1.21,2.66,1.21Z" style="fill: #aca6a2;"/>
          <path d="M459.92,232.24h9.41v1.71h-7.57v5.08h7.44v1.71h-7.44v6.83h-1.84v-15.32Z" style="fill: #aca6a2;"/>
          <path d="M485.87,245.85h1.31v-11.9h-1.31v-1.71h6.19c.73,0,1.38.1,1.94.31s1.04.48,1.42.83c.39.35.68.77.88,1.26.2.49.29,1.02.29,1.59v.26c0,.42-.07.81-.2,1.16-.13.35-.31.66-.55.94s-.51.51-.82.71c-.31.2-.65.35-1.02.45v.26c.73.2,1.34.59,1.84,1.17s.74,1.28.74,2.11v.26c0,.57-.1,1.1-.29,1.59-.2.49-.49.91-.88,1.27s-.86.64-1.42.84c-.56.21-1.21.31-1.94.31h-6.19v-1.71ZM489.02,239.02h2.98c.88,0,1.57-.23,2.08-.68s.77-1.07.77-1.86v-.13c0-.74-.27-1.33-.81-1.76-.54-.43-1.24-.65-2.1-.65h-2.91v5.08ZM489.02,245.85h2.91c.86,0,1.56-.21,2.1-.65.54-.43.81-1.02.81-1.78v-.13c0-.79-.26-1.41-.77-1.87-.51-.46-1.2-.69-2.08-.69h-2.98v5.12Z" style="fill: #aca6a2;"/>
          <path d="M499.85,232.24h9.71v1.71h-3.94v11.9h3.94v1.71h-9.71v-1.71h3.94v-11.9h-3.94v-1.71Z" style="fill: #aca6a2;"/>
          <path d="M522.89,247.55h-1.84v-5.12c0-.38-.09-.67-.26-.88s-.48-.31-.92-.31h-4.77v6.3h-1.84v-15.32h5.47c.79,0,1.47.11,2.06.34.58.23,1.07.53,1.46.91.39.38.68.82.88,1.32.2.5.3,1.03.3,1.59v.66c0,.57-.16,1.14-.47,1.71-.31.57-.8,1.01-1.46,1.31v.26c.44.07.78.25,1.03.53s.37.67.37,1.18v5.51ZM515.1,239.54h3.41c1.04,0,1.8-.22,2.31-.67.5-.44.75-1.1.75-1.96v-.39c0-.77-.25-1.4-.75-1.87-.5-.47-1.27-.71-2.31-.71h-3.41v5.6Z" style="fill: #aca6a2;"/>
          <path d="M526.11,232.24h10.77v1.71h-4.46v13.61h-1.84v-13.61h-4.46v-1.71Z" style="fill: #aca6a2;"/>
          <path d="M539.78,232.24h1.84v6.78h6.52v-6.78h1.84v15.32h-1.84v-6.83h-6.52v6.83h-1.84v-15.32Z" style="fill: #aca6a2;"/>
        </g>
        <g>
          <path d="M245.16,257.91h10.24v2.76h-3.68v9.8h3.68v2.76h-10.24v-2.76h3.68v-9.8h-3.68v-2.76Z" style="fill: #ed1e4c;"/>
          <path d="M258.16,257.91h11.03v2.76h-4.07v12.56h-2.89v-12.56h-4.07v-2.76Z" style="fill: #ed1e4c;"/>
          <path d="M279.67,269.94h-5.21l-.74,3.28h-3.02l3.65-15.32h5.43l3.65,15.32h-3.02l-.74-3.28ZM275.07,267.19h3.96l-1.77-7.83h-.39l-1.79,7.83Z" style="fill: #ed1e4c;"/>
          <path d="M285.55,257.91h2.89v12.56h6.96v2.76h-9.85v-15.32Z" style="fill: #ed1e4c;"/>
          <path d="M302.4,267.84h-.66l-4.4-9.93h3.15l3.15,7.31h.39l3.15-7.31h3.15l-4.4,9.93h-.66v5.38h-2.89v-5.38Z" style="fill: #ed1e4c;"/>
          <path d="M315.16,271.45c0-.28.05-.54.16-.8.11-.25.26-.47.45-.66.19-.18.41-.33.66-.44s.52-.16.81-.16.54.05.8.16c.25.11.48.26.67.44.19.18.34.4.45.66.11.26.16.52.16.8v2.67c0,.55-.19,1.02-.56,1.4-.37.38-.84.57-1.39.57h-1.4v-1.71h1.05c.39,0,.59-.22.59-.66v-.26c-.12.04-.24.07-.37.07-.29,0-.56-.05-.81-.16s-.47-.26-.66-.45c-.19-.19-.34-.41-.45-.66s-.16-.52-.16-.81Z" style="fill: #ed1e4c;"/>
          <path d="M343.1,270.47v-11.12h-.39l-1.44,5.25h-2.76v-.26l1.84-6.43h5.65v12.56h3.81v2.76h-11.03v-2.76h4.33Z" style="fill: #ed1e4c;"/>
          <path d="M355.92,266.66v-4.55l3.81-1.05v-.39h-7.61v-2.76h9.98v4.81l-4.07,1.18v.39h.53c.54,0,1.07.08,1.6.25.52.17.99.43,1.39.78.4.35.73.79.97,1.3s.37,1.13.37,1.83v.26c0,.69-.11,1.32-.34,1.9-.23.58-.56,1.09-1.01,1.52s-1,.77-1.65,1.02-1.41.37-2.25.37-1.64-.14-2.34-.42-1.29-.66-1.78-1.14-.86-1.04-1.13-1.66c-.26-.63-.39-1.29-.39-1.99v-.92h2.89v.79c0,.7.23,1.31.68,1.82.45.51,1.13.77,2.04.77.77,0,1.37-.2,1.78-.59.42-.39.62-.91.62-1.55,0-.69-.22-1.19-.67-1.5s-1.01-.47-1.7-.47h-1.71Z" style="fill: #ed1e4c;"/>
          <path d="M372.88,271.45c0,.29-.05.57-.16.82-.11.26-.26.47-.45.66-.19.18-.41.33-.67.44-.26.11-.52.16-.8.16-.29,0-.56-.05-.81-.16s-.47-.26-.66-.44c-.19-.18-.34-.4-.45-.66-.11-.25-.16-.53-.16-.82s.05-.57.16-.82.26-.47.45-.66c.19-.18.41-.33.66-.44s.52-.16.81-.16.54.05.8.16c.25.11.48.25.67.44.19.18.34.4.45.66s.16.53.16.82Z" style="fill: #ed1e4c;"/>
          <path d="M378.55,263.86c0-1.98.5-3.52,1.5-4.62,1-1.09,2.38-1.64,4.15-1.64s3.15.55,4.15,1.64c1,1.09,1.5,2.63,1.5,4.62v3.41c0,2.04-.5,3.6-1.5,4.66-1,1.07-2.38,1.6-4.15,1.6s-3.15-.53-4.15-1.6c-1-1.06-1.5-2.62-1.5-4.66v-3.41ZM384.19,270.91c.53,0,.96-.08,1.31-.25.35-.17.63-.4.85-.71s.37-.67.46-1.09.13-.89.13-1.4v-3.76c0-.48-.05-.93-.15-1.36s-.26-.79-.48-1.09c-.22-.31-.5-.55-.85-.73s-.77-.27-1.27-.27-.92.09-1.27.27-.63.43-.85.73c-.22.31-.38.67-.48,1.09-.1.42-.15.88-.15,1.36v3.76c0,.51.04.98.13,1.4s.24.79.46,1.09.5.54.85.71c.35.17.79.25,1.31.25ZM382.35,265.57c0-.5.18-.93.55-1.29.36-.36.79-.55,1.29-.55s.93.18,1.29.55c.36.37.55.79.55,1.29s-.18.93-.55,1.29-.79.55-1.29.55-.93-.18-1.29-.55-.55-.79-.55-1.29Z" style="fill: #ed1e4c;"/>
          <path d="M396.09,266.66v-4.55l3.81-1.05v-.39h-7.61v-2.76h9.98v4.81l-4.07,1.18v.39h.53c.54,0,1.07.08,1.6.25.52.17.99.43,1.39.78.4.35.73.79.97,1.3s.37,1.13.37,1.83v.26c0,.69-.11,1.32-.34,1.9-.23.58-.56,1.09-1.01,1.52s-1,.77-1.65,1.02-1.41.37-2.25.37-1.64-.14-2.34-.42-1.29-.66-1.78-1.14-.86-1.04-1.13-1.66c-.26-.63-.39-1.29-.39-1.99v-.92h2.89v.79c0,.7.23,1.31.68,1.82.45.51,1.13.77,2.04.77.77,0,1.37-.2,1.78-.59.42-.39.62-.91.62-1.55,0-.69-.22-1.19-.67-1.5s-1.01-.47-1.7-.47h-1.71Z" style="fill: #ed1e4c;"/>
          <path d="M413.05,271.45c0,.29-.05.57-.16.82-.11.26-.26.47-.45.66-.19.18-.41.33-.67.44s-.52.16-.8.16c-.29,0-.56-.05-.81-.16s-.47-.26-.66-.44c-.19-.18-.34-.4-.45-.66-.11-.25-.16-.53-.16-.82s.05-.57.16-.82.26-.47.45-.66.41-.33.66-.44.52-.16.81-.16.54.05.8.16.48.25.67.44c.19.18.34.4.45.66s.16.53.16.82Z" style="fill: #ed1e4c;"/>
          <path d="M429.86,270.47v2.76h-10.77v-3.02c0-.8.12-1.49.36-2.06.24-.57.58-1.05,1.03-1.44.44-.39.98-.72,1.61-.97.63-.25,1.33-.47,2.12-.65.58-.13,1.06-.28,1.43-.45s.67-.36.89-.57c.22-.21.37-.44.45-.7.08-.25.12-.54.12-.86,0-.61-.22-1.12-.67-1.53s-1.06-.61-1.85-.61c-.83,0-1.5.25-1.99.75-.5.5-.74,1.2-.74,2.09v.96h-2.89v-1.23c0-.71.13-1.4.38-2.05.25-.65.62-1.22,1.09-1.71.47-.49,1.05-.88,1.74-1.16s1.46-.43,2.32-.43c.92,0,1.72.14,2.41.41s1.26.62,1.72,1.06c.46.44.8.95,1.03,1.52.23.58.34,1.17.34,1.78v.26c0,1.28-.36,2.35-1.08,3.19-.72.85-1.9,1.46-3.53,1.84-.69.16-1.25.33-1.7.49-.45.17-.79.35-1.04.56-.25.21-.42.43-.51.67-.09.24-.14.51-.14.82v.26h7.88Z" style="fill: #ed1e4c;"/>
          <path d="M432.11,263.86c0-1.98.5-3.52,1.5-4.62,1-1.09,2.38-1.64,4.15-1.64s3.15.55,4.15,1.64c1,1.09,1.5,2.63,1.5,4.62v3.41c0,2.04-.5,3.6-1.5,4.66-1,1.07-2.38,1.6-4.15,1.6s-3.15-.53-4.15-1.6c-1-1.06-1.5-2.62-1.5-4.66v-3.41ZM437.75,270.91c.53,0,.96-.08,1.31-.25.35-.17.63-.4.85-.71s.37-.67.46-1.09c.09-.42.13-.89.13-1.4v-3.76c0-.48-.05-.93-.15-1.36-.1-.42-.26-.79-.48-1.09-.22-.31-.5-.55-.85-.73-.35-.18-.77-.27-1.27-.27s-.92.09-1.27.27c-.35.18-.63.43-.85.73-.22.31-.38.67-.48,1.09-.1.42-.15.88-.15,1.36v3.76c0,.51.04.98.13,1.4.09.42.24.79.46,1.09s.5.54.85.71c.35.17.79.25,1.31.25ZM435.92,265.57c0-.5.18-.93.55-1.29.37-.36.79-.55,1.29-.55s.93.18,1.29.55.55.79.55,1.29-.18.93-.55,1.29c-.36.36-.79.55-1.29.55s-.93-.18-1.29-.55c-.36-.36-.55-.79-.55-1.29Z" style="fill: #ed1e4c;"/>
          <path d="M445.5,263.86c0-1.98.5-3.52,1.5-4.62,1-1.09,2.38-1.64,4.15-1.64s3.15.55,4.15,1.64c1,1.09,1.5,2.63,1.5,4.62v3.41c0,2.04-.5,3.6-1.5,4.66-1,1.07-2.38,1.6-4.15,1.6s-3.15-.53-4.15-1.6c-1-1.06-1.5-2.62-1.5-4.66v-3.41ZM451.14,270.91c.53,0,.96-.08,1.31-.25.35-.17.63-.4.85-.71s.37-.67.46-1.09c.09-.42.13-.89.13-1.4v-3.76c0-.48-.05-.93-.15-1.36-.1-.42-.26-.79-.48-1.09-.22-.31-.5-.55-.85-.73-.35-.18-.77-.27-1.27-.27s-.92.09-1.27.27c-.35.18-.63.43-.85.73-.22.31-.38.67-.48,1.09-.1.42-.15.88-.15,1.36v3.76c0,.51.04.98.13,1.4.09.42.24.79.46,1.09s.5.54.85.71c.35.17.79.25,1.31.25ZM449.31,265.57c0-.5.18-.93.55-1.29.37-.36.79-.55,1.29-.55s.93.18,1.29.55.55.79.55,1.29-.18.93-.55,1.29c-.36.36-.79.55-1.29.55s-.93-.18-1.29-.55c-.36-.36-.55-.79-.55-1.29Z" style="fill: #ed1e4c;"/>
          <path d="M470.03,270.47v2.76h-10.77v-3.02c0-.8.12-1.49.36-2.06.24-.57.58-1.05,1.03-1.44.44-.39.98-.72,1.61-.97.63-.25,1.33-.47,2.12-.65.58-.13,1.06-.28,1.43-.45s.67-.36.89-.57c.22-.21.37-.44.45-.7.08-.25.12-.54.12-.86,0-.61-.22-1.12-.67-1.53s-1.06-.61-1.85-.61c-.83,0-1.5.25-1.99.75-.5.5-.74,1.2-.74,2.09v.96h-2.89v-1.23c0-.71.13-1.4.38-2.05.25-.65.62-1.22,1.09-1.71.47-.49,1.05-.88,1.74-1.16s1.46-.43,2.32-.43c.92,0,1.72.14,2.41.41s1.26.62,1.72,1.06c.46.44.8.95,1.03,1.52.23.58.34,1.17.34,1.78v.26c0,1.28-.36,2.35-1.08,3.19-.72.85-1.9,1.46-3.53,1.84-.69.16-1.25.33-1.7.49-.45.17-.79.35-1.04.56-.25.21-.42.43-.51.67-.09.24-.14.51-.14.82v.26h7.88Z" style="fill: #ed1e4c;"/>
        </g>
      </g>
      <g>
        <g>
          <path d="M56.11,304.12h9.28v1.71h-7.44v5.08h7.31v1.71h-7.31v5.12h7.57v1.71h-9.41v-15.32Z" style="fill: #aca6a2;"/>
          <path d="M68.45,304.12h3.5l2.06,14.53h.26l2.06-14.53h3.5v15.32h-1.71v-14.53h-.26l-2.06,14.53h-3.33l-2.06-14.53h-.26v14.53h-1.71v-15.32Z" style="fill: #aca6a2;"/>
          <path d="M90.81,315.63h-6.56l-1.12,3.81h-1.97l4.64-15.32h3.46l4.64,15.32h-1.97l-1.12-3.81ZM87.4,304.91l-2.65,9.01h5.56l-2.65-9.01h-.26Z" style="fill: #aca6a2;"/>
          <path d="M96.06,304.12h9.72v1.71h-3.94v11.9h3.94v1.71h-9.72v-1.71h3.94v-11.9h-3.94v-1.71Z" style="fill: #aca6a2;"/>
          <path d="M109.52,304.12h1.84v13.61h8.01v1.71h-9.85v-15.32Z" style="fill: #aca6a2;"/>
        </g>
        <g>
          <path d="M55.23,329.8h11.03v2.76h-4.07v12.56h-2.89v-12.56h-4.07v-2.76Z" style="fill: #ed1e4c;"/>
          <path d="M68.49,335.75c0-1.98.5-3.52,1.5-4.62,1-1.09,2.38-1.64,4.15-1.64s3.15.55,4.15,1.64c1,1.09,1.5,2.63,1.5,4.62v3.41c0,2.04-.5,3.6-1.5,4.66-1,1.07-2.38,1.6-4.15,1.6s-3.15-.53-4.15-1.6c-1-1.06-1.5-2.62-1.5-4.66v-3.41ZM74.14,342.79c.53,0,.96-.08,1.31-.25.35-.17.63-.4.85-.71s.37-.67.46-1.09.13-.89.13-1.4v-3.76c0-.48-.05-.93-.15-1.36s-.26-.79-.48-1.09c-.22-.31-.5-.55-.85-.73s-.77-.27-1.27-.27-.92.09-1.27.27-.63.43-.85.73c-.22.31-.38.67-.48,1.09-.1.42-.15.88-.15,1.36v3.76c0,.51.04.98.13,1.4s.24.79.46,1.09.5.54.85.71c.35.17.79.25,1.31.25Z" style="fill: #ed1e4c;"/>
          <path d="M81.31,329.8h5.08l.88,11.51v2.23h.52v-2.23l.88-11.51h5.08v15.32h-2.63v-10.24l.26-3.5h-.52l-1.14,13.74h-4.33l-1.18-13.74h-.52l.26,3.5v10.24h-2.63v-15.32Z" style="fill: #ed1e4c;"/>
          <path d="M94.7,329.8h5.08l.88,11.51v2.23h.52v-2.23l.88-11.51h5.08v15.32h-2.63v-10.24l.26-3.5h-.52l-1.14,13.74h-4.33l-1.18-13.74h-.52l.26,3.5v10.24h-2.63v-15.32Z" style="fill: #ed1e4c;"/>
          <path d="M116.91,341.83h-5.21l-.74,3.28h-3.02l3.65-15.32h5.43l3.65,15.32h-3.02l-.74-3.28ZM112.32,339.07h3.96l-1.77-7.83h-.39l-1.79,7.83Z" style="fill: #ed1e4c;"/>
          <path d="M130.33,334.48c0-.61-.24-1.15-.71-1.6s-1.14-.68-2-.68c-.73,0-1.31.15-1.73.45-.42.3-.63.7-.63,1.21,0,.26.05.5.15.71.1.21.28.4.54.57.25.17.59.32,1.01.45.42.13.94.26,1.59.37,1.6.29,2.83.78,3.68,1.47.85.69,1.27,1.7,1.27,3.04v.26c0,.71-.13,1.36-.38,1.94s-.62,1.07-1.1,1.48c-.48.41-1.06.72-1.75.94-.69.22-1.46.33-2.32.33-1.01,0-1.89-.14-2.66-.43-.77-.29-1.4-.68-1.91-1.18-.51-.5-.9-1.09-1.16-1.77s-.39-1.42-.39-2.22v-.66h2.89v.52c0,.92.27,1.65.8,2.2.53.55,1.36.82,2.48.82.88,0,1.52-.19,1.95-.57s.63-.83.63-1.36c0-.25-.04-.49-.13-.71-.09-.23-.24-.43-.46-.61s-.52-.35-.9-.49c-.38-.15-.86-.27-1.44-.37-.77-.13-1.48-.3-2.12-.51-.64-.21-1.2-.49-1.67-.84-.47-.35-.84-.79-1.1-1.31-.26-.53-.39-1.17-.39-1.93v-.13c0-.63.13-1.21.38-1.74.25-.53.61-1,1.07-1.39.46-.39,1.01-.7,1.66-.92s1.38-.33,2.18-.33c.9,0,1.71.13,2.41.38.7.26,1.29.6,1.76,1.04.47.44.83.94,1.07,1.51.24.57.36,1.17.36,1.79v.79h-2.89v-.53Z" style="fill: #ed1e4c;"/>
          <path d="M135.45,335.75c0-1.98.5-3.52,1.5-4.62,1-1.09,2.38-1.64,4.15-1.64s3.15.55,4.15,1.64c1,1.09,1.5,2.63,1.5,4.62v3.41c0,2.04-.5,3.6-1.5,4.66-1,1.07-2.38,1.6-4.15,1.6s-3.15-.53-4.15-1.6c-1-1.06-1.5-2.62-1.5-4.66v-3.41ZM141.09,342.79c.53,0,.96-.08,1.31-.25.35-.17.63-.4.85-.71s.37-.67.46-1.09.13-.89.13-1.4v-3.76c0-.48-.05-.93-.15-1.36s-.26-.79-.48-1.09c-.22-.31-.5-.55-.85-.73s-.77-.27-1.27-.27-.92.09-1.27.27-.63.43-.85.73c-.22.31-.38.67-.48,1.09-.1.42-.15.88-.15,1.36v3.76c0,.51.04.98.13,1.4s.24.79.46,1.09.5.54.85.71c.35.17.79.25,1.31.25Z" style="fill: #ed1e4c;"/>
          <path d="M148.97,329.8h11.03v2.76h-4.07v12.56h-2.89v-12.56h-4.07v-2.76Z" style="fill: #ed1e4c;"/>
          <path d="M170.48,341.83h-5.21l-.74,3.28h-3.02l3.65-15.32h5.43l3.65,15.32h-3.02l-.74-3.28ZM165.88,339.07h3.96l-1.77-7.83h-.39l-1.79,7.83Z" style="fill: #ed1e4c;"/>
          <path d="M175.57,342.36h1.44v-9.8h-1.44v-2.76h6.72c.73,0,1.37.1,1.94.31s1.04.48,1.42.83c.39.35.68.77.88,1.26.2.49.3,1.02.3,1.59v.26c0,.88-.24,1.58-.73,2.1-.49.52-1.1.89-1.85,1.09v.39c.74.21,1.36.57,1.85,1.11s.73,1.24.73,2.11v.26c0,.57-.1,1.1-.3,1.59-.2.49-.49.91-.88,1.27-.39.36-.86.64-1.42.84-.56.21-1.21.31-1.94.31h-6.72v-2.76ZM179.91,336.05h2.1c.61,0,1.11-.13,1.49-.38s.57-.69.57-1.3v-.13c0-.61-.19-1.05-.57-1.3-.38-.25-.88-.38-1.49-.38h-2.1v3.5ZM179.91,342.36h2.1c.61,0,1.11-.13,1.49-.39.38-.26.57-.7.57-1.31v-.13c0-.61-.19-1.05-.57-1.31-.38-.26-.88-.39-1.49-.39h-2.1v3.54Z" style="fill: #ed1e4c;"/>
          <path d="M197.26,341.83h-5.21l-.74,3.28h-3.02l3.65-15.32h5.43l3.65,15.32h-3.02l-.74-3.28ZM192.66,339.07h3.96l-1.77-7.83h-.39l-1.79,7.83Z" style="fill: #ed1e4c;"/>
          <path d="M208.09,342.79c.55,0,1.01-.08,1.37-.25.36-.17.63-.39.83-.68.2-.29.33-.61.4-.99.07-.37.11-.75.11-1.15v-.39h2.89v.39c0,1.82-.48,3.23-1.43,4.21-.96.99-2.35,1.48-4.17,1.48s-3.14-.53-4.16-1.6c-1.02-1.06-1.53-2.62-1.53-4.66v-3.41c0-.98.13-1.86.39-2.64.26-.78.64-1.44,1.14-1.97.5-.53,1.09-.94,1.79-1.23s1.49-.43,2.36-.43,1.71.13,2.41.39c.7.26,1.29.64,1.76,1.14.47.5.83,1.09,1.07,1.79s.36,1.49.36,2.36v.39h-2.89v-.39c0-.36-.04-.73-.13-1.09-.09-.36-.23-.69-.44-.98-.2-.29-.48-.53-.83-.71s-.79-.27-1.31-.27c-.48,0-.9.09-1.25.27s-.64.43-.88.74-.4.68-.51,1.09-.16.85-.16,1.3v3.85c0,.5.05.95.15,1.37.1.42.26.78.48,1.08s.51.54.86.71c.36.17.79.25,1.3.25Z" style="fill: #ed1e4c;"/>
          <path d="M221.48,342.79c.55,0,1.01-.08,1.37-.25.36-.17.63-.39.83-.68.2-.29.33-.61.4-.99.07-.37.11-.75.11-1.15v-.39h2.89v.39c0,1.82-.48,3.23-1.43,4.21-.96.99-2.35,1.48-4.17,1.48s-3.14-.53-4.16-1.6c-1.02-1.06-1.53-2.62-1.53-4.66v-3.41c0-.98.13-1.86.39-2.64.26-.78.64-1.44,1.14-1.97.5-.53,1.09-.94,1.79-1.23s1.49-.43,2.36-.43,1.71.13,2.41.39c.7.26,1.29.64,1.76,1.14.47.5.83,1.09,1.07,1.79s.36,1.49.36,2.36v.39h-2.89v-.39c0-.36-.04-.73-.13-1.09-.09-.36-.23-.69-.44-.98-.2-.29-.48-.53-.83-.71s-.79-.27-1.31-.27c-.48,0-.9.09-1.25.27s-.64.43-.88.74-.4.68-.51,1.09-.16.85-.16,1.3v3.85c0,.5.05.95.15,1.37.1.42.26.78.48,1.08s.51.54.86.71c.36.17.79.25,1.3.25Z" style="fill: #ed1e4c;"/>
          <path d="M229.47,329.8h2.89v6.26h4.94v-6.26h2.89v15.32h-2.89v-6.3h-4.94v6.3h-2.89v-15.32Z" style="fill: #ed1e4c;"/>
          <path d="M243.1,329.8h10.24v2.76h-3.68v9.8h3.68v2.76h-10.24v-2.76h3.68v-9.8h-3.68v-2.76Z" style="fill: #ed1e4c;"/>
          <path d="M256.23,329.8h10.77v4.51l-5.54,8.1c-.29.44-.52.81-.69,1.13-.17.31-.25.67-.25,1.06v.53h-3.11v-.66c0-.29.02-.55.07-.79s.11-.47.21-.7c.09-.23.22-.48.38-.74.16-.26.36-.57.59-.92l5.71-8.36v-.39h-8.14v-2.76Z" style="fill: #ed1e4c;"/>
          <path d="M269.62,333.95v-2.63h6.87c1.43,0,2.57.38,3.41,1.14.85.76,1.27,1.9,1.27,3.41v7.44c0,.61-.19,1.12-.58,1.51-.39.39-.89.59-1.5.59h-2.69c-.55,0-.96-.12-1.21-.36s-.4-.53-.45-.86h-.39c-.13.34-.37.62-.71.86-.34.24-.84.36-1.48.36-.51,0-.98-.1-1.41-.3-.43-.2-.8-.5-1.12-.9-.31-.4-.56-.91-.74-1.52-.18-.61-.27-1.33-.27-2.17v-.13c0-.83.1-1.55.3-2.17.2-.61.46-1.12.79-1.52.33-.4.71-.7,1.16-.9.44-.2.92-.3,1.43-.3.55,0,.98.11,1.28.32.3.21.51.47.65.78h.39v-.79h2.63v6.48c0,.41.2.61.59.61h.13c.39,0,.59-.2.59-.61v-5.73c0-1.75-.88-2.63-2.63-2.63h-6.3ZM272.94,342.92c.6,0,1.02-.22,1.28-.67.25-.44.38-1.02.38-1.72v-.13c0-.7-.13-1.27-.38-1.72-.26-.45-.68-.67-1.28-.67-.55,0-.98.22-1.27.67-.29.45-.44,1.02-.44,1.72v.13c0,.7.15,1.27.44,1.72.29.45.71.67,1.27.67Z" style="fill: #ed1e4c;"/>
          <path d="M287.39,337.37h6.56v7.75h-2.62v-1.71h-.39c-.18.57-.51,1.05-1.01,1.43-.5.39-1.24.58-2.23.58-.7,0-1.36-.13-1.97-.39-.61-.26-1.15-.65-1.6-1.17s-.81-1.16-1.07-1.93c-.26-.77-.39-1.66-.39-2.68v-3.59c0-.99.14-1.87.43-2.64.28-.77.68-1.41,1.18-1.94.5-.53,1.1-.92,1.81-1.19s1.47-.41,2.32-.41,1.66.14,2.34.43,1.27.68,1.75,1.18c.48.5.85,1.09,1.09,1.77s.37,1.4.37,2.18v.26h-2.89v-.26c0-.92-.24-1.62-.71-2.09-.47-.47-1.14-.71-2-.71s-1.49.27-2.01.82c-.52.55-.79,1.48-.79,2.81v3.24c0,2.36.96,3.54,2.89,3.54.86,0,1.51-.23,1.96-.69.44-.46.67-1.08.67-1.85h-3.68v-2.76Z" style="fill: #ed1e4c;"/>
          <path d="M295.57,329.8h5.08l.88,11.51v2.23h.53v-2.23l.88-11.51h5.08v15.32h-2.62v-10.24l.26-3.5h-.53l-1.14,13.74h-4.33l-1.18-13.74h-.52l.26,3.5v10.24h-2.63v-15.32Z" style="fill: #ed1e4c;"/>
          <path d="M317.78,341.83h-5.21l-.74,3.28h-3.02l3.65-15.32h5.43l3.65,15.32h-3.02l-.74-3.28ZM313.18,339.07h3.96l-1.77-7.83h-.39l-1.79,7.83Z" style="fill: #ed1e4c;"/>
          <path d="M323.44,329.8h10.24v2.76h-3.68v9.8h3.68v2.76h-10.24v-2.76h3.68v-9.8h-3.68v-2.76Z" style="fill: #ed1e4c;"/>
          <path d="M337.05,329.8h2.89v12.56h6.96v2.76h-9.85v-15.32Z" style="fill: #ed1e4c;"/>
          <path d="M357.43,343.34c0,.29-.05.57-.16.82-.11.26-.26.47-.45.66-.19.18-.41.33-.67.44-.26.11-.52.16-.8.16-.29,0-.56-.05-.81-.16s-.47-.26-.66-.44c-.19-.18-.34-.4-.45-.66-.11-.25-.16-.53-.16-.82s.05-.57.16-.82.26-.47.45-.66.41-.33.66-.44.52-.16.81-.16.54.05.8.16c.25.11.48.25.67.44s.34.4.45.66.16.53.16.82Z" style="fill: #ed1e4c;"/>
          <path d="M368.78,342.79c.55,0,1.01-.08,1.37-.25.36-.17.63-.39.83-.68.2-.29.33-.61.4-.99.07-.37.11-.75.11-1.15v-.39h2.89v.39c0,1.82-.48,3.23-1.43,4.21-.96.99-2.34,1.48-4.17,1.48s-3.14-.53-4.16-1.6c-1.02-1.06-1.53-2.62-1.53-4.66v-3.41c0-.98.13-1.86.39-2.64.26-.78.64-1.44,1.14-1.97s1.09-.94,1.79-1.23,1.49-.43,2.36-.43,1.71.13,2.41.39c.7.26,1.29.64,1.76,1.14.47.5.83,1.09,1.07,1.79.24.7.36,1.49.36,2.36v.39h-2.89v-.39c0-.36-.04-.73-.13-1.09-.09-.36-.23-.69-.44-.98-.21-.29-.48-.53-.83-.71-.35-.18-.79-.27-1.31-.27-.48,0-.9.09-1.25.27-.35.18-.64.43-.88.74-.23.31-.41.68-.51,1.09s-.16.85-.16,1.3v3.85c0,.5.05.95.15,1.37.1.42.26.78.48,1.08s.51.54.86.71c.36.17.79.25,1.3.25Z" style="fill: #ed1e4c;"/>
          <path d="M376.48,335.75c0-1.98.5-3.52,1.5-4.62,1-1.09,2.38-1.64,4.15-1.64s3.15.55,4.15,1.64c1,1.09,1.5,2.63,1.5,4.62v3.41c0,2.04-.5,3.6-1.5,4.66-1,1.07-2.38,1.6-4.15,1.6s-3.15-.53-4.15-1.6c-1-1.06-1.5-2.62-1.5-4.66v-3.41ZM382.13,342.79c.53,0,.96-.08,1.31-.25.35-.17.63-.4.85-.71s.37-.67.46-1.09.13-.89.13-1.4v-3.76c0-.48-.05-.93-.15-1.36-.1-.42-.26-.79-.48-1.09-.22-.31-.5-.55-.85-.73-.35-.18-.77-.27-1.27-.27s-.92.09-1.27.27c-.35.18-.63.43-.85.73-.22.31-.38.67-.48,1.09-.1.42-.15.88-.15,1.36v3.76c0,.51.04.98.13,1.4.09.42.24.79.46,1.09s.5.54.85.71c.35.17.79.25,1.31.25Z" style="fill: #ed1e4c;"/>
          <path d="M389.31,329.8h5.08l.88,11.51v2.23h.53v-2.23l.88-11.51h5.08v15.32h-2.62v-10.24l.26-3.5h-.53l-1.14,13.74h-4.33l-1.18-13.74h-.52l.26,3.5v10.24h-2.63v-15.32Z" style="fill: #ed1e4c;"/>
        </g>
      </g>
      <path d="M150.94,85.56l48.45,24.8c2.27,1.16,4.15,2.98,5.37,5.22l14.52,26.5c1.25,2.27,1.77,4.87,1.5,7.45l-4.61,44.38c-.33,3.15-1.81,6.06-4.17,8.18l-13.7,12.28c-1.17,1.05-2.14,2.31-2.86,3.72l-15.14,29.82c-1.44,2.84-3.9,5.04-6.89,6.17l-22.13,8.31c-1.96.73-4.06.98-6.13.71l-40.13-5.23c-4.1-.53-7.69-3.02-9.62-6.68l-9.31-17.58c-.55-1.04-1.24-2-2.05-2.85l-23.45-24.52c-1.82-1.91-3.01-4.33-3.4-6.94l-8.37-56.38c-.53-3.57.48-7.2,2.77-9.99l22.66-27.49c1.68-2.04,3.94-3.5,6.49-4.19l61.02-16.63c3.07-.84,6.34-.5,9.17.95Z" style="fill: #f6b0bc;"/>
      <path d="M75.61,127.89c.24-.06.75-.64.87-.88.16-.33.56-1.28.69-1.65s.04-.76.14-1.03c.07-.2,2.34-1.25,2.76-1.41,2.39-.91,3.5-.69,5.9-.81,2.68-.13,3.58-2.35,5.87-3.6,1.76-.96,4.48-1.32,5.86-2.3,2.61-1.86-2.79-3.29-3.25-4.83.86-.06,1.54.5,2.29.79s.61.24,1.26.59,1.35.56,2.03.78c.17-1.46-1.96-2.28-1.91-3.84,1.48-.33,3.03,2.14,4.23,2,.34-.04.58-.34,1-.33.61.02,1.53.86,2.02.51.16-.11,1-1.12,1.04-1.3.15-.76-.14-1.28-.14-1.97,0-.17.13-1.37.18-1.42.11-.1,1.02.31,1.09-.66.02-.22-.84-1.55-.92-2.11s.16-1.03.16-1.57l1.5,1.25c1.09,1.26-1.31,2.06.41,3.08.27,0,.22-1.51,1.16-1.51.13,0,1.25,1.56,2.03,1.63.58.05,1.7-.97,2.14-.95.26.01.19.24.11.44-.13.31-.75,1.01-.7,1.3.52.57,1.32.12,1.89-.1,1.81-.7,3.73-1.97,5.44-2.91.53-.15.76.54,1.45.31,1.63-.53,1.71-2.69,3.89-3.15.35-.07.76.14,1.05-.05.37-.24.07-.92.53-.85.85.12,1.92,1.74,3.83,1.84,2.83.15,5.97-.17,8.85-.01.85.05,1.6.42,2.49.34,1.55-.13,3.36-1.73,5.08-1.5l-2.23.85c-.23.17-.64.67-.17.8.81.22,2.6-.78,3.56-.49-.21.41-.83.4-.67,1,1.69.18,3.48,1.47,5.09,1.67.26.03.27.03.24-.24l-1.33-1.25c2.09-.09,2.93,1.88,4.56,2.86,1.76,1.07,3.84,1.34,5.67,2.16,1.8.82,7.4,4,8.78,5.22.53.47.36,1.06,1.4.92.77-.1,1.27-.64,2.46-.57,2.3.13,3.17,1.6,4.73,2.9.39.33.97.54,1.42.91.8.66,1.29,1.81,2.32,2.01.28.05.55-.15.84-.02.45.2,1.06,1.65,1.59,2.09s1.41.64,1.98,1.03c1.26.86,1.23,1.95,1.85,3.15.54,1.03,1.49,1.83,1.76,2.99.43-.2.35-.74.66-1.09.63-.7.65.15.42.75-.3.8-1.23.9-.32,1.66,1.39-.4,1.64-1.98,2.08-3.14.57-.4,1.99,1.5,2.29,1.94,1.82,2.73,2.96,5.6,3.78,8.73.11.41.42,1.46.91,1.15.24-.15.31-2.71.51-3.16.22-.05.27.31.29.46.32,2.07-.26,4.35-1.26,6.16-.29.52-1.77,2.29-1.46,2.73.35.49,1.7-.12,1.93-.59.5-1.31,1.42-2.41,2.03-3.64.39-.79.49-1.89,1.14-2.45.5.41-.86,4.67-1.16,5.42-.49,1.23-1.79,2.53-2.04,3.29-.19.6-.01,1.46-.21,1.79-.33.55-1.91,0-2.05,1.62-.03.32.29,2.22.44,2.45.36.53,2.52-.59,2.94-.9.65-.48,2.16-2.79,2.34-2.83.39-.08.51.7.52.94.16,3.46-3.51,6.43-2.57,10.61.13.59.86.91.94,1.23.09.38-.35,1.71-.13,2.28-.06.22-1.4.17-1.35,1,.03.5,1.06,2.42,1.25,3.26.59,2.52-.13,2.51-.4,4.43-.17,1.19.31,2.32.11,3.45-.12.71-.7,1.49-.96,2.2-1.26,3.47.05,6.9-1.52,10.48s-4.89,3.3-7.84,4.16c-1.35.39-.83,1.82-2.63,1.62-.13.7.8.8.67,1.5-1.12.29-2.18-.16-3.33.17-.13.44.41.44.73.52.81.21,2.39.22,2.98.52.23.11.34.17.29.46-.71.26-1.47.35-2.2.55-.37.1-.71.42-1.06.46-.95.09-1.49-1.51-2.23.16.1.08,1.7-.55,1.15.32-.31.49-1.26-.19-1.32-.15-.12.08-.72,1.66-1.17,2.08-.27.25-.84.43-.93.58-.11.16.44,1.34.24,1.63-.08.12-.42.14-.67.59-.38.69-.15,2.77-1.3,1.78l.16,1.17c-.63-.02-.62-.79-.67-.83-.19-.18-.96.79-1.33.42.39-.61,1.45-.54,1-1.25,1.35.4.07-.36.83-.58-.76-.52.19-.95.41-1.43.43-.92-.61-.98-1.24-.57-.67.44-.56,1.08-.93,1.57-.31.41-.83.38-.91,1.1-.02.14-.02,1.49,0,1.63.09.75,1.19,2.29,1.45,3.4.51,2.22.24,6.19-1.14,8.09-.3.41-1.08.78-1.56.78h-2.42c.1-3.19.85-6.62,1.71-9.71.49-1.74.24-1.4.28-3.04.02-.87.45-1.78.52-2.66.1-1.45-.38-2.1-.62-3.39-.18-.95-.32-3.04-.58-3.75-.15-.41-.95-.39-1.1-.9s.17-1.44.06-1.56c-.12-.14-.43-.11-.54-.21-.26-.25-.38-.84-.89-.78-.06.36-.24.69-.42,1-.14.25-.32.74-.58.83.14-.89.57-1.58.16-2.5l-.66.33c.15-.42-.56-1.41-.5-1.5.04-.05.4.13.33-.17l-.66.17c.02-.18-.13-.97-.17-1-.05-.03-1.13.24-1.16.17-.08-.14.35-.34-.25-.83-1.9-1.56-4.31-.79-6.51-.83-.39,0-.81-.22-1.15-.18-.29.04-.73.53-1.14.7-1.02.43-3.36.25-4.52.12-.38-.04-.72-.28-1.1-.32,0-.28.56-.32.75-.33,1.12-.07,2.15.43,3.25,0,0-.34-.28-.58-.32-.92-.09-.72.28-2.61-.84-1.74-.07-.08.2-.46.17-.5-.08-.08-1.75-.61-2.12-.81-1.15-.61-2.3-1.45-2.8-2.7-.54-1.35-.18-3.26-2.38-2.54-.4.13-1.24.86-1.45,1.22-.59,1.04.15,2.03-.17,3.17-.18.64-1.67.64-.5,2.31.5.72,1.51.53,1.24,1.67.16.19,1.49-.96,1.47-.11-.02.95-2,.66-2.51.95-.19.11-.2.41-.4.47-.38.12-.66-.3-1.13.54-.52.92.08.85.08.91.08,1.61-.04,2.31.74,3.91,1.97,4.04,4.76,7.01,6.61,11.06.16.34.56.76.64,1.03.09.31-.67.25-.33.57.08.07.45-.22.5-.17-.07.97-1.01,1.47-1.5,2.25-.52.82-.65,1.73-1.33,2.5.23.34.65.26,1,.25.02-.42-.13-.89.25-1.16.22.54.89.28.92.33.09.17-.1.78.02.98.11.17.81.02.81.35-.33-.09-.48.5-.58.5-.08,0-.33-.45-.5-.45-.11,0-1.26.4-.92.79-.35.06-.47-.31-.79-.46-.43-.2-2.28-.64-2.35-.73-.08-.1,0-.78-.28-.8-.04,0-.38.28-.68.32-1.85.23-2.22-.33-3.7-.79-2.01-.63-4.28-1.57-6.33-2-.42-.09-.85.02-1.25-.08-.45-.11-1.53-1.25-1.43-1.67.05-.2.48-.62.47-.71-.01-.14-.64-.35-.66-.5,0-.08.85-1.16,1-1.34.64-.79,3.62-2.92,4.74-2.92.6,0,.92.24,1.68-.03.13-.05,0-.34.31-.28.92.2.4.82.44,1.49.56-.02.77-.14.67.5.63-.75,1.82-.55,2.68-.26.39.13.28.59.72.41.79-.33.49-3.02-.14-3.66-.82-.84-2.22.1-2.76-.24-.22-.14-.34-.73-.52-.99-.33-.44-.98-1.03-1.28-1.55-.22-.37-.63-1.66-.71-1.72s-.49.28-.65-.09c-.12-.74.48-.38.5-.41.33-.55-2.13-4.16-2.29-5.12-.14-.85.05-1.78-.04-2.63-.33-3.2-2.06-8.19-.3-11.14.95-1.6.8-.75,1.18-2.82.27-1.48,1.71-1.11,2.14-1.86.49-.84-.35-1.13,1.04-1.79,2.79-1.32,5.88-1.53,8.61-2.55,1.28-.48,1.14-1.44.79-2.62-.44-1.49-4.19-5.55-5.36-6.97-.59-.72-1.74-2.79-2.59-2.92-.22-.03-2.28.29-2.47.38-.47.22-.5.95-.81,1.04-.43.13-.59-.41-.85-.48-.35-.09-.53.32-.77.29-.34-.05-.58-.61-1.23-.35-1.1.44-.67,2.09-2.17,2.51-.26.07-.77-.02-.86.06-.04.03-.07.64-.43.99-.56.54-1.33.37-1.82.68-1.08.67-1.41,2.52-3.46,3.04-.91.23-1.31-.05-2.01-.01-.55.03-.98.39-1.69.29-.84-.12-1.93-1.15-3.02-1.13-1.71.02-1.11,1.87.16,2.14.24,0,.27-2.27.68-1.51l.74,3.59c.44.31,1.03.3,1.49.51.22.1.32.41.64.53.37.15,1.06-.06,1.04.54h.16c-.14-.54.98-.4,1.27-.18.47.36.09,1.25.26,1.74.09.26.46.28.56.44.35.54-.6,1.63-.81,2.2-.11.29-.08.93-.11.97-.3.39-.3-.45-.5-.33-.09.41.33.54.21.94-.08.3-1.26,1.98-1.49,2.04-.6.16-1-.87-.89-1.37.03-.13.3-.04.35-.35.14-.98-.2-1.99-1.23-2.31-.65-.2-.84.4-.54.89.19.31.74-.23.9.27.29.91-.66,1.59-.64,2.15,0,.34.43.47.47.68.06.3-.48.74-.44,1.12.05.52,1.82,2.18,2.06,3.44.13.67.18,2.42.04,3.06-.2.91-1.87,1.06-2.41,1.67-.22.25-.45.94-.75,1.34-1.89,2.53-4.4,3.59-7.56,3.78-.38.02-1.56-.06-.81-.48.68-.38,1.72-.14,2.23-1.1h-1.17c.14-.5.92-.72,1.33-.92.07-.3-.28-.1-.33-.17-.06-.07.3-.31.32-.57.03-.46-.26-1.28-.83-1.01-.24.11-.27.58-.42.59-.39.03-.77-.59-1.02-.65-.24-.06-.84.17-1.29.14-1.15-.06-4.14-.77-5.01-1.5-1.09-.9-1.66-3.62-3.83-1.5-.96.94-1.17,1.69.17,2.33.16.09-.13.33-.17.33-.14.02-1.38-.45-1.83-.5-1.58-.16-3.81.65-5.03-.56-1.53-1.51.04-2.86,1.44-3.53,3.79-1.81,9.31-2.57,13.34-3.83.16-.05,1.33-.36,1.17-.58-1.17,0-2.15-.72-3.25-.83-1.31-.13-2.93.16-4.22.45-.49.11-3.56,1.03-3.7,1.22-.07.1.22.44.17.5l-.58-.33-4.75,2.92c-.45.3-.99.26-1.51.24-.1-.1.97-2.36,1.13-2.62.6-.98,1.5-.88,2.36-1.48.41-.29,1.39-1.46,1.78-1.54.16-.03.88.27,1.31.3.56.03,1.49-.4,2.17-.49,3.08-.41,7.41.19,10.29-.88.8-.3.11-.73.14-1.21.01-.24.44-.58.32-.74-.02-.03-.59-.06-.75-.34-.12-.21-.04-.61-.09-.66-.07-.07-1.39.07-1.83-.09-.52-.19.51-.37.51-.84,0-.87-1.72-.67-2.22-.79-1.38-.33-2.5-1.24-4-.92-.93.19-1.65,1.25-2.83.92-.25-.07-.44-.36-.74-.43-.52-.12-1.07.03-1.6-.07-1.2-.24-2.68-2.05-3.89-2.12-.89-.05-1.65.64-.9-1l-1.49-.16c-.41.95.64,1.13,1.15,1.65-.44-.01-.63.54-.95.64-.55.17-1.37-.13-1.88.12-.33.16-.4.77-.67,1s-.85.18-.97.53c-.31.88-.45,3.2-.37,4.15.15,1.73.87,1.56-.07,3.41-.27.52-.76,1.01-.96,1.54-.56,1.49-.74,2.59-1.44,4.23-1.49,3.47,1.83,11.52,1.97,15.51.03,1.03-.41,1.73-1.41,1.06-2.19-1.47-1.56-6.06-4.66-7.17-.86-.31-2.18-.64-2.59.43l.34,4.82c-.19,1.19.38,3.72-.36,4.65-.98,1.23-5.06-.2-4.94-.98.05-.34.64-.34.76-.46.06-.06.51-1.35.46-1.46-.07-.17-2.48-1.82-2.92-2.24-1.57-1.49-3.59-4.25-4.16-6.35-.66-2.44.35-3.56.5-5.82.05-.79.05-2.5-.33-3.17-.03-.05-.56,0-.84-.51.05-.15.6,0,.16-.33-.56-.42-1.87-.82-2.61-1.23-3.04-1.69-5.02-3.72-4.73-7.45.16-2.07.88.92,1.05,1.3.3.65,2.68,2.36,3.41,2.76.33.18.64.41,1.05.37-.5-1.19-2.03-2.07-2.53-3.22s-.17-1.91-.3-3.03c-.22-1.85-3.16-1.87-3.76-3.91-.13-.45-.52-2.18-.33-2.51.26-.44,2.08-.39,2.66-.5,1.12-.22-.23-.83-.63-1.02-1.75-.83-5.77-2.76-7.53-2.8-.34,0-.71.24-1.08.17-.09-.43.09-.29.32-.42,3.56-1.93,8.03-1.49,11.71-2.3.53-.12,1.75-.33,1.14-1.05-.66-.79-3.95.23-4.93.23-1.27,0-5.01-1.75-5.2-3.07-.07-.47.33-1.28-.21-1.89,2.09.91.26-.61-.04-1.38-.64-1.67,1.81-1.48,2.55-.21.18.31.13.73.16.76.05.05.52-.18.74-.16,1.17.06,1.95,2.17,3.51,2,.8-.09.07-.77.07-1.25,0-.85.88-1.03.33-2.32-.51-1.19-2.09-.59-2.16-1.03-.09-.54.94-1.34,1.11-2.05.18-.79-.13-1.21-.08-1.9.05-.77.58-1.68.65-2.53.25-2.74-1.44-5.18-.2-8.03,1.13-2.59,5.24-3.65,5.53-6.55-1.21.29-1.31-.75-.41-1.33.52-.11.44,1.02.41,1.33ZM126.1,103.73c-.35-.24-1.21.33-1.15.82l1.33.17c.06-.07-.1-.93-.18-.98ZM147.46,105.55c-.11-.11-1.77.06-1.33.67.3.21,1.85-.15,1.33-.67ZM175.01,118c.66.66,2.74.4,1.88-.63-.99-1.19-3.22-.71-1.88.63ZM186.07,124.41c-1.66.56,1.83,2.44,2.44,1.09.44-.98-1.76-1.32-2.44-1.09ZM74.05,132.73c-.57.17-.49,1.91-.4,2.37.3,1.49,2.31,1.96,1.92-.09-.09-.46-.9-2.46-1.52-2.28ZM75.94,137.71s.48-1.04.49-1.1c.06-.7-1.29-.09-1.32.05-.13.54.4,1.36.84,1.05ZM73.28,140.72c.26-.28-.67-2.99-1.67-2.5-.11,1.05.46,2.5,1.67,2.5ZM117.28,153.05c-.05-1.06-.91-1.14-1.17-.08.34.33.77.21,1.17.08ZM117.6,153.74s-.79-.34-.91-.35c-1.37-.09-1.85,2.93-.24,3-.26-.83,1.54-2.01,1.15-2.65ZM202.12,154.24c-.31-.21-1.36.32-1.53.7-.13.27.02,1.69.32,1.78,1.04.31,1.84-2.05,1.22-2.48ZM69.44,156.06c.43-.36-2.19-1.43-2.33-.75-.13.61,1.95.88,2.33.75ZM117.07,157.44c-1.45-1.46-2.77,1.16-3.71,1.95-.54.45-4.25,2.76-4.24,3.09.54.47,1.64,1.24,2.37,1.21.12,0,.51-.09.46-.3h-.83c-.58-.51,2.3-.66,2.54-.71.66-.16,1.13-.58,1.8-.62.43.38-2.11,1.26-.21,1.96,2.09.77,3.3-.59,5.45-.45,1.57.1,2.52.71,3.92,1.16-.61-.9-.04-2.51-.23-3.17s-1.08-1-1.44-1.41c-.27-.32-.45-1.12-.78-1.23-.49-.16-1.73.53-2.4.39-.54.31-2.71,2.24-3.25,1.78-.94-.8,1.76-2.41.54-3.64ZM114.12,157.89c-.34-.32-1.69,1.07-1.67,1.5.23.21,1.87-1.31,1.67-1.5ZM124.45,158.22c-.44-.33-.62.93-.5,1.16.56.14.7-1.01.5-1.16ZM67.7,161.73c-.08.02-.28.19-.18.33.34.48,2.76.99,2.75.42,0-.38-2.25-.82-2.57-.75ZM71.28,161.89c-.14.86,2.33,1.35,2.33.75,0-.1-.6-.77-.82-.84-.53-.18-1-.05-1.51.1ZM73.78,162.06c-.35.49,1.95,1.25,2.16.58.27-.86-1.96-.87-2.16-.58ZM127.62,167.89c-.12.29.12,1.16.42,1.16.47,0,.13-1.34-.42-1.16ZM131.95,171.89l-1.17-.17.75,1.16.42-1ZM74.78,174.06c.26-1.14-2.48-2.57-1.93-.82.26.81,1.2.91,1.93.82ZM159.29,174.73c-.43.07-.67-.11-1-.33-.04.43.07.88.42,1.16l.58-.83ZM161.62,176.9c-.09-.13-2.71-.62-3.1-.66-.99-.09-2.47-.04-3.35.44-.52.29-.6.87-1.38.95.38.53.99.09,1.4.14.51.06.8.3,1.52.28,1.52-.04,3.37-.55,4.92-.67-.02-.14.04-.41,0-.49ZM75.94,180.56l-5.5-4c.03,1.57,4.17,4.41,5.41,4.34.15,0,.11-.3.08-.33ZM77.45,179.4c-.85.16-1.52-.33-2.33-.33.31.63,1.92,1,2.33.33ZM157.75,181.35c.75-.7.37-2.28-.88-1.8-2.03.77-.3,2.91.88,1.8ZM115.45,181.73c.37-.37-.59-1.42-.98-.81-.45.71.83.96.98.81ZM124.74,183.1c-.15-.17-1.09-.49-1.28-.36-.15.53-.45,1.06-.33,1.64.49.08,1.39.37,1.83.1.25-.16-.06-1.21-.22-1.38ZM149.12,183.06c.04.38.17,1.77.75,1.67.41-.07,0-.88-.1-1.06-.15-.27-.24-.66-.65-.6ZM78.78,183.9s-.91-.42-1-.34c-.11,1.15,1.38.81,1,.34ZM191.82,188.71c.25.4,1.86-.19,2.39-.16s.9.46,1.35.51c1.53.16,2.94-2.64,3.05-3.94.18-2.06-1.35.05-1.98.36-.74.38-1.74.45-2.55.78-.66.27-2.82,1.57-2.27,2.44ZM121.97,186.55c.82.62,2.14-1.55,1.23-1.98-.29-.14-.34.64-.58.92-.19.22-1.21.64-.66,1.07ZM165.29,186.56c-.48-.48-2.64.13-2.66.58-.02.41,2.77.5,2.66-.58ZM161.74,187.45c-.13-.17-1.13-.7-1.28-.55.26,1.17.14,2.14,1.67,1.83.08-.07-.28-1.15-.38-1.28ZM197.8,190.89c.81.23,1.48-.88.46-.8-.53.04-.5.33-.46.8ZM148.25,193.77c-.69-.79-.97,1.35.2.96,0-.3,0-.73-.2-.96ZM148.62,195.9c.1-.85-.39-1.1-1.17-1l1.17,1ZM148.46,200.06c.32.04.75,0,.92-.33.48-.94-1.21-.86-.92.33ZM85.61,201.56c-.05-.05-1.3.14-1.33.5.44.41,1.83.01,1.33-.5ZM180.08,211.94c-.56-.57-1.33.49-1.54.96-.11.24-.03.59-.17.83-.12.21-.76.43-.91.75,0,.22,2.93,1.93,3.3.3.13-.57-.28-2.44-.68-2.84ZM171.13,212.73c.42-.1.1-.91.73-.65.41.17.47.93.43,1.32.98-.45,1.4-.4,1.33.83-.34.06-.44-.3-.75-.33-1.35-.13-.66.75-.75.83-1.45.44-1.57-1.92-2.83-.92,1.54,1.02.55,2.66,1.41,3.92-.09-.58.7-.97.74-1.09.22-.71-.47-.37-.49-.41-.44-.78.81-1.05,1.42-.51s-.22,1.96-.26,2.6c-.01.27.15.54.16.83.01.22-.18.51-.15.65.07.34.84.13.65.51-.28.57-2.11-.06-.83,1.75-.22.21-1.27-1.13-1.41-1.34-.26-.39-.88-1.95-1.09-2.08-.28-.17-.84-.05-1.22-.11-.16-.03-.95-.62-.78-.05.03.09.76,1.3.83,1.34.29.17.73.02,1.06.11.51.15.63,1.06.88,1.45.36.57,1.27,1.37,1.2,2.06-.03.26-.34.65-.28.86.09.36.83.14,1.03,1.14s-.63.52-1.21.21l.83-.33c-.33-.93-1.44-.52-1.5-.58-.1-.11.25-1.76-.58-1.5-.34.11-.14,1.73-.53,2.09l.28.58c-.75.12-1.33.26-1.35-.75-.01-.57.83-1.47.1-2.08l-1.7,1.13c-.66.26-1.39.2-2.05.45-.5.19-.98.78-1.45.88-.79.17-2.06-.61-1.88.37-.08.09-.35-.33-.42-.33-.25,0-.63,1.66-.42,2-.57-.2-.6-2.15-1.25-2-.09.02-.75,1.51-.76,1.59-.05.55.53.59.51,1.07-.73-.05-1.16.39-1.83-.09-.7-.51.21-.73.14-1.14-.21-1.22-1.84.67-1.32,1.39-.04.05-.65-.74-.63.12.01.5.98.74.8,1.38-.56.09-.91-.21-1.33-.5l.08.83c-.74-.11-.37-.96-.42-1-.16-.12-1.92.35-2.33.17-.16.45.33.62.41.83.07.18-.13.45-.08.51.06.06.33-.19.59-.01,1.07.76-1.13.66-1.3.71-.3.09-.4.54-.78.47.23-.38.66-1.66-.08-1.67-.5,0-.31.63-.52.68-.31.08-.97-.19-1.07-.11-.33.26.14,1.03-.78,1.23-1.14.25-1.3-.65-1.82-.76-.88-.2-.42,1.01-.58,1.27-.05.07-.47.12-.64.28-.23.21-.32.48-.51.66-.8.73-.89.11-.66,1.76-.33.05-.44-.29-.76-.34-1.04-.16-1.01,1.46-1.66,1.52-.55.05-1.37-1.1-2.79-.81-.43.09-.78.56-1.29.46v-1c-.71.53-.98-.25-1.27-.31-.59-.12-1.13,1.12-2.49-.02-.27-.23-.11-.68-.57-.34-.22-1.26.22-.84.75-1.33.58-.53.22-1.08,1.41-1.27,1.95-.31,4.07-.24,6.04-.61,2.1-.39,4.18-1.91,6.13-.12.02-1.26.48-1.78,1.66-2.09,1.44-.39,1.53.26,1.85-1.74.39-.08.49.39.78.48.72.2.78-.37,1.09-.52.45-.23,2.23-.66,1.38-1.46-1.15-1.07-2.53.72-2.92.17-.08-.11.58-1.62.01-2.43-.6-.85-1.75.04-2.45.09-.77.05-1.85-.24-2.81-.16-.83.07-1.74.47-2.5.51-1.57.07-3.02-1.13-4.87-.21-.35.17-.63.69-.96.7-.37,0-1.06-.66-1.5-.84-1.42-.58-2.28-.06-3.67-.16-.86-.06-1.78-.45-2.66-.5-1.2-.06-2.39.34-3.51.35-3.16.03-5.97.32-9.12.87-1.79.31-4.09,1.46-5.8.7-1.93-.86.22-1.84,1.29-2.05.92-.17,1.69.19,2.58.09,1-.12,2.11-.8,3.12-1.05,1.92-.47,4.77-1.31,6.61-1.56.97-.13,3.17-.1,4.13-.02.52.05,1.34.73,1.96.88,1.73.44.98-.16,1.2-.89.27-.88,2.07-1.32,2.86-1.01,1.12.44.75,1.97,1.35,2.16.39.12,1.33-.37,1.82-.47.74-.15,1.19.23,1.91-.42.98-.88.08-1.38.18-1.82.13-.55,3.48-1.05,4.1-1.56.56-.29,1.78.59,2.21.12.05-.06-.29-.52.09-.66.59.07,4.58.5,4.74.33.09-.09-.19-.71.16-.67l.24.51c.7-.15,1.86.24,2.49.17.11-.01.09-.29.23-.33.33-.09.84-.09,1.21-.18l-.83.75c.14.32,1.4.97,1.74.92.22-.03.76-.51.93-.34.1.11-.23.55.25.5.3-.03.42-.4.75-.33l-.33.5c.67.05,1.96,0,2.56.2.29.1.32.5.52.65.54.42,2.96-.79,3.84-.19.19-.03.3-1.12.26-1.16-.07-.06-.75.19-.5-.42.27-.66,1.09.48,1.58-.59.36-.78.55-1.78-.58-1.67l.33-.66c-.05-.06-1.01-.01-.83-.42.09-.22,2.22-2.2,2.33-2.09.02.45-.45.58-.63.96-.43.9.44,1.24.59,1.83.18.71-.31,2.51.88,2.3.83-.15-.01-1.05,0-1.17.02-.14.43-.2.47-.27.35-.58-1.44-1.75-1.3-2.38s2.33-.25,2.32-.68c0-.32-1.8-.08-1.49-1.15.14-.48,1-.14,1.29-.3.18-.1.19-.89.76-.45.7.54.13,1.3.11,1.98ZM168.96,220.4c-.06-.06-1.38-.03-1.59,0-.25.04-.27-.1-.25.25.04.95.51.7.78.97.15.15.93,1.37,1.22,1.11-.6-.4-.25-1.35-1-1.17.03-.32.58-.21.75-.5.08-.14.13-.62.08-.67ZM157.96,226.57c-.1-1.27-.43-1.09-1.5-1.33-.17.54,1.23,1.57,1.5,1.33ZM152.46,228.73c.08.06,1.66-.67,1.82-.76.26-.16.58-.48.51-.82-.12-.59-.85.38-1.01.48-.5.32-1.13.27-1.32,1.1ZM138.41,233.09c-.19.05-.31.26-.45.39,1.73,1.5,1.61-.72.45-.39ZM169.79,230.57l.17.5-1.17-.16c.64.69,1.3.45.92,1.67-.27.89-2.73,2.99-3.51,3.82-6.92,7.42-13.87,10.78-24.17,11.67-10.23.88-17.46-1.82-26.53-5.8-.82-.36-3.4-1.72-3.56-2.61-.1-.57,1.48-.44,1.84-.25l-.17.5c.74-.35,1.09.41,1.8.79.62.33,2.08.6,2.44.87.19.14.06.48.1.52.05.05.37-.15.55-.12.3.05.91.51,1.41.59.97.15,2.16.17,3.09.73.33.2.4.59.69.81.6.45,2.06.34,2.92.58,1.2.33,1.84.78,3.25.76.68-.01,1.33-.56,2.01-.65s1.27.16,1.78.12c.13-.01,2.34-.66,2.45-.72.33-.15,1.22-1.26,1.62-1.38,1.02-.31,1.27.71,1.63.63.41-.08.08-1.13.51-1.33.43-.09,1.3,1.57,1.96,1.48s.7-.81,1.01-1.1c.39-.35,2.14-.86,2.25-1.49.03-.17-.18-.48-.13-.56.06-.08,1.66-.29,1.83-.76-.68-.84-.31-1.85.5-2.49l-.25-.58.33.33c.32-.24.6-.73.93-.9.4-.22,1.22-.39,1.48-.51.47-.22.65-1.21,1.46-1.39.97-.22,2,.56,3.05.3.08-.45-.08-.29-.36-.38-.6-.19-1.34-.43-1.93-.58-.32-.08-1.52.06-.71-.62.58-.48,1.09.24.66-1.26.59.22.54.95.9,1.35.88.98,1.67-.42,2.37-.48.3-.02.78.37,1.47.3s1.24-.82,1.87-.29c.21.18.44,1.2.72.67.07-.14-.02-.45.27-.54.22-.07.62.21.9.16.1-.21-.71-.19-.33-.5.32-.27.52.29.62.32.39.14.92-.03,1.3.48,1.2-.81,1.63-2.84,2.97-3.35.69-.26.82.54,1.03.54.12,0,.58-.69.75-.76.2-.08.36.29.57.25.18-.03,1.54-2.1,2.43-1.66.41.36-2,1.52-1.81,2.22.03.11.35.45.4.45.23,0,.26-.82.41-1.09.54-.95,2.2-.37,2.18-1.91.23.03.29.23.32.42.26,1.42.38,2.6-1.49,2.41ZM156.46,235.07c.18-.88-.65-1.05-1.07-1.51-.21-.22-.14-.64-.42-.66-.57.59,1.04,2.63,1.5,2.16ZM152.45,234.74c-.25-.24-.3.02-.33.25s-.22,1.53-.17,1.58c.18.17.72-.16.8-.45.08-.27-.16-1.24-.31-1.38ZM158.62,234.74c-.62-.05-1.41.24-1.33,1l1.33-1ZM98.28,218.9h.5s-.42.5-.42.5c-.14.05-.03-.34-.17-.34-.2,0-1.54.61-2.17.68-1.84.18-3.36-.23-4.17-2-.28-.61-.77-1.95-.09-2.33.05,1.78,2.67,4.04,4.39,3.47,1.39-.46-1.83-2.49-1.97-2.81-.45-1.06.19-1.44,1.08-1.75,1.31-.46,3.04-.88,3.17,1.02.06.89-.82,1.55-.82,1.65,0,.15,1.56,1.15.66,1.92ZM96.95,215.23c-.13-.12-1.38.33-1.33.75.09.48,1.64-.07,1.33-.75ZM136.95,207.06c.08-.39-.05-.27-.22-.37-1.55-1.01-5.2-1.16-6.99-.92-2.9.39-2.37,2.62.12,2.63,2.19.01,3.08-1.11,4.5-1.34.76-.13,1.79.09,2.58,0ZM188.49,202.34c.1-.18.4-.55.14-.7-1.36-.79-3.31,2.16-2.5,2.75.56.4,2.11-1.61,2.36-2.05ZM79.79,199.8c-.74-.53-1.41-1.53-2.34-1.57-.12.11.77,1.15.89,1.27.76.79,1.96,1.71,3.11,1.56.4-.34-1.52-1.17-1.66-1.26ZM152.12,102.97c-.4-.19-2.42-.83-2.67-.58-.04.04-.04.41.1.51.24.18,3.57,1.3,3.73,1.15.3-.26-1-1-1.17-1.08ZM203.81,176.31c0,.54-.23,1.04-.18,1.58.4.11.48-.41.57-.67.15-.43.39-1.34.41-1.77.02-.29-.19-1.45-.33-1.55-.99-.64-.48,2-.47,2.41ZM165.12,212.23c-.21.22.48,1.22.75,1.33.38.15.25-.81.54-.96l.05-.54-1.33.17ZM201.88,135.72c.59-.18-.28-2.03-.75-2.17.11.6-.13,2.23.75,2.17ZM102.28,169.65c.32,1.14,1.16-.2,2,.08-.19-.96-1.5-.61-2-.08ZM86.78,205.56c-.53.47,2.5,1.63,1.81.52-.07-.11-1.53-.62-1.81-.52ZM165.79,228.9c.78-.09,1.64.13,1.5-1-.64.07-1.53.19-1.5,1ZM140.21,236.06c-.79-.51-.89.55-.76.68.05.04.72-.1.8.24.04.19-.43.71.2.59,0-.62.41-1.08-.24-1.51ZM136.62,236.65c.43.57,1.44.46,1.83-.08-.91-.18-1.03-.81-1.83.08ZM171.04,209.7c-.15,0-.62-.68-.92-.39l1.33,1.25-.33-.83c.7.05,1.47.31,1.5-.67-.81-.62-1.32.63-1.58.63ZM165.12,215.23c-.55.24-.28,1.02-.33,1.5,1.45-.32.46-.61.33-1.5ZM90.11,110.05c.16.38.88.46,1.25.5.19.02,1.6.07,1.08-.33l-2.33-.17ZM205.13,164.64c.56.55,1.45.06,1.17-.25-.12-.13-2.12-.69-1.17.25ZM173.36,210.24c-.59-.13-.74.81-.57.99.48.49,1.33-.83.57-.99ZM174.21,209.89c-.56.96.7,1.54.76,0-.23.06-.61-.26-.76,0ZM156.46,214.9c-.26.34,1.06.95,1.33.83-.03-.47-1-1.26-1.33-.83ZM133.7,231.57c-.53-.13-.3,1.12-.25,1.17.49.44,1.02-.8.25-1.17ZM136.87,219.4l-.08,1.16c.92-.3,1.17-.86.08-1.16ZM150.37,225.4c-.36.05-.98.93-.75,1.16.41.41,1.3-1.15.75-1.16ZM159.46,189.64c.24-.98-1.36-.81-.82.07.07.11.73.28.82-.07ZM172.88,221.57s-.56.33-.58.41c-.09.36.72.65,1,.58.07-.07-.25-.98-.41-1ZM138.96,218.73c-.12.11.66,1.33,1,1,.2-.45-.73-1.25-1-1ZM205.49,165.68c-.29.08-.43-.05-.36.38.53.04,1.33-.01,1.67-.5-.45-.04-.87,0-1.31.12ZM157.21,188.9c-.67-.19-.6.7-.41.83.47.33,1.01-.67.41-.83Z" style="fill: #ec1c4e;"/>
    </g>
  </g>
</svg>