<?xml version="1.0" encoding="UTF-8"?>
<svg id="Layer_2" data-name="Layer 2" xmlns="http://www.w3.org/2000/svg" viewBox="0 0 284.43 277.94">
  <g id="Layer_1-2" data-name="Layer 1">
    <g>
      <g>
        <path d="M7.75,59.44c2.24,3.16,4.6,5.84,7.02,7.98.43.38.99.59,1.57.59h1.66c1.31,0,2.36-1.06,2.36-2.36v-.13c0-.66-.28-1.29-.77-1.74-2.54-2.33-4.86-5.05-6.88-8.08-2-2.99-3.6-6.36-4.74-10.02-1.14-3.63-1.71-7.56-1.71-11.67s.57-8.1,1.68-11.72c1.12-3.63,2.7-7,4.71-10.01,2.02-3.04,4.34-5.73,6.91-8.01.51-.45.8-1.09.8-1.77v-.13c0-1.31-1.06-2.36-2.36-2.36h-1.66c-.57,0-1.12.2-1.55.58-2.43,2.1-4.8,4.79-7.04,7.98-2.26,3.22-4.13,6.98-5.57,11.19-1.45,4.24-2.18,9.04-2.18,14.27s.73,9.97,2.18,14.23c1.43,4.24,3.31,8,5.57,11.2Z"/>
        <path d="M17.11,57.41c.44.63,1.17,1.01,1.94,1.01h1.39c.99,0,1.88-.62,2.22-1.56l5.59-15.39h16.77l5.5,15.38c.34.94,1.23,1.57,2.23,1.57h1.39c.77,0,1.49-.37,1.93-1,.44-.63.55-1.43.29-2.16L39.74,8.92c-.34-.94-1.23-1.57-2.23-1.57h-1.59c-.99,0-1.88.62-2.22,1.56l-16.88,46.34c-.26.73-.16,1.53.28,2.17ZM30.4,35.55l6.3-17.34,6.2,17.34h-12.5Z"/>
        <path d="M93.9,52.3c.11-.12.21-.25.31-.38l.2,4.24c.06,1.26,1.1,2.25,2.36,2.25h1.06c1.31,0,2.36-1.06,2.36-2.36v-23.77c0-1.31-1.06-2.36-2.36-2.36h-17.41c-1.31,0-2.36,1.06-2.36,2.36v1.19c0,1.31,1.06,2.36,2.36,2.36h13.4c-.56,5.36-2.07,9.55-4.47,12.49-2.66,3.25-6.49,4.83-11.71,4.83-3.36,0-6.24-.8-8.78-2.44-2.53-1.63-4.53-3.97-5.97-6.98-1.47-3.08-2.22-6.8-2.22-11.06s.78-8.02,2.32-11c1.53-2.96,3.56-5.16,6.22-6.73,2.64-1.56,5.72-2.35,9.16-2.35,4.24,0,7.59.95,9.95,2.83,2.42,1.93,4.03,4.42,4.92,7.62.28,1.02,1.22,1.73,2.28,1.73h1.46c.74,0,1.43-.34,1.88-.93.45-.59.6-1.35.4-2.06-1.33-4.88-3.83-8.69-7.44-11.32-3.58-2.61-8.1-3.93-13.44-3.93-4.75,0-8.98,1.12-12.56,3.33-3.59,2.21-6.41,5.34-8.39,9.3-1.95,3.89-2.93,8.43-2.93,13.5s.93,9.67,2.77,13.58c1.88,4,4.6,7.19,8.09,9.48,3.51,2.3,7.64,3.47,12.29,3.47,3.39,0,6.47-.57,9.16-1.71,2.73-1.15,5.12-2.91,7.1-5.21Z"/>
        <path d="M103.99,58.42h1.39c.99,0,1.88-.62,2.22-1.56l5.59-15.39h16.77l5.5,15.38c.34.94,1.23,1.57,2.23,1.57h1.39c.77,0,1.49-.37,1.93-1,.44-.63.55-1.43.29-2.16l-16.62-46.34c-.34-.94-1.23-1.57-2.23-1.57h-1.59c-.99,0-1.88.62-2.22,1.56l-16.88,46.34c-.26.73-.16,1.53.28,2.17.44.63,1.17,1.01,1.94,1.01ZM115.34,35.55l6.3-17.34,6.2,17.34h-12.5Z"/>
        <rect x="145.32" y="7.35" width="6.05" height="51.07" rx="2.36" ry="2.36"/>
        <path d="M162.82,56.06V19.55l24.31,37.79c.44.68,1.18,1.09,1.99,1.09h1.59c1.31,0,2.36-1.06,2.36-2.36V9.71c0-1.31-1.06-2.36-2.36-2.36h-1.32c-1.31,0-2.36,1.06-2.36,2.36v36.2l-24.18-37.48c-.44-.67-1.18-1.08-1.99-1.08h-1.72c-1.31,0-2.36,1.06-2.36,2.36v46.34c0,1.31,1.06,2.36,2.36,2.36h1.32c1.31,0,2.36-1.06,2.36-2.36Z"/>
        <path d="M214.35,59.21c3.72,0,6.87-.66,9.37-1.96,2.56-1.33,4.52-3.17,5.83-5.46,1.28-2.25,1.93-4.8,1.93-7.59,0-2.49-.47-4.66-1.39-6.45-.9-1.75-2.13-3.25-3.65-4.45-1.4-1.1-2.98-2.06-4.71-2.85-2.06-.92-4.23-1.73-6.45-2.42-2.05-.63-3.99-1.34-5.76-2.1-1.52-.65-2.76-1.52-3.69-2.57-.78-.88-1.16-2.1-1.16-3.73,0-1.25.28-2.38.85-3.46.53-1,1.41-1.81,2.7-2.5,1.35-.72,3.23-1.08,5.61-1.08,1.91,0,3.64.29,5.15.87,1.32.51,2.34,1.32,3.1,2.49.78,1.19,1.17,2.92,1.17,5.13,0,1.31,1.06,2.36,2.36,2.36h1.46c1.31,0,2.36-1.06,2.36-2.36,0-3.33-.74-6.12-2.18-8.3-1.45-2.17-3.4-3.79-5.81-4.81-2.27-.96-4.83-1.44-7.61-1.44-3.23,0-6.02.59-8.29,1.75-2.34,1.2-4.12,2.81-5.3,4.81-1.16,1.97-1.75,4.17-1.75,6.53,0,3.38,1.05,6.13,3.12,8.17,1.83,1.81,4.2,3.29,7.03,4.41,1.91.77,3.98,1.5,6.16,2.16,1.98.6,3.85,1.33,5.56,2.17,1.52.75,2.72,1.72,3.67,2.96.84,1.09,1.27,2.67,1.27,4.68,0,1.69-.36,3.19-1.11,4.57-.7,1.3-1.8,2.33-3.34,3.13-1.61.83-3.82,1.26-6.56,1.26-3,0-5.39-.51-7.11-1.53-1.69-1-2.88-2.26-3.63-3.86-.79-1.69-1.17-3.56-1.13-5.57.01-.63-.23-1.25-.68-1.7-.44-.45-1.05-.71-1.69-.71h-1.46c-1.29,0-2.34,1.03-2.36,2.33-.05,3.06.57,5.91,1.83,8.47,1.31,2.65,3.37,4.78,6.12,6.34,2.69,1.52,6.11,2.29,10.17,2.29Z"/>
        <path d="M232.02,13.27h11.74v42.79c0,1.31,1.06,2.36,2.36,2.36h1.32c1.31,0,2.36-1.06,2.36-2.36V13.27h11.74c1.31,0,2.36-1.06,2.36-2.36v-1.19c0-1.31-1.06-2.36-2.36-2.36h-29.53c-1.31,0-2.36,1.06-2.36,2.36v1.19c0,1.31,1.06,2.36,2.36,2.36Z"/>
        <path d="M282.26,19.74c-1.43-4.21-3.29-7.97-5.53-11.18-2.22-3.2-4.61-5.89-7.1-8-.43-.36-.97-.56-1.53-.56h-1.66c-1.31,0-2.36,1.06-2.36,2.36v.13c0,.68.3,1.33.81,1.78,2.61,2.27,4.94,4.96,6.93,7.99,1.99,3.02,3.56,6.39,4.68,10.02,1.12,3.62,1.68,7.56,1.68,11.72s-.58,8.04-1.71,11.67c-1.14,3.66-2.73,7.03-4.71,10.03-2,3.02-4.32,5.73-6.9,8.06-.5.45-.78,1.09-.78,1.75v.13c0,1.31,1.06,2.36,2.36,2.36h1.66c.57,0,1.12-.21,1.55-.58,2.47-2.15,4.85-4.84,7.07-8.01,2.24-3.19,4.1-6.96,5.53-11.19,1.44-4.27,2.18-9.05,2.18-14.23s-.73-10.02-2.18-14.27Z"/>
      </g>
      <g>
        <path d="M34.13,81.24h-4.13c-.51,0-.98.16-1.38.42-.39-.27-.87-.42-1.38-.42h-4.13c-.51,0-.98.16-1.38.42-.39-.27-.87-.42-1.38-.42h-4.13c-.51,0-.98.16-1.38.42-.39-.27-.87-.42-1.38-.42h-4.13c-.51,0-.98.16-1.38.42-.39-.27-.87-.42-1.38-.42H2.46C1.1,81.24,0,82.34,0,83.69v4.13c0,1.36,1.1,2.46,2.46,2.46h4.13c.51,0,.98-.16,1.38-.42.39.27.87.42,1.38.42h4.13c.11,0,.21,0,.32-.02-.01.1-.02.21-.02.32v4.13c0,.51.16.98.42,1.38-.27.39-.42.87-.42,1.38v4.13c0,.51.16.98.42,1.38-.27.39-.42.87-.42,1.38v4.13c0,.51.16.98.42,1.38-.27.39-.42.87-.42,1.38v4.13c0,.51.16.98.42,1.38-.27.39-.42.87-.42,1.38v4.13c0,.51.16.98.42,1.38-.27.39-.42.87-.42,1.38v4.13c0,1.36,1.1,2.46,2.46,2.46h4.13c1.36,0,2.46-1.1,2.46-2.46v-4.13c0-.51-.16-.98-.42-1.38.27-.39.42-.87.42-1.38v-4.13c0-.51-.16-.98-.42-1.38.27-.39.42-.87.42-1.38v-4.13c0-.51-.16-.98-.42-1.38.27-.39.42-.87.42-1.38v-4.13c0-.51-.16-.98-.42-1.38.27-.39.42-.87.42-1.38v-4.13c0-.51-.16-.98-.42-1.38.27-.39.42-.87.42-1.38v-4.13c0-.11,0-.21-.02-.32.1.01.21.02.32.02h4.13c.51,0,.98-.16,1.38-.42.39.27.87.42,1.38.42h4.13c1.36,0,2.46-1.1,2.46-2.46v-4.13c0-1.36-1.1-2.46-2.46-2.46Z"/>
        <path d="M75.44,81.24h-4.13c-1.36,0-2.46,1.1-2.46,2.46v4.13c0,.51.16.98.42,1.38-.27.39-.42.87-.42,1.38v4.13c0,.51.16.98.42,1.38-.27.39-.42.87-.42,1.38v4.13c0,.11,0,.21.02.32-.1-.01-.21-.02-.32-.02h-4.13c-.51,0-.98.16-1.38.42-.39-.27-.87-.42-1.38-.42h-4.13c-.51,0-.98.16-1.38.42-.39-.27-.87-.42-1.38-.42h-4.13c-.11,0-.21,0-.32.02.01-.1.02-.21.02-.32v-4.13c0-.51-.16-.98-.42-1.38.27-.39.42-.87.42-1.38v-4.13c0-.51-.16-.98-.42-1.38.27-.39.42-.87.42-1.38v-4.13c0-1.36-1.1-2.46-2.46-2.46h-4.13c-1.36,0-2.46,1.1-2.46,2.46v4.13c0,.51.16.98.42,1.38-.27.39-.42.87-.42,1.38v4.13c0,.51.16.98.42,1.38-.27.39-.42.87-.42,1.38v4.13c0,.51.16.98.42,1.38-.27.39-.42.87-.42,1.38v4.13c0,.51.16.98.42,1.38-.27.39-.42.87-.42,1.38v4.13c0,.51.16.98.42,1.38-.27.39-.42.87-.42,1.38v4.13c0,.51.16.98.42,1.38-.27.39-.42.87-.42,1.38v4.13c0,1.36,1.1,2.46,2.46,2.46h4.13c1.36,0,2.46-1.1,2.46-2.46v-4.13c0-.51-.16-.98-.42-1.38.27-.39.42-.87.42-1.38v-4.13c0-.51-.16-.98-.42-1.38.27-.39.42-.87.42-1.38v-4.13c0-.11,0-.21-.02-.32.1.01.21.02.32.02h4.13c.51,0,.98-.16,1.38-.42.39.27.87.42,1.38.42h4.13c.51,0,.98-.16,1.38-.42.39.27.87.42,1.38.42h4.13c.11,0,.21,0,.32-.02-.01.1-.02.21-.02.32v4.13c0,.51.16.98.42,1.38-.27.39-.42.87-.42,1.38v4.13c0,.51.16.98.42,1.38-.27.39-.42.87-.42,1.38v4.13c0,1.36,1.1,2.46,2.46,2.46h4.13c1.36,0,2.46-1.1,2.46-2.46v-4.13c0-.51-.16-.98-.42-1.38.27-.39.42-.87.42-1.38v-4.13c0-.51-.16-.98-.42-1.38.27-.39.42-.87.42-1.38v-4.13c0-.51-.16-.98-.42-1.38.27-.39.42-.87.42-1.38v-4.13c0-.51-.16-.98-.42-1.38.27-.39.42-.87.42-1.38v-4.13c0-.51-.16-.98-.42-1.38.27-.39.42-.87.42-1.38v-4.13c0-.51-.16-.98-.42-1.38.27-.39.42-.87.42-1.38v-4.13c0-1.36-1.1-2.46-2.46-2.46Z"/>
        <path d="M116.74,81.24h-4.13c-.51,0-.98.16-1.38.42-.39-.27-.87-.42-1.38-.42h-4.13c-.51,0-.98.16-1.38.42-.39-.27-.87-.42-1.38-.42h-4.13c-.51,0-.98.16-1.38.42-.39-.27-.87-.42-1.38-.42h-4.13c-.51,0-.98.16-1.38.42-.39-.27-.87-.42-1.38-.42h-4.13c-1.36,0-2.46,1.1-2.46,2.46v4.13c0,.51.16.98.42,1.38-.27.39-.42.87-.42,1.38v4.13c0,.51.16.98.42,1.38-.27.39-.42.87-.42,1.38v4.13c0,.51.16.98.42,1.38-.27.39-.42.87-.42,1.38v4.13c0,.51.16.98.42,1.38-.27.39-.42.87-.42,1.38v4.13c0,.51.16.98.42,1.38-.27.39-.42.87-.42,1.38v4.13c0,.51.16.98.42,1.38-.27.39-.42.87-.42,1.38v4.13c0,1.36,1.1,2.46,2.46,2.46h4.13c.51,0,.98-.16,1.38-.42.39.27.87.42,1.38.42h4.13c.51,0,.98-.16,1.38-.42.39.27.87.42,1.38.42h4.13c.51,0,.98-.16,1.38-.42.39.27.87.42,1.38.42h4.13c.51,0,.98-.16,1.38-.42.39.27.87.42,1.38.42h4.13c1.36,0,2.46-1.1,2.46-2.46v-4.13c0-1.36-1.1-2.46-2.46-2.46h-4.13c-.51,0-.98.16-1.38.42-.39-.27-.87-.42-1.38-.42h-4.13c-.51,0-.98.16-1.38.42-.39-.27-.87-.42-1.38-.42h-4.13c-.51,0-.98.16-1.38.42-.39-.27-.87-.42-1.38-.42h-4.13c-.11,0-.21,0-.32.02.01-.1.02-.21.02-.32v-4.13c0-.51-.16-.98-.42-1.38.27-.39.42-.87.42-1.38v-4.13c0-.11,0-.21-.02-.32.1.01.21.02.32.02h4.13c.51,0,.98-.16,1.38-.42.39.27.87.42,1.38.42h4.13c.51,0,.98-.16,1.38-.42.39.27.87.42,1.38.42h4.13c1.36,0,2.46-1.1,2.46-2.46v-4.13c0-1.36-1.1-2.46-2.46-2.46h-4.13c-.51,0-.98.16-1.38.42-.39-.27-.87-.42-1.38-.42h-4.13c-.51,0-.98.16-1.38.42-.39-.27-.87-.42-1.38-.42h-4.13c-.11,0-.21,0-.32.02.01-.1.02-.21.02-.32v-4.13c0-.51-.16-.98-.42-1.38.27-.39.42-.87.42-1.38v-4.13c0-.11,0-.21-.02-.32.1.01.21.02.32.02h4.13c.51,0,.98-.16,1.38-.42.39.27.87.42,1.38.42h4.13c.51,0,.98-.16,1.38-.42.39.27.87.42,1.38.42h4.13c.51,0,.98-.16,1.38-.42.39.27.87.42,1.38.42h4.13c1.36,0,2.46-1.1,2.46-2.46v-4.13c0-1.36-1.1-2.46-2.46-2.46Z"/>
      </g>
      <g>
        <path d="M116.74,154.41h-4.13c-1.36,0-2.46,1.1-2.46,2.46v4.13c0,.51.16.98.42,1.38-.27.39-.42.87-.42,1.38v4.13c0,.51.16.98.42,1.38-.27.39-.42.87-.42,1.38v4.13c0,.51.16.98.42,1.38-.27.39-.42.87-.42,1.38v4.13c0,.11,0,.21.02.32-.1-.01-.21-.02-.32-.02h-4.13c-.11,0-.21,0-.32.02.01-.1.02-.21.02-.32v-4.13c0-1.36-1.1-2.46-2.46-2.46h-4.13c-.11,0-.21,0-.32.02.01-.1.02-.21.02-.32v-4.13c0-1.36-1.1-2.46-2.46-2.46h-4.13c-.11,0-.21,0-.32.02.01-.1.02-.21.02-.32v-4.13c0-.51-.16-.98-.42-1.38.27-.39.42-.87.42-1.38v-4.13c0-1.36-1.1-2.46-2.46-2.46h-4.13c-1.36,0-2.46,1.1-2.46,2.46v4.13c0,.51.16.98.42,1.38-.27.39-.42.87-.42,1.38v4.13c0,.51.16.98.42,1.38-.27.39-.42.87-.42,1.38v4.13c0,.51.16.98.42,1.38-.27.39-.42.87-.42,1.38v4.13c0,.51.16.98.42,1.38-.27.39-.42.87-.42,1.38v4.13c0,.51.16.98.42,1.38-.27.39-.42.87-.42,1.38v4.13c0,.51.16.98.42,1.38-.27.39-.42.87-.42,1.38v4.13c0,1.36,1.1,2.46,2.46,2.46h4.13c1.36,0,2.46-1.1,2.46-2.46v-4.13c0-.51-.16-.98-.42-1.38.27-.39.42-.87.42-1.38v-4.13c0-.51-.16-.98-.42-1.38.27-.39.42-.87.42-1.38v-4.13c0-.51-.16-.98-.42-1.38.27-.39.42-.87.42-1.38v-4.13c0-.11,0-.21-.02-.32.1.01.21.02.32.02h4.13c.11,0,.21,0,.32-.02-.01.1-.02.21-.02.32v4.13c0,1.36,1.1,2.46,2.46,2.46h4.13c.11,0,.21,0,.32-.02-.01.1-.02.21-.02.32v4.13c0,1.36,1.1,2.46,2.46,2.46h4.13c.11,0,.21,0,.32-.02-.01.1-.02.21-.02.32v4.13c0,.51.16.98.42,1.38-.27.39-.42.87-.42,1.38v4.13c0,1.36,1.1,2.46,2.46,2.46h4.13c1.36,0,2.46-1.1,2.46-2.46v-4.13c0-.51-.16-.98-.42-1.38.27-.39.42-.87.42-1.38v-4.13c0-.51-.16-.98-.42-1.38.27-.39.42-.87.42-1.38v-4.13c0-.51-.16-.98-.42-1.38.27-.39.42-.87.42-1.38v-4.13c0-.51-.16-.98-.42-1.38.27-.39.42-.87.42-1.38v-4.13c0-.51-.16-.98-.42-1.38.27-.39.42-.87.42-1.38v-4.13c0-.51-.16-.98-.42-1.38.27-.39.42-.87.42-1.38v-4.13c0-1.36-1.1-2.46-2.46-2.46Z"/>
        <path d="M158.05,161.3h-4.13c-.11,0-.21,0-.32.02.01-.1.02-.21.02-.32v-4.13c0-1.36-1.1-2.46-2.46-2.46h-4.13c-.51,0-.98.16-1.38.42-.39-.27-.87-.42-1.38-.42h-4.13c-.51,0-.98.16-1.38.42-.39-.27-.87-.42-1.38-.42h-4.13c-1.36,0-2.46,1.1-2.46,2.46v4.13c0,.11,0,.21.02.32-.1-.01-.21-.02-.32-.02h-4.13c-1.36,0-2.46,1.1-2.46,2.46v4.13c0,.51.16.98.42,1.38-.27.39-.42.87-.42,1.38v4.13c0,.51.16.98.42,1.38-.27.39-.42.87-.42,1.38v4.13c0,.51.16.98.42,1.38-.27.39-.42.87-.42,1.38v4.13c0,.51.16.98.42,1.38-.27.39-.42.87-.42,1.38v4.13c0,1.36,1.1,2.46,2.46,2.46h4.13c.11,0,.21,0,.32-.02-.01.1-.02.21-.02.32v4.13c0,1.36,1.1,2.46,2.46,2.46h4.13c.51,0,.98-.16,1.38-.42.39.27.87.42,1.38.42h4.13c.51,0,.98-.16,1.38-.42.39.27.87.42,1.38.42h4.13c1.36,0,2.46-1.1,2.46-2.46v-4.13c0-.11,0-.21-.02-.32.1.01.21.02.32.02h4.13c1.36,0,2.46-1.1,2.46-2.46v-4.13c0-.51-.16-.98-.42-1.38.27-.39.42-.87.42-1.38v-4.13c0-.51-.16-.98-.42-1.38.27-.39.42-.87.42-1.38v-4.13c0-.51-.16-.98-.42-1.38.27-.39.42-.87.42-1.38v-4.13c0-.51-.16-.98-.42-1.38.27-.39.42-.87.42-1.38v-4.13c0-1.36-1.1-2.46-2.46-2.46ZM151.88,176.15c-.27.39-.42.87-.42,1.38v4.13c0,.51.16.98.42,1.38-.27.39-.42.87-.42,1.38v4.13c0,.51.16.98.42,1.38-.27.39-.42.87-.42,1.38v4.13c0,.11,0,.21.02.32-.1-.01-.21-.02-.32-.02h-4.13c-.51,0-.98.16-1.38.42-.39-.27-.87-.42-1.38-.42h-4.13c-.51,0-.98.16-1.38.42-.39-.27-.87-.42-1.38-.42h-4.13c-.11,0-.21,0-.32.02.01-.1.02-.21.02-.32v-4.13c0-.51-.16-.98-.42-1.38.27-.39.42-.87.42-1.38v-4.13c0-.51-.16-.98-.42-1.38.27-.39.42-.87.42-1.38v-4.13c0-.51-.16-.98-.42-1.38.27-.39.42-.87.42-1.38v-4.13c0-.51-.16-.98-.42-1.38.27-.39.42-.87.42-1.38v-4.13c0-.11,0-.21-.02-.32.1.01.21.02.32.02h4.13c.51,0,.98-.16,1.38-.42.39.27.87.42,1.38.42h4.13c.51,0,.98-.16,1.38-.42.39.27.87.42,1.38.42h4.13c.11,0,.21,0,.32-.02-.01.1-.02.21-.02.32v4.13c0,.51.16.98.42,1.38-.27.39-.42.87-.42,1.38v4.13c0,.51.16.98.42,1.38Z"/>
        <path d="M174.58,195.72c-1.36,0-2.46,1.1-2.46,2.46v4.13c0,1.36,1.1,2.46,2.46,2.46h4.13c.51,0,.98-.16,1.38-.42.39.27.87.42,1.38.42h4.13c.51,0,.98-.16,1.38-.42.39.27.87.42,1.38.42h4.13c1.36,0,2.46-1.1,2.46-2.46v-4.13c0-1.36-1.1-2.46-2.46-2.46h-4.13c-.11,0-.21,0-.32.02.01-.1.02-.21.02-.32v-4.13c0-.51-.16-.98-.42-1.38.27-.39.42-.87.42-1.38v-4.13c0-.51-.16-.98-.42-1.38.27-.39.42-.87.42-1.38v-4.13c0-.51-.16-.98-.42-1.38.27-.39.42-.87.42-1.38v-4.13c0-.51-.16-.98-.42-1.38.27-.39.42-.87.42-1.38v-4.13c0-.11,0-.21-.02-.32.1.01.21.02.32.02h4.13c1.36,0,2.46-1.1,2.46-2.46v-4.13c0-1.36-1.1-2.46-2.46-2.46h-4.13c-.51,0-.98.16-1.38.42-.39-.27-.87-.42-1.38-.42h-4.13c-.51,0-.98.16-1.38.42-.39-.27-.87-.42-1.38-.42h-4.13c-1.36,0-2.46,1.1-2.46,2.46v4.13c0,1.36,1.1,2.46,2.46,2.46h4.13c.11,0,.21,0,.32-.02-.01.1-.02.21-.02.32v4.13c0,.51.16.98.42,1.38-.27.39-.42.87-.42,1.38v4.13c0,.51.16.98.42,1.38-.27.39-.42.87-.42,1.38v4.13c0,.51.16.98.42,1.38-.27.39-.42.87-.42,1.38v4.13c0,.51.16.98.42,1.38-.27.39-.42.87-.42,1.38v4.13c0,.11,0,.21.02.32-.1-.01-.21-.02-.32-.02h-4.13Z"/>
        <path d="M240.67,161.3h-4.13c-.11,0-.21,0-.32.02.01-.1.02-.21.02-.32v-4.13c0-1.36-1.1-2.46-2.46-2.46h-4.13c-.51,0-.98.16-1.38.42-.39-.27-.87-.42-1.38-.42h-4.13c-.51,0-.98.16-1.38.42-.39-.27-.87-.42-1.38-.42h-4.13c-1.36,0-2.46,1.1-2.46,2.46v4.13c0,.11,0,.21.02.32-.1-.01-.21-.02-.32-.02h-4.13c-1.36,0-2.46,1.1-2.46,2.46v4.13c0,.51.16.98.42,1.38-.27.39-.42.87-.42,1.38v4.13c0,1.36,1.1,2.46,2.46,2.46h4.13c.11,0,.21,0,.32-.02-.01.1-.02.21-.02.32v4.13c0,1.36,1.1,2.46,2.46,2.46h4.13c.51,0,.98-.16,1.38-.42.39.27.87.42,1.38.42h4.13c.51,0,.98-.16,1.38-.42.39.27.87.42,1.38.42h4.13c.11,0,.21,0,.32-.02-.01.1-.02.21-.02.32v4.13c0,.51.16.98.42,1.38-.27.39-.42.87-.42,1.38v4.13c0,.11,0,.21.02.32-.1-.01-.21-.02-.32-.02h-4.13c-.51,0-.98.16-1.38.42-.39-.27-.87-.42-1.38-.42h-4.13c-.51,0-.98.16-1.38.42-.39-.27-.87-.42-1.38-.42h-4.13c-.11,0-.21,0-.32.02.01-.1.02-.21.02-.32v-4.13c0-1.36-1.1-2.46-2.46-2.46h-4.13c-1.36,0-2.46,1.1-2.46,2.46v4.13c0,1.36,1.1,2.46,2.46,2.46h4.13c.11,0,.21,0,.32-.02-.01.1-.02.21-.02.32v4.13c0,1.36,1.1,2.46,2.46,2.46h4.13c.51,0,.98-.16,1.38-.42.39.27.87.42,1.38.42h4.13c.51,0,.98-.16,1.38-.42.39.27.87.42,1.38.42h4.13c1.36,0,2.46-1.1,2.46-2.46v-4.13c0-.11,0-.21-.02-.32.1.01.21.02.32.02h4.13c1.36,0,2.46-1.1,2.46-2.46v-4.13c0-.51-.16-.98-.42-1.38.27-.39.42-.87.42-1.38v-4.13c0-1.36-1.1-2.46-2.46-2.46h-4.13c-.11,0-.21,0-.32.02.01-.1.02-.21.02-.32v-4.13c0-1.36-1.1-2.46-2.46-2.46h-4.13c-.51,0-.98.16-1.38.42-.39-.27-.87-.42-1.38-.42h-4.13c-.51,0-.98.16-1.38.42-.39-.27-.87-.42-1.38-.42h-4.13c-.11,0-.21,0-.32.02.01-.1.02-.21.02-.32v-4.13c0-.51-.16-.98-.42-1.38.27-.39.42-.87.42-1.38v-4.13c0-.11,0-.21-.02-.32.1.01.21.02.32.02h4.13c.51,0,.98-.16,1.38-.42.39.27.87.42,1.38.42h4.13c.51,0,.98-.16,1.38-.42.39.27.87.42,1.38.42h4.13c.11,0,.21,0,.32-.02-.01.1-.02.21-.02.32v4.13c0,1.36,1.1,2.46,2.46,2.46h4.13c1.36,0,2.46-1.1,2.46-2.46v-4.13c0-1.36-1.1-2.46-2.46-2.46Z"/>
        <path d="M281.98,154.41h-4.13c-.51,0-.98.16-1.38.42-.39-.27-.87-.42-1.38-.42h-4.13c-.51,0-.98.16-1.38.42-.39-.27-.87-.42-1.38-.42h-4.13c-.51,0-.98.16-1.38.42-.39-.27-.87-.42-1.38-.42h-4.13c-.51,0-.98.16-1.38.42-.39-.27-.87-.42-1.38-.42h-4.13c-1.36,0-2.46,1.1-2.46,2.46v4.13c0,.51.16.98.42,1.38-.27.39-.42.87-.42,1.38v4.13c0,.51.16.98.42,1.38-.27.39-.42.87-.42,1.38v4.13c0,.51.16.98.42,1.38-.27.39-.42.87-.42,1.38v4.13c0,.51.16.98.42,1.38-.27.39-.42.87-.42,1.38v4.13c0,.51.16.98.42,1.38-.27.39-.42.87-.42,1.38v4.13c0,.51.16.98.42,1.38-.27.39-.42.87-.42,1.38v4.13c0,1.36,1.1,2.46,2.46,2.46h4.13c.51,0,.98-.16,1.38-.42.39.27.87.42,1.38.42h4.13c.51,0,.98-.16,1.38-.42.39.27.87.42,1.38.42h4.13c.51,0,.98-.16,1.38-.42.39.27.87.42,1.38.42h4.13c.51,0,.98-.16,1.38-.42.39.27.87.42,1.38.42h4.13c1.36,0,2.46-1.1,2.46-2.46v-4.13c0-1.36-1.1-2.46-2.46-2.46h-4.13c-.51,0-.98.16-1.38.42-.39-.27-.87-.42-1.38-.42h-4.13c-.51,0-.98.16-1.38.42-.39-.27-.87-.42-1.38-.42h-4.13c-.51,0-.98.16-1.38.42-.39-.27-.87-.42-1.38-.42h-4.13c-.11,0-.21,0-.32.02.01-.1.02-.21.02-.32v-4.13c0-.51-.16-.98-.42-1.38.27-.39.42-.87.42-1.38v-4.13c0-.11,0-.21-.02-.32.1.01.21.02.32.02h4.13c.51,0,.98-.16,1.38-.42.39.27.87.42,1.38.42h4.13c.51,0,.98-.16,1.38-.42.39.27.87.42,1.38.42h4.13c1.36,0,2.46-1.1,2.46-2.46v-4.13c0-1.36-1.1-2.46-2.46-2.46h-4.13c-.51,0-.98.16-1.38.42-.39-.27-.87-.42-1.38-.42h-4.13c-.51,0-.98.16-1.38.42-.39-.27-.87-.42-1.38-.42h-4.13c-.11,0-.21,0-.32.02.01-.1.02-.21.02-.32v-4.13c0-.51-.16-.98-.42-1.38.27-.39.42-.87.42-1.38v-4.13c0-.11,0-.21-.02-.32.1.01.21.02.32.02h4.13c.51,0,.98-.16,1.38-.42.39.27.87.42,1.38.42h4.13c.51,0,.98-.16,1.38-.42.39.27.87.42,1.38.42h4.13c.51,0,.98-.16,1.38-.42.39.27.87.42,1.38.42h4.13c1.36,0,2.46-1.1,2.46-2.46v-4.13c0-1.36-1.1-2.46-2.46-2.46Z"/>
      </g>
      <g>
        <path d="M34.13,227.59h-4.13c-1.36,0-2.46,1.1-2.46,2.46v4.13c0,.51.16.98.42,1.38-.27.39-.42.87-.42,1.38v4.13c0,.11,0,.21.02.32-.1-.01-.21-.02-.32-.02h-4.13c-1.36,0-2.46,1.1-2.46,2.46v4.13c0,.11,0,.21.02.32-.1-.01-.21-.02-.32-.02h-4.13c-.11,0-.21,0-.32.02.01-.1.02-.21.02-.32v-4.13c0-1.36-1.1-2.46-2.46-2.46h-4.13c-.11,0-.21,0-.32.02.01-.1.02-.21.02-.32v-4.13c0-.51-.16-.98-.42-1.38.27-.39.42-.87.42-1.38v-4.13c0-1.36-1.1-2.46-2.46-2.46H2.46c-1.36,0-2.46,1.1-2.46,2.46v4.13c0,.51.16.98.42,1.38-.27.39-.42.87-.42,1.38v4.13c0,.51.16.98.42,1.38-.27.39-.42.87-.42,1.38v4.13c0,.51.16.98.42,1.38-.27.39-.42.87-.42,1.38v4.13c0,.51.16.98.42,1.38-.27.39-.42.87-.42,1.38v4.13c0,.51.16.98.42,1.38-.27.39-.42.87-.42,1.38v4.13c0,.51.16.98.42,1.38-.27.39-.42.87-.42,1.38v4.13c0,1.36,1.1,2.46,2.46,2.46h4.13c1.36,0,2.46-1.1,2.46-2.46v-4.13c0-.51-.16-.98-.42-1.38.27-.39.42-.87.42-1.38v-4.13c0-.51-.16-.98-.42-1.38.27-.39.42-.87.42-1.38v-4.13c0-.51-.16-.98-.42-1.38.27-.39.42-.87.42-1.38v-4.13c0-.11,0-.21-.02-.32.1.01.21.02.32.02h4.13c.11,0,.21,0,.32-.02-.01.1-.02.21-.02.32v4.13c0,1.36,1.1,2.46,2.46,2.46h4.13c1.36,0,2.46-1.1,2.46-2.46v-4.13c0-.11,0-.21-.02-.32.1.01.21.02.32.02h4.13c.11,0,.21,0,.32-.02-.01.1-.02.21-.02.32v4.13c0,.51.16.98.42,1.38-.27.39-.42.87-.42,1.38v4.13c0,.51.16.98.42,1.38-.27.39-.42.87-.42,1.38v4.13c0,.51.16.98.42,1.38-.27.39-.42.87-.42,1.38v4.13c0,1.36,1.1,2.46,2.46,2.46h4.13c1.36,0,2.46-1.1,2.46-2.46v-4.13c0-.51-.16-.98-.42-1.38.27-.39.42-.87.42-1.38v-4.13c0-.51-.16-.98-.42-1.38.27-.39.42-.87.42-1.38v-4.13c0-.51-.16-.98-.42-1.38.27-.39.42-.87.42-1.38v-4.13c0-.51-.16-.98-.42-1.38.27-.39.42-.87.42-1.38v-4.13c0-.51-.16-.98-.42-1.38.27-.39.42-.87.42-1.38v-4.13c0-.51-.16-.98-.42-1.38.27-.39.42-.87.42-1.38v-4.13c0-1.36-1.1-2.46-2.46-2.46Z"/>
        <path d="M75.44,241.36h-4.13c-.11,0-.21,0-.32.02.01-.1.02-.21.02-.32v-4.13c0-1.36-1.1-2.46-2.46-2.46h-4.13c-.11,0-.21,0-.32.02.01-.1.02-.21.02-.32v-4.13c0-1.36-1.1-2.46-2.46-2.46h-4.13c-1.36,0-2.46,1.1-2.46,2.46v4.13c0,.11,0,.21.02.32-.1-.01-.21-.02-.32-.02h-4.13c-1.36,0-2.46,1.1-2.46,2.46v4.13c0,.11,0,.21.02.32-.1-.01-.21-.02-.32-.02h-4.13c-1.36,0-2.46,1.1-2.46,2.46v4.13c0,.51.16.98.42,1.38-.27.39-.42.87-.42,1.38v4.13c0,.51.16.98.42,1.38-.27.39-.42.87-.42,1.38v4.13c0,.51.16.98.42,1.38-.27.39-.42.87-.42,1.38v4.13c0,.51.16.98.42,1.38-.27.39-.42.87-.42,1.38v4.13c0,1.36,1.1,2.46,2.46,2.46h4.13c1.36,0,2.46-1.1,2.46-2.46v-4.13c0-.51-.16-.98-.42-1.38.27-.39.42-.87.42-1.38v-4.13c0-.11,0-.21-.02-.32.1.01.21.02.32.02h4.13c.51,0,.98-.16,1.38-.42.39.27.87.42,1.38.42h4.13c.51,0,.98-.16,1.38-.42.39.27.87.42,1.38.42h4.13c.11,0,.21,0,.32-.02-.01.1-.02.21-.02.32v4.13c0,.51.16.98.42,1.38-.27.39-.42.87-.42,1.38v4.13c0,1.36,1.1,2.46,2.46,2.46h4.13c1.36,0,2.46-1.1,2.46-2.46v-4.13c0-.51-.16-.98-.42-1.38.27-.39.42-.87.42-1.38v-4.13c0-.51-.16-.98-.42-1.38.27-.39.42-.87.42-1.38v-4.13c0-.51-.16-.98-.42-1.38.27-.39.42-.87.42-1.38v-4.13c0-.51-.16-.98-.42-1.38.27-.39.42-.87.42-1.38v-4.13c0-1.36-1.1-2.46-2.46-2.46ZM68.85,250.7v4.13c0,.11,0,.21.02.32-.1-.01-.21-.02-.32-.02h-4.13c-.51,0-.98.16-1.38.42-.39-.27-.87-.42-1.38-.42h-4.13c-.51,0-.98.16-1.38.42-.39-.27-.87-.42-1.38-.42h-4.13c-.11,0-.21,0-.32.02.01-.1.02-.21.02-.32v-4.13c0-.51-.16-.98-.42-1.38.27-.39.42-.87.42-1.38v-4.13c0-.11,0-.21-.02-.32.1.01.21.02.32.02h4.13c1.36,0,2.46-1.1,2.46-2.46v-4.13c0-.11,0-.21-.02-.32.1.01.21.02.32.02h4.13c.11,0,.21,0,.32-.02-.01.1-.02.21-.02.32v4.13c0,1.36,1.1,2.46,2.46,2.46h4.13c.11,0,.21,0,.32-.02-.01.1-.02.21-.02.32v4.13c0,.51.16.98.42,1.38-.27.39-.42.87-.42,1.38Z"/>
        <path d="M116.74,234.47h-4.13c-.11,0-.21,0-.32.02.01-.1.02-.21.02-.32v-4.13c0-1.36-1.1-2.46-2.46-2.46h-4.13c-.51,0-.98.16-1.38.42-.39-.27-.87-.42-1.38-.42h-4.13c-.51,0-.98.16-1.38.42-.39-.27-.87-.42-1.38-.42h-4.13c-1.36,0-2.46,1.1-2.46,2.46v4.13c0,.11,0,.21.02.32-.1-.01-.21-.02-.32-.02h-4.13c-1.36,0-2.46,1.1-2.46,2.46v4.13c0,.51.16.98.42,1.38-.27.39-.42.87-.42,1.38v4.13c0,.51.16.98.42,1.38-.27.39-.42.87-.42,1.38v4.13c0,.51.16.98.42,1.38-.27.39-.42.87-.42,1.38v4.13c0,.51.16.98.42,1.38-.27.39-.42.87-.42,1.38v4.13c0,1.36,1.1,2.46,2.46,2.46h4.13c.11,0,.21,0,.32-.02-.01.1-.02.21-.02.32v4.13c0,1.36,1.1,2.46,2.46,2.46h4.13c.51,0,.98-.16,1.38-.42.39.27.87.42,1.38.42h4.13c.51,0,.98-.16,1.38-.42.39.27.87.42,1.38.42h4.13c1.36,0,2.46-1.1,2.46-2.46v-4.13c0-.11,0-.21-.02-.32.1.01.21.02.32.02h4.13c1.36,0,2.46-1.1,2.46-2.46v-4.13c0-1.36-1.1-2.46-2.46-2.46h-4.13c-1.36,0-2.46,1.1-2.46,2.46v4.13c0,.11,0,.21.02.32-.1-.01-.21-.02-.32-.02h-4.13c-.51,0-.98.16-1.38.42-.39-.27-.87-.42-1.38-.42h-4.13c-.51,0-.98.16-1.38.42-.39-.27-.87-.42-1.38-.42h-4.13c-.11,0-.21,0-.32.02.01-.1.02-.21.02-.32v-4.13c0-.51-.16-.98-.42-1.38.27-.39.42-.87.42-1.38v-4.13c0-.51-.16-.98-.42-1.38.27-.39.42-.87.42-1.38v-4.13c0-.51-.16-.98-.42-1.38.27-.39.42-.87.42-1.38v-4.13c0-.51-.16-.98-.42-1.38.27-.39.42-.87.42-1.38v-4.13c0-.11,0-.21-.02-.32.1.01.21.02.32.02h4.13c.51,0,.98-.16,1.38-.42.39.27.87.42,1.38.42h4.13c.51,0,.98-.16,1.38-.42.39.27.87.42,1.38.42h4.13c.11,0,.21,0,.32-.02-.01.1-.02.21-.02.32v4.13c0,1.36,1.1,2.46,2.46,2.46h4.13c1.36,0,2.46-1.1,2.46-2.46v-4.13c0-1.36-1.1-2.46-2.46-2.46Z"/>
        <path d="M158.05,227.59h-4.13c-1.36,0-2.46,1.1-2.46,2.46v4.13c0,.51.16.98.42,1.38-.27.39-.42.87-.42,1.38v4.13c0,.51.16.98.42,1.38-.27.39-.42.87-.42,1.38v4.13c0,.11,0,.21.02.32-.1-.01-.21-.02-.32-.02h-4.13c-.51,0-.98.16-1.38.42-.39-.27-.87-.42-1.38-.42h-4.13c-.51,0-.98.16-1.38.42-.39-.27-.87-.42-1.38-.42h-4.13c-.11,0-.21,0-.32.02.01-.1.02-.21.02-.32v-4.13c0-.51-.16-.98-.42-1.38.27-.39.42-.87.42-1.38v-4.13c0-.51-.16-.98-.42-1.38.27-.39.42-.87.42-1.38v-4.13c0-1.36-1.1-2.46-2.46-2.46h-4.13c-1.36,0-2.46,1.1-2.46,2.46v4.13c0,.51.16.98.42,1.38-.27.39-.42.87-.42,1.38v4.13c0,.51.16.98.42,1.38-.27.39-.42.87-.42,1.38v4.13c0,.51.16.98.42,1.38-.27.39-.42.87-.42,1.38v4.13c0,.51.16.98.42,1.38-.27.39-.42.87-.42,1.38v4.13c0,.51.16.98.42,1.38-.27.39-.42.87-.42,1.38v4.13c0,.51.16.98.42,1.38-.27.39-.42.87-.42,1.38v4.13c0,1.36,1.1,2.46,2.46,2.46h4.13c1.36,0,2.46-1.1,2.46-2.46v-4.13c0-.51-.16-.98-.42-1.38.27-.39.42-.87.42-1.38v-4.13c0-.51-.16-.98-.42-1.38.27-.39.42-.87.42-1.38v-4.13c0-.11,0-.21-.02-.32.1.01.21.02.32.02h4.13c.51,0,.98-.16,1.38-.42.39.27.87.42,1.38.42h4.13c.51,0,.98-.16,1.38-.42.39.27.87.42,1.38.42h4.13c.11,0,.21,0,.32-.02-.01.1-.02.21-.02.32v4.13c0,.51.16.98.42,1.38-.27.39-.42.87-.42,1.38v4.13c0,.51.16.98.42,1.38-.27.39-.42.87-.42,1.38v4.13c0,1.36,1.1,2.46,2.46,2.46h4.13c1.36,0,2.46-1.1,2.46-2.46v-4.13c0-.51-.16-.98-.42-1.38.27-.39.42-.87.42-1.38v-4.13c0-.51-.16-.98-.42-1.38.27-.39.42-.87.42-1.38v-4.13c0-.51-.16-.98-.42-1.38.27-.39.42-.87.42-1.38v-4.13c0-.51-.16-.98-.42-1.38.27-.39.42-.87.42-1.38v-4.13c0-.51-.16-.98-.42-1.38.27-.39.42-.87.42-1.38v-4.13c0-.51-.16-.98-.42-1.38.27-.39.42-.87.42-1.38v-4.13c0-1.36-1.1-2.46-2.46-2.46Z"/>
        <path d="M192.48,227.59h-4.13c-.51,0-.98.16-1.38.42-.39-.27-.87-.42-1.38-.42h-4.13c-.51,0-.98.16-1.38.42-.39-.27-.87-.42-1.38-.42h-4.13c-1.36,0-2.46,1.1-2.46,2.46v4.13c0,1.36,1.1,2.46,2.46,2.46h4.13c.11,0,.21,0,.32-.02-.01.1-.02.21-.02.32v4.13c0,.51.16.98.42,1.38-.27.39-.42.87-.42,1.38v4.13c0,.51.16.98.42,1.38-.27.39-.42.87-.42,1.38v4.13c0,.51.16.98.42,1.38-.27.39-.42.87-.42,1.38v4.13c0,.51.16.98.42,1.38-.27.39-.42.87-.42,1.38v4.13c0,.11,0,.21.02.32-.1-.01-.21-.02-.32-.02h-4.13c-1.36,0-2.46,1.1-2.46,2.46v4.13c0,1.36,1.1,2.46,2.46,2.46h4.13c.51,0,.98-.16,1.38-.42.39.27.87.42,1.38.42h4.13c.51,0,.98-.16,1.38-.42.39.27.87.42,1.38.42h4.13c1.36,0,2.46-1.1,2.46-2.46v-4.13c0-1.36-1.1-2.46-2.46-2.46h-4.13c-.11,0-.21,0-.32.02.01-.1.02-.21.02-.32v-4.13c0-.51-.16-.98-.42-1.38.27-.39.42-.87.42-1.38v-4.13c0-.51-.16-.98-.42-1.38.27-.39.42-.87.42-1.38v-4.13c0-.51-.16-.98-.42-1.38.27-.39.42-.87.42-1.38v-4.13c0-.51-.16-.98-.42-1.38.27-.39.42-.87.42-1.38v-4.13c0-.11,0-.21-.02-.32.1.01.21.02.32.02h4.13c1.36,0,2.46-1.1,2.46-2.46v-4.13c0-1.36-1.1-2.46-2.46-2.46Z"/>
        <path d="M240.67,227.59h-4.13c-1.36,0-2.46,1.1-2.46,2.46v4.13c0,.51.16.98.42,1.38-.27.39-.42.87-.42,1.38v4.13c0,.51.16.98.42,1.38-.27.39-.42.87-.42,1.38v4.13c0,.51.16.98.42,1.38-.27.39-.42.87-.42,1.38v4.13c0,.11,0,.21.02.32-.1-.01-.21-.02-.32-.02h-4.13c-.11,0-.21,0-.32.02.01-.1.02-.21.02-.32v-4.13c0-1.36-1.1-2.46-2.46-2.46h-4.13c-.11,0-.21,0-.32.02.01-.1.02-.21.02-.32v-4.13c0-1.36-1.1-2.46-2.46-2.46h-4.13c-.11,0-.21,0-.32.02.01-.1.02-.21.02-.32v-4.13c0-.51-.16-.98-.42-1.38.27-.39.42-.87.42-1.38v-4.13c0-1.36-1.1-2.46-2.46-2.46h-4.13c-1.36,0-2.46,1.1-2.46,2.46v4.13c0,.51.16.98.42,1.38-.27.39-.42.87-.42,1.38v4.13c0,.51.16.98.42,1.38-.27.39-.42.87-.42,1.38v4.13c0,.51.16.98.42,1.38-.27.39-.42.87-.42,1.38v4.13c0,.51.16.98.42,1.38-.27.39-.42.87-.42,1.38v4.13c0,.51.16.98.42,1.38-.27.39-.42.87-.42,1.38v4.13c0,.51.16.98.42,1.38-.27.39-.42.87-.42,1.38v4.13c0,1.36,1.1,2.46,2.46,2.46h4.13c1.36,0,2.46-1.1,2.46-2.46v-4.13c0-.51-.16-.98-.42-1.38.27-.39.42-.87.42-1.38v-4.13c0-.51-.16-.98-.42-1.38.27-.39.42-.87.42-1.38v-4.13c0-.51-.16-.98-.42-1.38.27-.39.42-.87.42-1.38v-4.13c0-.11,0-.21-.02-.32.1.01.21.02.32.02h4.13c.11,0,.21,0,.32-.02-.01.1-.02.21-.02.32v4.13c0,1.36,1.1,2.46,2.46,2.46h4.13c.11,0,.21,0,.32-.02-.01.1-.02.21-.02.32v4.13c0,1.36,1.1,2.46,2.46,2.46h4.13c.11,0,.21,0,.32-.02-.01.1-.02.21-.02.32v4.13c0,.51.16.98.42,1.38-.27.39-.42.87-.42,1.38v4.13c0,1.36,1.1,2.46,2.46,2.46h4.13c1.36,0,2.46-1.1,2.46-2.46v-4.13c0-.51-.16-.98-.42-1.38.27-.39.42-.87.42-1.38v-4.13c0-.51-.16-.98-.42-1.38.27-.39.42-.87.42-1.38v-4.13c0-.51-.16-.98-.42-1.38.27-.39.42-.87.42-1.38v-4.13c0-.51-.16-.98-.42-1.38.27-.39.42-.87.42-1.38v-4.13c0-.51-.16-.98-.42-1.38.27-.39.42-.87.42-1.38v-4.13c0-.51-.16-.98-.42-1.38.27-.39.42-.87.42-1.38v-4.13c0-1.36-1.1-2.46-2.46-2.46Z"/>
        <path d="M281.98,227.59h-4.13c-.51,0-.98.16-1.38.42-.39-.27-.87-.42-1.38-.42h-4.13c-.51,0-.98.16-1.38.42-.39-.27-.87-.42-1.38-.42h-4.13c-.51,0-.98.16-1.38.42-.39-.27-.87-.42-1.38-.42h-4.13c-.51,0-.98.16-1.38.42-.39-.27-.87-.42-1.38-.42h-4.13c-1.36,0-2.46,1.1-2.46,2.46v4.13c0,.51.16.98.42,1.38-.27.39-.42.87-.42,1.38v4.13c0,.51.16.98.42,1.38-.27.39-.42.87-.42,1.38v4.13c0,.51.16.98.42,1.38-.27.39-.42.87-.42,1.38v4.13c0,.51.16.98.42,1.38-.27.39-.42.87-.42,1.38v4.13c0,.51.16.98.42,1.38-.27.39-.42.87-.42,1.38v4.13c0,.51.16.98.42,1.38-.27.39-.42.87-.42,1.38v4.13c0,1.36,1.1,2.46,2.46,2.46h4.13c.51,0,.98-.16,1.38-.42.39.27.87.42,1.38.42h4.13c.51,0,.98-.16,1.38-.42.39.27.87.42,1.38.42h4.13c.51,0,.98-.16,1.38-.42.39.27.87.42,1.38.42h4.13c.51,0,.98-.16,1.38-.42.39.27.87.42,1.38.42h4.13c1.36,0,2.46-1.1,2.46-2.46v-4.13c0-1.36-1.1-2.46-2.46-2.46h-4.13c-.51,0-.98.16-1.38.42-.39-.27-.87-.42-1.38-.42h-4.13c-.51,0-.98.16-1.38.42-.39-.27-.87-.42-1.38-.42h-4.13c-.51,0-.98.16-1.38.42-.39-.27-.87-.42-1.38-.42h-4.13c-.11,0-.21,0-.32.02.01-.1.02-.21.02-.32v-4.13c0-.51-.16-.98-.42-1.38.27-.39.42-.87.42-1.38v-4.13c0-.11,0-.21-.02-.32.1.01.21.02.32.02h4.13c.51,0,.98-.16,1.38-.42.39.27.87.42,1.38.42h4.13c.51,0,.98-.16,1.38-.42.39.27.87.42,1.38.42h4.13c1.36,0,2.46-1.1,2.46-2.46v-4.13c0-1.36-1.1-2.46-2.46-2.46h-4.13c-.51,0-.98.16-1.38.42-.39-.27-.87-.42-1.38-.42h-4.13c-.51,0-.98.16-1.38.42-.39-.27-.87-.42-1.38-.42h-4.13c-.11,0-.21,0-.32.02.01-.1.02-.21.02-.32v-4.13c0-.51-.16-.98-.42-1.38.27-.39.42-.87.42-1.38v-4.13c0-.11,0-.21-.02-.32.1.01.21.02.32.02h4.13c.51,0,.98-.16,1.38-.42.39.27.87.42,1.38.42h4.13c.51,0,.98-.16,1.38-.42.39.27.87.42,1.38.42h4.13c.51,0,.98-.16,1.38-.42.39.27.87.42,1.38.42h4.13c1.36,0,2.46-1.1,2.46-2.46v-4.13c0-1.36-1.1-2.46-2.46-2.46Z"/>
      </g>
    </g>
  </g>
</svg>