<?xml version="1.0" encoding="UTF-8"?>
<svg id="Layer_2" data-name="Layer 2" xmlns="http://www.w3.org/2000/svg" viewBox="0 0 985.84 70.74">
  <g id="Layer_1-2" data-name="Layer 1">
    <g>
      <g>
        <path d="M8.06,61.81c2.33,3.28,4.78,6.08,7.3,8.3.45.4,1.03.62,1.63.62h1.72c1.36,0,2.46-1.1,2.46-2.46v-.14c0-.69-.29-1.35-.8-1.81-2.64-2.43-5.05-5.25-7.16-8.4-2.08-3.11-3.74-6.62-4.93-10.42-1.18-3.78-1.78-7.86-1.78-12.14s.59-8.42,1.75-12.18c1.17-3.77,2.81-7.28,4.9-10.41,2.1-3.16,4.52-5.96,7.19-8.33.53-.47.83-1.14.83-1.84v-.14c0-1.36-1.1-2.46-2.46-2.46h-1.72c-.59,0-1.16.21-1.61.6-2.53,2.19-4.99,4.98-7.32,8.29-2.35,3.34-4.3,7.26-5.79,11.64-1.5,4.41-2.27,9.41-2.27,14.84s.76,10.37,2.26,14.8c1.49,4.41,3.44,8.32,5.8,11.65Z" style="fill: none;"/>
        <path d="M17.79,59.7c.46.66,1.21,1.05,2.01,1.05h1.45c1.03,0,1.96-.65,2.31-1.62l5.82-16.01h17.44l5.72,15.99c.35.98,1.28,1.63,2.32,1.63h1.45c.8,0,1.55-.39,2.01-1.04.46-.65.57-1.49.3-2.24L41.33,9.27c-.35-.98-1.28-1.63-2.31-1.63h-1.65c-1.03,0-1.96.65-2.31,1.62l-17.56,48.19c-.27.75-.16,1.59.3,2.25ZM31.62,36.97l6.55-18.03,6.45,18.03h-13Z" style="fill: none;"/>
        <path d="M97.65,54.39c.11-.13.22-.26.33-.39l.21,4.41c.06,1.31,1.14,2.34,2.46,2.34h1.1c1.36,0,2.46-1.1,2.46-2.46v-24.72c0-1.36-1.1-2.46-2.46-2.46h-18.11c-1.36,0-2.46,1.1-2.46,2.46v1.24c0,1.36,1.1,2.46,2.46,2.46h13.94c-.59,5.57-2.15,9.93-4.65,12.99-2.77,3.38-6.75,5.02-12.18,5.02-3.5,0-6.49-.83-9.13-2.53-2.63-1.69-4.71-4.13-6.2-7.25-1.53-3.21-2.31-7.08-2.31-11.5s.81-8.34,2.41-11.44c1.59-3.08,3.7-5.36,6.47-7,2.74-1.62,5.95-2.45,9.52-2.45,4.41,0,7.89.99,10.35,2.94,2.52,2.01,4.19,4.6,5.12,7.92.3,1.06,1.26,1.8,2.37,1.8h1.51c.77,0,1.49-.36,1.95-.97.46-.61.62-1.4.42-2.14-1.38-5.07-3.99-9.03-7.74-11.77-3.72-2.71-8.42-4.09-13.98-4.09-4.94,0-9.34,1.17-13.06,3.46-3.73,2.3-6.66,5.55-8.72,9.67-2.02,4.04-3.05,8.77-3.05,14.04s.97,10.05,2.88,14.13c1.95,4.16,4.79,7.48,8.42,9.86,3.65,2.39,7.95,3.6,12.78,3.6,3.53,0,6.73-.6,9.53-1.78,2.84-1.2,5.33-3.02,7.38-5.41Z" style="fill: none;"/>
        <path d="M108.14,60.75h1.45c1.03,0,1.96-.65,2.31-1.62l5.82-16.01h17.44l5.72,15.99c.35.98,1.28,1.63,2.32,1.63h1.45c.8,0,1.55-.39,2.01-1.04.46-.65.57-1.49.3-2.24l-17.28-48.19c-.35-.98-1.28-1.63-2.31-1.63h-1.65c-1.03,0-1.96.65-2.31,1.62l-17.56,48.19c-.27.75-.16,1.59.3,2.25.46.66,1.21,1.05,2.01,1.05ZM119.95,36.97l6.55-18.03,6.45,18.03h-13Z" style="fill: none;"/>
        <rect x="151.12" y="7.64" width="6.29" height="53.11" rx="2.46" ry="2.46" style="fill: none;"/>
        <path d="M169.32,58.29V20.33l25.28,39.3c.45.7,1.23,1.13,2.07,1.13h1.65c1.36,0,2.46-1.1,2.46-2.46V10.1c0-1.36-1.1-2.46-2.46-2.46h-1.38c-1.36,0-2.46,1.1-2.46,2.46v37.64l-25.15-38.98c-.45-.7-1.23-1.13-2.07-1.13h-1.79c-1.36,0-2.46,1.1-2.46,2.46v48.19c0,1.36,1.1,2.46,2.46,2.46h1.38c1.36,0,2.46-1.1,2.46-2.46Z" style="fill: none;"/>
        <path d="M222.9,61.58c3.87,0,7.15-.68,9.74-2.03,2.66-1.39,4.7-3.3,6.06-5.68,1.33-2.34,2.01-5,2.01-7.9,0-2.59-.49-4.84-1.44-6.7-.94-1.82-2.22-3.38-3.79-4.62-1.45-1.15-3.09-2.14-4.9-2.97-2.15-.95-4.4-1.8-6.71-2.51-2.13-.66-4.15-1.39-5.99-2.18-1.58-.68-2.87-1.58-3.84-2.67-.81-.92-1.21-2.19-1.21-3.88,0-1.3.29-2.48.88-3.6.55-1.04,1.47-1.88,2.8-2.6,1.4-.75,3.36-1.12,5.83-1.12,1.98,0,3.78.3,5.35.9,1.38.53,2.43,1.38,3.23,2.59.81,1.24,1.22,3.03,1.22,5.34,0,1.36,1.1,2.46,2.46,2.46h1.51c1.36,0,2.46-1.1,2.46-2.46,0-3.46-.76-6.37-2.27-8.63-1.51-2.26-3.54-3.94-6.05-5-2.36-1-5.02-1.5-7.91-1.5-3.36,0-6.26.61-8.62,1.82-2.43,1.24-4.29,2.93-5.51,5-1.21,2.05-1.82,4.34-1.82,6.79,0,3.52,1.09,6.37,3.24,8.5,1.9,1.88,4.37,3.42,7.31,4.59,1.99.81,4.14,1.56,6.41,2.24,2.06.62,4.01,1.38,5.78,2.26,1.58.78,2.83,1.79,3.82,3.08.87,1.14,1.32,2.78,1.32,4.87,0,1.76-.38,3.32-1.15,4.76-.73,1.36-1.87,2.42-3.47,3.25-1.68.87-3.97,1.31-6.82,1.31-3.12,0-5.61-.53-7.39-1.59-1.76-1.04-2.99-2.35-3.77-4.02-.82-1.76-1.22-3.71-1.18-5.8.01-.66-.24-1.3-.7-1.77-.46-.47-1.09-.74-1.75-.74h-1.51c-1.34,0-2.44,1.08-2.46,2.42-.05,3.18.59,6.15,1.91,8.81,1.36,2.76,3.5,4.97,6.36,6.59,2.8,1.58,6.35,2.38,10.57,2.38Z" style="fill: none;"/>
        <path d="M241.29,13.8h12.21v44.5c0,1.36,1.1,2.46,2.46,2.46h1.38c1.36,0,2.46-1.1,2.46-2.46V13.8h12.21c1.36,0,2.46-1.1,2.46-2.46v-1.24c0-1.36-1.1-2.46-2.46-2.46h-30.71c-1.36,0-2.46,1.1-2.46,2.46v1.24c0,1.36,1.1,2.46,2.46,2.46Z" style="fill: none;"/>
        <path d="M293.53,20.53c-1.49-4.37-3.42-8.29-5.75-11.63-2.31-3.32-4.8-6.12-7.38-8.32-.44-.38-1.01-.58-1.59-.58h-1.72c-1.36,0-2.46,1.1-2.46,2.46v.14c0,.71.31,1.39.84,1.85,2.71,2.37,5.13,5.16,7.2,8.31,2.07,3.14,3.7,6.65,4.87,10.42,1.16,3.76,1.75,7.86,1.75,12.18s-.6,8.36-1.78,12.14c-1.19,3.8-2.84,7.31-4.9,10.43-2.08,3.14-4.49,5.96-7.17,8.38-.52.47-.81,1.13-.81,1.82v.14c0,1.36,1.1,2.46,2.46,2.46h1.72c.59,0,1.16-.21,1.61-.6,2.57-2.23,5.05-5.04,7.35-8.33,2.33-3.32,4.26-7.24,5.75-11.64,1.5-4.44,2.26-9.41,2.26-14.8s-.76-10.42-2.27-14.84Z" style="fill: none;"/>
      </g>
      <g>
        <path d="M358.12,10.19h-4.13c-.51,0-.98.16-1.38.42-.39-.27-.87-.42-1.38-.42h-4.13c-.51,0-.98.16-1.38.42-.39-.27-.87-.42-1.38-.42h-4.13c-.51,0-.98.16-1.38.42-.39-.27-.87-.42-1.38-.42h-4.13c-.51,0-.98.16-1.38.42-.39-.27-.87-.42-1.38-.42h-4.13c-1.36,0-2.46,1.1-2.46,2.46v4.13c0,1.36,1.1,2.46,2.46,2.46h4.13c.51,0,.98-.16,1.38-.42.39.27.87.42,1.38.42h4.13c.11,0,.21,0,.32-.02-.01.1-.02.21-.02.32v4.13c0,.51.16.98.42,1.38-.27.39-.42.87-.42,1.38v4.13c0,.51.16.98.42,1.38-.27.39-.42.87-.42,1.38v4.13c0,.51.16.98.42,1.38-.27.39-.42.87-.42,1.38v4.13c0,.51.16.98.42,1.38-.27.39-.42.87-.42,1.38v4.13c0,.51.16.98.42,1.38-.27.39-.42.87-.42,1.38v4.13c0,1.36,1.1,2.46,2.46,2.46h4.13c1.36,0,2.46-1.1,2.46-2.46v-4.13c0-.51-.16-.98-.42-1.38.27-.39.42-.87.42-1.38v-4.13c0-.51-.16-.98-.42-1.38.27-.39.42-.87.42-1.38v-4.13c0-.51-.16-.98-.42-1.38.27-.39.42-.87.42-1.38v-4.13c0-.51-.16-.98-.42-1.38.27-.39.42-.87.42-1.38v-4.13c0-.51-.16-.98-.42-1.38.27-.39.42-.87.42-1.38v-4.13c0-.11,0-.21-.02-.32.1.01.21.02.32.02h4.13c.51,0,.98-.16,1.38-.42.39.27.87.42,1.38.42h4.13c1.36,0,2.46-1.1,2.46-2.46v-4.13c0-1.36-1.1-2.46-2.46-2.46Z" style="fill: none;"/>
        <path d="M399.43,10.19h-4.13c-1.36,0-2.46,1.1-2.46,2.46v4.13c0,.51.16.98.42,1.38-.27.39-.42.87-.42,1.38v4.13c0,.51.16.98.42,1.38-.27.39-.42.87-.42,1.38v4.13c0,.11,0,.21.02.32-.1-.01-.21-.02-.32-.02h-4.13c-.51,0-.98.16-1.38.42-.39-.27-.87-.42-1.38-.42h-4.13c-.51,0-.98.16-1.38.42-.39-.27-.87-.42-1.38-.42h-4.13c-.11,0-.21,0-.32.02.01-.1.02-.21.02-.32v-4.13c0-.51-.16-.98-.42-1.38.27-.39.42-.87.42-1.38v-4.13c0-.51-.16-.98-.42-1.38.27-.39.42-.87.42-1.38v-4.13c0-1.36-1.1-2.46-2.46-2.46h-4.13c-1.36,0-2.46,1.1-2.46,2.46v4.13c0,.51.16.98.42,1.38-.27.39-.42.87-.42,1.38v4.13c0,.51.16.98.42,1.38-.27.39-.42.87-.42,1.38v4.13c0,.51.16.98.42,1.38-.27.39-.42.87-.42,1.38v4.13c0,.51.16.98.42,1.38-.27.39-.42.87-.42,1.38v4.13c0,.51.16.98.42,1.38-.27.39-.42.87-.42,1.38v4.13c0,.51.16.98.42,1.38-.27.39-.42.87-.42,1.38v4.13c0,1.36,1.1,2.46,2.46,2.46h4.13c1.36,0,2.46-1.1,2.46-2.46v-4.13c0-.51-.16-.98-.42-1.38.27-.39.42-.87.42-1.38v-4.13c0-.51-.16-.98-.42-1.38.27-.39.42-.87.42-1.38v-4.13c0-.11,0-.21-.02-.32.1.01.21.02.32.02h4.13c.51,0,.98-.16,1.38-.42.39.27.87.42,1.38.42h4.13c.51,0,.98-.16,1.38-.42.39.27.87.42,1.38.42h4.13c.11,0,.21,0,.32-.02-.01.1-.02.21-.02.32v4.13c0,.51.16.98.42,1.38-.27.39-.42.87-.42,1.38v4.13c0,.51.16.98.42,1.38-.27.39-.42.87-.42,1.38v4.13c0,1.36,1.1,2.46,2.46,2.46h4.13c1.36,0,2.46-1.1,2.46-2.46v-4.13c0-.51-.16-.98-.42-1.38.27-.39.42-.87.42-1.38v-4.13c0-.51-.16-.98-.42-1.38.27-.39.42-.87.42-1.38v-4.13c0-.51-.16-.98-.42-1.38.27-.39.42-.87.42-1.38v-4.13c0-.51-.16-.98-.42-1.38.27-.39.42-.87.42-1.38v-4.13c0-.51-.16-.98-.42-1.38.27-.39.42-.87.42-1.38v-4.13c0-.51-.16-.98-.42-1.38.27-.39.42-.87.42-1.38v-4.13c0-1.36-1.1-2.46-2.46-2.46Z" style="fill: none;"/>
        <path d="M440.73,10.19h-4.13c-.51,0-.98.16-1.38.42-.39-.27-.87-.42-1.38-.42h-4.13c-.51,0-.98.16-1.38.42-.39-.27-.87-.42-1.38-.42h-4.13c-.51,0-.98.16-1.38.42-.39-.27-.87-.42-1.38-.42h-4.13c-.51,0-.98.16-1.38.42-.39-.27-.87-.42-1.38-.42h-4.13c-1.36,0-2.46,1.1-2.46,2.46v4.13c0,.51.16.98.42,1.38-.27.39-.42.87-.42,1.38v4.13c0,.51.16.98.42,1.38-.27.39-.42.87-.42,1.38v4.13c0,.51.16.98.42,1.38-.27.39-.42.87-.42,1.38v4.13c0,.51.16.98.42,1.38-.27.39-.42.87-.42,1.38v4.13c0,.51.16.98.42,1.38-.27.39-.42.87-.42,1.38v4.13c0,.51.16.98.42,1.38-.27.39-.42.87-.42,1.38v4.13c0,1.36,1.1,2.46,2.46,2.46h4.13c.51,0,.98-.16,1.38-.42.39.27.87.42,1.38.42h4.13c.51,0,.98-.16,1.38-.42.39.27.87.42,1.38.42h4.13c.51,0,.98-.16,1.38-.42.39.27.87.42,1.38.42h4.13c.51,0,.98-.16,1.38-.42.39.27.87.42,1.38.42h4.13c1.36,0,2.46-1.1,2.46-2.46v-4.13c0-1.36-1.1-2.46-2.46-2.46h-4.13c-.51,0-.98.16-1.38.42-.39-.27-.87-.42-1.38-.42h-4.13c-.51,0-.98.16-1.38.42-.39-.27-.87-.42-1.38-.42h-4.13c-.51,0-.98.16-1.38.42-.39-.27-.87-.42-1.38-.42h-4.13c-.11,0-.21,0-.32.02.01-.1.02-.21.02-.32v-4.13c0-.51-.16-.98-.42-1.38.27-.39.42-.87.42-1.38v-4.13c0-.11,0-.21-.02-.32.1.01.21.02.32.02h4.13c.51,0,.98-.16,1.38-.42.39.27.87.42,1.38.42h4.13c.51,0,.98-.16,1.38-.42.39.27.87.42,1.38.42h4.13c1.36,0,2.46-1.1,2.46-2.46v-4.13c0-1.36-1.1-2.46-2.46-2.46h-4.13c-.51,0-.98.16-1.38.42-.39-.27-.87-.42-1.38-.42h-4.13c-.51,0-.98.16-1.38.42-.39-.27-.87-.42-1.38-.42h-4.13c-.11,0-.21,0-.32.02.01-.1.02-.21.02-.32v-4.13c0-.51-.16-.98-.42-1.38.27-.39.42-.87.42-1.38v-4.13c0-.11,0-.21-.02-.32.1.01.21.02.32.02h4.13c.51,0,.98-.16,1.38-.42.39.27.87.42,1.38.42h4.13c.51,0,.98-.16,1.38-.42.39.27.87.42,1.38.42h4.13c.51,0,.98-.16,1.38-.42.39.27.87.42,1.38.42h4.13c1.36,0,2.46-1.1,2.46-2.46v-4.13c0-1.36-1.1-2.46-2.46-2.46Z" style="fill: none;"/>
      </g>
      <g>
        <path d="M505.52,10.19h-4.13c-1.36,0-2.46,1.1-2.46,2.46v4.13c0,.51.16.98.42,1.38-.27.39-.42.87-.42,1.38v4.13c0,.51.16.98.42,1.38-.27.39-.42.87-.42,1.38v4.13c0,.51.16.98.42,1.38-.27.39-.42.87-.42,1.38v4.13c0,.11,0,.21.02.32-.1-.01-.21-.02-.32-.02h-4.13c-.11,0-.21,0-.32.02.01-.1.02-.21.02-.32v-4.13c0-1.36-1.1-2.46-2.46-2.46h-4.13c-.11,0-.21,0-.32.02.01-.1.02-.21.02-.32v-4.13c0-1.36-1.1-2.46-2.46-2.46h-4.13c-.11,0-.21,0-.32.02.01-.1.02-.21.02-.32v-4.13c0-.51-.16-.98-.42-1.38.27-.39.42-.87.42-1.38v-4.13c0-1.36-1.1-2.46-2.46-2.46h-4.13c-1.36,0-2.46,1.1-2.46,2.46v4.13c0,.51.16.98.42,1.38-.27.39-.42.87-.42,1.38v4.13c0,.51.16.98.42,1.38-.27.39-.42.87-.42,1.38v4.13c0,.51.16.98.42,1.38-.27.39-.42.87-.42,1.38v4.13c0,.51.16.98.42,1.38-.27.39-.42.87-.42,1.38v4.13c0,.51.16.98.42,1.38-.27.39-.42.87-.42,1.38v4.13c0,.51.16.98.42,1.38-.27.39-.42.87-.42,1.38v4.13c0,1.36,1.1,2.46,2.46,2.46h4.13c1.36,0,2.46-1.1,2.46-2.46v-4.13c0-.51-.16-.98-.42-1.38.27-.39.42-.87.42-1.38v-4.13c0-.51-.16-.98-.42-1.38.27-.39.42-.87.42-1.38v-4.13c0-.51-.16-.98-.42-1.38.27-.39.42-.87.42-1.38v-4.13c0-.11,0-.21-.02-.32.1.01.21.02.32.02h4.13c.11,0,.21,0,.32-.02-.01.1-.02.21-.02.32v4.13c0,1.36,1.1,2.46,2.46,2.46h4.13c.11,0,.21,0,.32-.02-.01.1-.02.21-.02.32v4.13c0,1.36,1.1,2.46,2.46,2.46h4.13c.11,0,.21,0,.32-.02-.01.1-.02.21-.02.32v4.13c0,.51.16.98.42,1.38-.27.39-.42.87-.42,1.38v4.13c0,1.36,1.1,2.46,2.46,2.46h4.13c1.36,0,2.46-1.1,2.46-2.46v-4.13c0-.51-.16-.98-.42-1.38.27-.39.42-.87.42-1.38v-4.13c0-.51-.16-.98-.42-1.38.27-.39.42-.87.42-1.38v-4.13c0-.51-.16-.98-.42-1.38.27-.39.42-.87.42-1.38v-4.13c0-.51-.16-.98-.42-1.38.27-.39.42-.87.42-1.38v-4.13c0-.51-.16-.98-.42-1.38.27-.39.42-.87.42-1.38v-4.13c0-.51-.16-.98-.42-1.38.27-.39.42-.87.42-1.38v-4.13c0-1.36-1.1-2.46-2.46-2.46Z" style="fill: none;"/>
        <path d="M546.83,17.07h-4.13c-.11,0-.21,0-.32.02.01-.1.02-.21.02-.32v-4.13c0-1.36-1.1-2.46-2.46-2.46h-4.13c-.51,0-.98.16-1.38.42-.39-.27-.87-.42-1.38-.42h-4.13c-.51,0-.98.16-1.38.42-.39-.27-.87-.42-1.38-.42h-4.13c-1.36,0-2.46,1.1-2.46,2.46v4.13c0,.11,0,.21.02.32-.1-.01-.21-.02-.32-.02h-4.13c-1.36,0-2.46,1.1-2.46,2.46v4.13c0,.51.16.98.42,1.38-.27.39-.42.87-.42,1.38v4.13c0,.51.16.98.42,1.38-.27.39-.42.87-.42,1.38v4.13c0,.51.16.98.42,1.38-.27.39-.42.87-.42,1.38v4.13c0,.51.16.98.42,1.38-.27.39-.42.87-.42,1.38v4.13c0,1.36,1.1,2.46,2.46,2.46h4.13c.11,0,.21,0,.32-.02-.01.1-.02.21-.02.32v4.13c0,1.36,1.1,2.46,2.46,2.46h4.13c.51,0,.98-.16,1.38-.42.39.27.87.42,1.38.42h4.13c.51,0,.98-.16,1.38-.42.39.27.87.42,1.38.42h4.13c1.36,0,2.46-1.1,2.46-2.46v-4.13c0-.11,0-.21-.02-.32.1.01.21.02.32.02h4.13c1.36,0,2.46-1.1,2.46-2.46v-4.13c0-.51-.16-.98-.42-1.38.27-.39.42-.87.42-1.38v-4.13c0-.51-.16-.98-.42-1.38.27-.39.42-.87.42-1.38v-4.13c0-.51-.16-.98-.42-1.38.27-.39.42-.87.42-1.38v-4.13c0-.51-.16-.98-.42-1.38.27-.39.42-.87.42-1.38v-4.13c0-1.36-1.1-2.46-2.46-2.46ZM540.66,31.93c-.27.39-.42.87-.42,1.38v4.13c0,.51.16.98.42,1.38-.27.39-.42.87-.42,1.38v4.13c0,.51.16.98.42,1.38-.27.39-.42.87-.42,1.38v4.13c0,.11,0,.21.02.32-.1-.01-.21-.02-.32-.02h-4.13c-.51,0-.98.16-1.38.42-.39-.27-.87-.42-1.38-.42h-4.13c-.51,0-.98.16-1.38.42-.39-.27-.87-.42-1.38-.42h-4.13c-.11,0-.21,0-.32.02.01-.1.02-.21.02-.32v-4.13c0-.51-.16-.98-.42-1.38.27-.39.42-.87.42-1.38v-4.13c0-.51-.16-.98-.42-1.38.27-.39.42-.87.42-1.38v-4.13c0-.51-.16-.98-.42-1.38.27-.39.42-.87.42-1.38v-4.13c0-.51-.16-.98-.42-1.38.27-.39.42-.87.42-1.38v-4.13c0-.11,0-.21-.02-.32.1.01.21.02.32.02h4.13c.51,0,.98-.16,1.38-.42.39.27.87.42,1.38.42h4.13c.51,0,.98-.16,1.38-.42.39.27.87.42,1.38.42h4.13c.11,0,.21,0,.32-.02-.01.1-.02.21-.02.32v4.13c0,.51.16.98.42,1.38-.27.39-.42.87-.42,1.38v4.13c0,.51.16.98.42,1.38Z" style="fill: none;"/>
        <path d="M563.35,51.5c-1.36,0-2.46,1.1-2.46,2.46v4.13c0,1.36,1.1,2.46,2.46,2.46h4.13c.51,0,.98-.16,1.38-.42.39.27.87.42,1.38.42h4.13c.51,0,.98-.16,1.38-.42.39.27.87.42,1.38.42h4.13c1.36,0,2.46-1.1,2.46-2.46v-4.13c0-1.36-1.1-2.46-2.46-2.46h-4.13c-.11,0-.21,0-.32.02.01-.1.02-.21.02-.32v-4.13c0-.51-.16-.98-.42-1.38.27-.39.42-.87.42-1.38v-4.13c0-.51-.16-.98-.42-1.38.27-.39.42-.87.42-1.38v-4.13c0-.51-.16-.98-.42-1.38.27-.39.42-.87.42-1.38v-4.13c0-.51-.16-.98-.42-1.38.27-.39.42-.87.42-1.38v-4.13c0-.11,0-.21-.02-.32.1.01.21.02.32.02h4.13c1.36,0,2.46-1.1,2.46-2.46v-4.13c0-1.36-1.1-2.46-2.46-2.46h-4.13c-.51,0-.98.16-1.38.42-.39-.27-.87-.42-1.38-.42h-4.13c-.51,0-.98.16-1.38.42-.39-.27-.87-.42-1.38-.42h-4.13c-1.36,0-2.46,1.1-2.46,2.46v4.13c0,1.36,1.1,2.46,2.46,2.46h4.13c.11,0,.21,0,.32-.02-.01.1-.02.21-.02.32v4.13c0,.51.16.98.42,1.38-.27.39-.42.87-.42,1.38v4.13c0,.51.16.98.42,1.38-.27.39-.42.87-.42,1.38v4.13c0,.51.16.98.42,1.38-.27.39-.42.87-.42,1.38v4.13c0,.51.16.98.42,1.38-.27.39-.42.87-.42,1.38v4.13c0,.11,0,.21.02.32-.1-.01-.21-.02-.32-.02h-4.13Z" style="fill: none;"/>
        <path d="M629.44,17.07h-4.13c-.11,0-.21,0-.32.02.01-.1.02-.21.02-.32v-4.13c0-1.36-1.1-2.46-2.46-2.46h-4.13c-.51,0-.98.16-1.38.42-.39-.27-.87-.42-1.38-.42h-4.13c-.51,0-.98.16-1.38.42-.39-.27-.87-.42-1.38-.42h-4.13c-1.36,0-2.46,1.1-2.46,2.46v4.13c0,.11,0,.21.02.32-.1-.01-.21-.02-.32-.02h-4.13c-1.36,0-2.46,1.1-2.46,2.46v4.13c0,.51.16.98.42,1.38-.27.39-.42.87-.42,1.38v4.13c0,1.36,1.1,2.46,2.46,2.46h4.13c.11,0,.21,0,.32-.02-.01.1-.02.21-.02.32v4.13c0,1.36,1.1,2.46,2.46,2.46h4.13c.51,0,.98-.16,1.38-.42.39.27.87.42,1.38.42h4.13c.51,0,.98-.16,1.38-.42.39.27.87.42,1.38.42h4.13c.11,0,.21,0,.32-.02-.01.1-.02.21-.02.32v4.13c0,.51.16.98.42,1.38-.27.39-.42.87-.42,1.38v4.13c0,.11,0,.21.02.32-.1-.01-.21-.02-.32-.02h-4.13c-.51,0-.98.16-1.38.42-.39-.27-.87-.42-1.38-.42h-4.13c-.51,0-.98.16-1.38.42-.39-.27-.87-.42-1.38-.42h-4.13c-.11,0-.21,0-.32.02.01-.1.02-.21.02-.32v-4.13c0-1.36-1.1-2.46-2.46-2.46h-4.13c-1.36,0-2.46,1.1-2.46,2.46v4.13c0,1.36,1.1,2.46,2.46,2.46h4.13c.11,0,.21,0,.32-.02-.01.1-.02.21-.02.32v4.13c0,1.36,1.1,2.46,2.46,2.46h4.13c.51,0,.98-.16,1.38-.42.39.27.87.42,1.38.42h4.13c.51,0,.98-.16,1.38-.42.39.27.87.42,1.38.42h4.13c1.36,0,2.46-1.1,2.46-2.46v-4.13c0-.11,0-.21-.02-.32.1.01.21.02.32.02h4.13c1.36,0,2.46-1.1,2.46-2.46v-4.13c0-.51-.16-.98-.42-1.38.27-.39.42-.87.42-1.38v-4.13c0-1.36-1.1-2.46-2.46-2.46h-4.13c-.11,0-.21,0-.32.02.01-.1.02-.21.02-.32v-4.13c0-1.36-1.1-2.46-2.46-2.46h-4.13c-.51,0-.98.16-1.38.42-.39-.27-.87-.42-1.38-.42h-4.13c-.51,0-.98.16-1.38.42-.39-.27-.87-.42-1.38-.42h-4.13c-.11,0-.21,0-.32.02.01-.1.02-.21.02-.32v-4.13c0-.51-.16-.98-.42-1.38.27-.39.42-.87.42-1.38v-4.13c0-.11,0-.21-.02-.32.1.01.21.02.32.02h4.13c.51,0,.98-.16,1.38-.42.39.27.87.42,1.38.42h4.13c.51,0,.98-.16,1.38-.42.39.27.87.42,1.38.42h4.13c.11,0,.21,0,.32-.02-.01.1-.02.21-.02.32v4.13c0,1.36,1.1,2.46,2.46,2.46h4.13c1.36,0,2.46-1.1,2.46-2.46v-4.13c0-1.36-1.1-2.46-2.46-2.46Z" style="fill: none;"/>
        <path d="M670.75,10.19h-4.13c-.51,0-.98.16-1.38.42-.39-.27-.87-.42-1.38-.42h-4.13c-.51,0-.98.16-1.38.42-.39-.27-.87-.42-1.38-.42h-4.13c-.51,0-.98.16-1.38.42-.39-.27-.87-.42-1.38-.42h-4.13c-.51,0-.98.16-1.38.42-.39-.27-.87-.42-1.38-.42h-4.13c-1.36,0-2.46,1.1-2.46,2.46v4.13c0,.51.16.98.42,1.38-.27.39-.42.87-.42,1.38v4.13c0,.51.16.98.42,1.38-.27.39-.42.87-.42,1.38v4.13c0,.51.16.98.42,1.38-.27.39-.42.87-.42,1.38v4.13c0,.51.16.98.42,1.38-.27.39-.42.87-.42,1.38v4.13c0,.51.16.98.42,1.38-.27.39-.42.87-.42,1.38v4.13c0,.51.16.98.42,1.38-.27.39-.42.87-.42,1.38v4.13c0,1.36,1.1,2.46,2.46,2.46h4.13c.51,0,.98-.16,1.38-.42.39.27.87.42,1.38.42h4.13c.51,0,.98-.16,1.38-.42.39.27.87.42,1.38.42h4.13c.51,0,.98-.16,1.38-.42.39.27.87.42,1.38.42h4.13c.51,0,.98-.16,1.38-.42.39.27.87.42,1.38.42h4.13c1.36,0,2.46-1.1,2.46-2.46v-4.13c0-1.36-1.1-2.46-2.46-2.46h-4.13c-.51,0-.98.16-1.38.42-.39-.27-.87-.42-1.38-.42h-4.13c-.51,0-.98.16-1.38.42-.39-.27-.87-.42-1.38-.42h-4.13c-.51,0-.98.16-1.38.42-.39-.27-.87-.42-1.38-.42h-4.13c-.11,0-.21,0-.32.02.01-.1.02-.21.02-.32v-4.13c0-.51-.16-.98-.42-1.38.27-.39.42-.87.42-1.38v-4.13c0-.11,0-.21-.02-.32.1.01.21.02.32.02h4.13c.51,0,.98-.16,1.38-.42.39.27.87.42,1.38.42h4.13c.51,0,.98-.16,1.38-.42.39.27.87.42,1.38.42h4.13c1.36,0,2.46-1.1,2.46-2.46v-4.13c0-1.36-1.1-2.46-2.46-2.46h-4.13c-.51,0-.98.16-1.38.42-.39-.27-.87-.42-1.38-.42h-4.13c-.51,0-.98.16-1.38.42-.39-.27-.87-.42-1.38-.42h-4.13c-.11,0-.21,0-.32.02.01-.1.02-.21.02-.32v-4.13c0-.51-.16-.98-.42-1.38.27-.39.42-.87.42-1.38v-4.13c0-.11,0-.21-.02-.32.1.01.21.02.32.02h4.13c.51,0,.98-.16,1.38-.42.39.27.87.42,1.38.42h4.13c.51,0,.98-.16,1.38-.42.39.27.87.42,1.38.42h4.13c.51,0,.98-.16,1.38-.42.39.27.87.42,1.38.42h4.13c1.36,0,2.46-1.1,2.46-2.46v-4.13c0-1.36-1.1-2.46-2.46-2.46Z" style="fill: none;"/>
      </g>
      <g>
        <path d="M735.54,10.19h-4.13c-1.36,0-2.46,1.1-2.46,2.46v4.13c0,.51.16.98.42,1.38-.27.39-.42.87-.42,1.38v4.13c0,.11,0,.21.02.32-.1-.01-.21-.02-.32-.02h-4.13c-1.36,0-2.46,1.1-2.46,2.46v4.13c0,.11,0,.21.02.32-.1-.01-.21-.02-.32-.02h-4.13c-.11,0-.21,0-.32.02.01-.1.02-.21.02-.32v-4.13c0-1.36-1.1-2.46-2.46-2.46h-4.13c-.11,0-.21,0-.32.02.01-.1.02-.21.02-.32v-4.13c0-.51-.16-.98-.42-1.38.27-.39.42-.87.42-1.38v-4.13c0-1.36-1.1-2.46-2.46-2.46h-4.13c-1.36,0-2.46,1.1-2.46,2.46v4.13c0,.51.16.98.42,1.38-.27.39-.42.87-.42,1.38v4.13c0,.51.16.98.42,1.38-.27.39-.42.87-.42,1.38v4.13c0,.51.16.98.42,1.38-.27.39-.42.87-.42,1.38v4.13c0,.51.16.98.42,1.38-.27.39-.42.87-.42,1.38v4.13c0,.51.16.98.42,1.38-.27.39-.42.87-.42,1.38v4.13c0,.51.16.98.42,1.38-.27.39-.42.87-.42,1.38v4.13c0,1.36,1.1,2.46,2.46,2.46h4.13c1.36,0,2.46-1.1,2.46-2.46v-4.13c0-.51-.16-.98-.42-1.38.27-.39.42-.87.42-1.38v-4.13c0-.51-.16-.98-.42-1.38.27-.39.42-.87.42-1.38v-4.13c0-.51-.16-.98-.42-1.38.27-.39.42-.87.42-1.38v-4.13c0-.11,0-.21-.02-.32.1.01.21.02.32.02h4.13c.11,0,.21,0,.32-.02-.01.1-.02.21-.02.32v4.13c0,1.36,1.1,2.46,2.46,2.46h4.13c1.36,0,2.46-1.1,2.46-2.46v-4.13c0-.11,0-.21-.02-.32.1.01.21.02.32.02h4.13c.11,0,.21,0,.32-.02-.01.1-.02.21-.02.32v4.13c0,.51.16.98.42,1.38-.27.39-.42.87-.42,1.38v4.13c0,.51.16.98.42,1.38-.27.39-.42.87-.42,1.38v4.13c0,.51.16.98.42,1.38-.27.39-.42.87-.42,1.38v4.13c0,1.36,1.1,2.46,2.46,2.46h4.13c1.36,0,2.46-1.1,2.46-2.46v-4.13c0-.51-.16-.98-.42-1.38.27-.39.42-.87.42-1.38v-4.13c0-.51-.16-.98-.42-1.38.27-.39.42-.87.42-1.38v-4.13c0-.51-.16-.98-.42-1.38.27-.39.42-.87.42-1.38v-4.13c0-.51-.16-.98-.42-1.38.27-.39.42-.87.42-1.38v-4.13c0-.51-.16-.98-.42-1.38.27-.39.42-.87.42-1.38v-4.13c0-.51-.16-.98-.42-1.38.27-.39.42-.87.42-1.38v-4.13c0-1.36-1.1-2.46-2.46-2.46Z" style="fill: none;"/>
        <path d="M776.85,23.96h-4.13c-.11,0-.21,0-.32.02.01-.1.02-.21.02-.32v-4.13c0-1.36-1.1-2.46-2.46-2.46h-4.13c-.11,0-.21,0-.32.02.01-.1.02-.21.02-.32v-4.13c0-1.36-1.1-2.46-2.46-2.46h-4.13c-1.36,0-2.46,1.1-2.46,2.46v4.13c0,.11,0,.21.02.32-.1-.01-.21-.02-.32-.02h-4.13c-1.36,0-2.46,1.1-2.46,2.46v4.13c0,.11,0,.21.02.32-.1-.01-.21-.02-.32-.02h-4.13c-1.36,0-2.46,1.1-2.46,2.46v4.13c0,.51.16.98.42,1.38-.27.39-.42.87-.42,1.38v4.13c0,.51.16.98.42,1.38-.27.39-.42.87-.42,1.38v4.13c0,.51.16.98.42,1.38-.27.39-.42.87-.42,1.38v4.13c0,.51.16.98.42,1.38-.27.39-.42.87-.42,1.38v4.13c0,1.36,1.1,2.46,2.46,2.46h4.13c1.36,0,2.46-1.1,2.46-2.46v-4.13c0-.51-.16-.98-.42-1.38.27-.39.42-.87.42-1.38v-4.13c0-.11,0-.21-.02-.32.1.01.21.02.32.02h4.13c.51,0,.98-.16,1.38-.42.39.27.87.42,1.38.42h4.13c.51,0,.98-.16,1.38-.42.39.27.87.42,1.38.42h4.13c.11,0,.21,0,.32-.02-.01.1-.02.21-.02.32v4.13c0,.51.16.98.42,1.38-.27.39-.42.87-.42,1.38v4.13c0,1.36,1.1,2.46,2.46,2.46h4.13c1.36,0,2.46-1.1,2.46-2.46v-4.13c0-.51-.16-.98-.42-1.38.27-.39.42-.87.42-1.38v-4.13c0-.51-.16-.98-.42-1.38.27-.39.42-.87.42-1.38v-4.13c0-.51-.16-.98-.42-1.38.27-.39.42-.87.42-1.38v-4.13c0-.51-.16-.98-.42-1.38.27-.39.42-.87.42-1.38v-4.13c0-1.36-1.1-2.46-2.46-2.46ZM770.26,33.3v4.13c0,.11,0,.21.02.32-.1-.01-.21-.02-.32-.02h-4.13c-.51,0-.98.16-1.38.42-.39-.27-.87-.42-1.38-.42h-4.13c-.51,0-.98.16-1.38.42-.39-.27-.87-.42-1.38-.42h-4.13c-.11,0-.21,0-.32.02.01-.1.02-.21.02-.32v-4.13c0-.51-.16-.98-.42-1.38.27-.39.42-.87.42-1.38v-4.13c0-.11,0-.21-.02-.32.1.01.21.02.32.02h4.13c1.36,0,2.46-1.1,2.46-2.46v-4.13c0-.11,0-.21-.02-.32.1.01.21.02.32.02h4.13c.11,0,.21,0,.32-.02-.01.1-.02.21-.02.32v4.13c0,1.36,1.1,2.46,2.46,2.46h4.13c.11,0,.21,0,.32-.02-.01.1-.02.21-.02.32v4.13c0,.51.16.98.42,1.38-.27.39-.42.87-.42,1.38Z" style="fill: none;"/>
        <path d="M818.15,17.07h-4.13c-.11,0-.21,0-.32.02.01-.1.02-.21.02-.32v-4.13c0-1.36-1.1-2.46-2.46-2.46h-4.13c-.51,0-.98.16-1.38.42-.39-.27-.87-.42-1.38-.42h-4.13c-.51,0-.98.16-1.38.42-.39-.27-.87-.42-1.38-.42h-4.13c-1.36,0-2.46,1.1-2.46,2.46v4.13c0,.11,0,.21.02.32-.1-.01-.21-.02-.32-.02h-4.13c-1.36,0-2.46,1.1-2.46,2.46v4.13c0,.51.16.98.42,1.38-.27.39-.42.87-.42,1.38v4.13c0,.51.16.98.42,1.38-.27.39-.42.87-.42,1.38v4.13c0,.51.16.98.42,1.38-.27.39-.42.87-.42,1.38v4.13c0,.51.16.98.42,1.38-.27.39-.42.87-.42,1.38v4.13c0,1.36,1.1,2.46,2.46,2.46h4.13c.11,0,.21,0,.32-.02-.01.1-.02.21-.02.32v4.13c0,1.36,1.1,2.46,2.46,2.46h4.13c.51,0,.98-.16,1.38-.42.39.27.87.42,1.38.42h4.13c.51,0,.98-.16,1.38-.42.39.27.87.42,1.38.42h4.13c1.36,0,2.46-1.1,2.46-2.46v-4.13c0-.11,0-.21-.02-.32.1.01.21.02.32.02h4.13c1.36,0,2.46-1.1,2.46-2.46v-4.13c0-1.36-1.1-2.46-2.46-2.46h-4.13c-1.36,0-2.46,1.1-2.46,2.46v4.13c0,.11,0,.21.02.32-.1-.01-.21-.02-.32-.02h-4.13c-.51,0-.98.16-1.38.42-.39-.27-.87-.42-1.38-.42h-4.13c-.51,0-.98.16-1.38.42-.39-.27-.87-.42-1.38-.42h-4.13c-.11,0-.21,0-.32.02.01-.1.02-.21.02-.32v-4.13c0-.51-.16-.98-.42-1.38.27-.39.42-.87.42-1.38v-4.13c0-.51-.16-.98-.42-1.38.27-.39.42-.87.42-1.38v-4.13c0-.51-.16-.98-.42-1.38.27-.39.42-.87.42-1.38v-4.13c0-.51-.16-.98-.42-1.38.27-.39.42-.87.42-1.38v-4.13c0-.11,0-.21-.02-.32.1.01.21.02.32.02h4.13c.51,0,.98-.16,1.38-.42.39.27.87.42,1.38.42h4.13c.51,0,.98-.16,1.38-.42.39.27.87.42,1.38.42h4.13c.11,0,.21,0,.32-.02-.01.1-.02.21-.02.32v4.13c0,1.36,1.1,2.46,2.46,2.46h4.13c1.36,0,2.46-1.1,2.46-2.46v-4.13c0-1.36-1.1-2.46-2.46-2.46Z" style="fill: none;"/>
        <path d="M859.46,10.19h-4.13c-1.36,0-2.46,1.1-2.46,2.46v4.13c0,.51.16.98.42,1.38-.27.39-.42.87-.42,1.38v4.13c0,.51.16.98.42,1.38-.27.39-.42.87-.42,1.38v4.13c0,.11,0,.21.02.32-.1-.01-.21-.02-.32-.02h-4.13c-.51,0-.98.16-1.38.42-.39-.27-.87-.42-1.38-.42h-4.13c-.51,0-.98.16-1.38.42-.39-.27-.87-.42-1.38-.42h-4.13c-.11,0-.21,0-.32.02.01-.1.02-.21.02-.32v-4.13c0-.51-.16-.98-.42-1.38.27-.39.42-.87.42-1.38v-4.13c0-.51-.16-.98-.42-1.38.27-.39.42-.87.42-1.38v-4.13c0-1.36-1.1-2.46-2.46-2.46h-4.13c-1.36,0-2.46,1.1-2.46,2.46v4.13c0,.51.16.98.42,1.38-.27.39-.42.87-.42,1.38v4.13c0,.51.16.98.42,1.38-.27.39-.42.87-.42,1.38v4.13c0,.51.16.98.42,1.38-.27.39-.42.87-.42,1.38v4.13c0,.51.16.98.42,1.38-.27.39-.42.87-.42,1.38v4.13c0,.51.16.98.42,1.38-.27.39-.42.87-.42,1.38v4.13c0,.51.16.98.42,1.38-.27.39-.42.87-.42,1.38v4.13c0,1.36,1.1,2.46,2.46,2.46h4.13c1.36,0,2.46-1.1,2.46-2.46v-4.13c0-.51-.16-.98-.42-1.38.27-.39.42-.87.42-1.38v-4.13c0-.51-.16-.98-.42-1.38.27-.39.42-.87.42-1.38v-4.13c0-.11,0-.21-.02-.32.1.01.21.02.32.02h4.13c.51,0,.98-.16,1.38-.42.39.27.87.42,1.38.42h4.13c.51,0,.98-.16,1.38-.42.39.27.87.42,1.38.42h4.13c.11,0,.21,0,.32-.02-.01.1-.02.21-.02.32v4.13c0,.51.16.98.42,1.38-.27.39-.42.87-.42,1.38v4.13c0,.51.16.98.42,1.38-.27.39-.42.87-.42,1.38v4.13c0,1.36,1.1,2.46,2.46,2.46h4.13c1.36,0,2.46-1.1,2.46-2.46v-4.13c0-.51-.16-.98-.42-1.38.27-.39.42-.87.42-1.38v-4.13c0-.51-.16-.98-.42-1.38.27-.39.42-.87.42-1.38v-4.13c0-.51-.16-.98-.42-1.38.27-.39.42-.87.42-1.38v-4.13c0-.51-.16-.98-.42-1.38.27-.39.42-.87.42-1.38v-4.13c0-.51-.16-.98-.42-1.38.27-.39.42-.87.42-1.38v-4.13c0-.51-.16-.98-.42-1.38.27-.39.42-.87.42-1.38v-4.13c0-1.36-1.1-2.46-2.46-2.46Z" style="fill: none;"/>
        <path d="M893.88,10.19h-4.13c-.51,0-.98.16-1.38.42-.39-.27-.87-.42-1.38-.42h-4.13c-.51,0-.98.16-1.38.42-.39-.27-.87-.42-1.38-.42h-4.13c-1.36,0-2.46,1.1-2.46,2.46v4.13c0,1.36,1.1,2.46,2.46,2.46h4.13c.11,0,.21,0,.32-.02-.01.1-.02.21-.02.32v4.13c0,.51.16.98.42,1.38-.27.39-.42.87-.42,1.38v4.13c0,.51.16.98.42,1.38-.27.39-.42.87-.42,1.38v4.13c0,.51.16.98.42,1.38-.27.39-.42.87-.42,1.38v4.13c0,.51.16.98.42,1.38-.27.39-.42.87-.42,1.38v4.13c0,.11,0,.21.02.32-.1-.01-.21-.02-.32-.02h-4.13c-1.36,0-2.46,1.1-2.46,2.46v4.13c0,1.36,1.1,2.46,2.46,2.46h4.13c.51,0,.98-.16,1.38-.42.39.27.87.42,1.38.42h4.13c.51,0,.98-.16,1.38-.42.39.27.87.42,1.38.42h4.13c1.36,0,2.46-1.1,2.46-2.46v-4.13c0-1.36-1.1-2.46-2.46-2.46h-4.13c-.11,0-.21,0-.32.02.01-.1.02-.21.02-.32v-4.13c0-.51-.16-.98-.42-1.38.27-.39.42-.87.42-1.38v-4.13c0-.51-.16-.98-.42-1.38.27-.39.42-.87.42-1.38v-4.13c0-.51-.16-.98-.42-1.38.27-.39.42-.87.42-1.38v-4.13c0-.51-.16-.98-.42-1.38.27-.39.42-.87.42-1.38v-4.13c0-.11,0-.21-.02-.32.1.01.21.02.32.02h4.13c1.36,0,2.46-1.1,2.46-2.46v-4.13c0-1.36-1.1-2.46-2.46-2.46Z" style="fill: none;"/>
        <path d="M942.08,10.19h-4.13c-1.36,0-2.46,1.1-2.46,2.46v4.13c0,.51.16.98.42,1.38-.27.39-.42.87-.42,1.38v4.13c0,.51.16.98.42,1.38-.27.39-.42.87-.42,1.38v4.13c0,.51.16.98.42,1.38-.27.39-.42.87-.42,1.38v4.13c0,.11,0,.21.02.32-.1-.01-.21-.02-.32-.02h-4.13c-.11,0-.21,0-.32.02.01-.1.02-.21.02-.32v-4.13c0-1.36-1.1-2.46-2.46-2.46h-4.13c-.11,0-.21,0-.32.02.01-.1.02-.21.02-.32v-4.13c0-1.36-1.1-2.46-2.46-2.46h-4.13c-.11,0-.21,0-.32.02.01-.1.02-.21.02-.32v-4.13c0-.51-.16-.98-.42-1.38.27-.39.42-.87.42-1.38v-4.13c0-1.36-1.1-2.46-2.46-2.46h-4.13c-1.36,0-2.46,1.1-2.46,2.46v4.13c0,.51.16.98.42,1.38-.27.39-.42.87-.42,1.38v4.13c0,.51.16.98.42,1.38-.27.39-.42.87-.42,1.38v4.13c0,.51.16.98.42,1.38-.27.39-.42.87-.42,1.38v4.13c0,.51.16.98.42,1.38-.27.39-.42.87-.42,1.38v4.13c0,.51.16.98.42,1.38-.27.39-.42.87-.42,1.38v4.13c0,.51.16.98.42,1.38-.27.39-.42.87-.42,1.38v4.13c0,1.36,1.1,2.46,2.46,2.46h4.13c1.36,0,2.46-1.1,2.46-2.46v-4.13c0-.51-.16-.98-.42-1.38.27-.39.42-.87.42-1.38v-4.13c0-.51-.16-.98-.42-1.38.27-.39.42-.87.42-1.38v-4.13c0-.51-.16-.98-.42-1.38.27-.39.42-.87.42-1.38v-4.13c0-.11,0-.21-.02-.32.1.01.21.02.32.02h4.13c.11,0,.21,0,.32-.02-.01.1-.02.21-.02.32v4.13c0,1.36,1.1,2.46,2.46,2.46h4.13c.11,0,.21,0,.32-.02-.01.1-.02.21-.02.32v4.13c0,1.36,1.1,2.46,2.46,2.46h4.13c.11,0,.21,0,.32-.02-.01.1-.02.21-.02.32v4.13c0,.51.16.98.42,1.38-.27.39-.42.87-.42,1.38v4.13c0,1.36,1.1,2.46,2.46,2.46h4.13c1.36,0,2.46-1.1,2.46-2.46v-4.13c0-.51-.16-.98-.42-1.38.27-.39.42-.87.42-1.38v-4.13c0-.51-.16-.98-.42-1.38.27-.39.42-.87.42-1.38v-4.13c0-.51-.16-.98-.42-1.38.27-.39.42-.87.42-1.38v-4.13c0-.51-.16-.98-.42-1.38.27-.39.42-.87.42-1.38v-4.13c0-.51-.16-.98-.42-1.38.27-.39.42-.87.42-1.38v-4.13c0-.51-.16-.98-.42-1.38.27-.39.42-.87.42-1.38v-4.13c0-1.36-1.1-2.46-2.46-2.46Z" style="fill: none;"/>
        <path d="M983.38,10.19h-4.13c-.51,0-.98.16-1.38.42-.39-.27-.87-.42-1.38-.42h-4.13c-.51,0-.98.16-1.38.42-.39-.27-.87-.42-1.38-.42h-4.13c-.51,0-.98.16-1.38.42-.39-.27-.87-.42-1.38-.42h-4.13c-.51,0-.98.16-1.38.42-.39-.27-.87-.42-1.38-.42h-4.13c-1.36,0-2.46,1.1-2.46,2.46v4.13c0,.51.16.98.42,1.38-.27.39-.42.87-.42,1.38v4.13c0,.51.16.98.42,1.38-.27.39-.42.87-.42,1.38v4.13c0,.51.16.98.42,1.38-.27.39-.42.87-.42,1.38v4.13c0,.51.16.98.42,1.38-.27.39-.42.87-.42,1.38v4.13c0,.51.16.98.42,1.38-.27.39-.42.87-.42,1.38v4.13c0,.51.16.98.42,1.38-.27.39-.42.87-.42,1.38v4.13c0,1.36,1.1,2.46,2.46,2.46h4.13c.51,0,.98-.16,1.38-.42.39.27.87.42,1.38.42h4.13c.51,0,.98-.16,1.38-.42.39.27.87.42,1.38.42h4.13c.51,0,.98-.16,1.38-.42.39.27.87.42,1.38.42h4.13c.51,0,.98-.16,1.38-.42.39.27.87.42,1.38.42h4.13c1.36,0,2.46-1.1,2.46-2.46v-4.13c0-1.36-1.1-2.46-2.46-2.46h-4.13c-.51,0-.98.16-1.38.42-.39-.27-.87-.42-1.38-.42h-4.13c-.51,0-.98.16-1.38.42-.39-.27-.87-.42-1.38-.42h-4.13c-.51,0-.98.16-1.38.42-.39-.27-.87-.42-1.38-.42h-4.13c-.11,0-.21,0-.32.02.01-.1.02-.21.02-.32v-4.13c0-.51-.16-.98-.42-1.38.27-.39.42-.87.42-1.38v-4.13c0-.11,0-.21-.02-.32.1.01.21.02.32.02h4.13c.51,0,.98-.16,1.38-.42.39.27.87.42,1.38.42h4.13c.51,0,.98-.16,1.38-.42.39.27.87.42,1.38.42h4.13c1.36,0,2.46-1.1,2.46-2.46v-4.13c0-1.36-1.1-2.46-2.46-2.46h-4.13c-.51,0-.98.16-1.38.42-.39-.27-.87-.42-1.38-.42h-4.13c-.51,0-.98.16-1.38.42-.39-.27-.87-.42-1.38-.42h-4.13c-.11,0-.21,0-.32.02.01-.1.02-.21.02-.32v-4.13c0-.51-.16-.98-.42-1.38.27-.39.42-.87.42-1.38v-4.13c0-.11,0-.21-.02-.32.1.01.21.02.32.02h4.13c.51,0,.98-.16,1.38-.42.39.27.87.42,1.38.42h4.13c.51,0,.98-.16,1.38-.42.39.27.87.42,1.38.42h4.13c.51,0,.98-.16,1.38-.42.39.27.87.42,1.38.42h4.13c1.36,0,2.46-1.1,2.46-2.46v-4.13c0-1.36-1.1-2.46-2.46-2.46Z" style="fill: none;"/>
      </g>
    </g>
  </g>
</svg>