<svg viewBox="0 0 284.43 196.71" xmlns="http://www.w3.org/2000/svg"><path d="m116.74 0h-4.13c-.51 0-.98.16-1.38.42-.39-.27-.87-.42-1.38-.42h-4.13c-.51 0-.98.16-1.38.42-.39-.27-.87-.42-1.38-.42h-4.13c-.51 0-.98.16-1.38.42-.39-.27-.87-.42-1.38-.42h-4.13c-.51 0-.98.16-1.38.42-.39-.27-.87-.42-1.38-.42h-4.13c-1.36 0-2.46 1.1-2.46 2.46v4.13c0 1.36 1.1 2.46 2.46 2.46h4.13c.51 0 .98-.16 1.38-.42.39.27.87.42 1.38.42h4.13c.11 0 .21 0 .32-.02-.01.1-.02.21-.02.32v4.13c0 .51.16.98.42 1.38-.27.39-.42.87-.42 1.38v4.13c0 .51.16.98.42 1.38-.27.39-.42.87-.42 1.38v4.13c0 .51.16.98.42 1.38-.27.39-.42.87-.42 1.38v4.13c0 .51.16.98.42 1.38-.27.39-.42.87-.42 1.38v4.13c0 .51.16.98.42 1.38-.27.39-.42.87-.42 1.38v4.13c0 1.36 1.1 2.46 2.46 2.46h4.13c1.36 0 2.46-1.1 2.46-2.46v-4.13c0-.51-.16-.98-.42-1.38.27-.39.42-.87.42-1.38v-4.13c0-.51-.16-.98-.42-1.38.27-.39.42-.87.42-1.38v-4.13c0-.51-.16-.98-.42-1.38.27-.39.42-.87.42-1.38v-4.13c0-.51-.16-.98-.42-1.38.27-.39.42-.87.42-1.38v-4.13c0-.51-.16-.98-.42-1.38.27-.39.42-.87.42-1.38v-4.13c0-.11 0-.21-.02-.32.1.01.21.02.32.02h4.13c.51 0 .98-.16 1.38-.42.39.27.87.42 1.38.42h4.13c1.36 0 2.46-1.1 2.46-2.46v-4.13c0-1.36-1.1-2.46-2.46-2.46z"/><path d="m158.05 0h-4.13c-1.36 0-2.46 1.1-2.46 2.46v4.13c0 .51.16.98.42 1.38-.27.39-.42.87-.42 1.38v4.13c0 .51.16.98.42 1.38-.27.39-.42.87-.42 1.38v4.13c0 .11 0 .21.02.32-.1-.01-.21-.02-.32-.02h-4.13c-.51 0-.98.16-1.38.42-.39-.27-.87-.42-1.38-.42h-4.13c-.51 0-.98.16-1.38.42-.39-.27-.87-.42-1.38-.42h-4.13c-.11 0-.21 0-.32.02.01-.1.02-.21.02-.32v-4.13c0-.51-.16-.98-.42-1.38.27-.39.42-.87.42-1.38v-4.13c0-.51-.16-.98-.42-1.38.27-.39.42-.87.42-1.38v-4.13c0-1.36-1.1-2.46-2.46-2.46h-4.13c-1.36 0-2.46 1.1-2.46 2.46v4.13c0 .51.16.98.42 1.38-.27.39-.42.87-.42 1.38v4.13c0 .51.16.98.42 1.38-.27.39-.42.87-.42 1.38v4.13c0 .51.16.98.42 1.38-.27.39-.42.87-.42 1.38v4.13c0 .51.16.98.42 1.38-.27.39-.42.87-.42 1.38v4.13c0 .51.16.98.42 1.38-.27.39-.42.87-.42 1.38v4.13c0 .51.16.98.42 1.38-.27.39-.42.87-.42 1.38v4.13c0 1.36 1.1 2.46 2.46 2.46h4.13c1.36 0 2.46-1.1 2.46-2.46v-4.13c0-.51-.16-.98-.42-1.38.27-.39.42-.87.42-1.38v-4.13c0-.51-.16-.98-.42-1.38.27-.39.42-.87.42-1.38v-4.13c0-.11 0-.21-.02-.32.1.01.21.02.32.02h4.13c.51 0 .98-.16 1.38-.42.39.27.87.42 1.38.42h4.13c.51 0 .98-.16 1.38-.42.39.27.87.42 1.38.42h4.13c.11 0 .21 0 .32-.02-.01.1-.02.21-.02.32v4.13c0 .51.16.98.42 1.38-.27.39-.42.87-.42 1.38v4.13c0 .51.16.98.42 1.38-.27.39-.42.87-.42 1.38v4.13c0 1.36 1.1 2.46 2.46 2.46h4.13c1.36 0 2.46-1.1 2.46-2.46v-4.13c0-.51-.16-.98-.42-1.38.27-.39.42-.87.42-1.38v-4.13c0-.51-.16-.98-.42-1.38.27-.39.42-.87.42-1.38v-4.13c0-.51-.16-.98-.42-1.38.27-.39.42-.87.42-1.38v-4.13c0-.51-.16-.98-.42-1.38.27-.39.42-.87.42-1.38v-4.13c0-.51-.16-.98-.42-1.38.27-.39.42-.87.42-1.38v-4.13c0-.51-.16-.98-.42-1.38.27-.39.42-.87.42-1.38v-4.13c0-1.36-1.1-2.46-2.46-2.46z"/><path d="m199.36 0h-4.13c-.51 0-.98.16-1.38.42-.39-.27-.87-.42-1.38-.42h-4.13c-.51 0-.98.16-1.38.42-.39-.27-.87-.42-1.38-.42h-4.13c-.51 0-.98.16-1.38.42-.39-.27-.87-.42-1.38-.42h-4.13c-.51 0-.98.16-1.38.42-.39-.27-.87-.42-1.38-.42h-4.13c-1.36 0-2.46 1.1-2.46 2.46v4.13c0 .51.16.98.42 1.38-.27.39-.42.87-.42 1.38v4.13c0 .51.16.98.42 1.38-.27.39-.42.87-.42 1.38v4.13c0 .51.16.98.42 1.38-.27.39-.42.87-.42 1.38v4.13c0 .51.16.98.42 1.38-.27.39-.42.87-.42 1.38v4.13c0 .51.16.98.42 1.38-.27.39-.42.87-.42 1.38v4.13c0 .51.16.98.42 1.38-.27.39-.42.87-.42 1.38v4.13c0 1.36 1.1 2.46 2.46 2.46h4.13c.51 0 .98-.16 1.38-.42.39.27.87.42 1.38.42h4.13c.51 0 .98-.16 1.38-.42.39.27.87.42 1.38.42h4.13c.51 0 .98-.16 1.38-.42.39.27.87.42 1.38.42h4.13c.51 0 .98-.16 1.38-.42.39.27.87.42 1.38.42h4.13c1.36 0 2.46-1.1 2.46-2.46v-4.13c0-1.36-1.1-2.46-2.46-2.46h-4.13c-.51 0-.98.16-1.38.42-.39-.27-.87-.42-1.38-.42h-4.13c-.51 0-.98.16-1.38.42-.39-.27-.87-.42-1.38-.42h-4.13c-.51 0-.98.16-1.38.42-.39-.27-.87-.42-1.38-.42h-4.13c-.11 0-.21 0-.32.02.01-.1.02-.21.02-.32v-4.13c0-.51-.16-.98-.42-1.38.27-.39.42-.87.42-1.38v-4.13c0-.11 0-.21-.02-.32.1.01.21.02.32.02h4.13c.51 0 .98-.16 1.38-.42.39.27.87.42 1.38.42h4.13c.51 0 .98-.16 1.38-.42.39.27.87.42 1.38.42h4.13c1.36 0 2.46-1.1 2.46-2.46v-4.13c0-1.36-1.1-2.46-2.46-2.46h-4.13c-.51 0-.98.16-1.38.42-.39-.27-.87-.42-1.38-.42h-4.13c-.51 0-.98.16-1.38.42-.39-.27-.87-.42-1.38-.42h-4.13c-.11 0-.21 0-.32.02.01-.1.02-.21.02-.32v-4.13c0-.51-.16-.98-.42-1.38.27-.39.42-.87.42-1.38v-4.13c0-.11 0-.21-.02-.32.1.01.21.02.32.02h4.13c.51 0 .98-.16 1.38-.42.39.27.87.42 1.38.42h4.13c.51 0 .98-.16 1.38-.42.39.27.87.42 1.38.42h4.13c.51 0 .98-.16 1.38-.42.39.27.87.42 1.38.42h4.13c1.36 0 2.46-1.1 2.46-2.46v-4.13c0-1.36-1.1-2.46-2.46-2.46z"/><path d="m75.44 73.18h-4.13c-1.36 0-2.46 1.1-2.46 2.46v4.13c0 .51.16.98.42 1.38-.27.39-.42.87-.42 1.38v4.13c0 .51.16.98.42 1.38-.27.39-.42.87-.42 1.38v4.13c0 .51.16.98.42 1.38-.27.39-.42.87-.42 1.38v4.13c0 .11 0 .21.02.32-.1-.01-.21-.02-.32-.02h-4.13c-.11 0-.21 0-.32.02.01-.1.02-.21.02-.32v-4.13c0-1.36-1.1-2.46-2.46-2.46h-4.13c-.11 0-.21 0-.32.02.01-.1.02-.21.02-.32v-4.13c0-1.36-1.1-2.46-2.46-2.46h-4.13c-.11 0-.21 0-.32.02.01-.1.02-.21.02-.32v-4.13c0-.51-.16-.98-.42-1.38.27-.39.42-.87.42-1.38v-4.13c0-1.36-1.1-2.46-2.46-2.46h-4.13c-1.36 0-2.46 1.1-2.46 2.46v4.13c0 .51.16.98.42 1.38-.27.39-.42.87-.42 1.38v4.13c0 .51.16.98.42 1.38-.27.39-.42.87-.42 1.38v4.13c0 .51.16.98.42 1.38-.27.39-.42.87-.42 1.38v4.13c0 .51.16.98.42 1.38-.27.39-.42.87-.42 1.38v4.13c0 .51.16.98.42 1.38-.27.39-.42.87-.42 1.38v4.13c0 .51.16.98.42 1.38-.27.39-.42.87-.42 1.38v4.13c0 1.36 1.1 2.46 2.46 2.46h4.13c1.36 0 2.46-1.1 2.46-2.46v-4.13c0-.51-.16-.98-.42-1.38.27-.39.42-.87.42-1.38v-4.13c0-.51-.16-.98-.42-1.38.27-.39.42-.87.42-1.38v-4.13c0-.51-.16-.98-.42-1.38.27-.39.42-.87.42-1.38v-4.13c0-.11 0-.21-.02-.32.1.01.21.02.32.02h4.13c.11 0 .21 0 .32-.02-.01.1-.02.21-.02.32v4.13c0 1.36 1.1 2.46 2.46 2.46h4.13c.11 0 .21 0 .32-.02-.01.1-.02.21-.02.32v4.13c0 1.36 1.1 2.46 2.46 2.46h4.13c.11 0 .21 0 .32-.02-.01.1-.02.21-.02.32v4.13c0 .51.16.98.42 1.38-.27.39-.42.87-.42 1.38v4.13c0 1.36 1.1 2.46 2.46 2.46h4.13c1.36 0 2.46-1.1 2.46-2.46v-4.13c0-.51-.16-.98-.42-1.38.27-.39.42-.87.42-1.38v-4.13c0-.51-.16-.98-.42-1.38.27-.39.42-.87.42-1.38v-4.13c0-.51-.16-.98-.42-1.38.27-.39.42-.87.42-1.38v-4.13c0-.51-.16-.98-.42-1.38.27-.39.42-.87.42-1.38v-4.13c0-.51-.16-.98-.42-1.38.27-.39.42-.87.42-1.38v-4.13c0-.51-.16-.98-.42-1.38.27-.39.42-.87.42-1.38v-4.13c0-1.36-1.1-2.46-2.46-2.46z"/><path d="m116.74 80.06h-4.13c-.11 0-.21 0-.32.02.01-.1.02-.21.02-.32v-4.13c0-1.36-1.1-2.46-2.46-2.46h-4.13c-.51 0-.98.16-1.38.42-.39-.27-.87-.42-1.38-.42h-4.13c-.51 0-.98.16-1.38.42-.39-.27-.87-.42-1.38-.42h-4.13c-1.36 0-2.46 1.1-2.46 2.46v4.13c0 .11 0 .21.02.32-.1-.01-.21-.02-.32-.02h-4.13c-1.36 0-2.46 1.1-2.46 2.46v4.13c0 .51.16.98.42 1.38-.27.39-.42.87-.42 1.38v4.13c0 .51.16.98.42 1.38-.27.39-.42.87-.42 1.38v4.13c0 .51.16.98.42 1.38-.27.39-.42.87-.42 1.38v4.13c0 .51.16.98.42 1.38-.27.39-.42.87-.42 1.38v4.13c0 1.36 1.1 2.46 2.46 2.46h4.13c.11 0 .21 0 .32-.02-.01.1-.02.21-.02.32v4.13c0 1.36 1.1 2.46 2.46 2.46h4.13c.51 0 .98-.16 1.38-.42.39.27.87.42 1.38.42h4.13c.51 0 .98-.16 1.38-.42.39.27.87.42 1.38.42h4.13c1.36 0 2.46-1.1 2.46-2.46v-4.13c0-.11 0-.21-.02-.32.1.01.21.02.32.02h4.13c1.36 0 2.46-1.1 2.46-2.46v-4.13c0-.51-.16-.98-.42-1.38.27-.39.42-.87.42-1.38v-4.13c0-.51-.16-.98-.42-1.38.27-.39.42-.87.42-1.38v-4.13c0-.51-.16-.98-.42-1.38.27-.39.42-.87.42-1.38v-4.13c0-.51-.16-.98-.42-1.38.27-.39.42-.87.42-1.38v-4.13c0-1.36-1.1-2.46-2.46-2.46zm-6.16 14.85c-.27.39-.42.87-.42 1.38v4.13c0 .51.16.98.42 1.38-.27.39-.42.87-.42 1.38v4.13c0 .51.16.98.42 1.38-.27.39-.42.87-.42 1.38v4.13c0 .11 0 .21.02.32-.1-.01-.21-.02-.32-.02h-4.13c-.51 0-.98.16-1.38.42-.39-.27-.87-.42-1.38-.42h-4.13c-.51 0-.98.16-1.38.42-.39-.27-.87-.42-1.38-.42h-4.13c-.11 0-.21 0-.32.02.01-.1.02-.21.02-.32v-4.13c0-.51-.16-.98-.42-1.38.27-.39.42-.87.42-1.38v-4.13c0-.51-.16-.98-.42-1.38.27-.39.42-.87.42-1.38v-4.13c0-.51-.16-.98-.42-1.38.27-.39.42-.87.42-1.38v-4.13c0-.51-.16-.98-.42-1.38.27-.39.42-.87.42-1.38v-4.13c0-.11 0-.21-.02-.32.1.01.21.02.32.02h4.13c.51 0 .98-.16 1.38-.42.39.27.87.42 1.38.42h4.13c.51 0 .98-.16 1.38-.42.39.27.87.42 1.38.42h4.13c.11 0 .21 0 .32-.02-.01.1-.02.21-.02.32v4.13c0 .51.16.98.42 1.38-.27.39-.42.87-.42 1.38v4.13c0 .51.16.98.42 1.38z"/><path d="m133.27 114.48c-1.36 0-2.46 1.1-2.46 2.46v4.13c0 1.36 1.1 2.46 2.46 2.46h4.13c.51 0 .98-.16 1.38-.42.39.27.87.42 1.38.42h4.13c.51 0 .98-.16 1.38-.42.39.27.87.42 1.38.42h4.13c1.36 0 2.46-1.1 2.46-2.46v-4.13c0-1.36-1.1-2.46-2.46-2.46h-4.13c-.11 0-.21 0-.32.02.01-.1.02-.21.02-.32v-4.13c0-.51-.16-.98-.42-1.38.27-.39.42-.87.42-1.38v-4.13c0-.51-.16-.98-.42-1.38.27-.39.42-.87.42-1.38v-4.13c0-.51-.16-.98-.42-1.38.27-.39.42-.87.42-1.38v-4.13c0-.51-.16-.98-.42-1.38.27-.39.42-.87.42-1.38v-4.13c0-.11 0-.21-.02-.32.1.01.21.02.32.02h4.13c1.36 0 2.46-1.1 2.46-2.46v-4.13c0-1.36-1.1-2.46-2.46-2.46h-4.13c-.51 0-.98.16-1.38.42-.39-.27-.87-.42-1.38-.42h-4.13c-.51 0-.98.16-1.38.42-.39-.27-.87-.42-1.38-.42h-4.13c-1.36 0-2.46 1.1-2.46 2.46v4.13c0 1.36 1.1 2.46 2.46 2.46h4.13c.11 0 .21 0 .32-.02-.01.1-.02.21-.02.32v4.13c0 .51.16.98.42 1.38-.27.39-.42.87-.42 1.38v4.13c0 .51.16.98.42 1.38-.27.39-.42.87-.42 1.38v4.13c0 .51.16.98.42 1.38-.27.39-.42.87-.42 1.38v4.13c0 .51.16.98.42 1.38-.27.39-.42.87-.42 1.38v4.13c0 .11 0 .21.02.32-.1-.01-.21-.02-.32-.02z"/><path d="m199.36 80.06h-4.13c-.11 0-.21 0-.32.02.01-.1.02-.21.02-.32v-4.13c0-1.36-1.1-2.46-2.46-2.46h-4.13c-.51 0-.98.16-1.38.42-.39-.27-.87-.42-1.38-.42h-4.13c-.51 0-.98.16-1.38.42-.39-.27-.87-.42-1.38-.42h-4.13c-1.36 0-2.46 1.1-2.46 2.46v4.13c0 .11 0 .21.02.32-.1-.01-.21-.02-.32-.02h-4.13c-1.36 0-2.46 1.1-2.46 2.46v4.13c0 .51.16.98.42 1.38-.27.39-.42.87-.42 1.38v4.13c0 1.36 1.1 2.46 2.46 2.46h4.13c.11 0 .21 0 .32-.02-.01.1-.02.21-.02.32v4.13c0 1.36 1.1 2.46 2.46 2.46h4.13c.51 0 .98-.16 1.38-.42.39.27.87.42 1.38.42h4.13c.51 0 .98-.16 1.38-.42.39.27.87.42 1.38.42h4.13c.11 0 .21 0 .32-.02-.01.1-.02.21-.02.32v4.13c0 .51.16.98.42 1.38-.27.39-.42.87-.42 1.38v4.13c0 .11 0 .21.02.32-.1-.01-.21-.02-.32-.02h-4.13c-.51 0-.98.16-1.38.42-.39-.27-.87-.42-1.38-.42h-4.13c-.51 0-.98.16-1.38.42-.39-.27-.87-.42-1.38-.42h-4.13c-.11 0-.21 0-.32.02.01-.1.02-.21.02-.32v-4.13c0-1.36-1.1-2.46-2.46-2.46h-4.13c-1.36 0-2.46 1.1-2.46 2.46v4.13c0 1.36 1.1 2.46 2.46 2.46h4.13c.11 0 .21 0 .32-.02-.01.1-.02.21-.02.32v4.13c0 1.36 1.1 2.46 2.46 2.46h4.13c.51 0 .98-.16 1.38-.42.39.27.87.42 1.38.42h4.13c.51 0 .98-.16 1.38-.42.39.27.87.42 1.38.42h4.13c1.36 0 2.46-1.1 2.46-2.46v-4.13c0-.11 0-.21-.02-.32.1.01.21.02.32.02h4.13c1.36 0 2.46-1.1 2.46-2.46v-4.13c0-.51-.16-.98-.42-1.38.27-.39.42-.87.42-1.38v-4.13c0-1.36-1.1-2.46-2.46-2.46h-4.13c-.11 0-.21 0-.32.02.01-.1.02-.21.02-.32v-4.13c0-1.36-1.1-2.46-2.46-2.46h-4.13c-.51 0-.98.16-1.38.42-.39-.27-.87-.42-1.38-.42h-4.13c-.51 0-.98.16-1.38.42-.39-.27-.87-.42-1.38-.42h-4.13c-.11 0-.21 0-.32.02.01-.1.02-.21.02-.32v-4.13c0-.51-.16-.98-.42-1.38.27-.39.42-.87.42-1.38v-4.13c0-.11 0-.21-.02-.32.1.01.21.02.32.02h4.13c.51 0 .98-.16 1.38-.42.39.27.87.42 1.38.42h4.13c.51 0 .98-.16 1.38-.42.39.27.87.42 1.38.42h4.13c.11 0 .21 0 .32-.02-.01.1-.02.21-.02.32v4.13c0 1.36 1.1 2.46 2.46 2.46h4.13c1.36 0 2.46-1.1 2.46-2.46v-4.13c0-1.36-1.1-2.46-2.46-2.46z"/><path d="m240.67 73.18h-4.13c-.51 0-.98.16-1.38.42-.39-.27-.87-.42-1.38-.42h-4.13c-.51 0-.98.16-1.38.42-.39-.27-.87-.42-1.38-.42h-4.13c-.51 0-.98.16-1.38.42-.39-.27-.87-.42-1.38-.42h-4.13c-.51 0-.98.16-1.38.42-.39-.27-.87-.42-1.38-.42h-4.13c-1.36 0-2.46 1.1-2.46 2.46v4.13c0 .51.16.98.42 1.38-.27.39-.42.87-.42 1.38v4.13c0 .51.16.98.42 1.38-.27.39-.42.87-.42 1.38v4.13c0 .51.16.98.42 1.38-.27.39-.42.87-.42 1.38v4.13c0 .51.16.98.42 1.38-.27.39-.42.87-.42 1.38v4.13c0 .51.16.98.42 1.38-.27.39-.42.87-.42 1.38v4.13c0 .51.16.98.42 1.38-.27.39-.42.87-.42 1.38v4.13c0 1.36 1.1 2.46 2.46 2.46h4.13c.51 0 .98-.16 1.38-.42.39.27.87.42 1.38.42h4.13c.51 0 .98-.16 1.38-.42.39.27.87.42 1.38.42h4.13c.51 0 .98-.16 1.38-.42.39.27.87.42 1.38.42h4.13c.51 0 .98-.16 1.38-.42.39.27.87.42 1.38.42h4.13c1.36 0 2.46-1.1 2.46-2.46v-4.13c0-1.36-1.1-2.46-2.46-2.46h-4.13c-.51 0-.98.16-1.38.42-.39-.27-.87-.42-1.38-.42h-4.13c-.51 0-.98.16-1.38.42-.39-.27-.87-.42-1.38-.42h-4.13c-.51 0-.98.16-1.38.42-.39-.27-.87-.42-1.38-.42h-4.13c-.11 0-.21 0-.32.02.01-.1.02-.21.02-.32v-4.13c0-.51-.16-.98-.42-1.38.27-.39.42-.87.42-1.38v-4.13c0-.11 0-.21-.02-.32.1.01.21.02.32.02h4.13c.51 0 .98-.16 1.38-.42.39.27.87.42 1.38.42h4.13c.51 0 .98-.16 1.38-.42.39.27.87.42 1.38.42h4.13c1.36 0 2.46-1.1 2.46-2.46v-4.13c0-1.36-1.1-2.46-2.46-2.46h-4.13c-.51 0-.98.16-1.38.42-.39-.27-.87-.42-1.38-.42h-4.13c-.51 0-.98.16-1.38.42-.39-.27-.87-.42-1.38-.42h-4.13c-.11 0-.21 0-.32.02.01-.1.02-.21.02-.32v-4.13c0-.51-.16-.98-.42-1.38.27-.39.42-.87.42-1.38v-4.13c0-.11 0-.21-.02-.32.1.01.21.02.32.02h4.13c.51 0 .98-.16 1.38-.42.39.27.87.42 1.38.42h4.13c.51 0 .98-.16 1.38-.42.39.27.87.42 1.38.42h4.13c.51 0 .98-.16 1.38-.42.39.27.87.42 1.38.42h4.13c1.36 0 2.46-1.1 2.46-2.46v-4.13c0-1.36-1.1-2.46-2.46-2.46z"/><path d="m34.13 146.35h-4.13c-1.36 0-2.46 1.1-2.46 2.46v4.13c0 .51.16.98.42 1.38-.27.39-.42.87-.42 1.38v4.13c0 .11 0 .21.02.32-.1-.01-.21-.02-.32-.02h-4.13c-1.36 0-2.46 1.1-2.46 2.46v4.13c0 .11 0 .21.02.32-.1-.01-.21-.02-.32-.02h-4.13c-.11 0-.21 0-.32.02.01-.1.02-.21.02-.32v-4.13c0-1.36-1.1-2.46-2.46-2.46h-4.13c-.11 0-.21 0-.32.02.01-.1.02-.21.02-.32v-4.13c0-.51-.16-.98-.42-1.38.27-.39.42-.87.42-1.38v-4.13c0-1.36-1.1-2.46-2.46-2.46h-4.11c-1.36 0-2.46 1.1-2.46 2.46v4.13c0 .51.16.98.42 1.38-.27.39-.42.87-.42 1.38v4.13c0 .51.16.98.42 1.38-.27.39-.42.87-.42 1.38v4.13c0 .51.16.98.42 1.38-.27.39-.42.87-.42 1.38v4.13c0 .51.16.98.42 1.38-.27.39-.42.87-.42 1.38v4.13c0 .51.16.98.42 1.38-.27.39-.42.87-.42 1.38v4.13c0 .51.16.98.42 1.38-.27.39-.42.87-.42 1.38v4.13c0 1.36 1.1 2.46 2.46 2.46h4.13c1.36 0 2.46-1.1 2.46-2.46v-4.13c0-.51-.16-.98-.42-1.38.27-.39.42-.87.42-1.38v-4.13c0-.51-.16-.98-.42-1.38.27-.39.42-.87.42-1.38v-4.13c0-.51-.16-.98-.42-1.38.27-.39.42-.87.42-1.38v-4.13c0-.11 0-.21-.02-.32.1.01.21.02.32.02h4.13c.11 0 .21 0 .32-.02-.01.1-.02.21-.02.32v4.13c0 1.36 1.1 2.46 2.46 2.46h4.13c1.36 0 2.46-1.1 2.46-2.46v-4.13c0-.11 0-.21-.02-.32.1.01.21.02.32.02h4.13c.11 0 .21 0 .32-.02-.01.1-.02.21-.02.32v4.13c0 .51.16.98.42 1.38-.27.39-.42.87-.42 1.38v4.13c0 .51.16.98.42 1.38-.27.39-.42.87-.42 1.38v4.13c0 .51.16.98.42 1.38-.27.39-.42.87-.42 1.38v4.13c0 1.36 1.1 2.46 2.46 2.46h4.13c1.36 0 2.46-1.1 2.46-2.46v-4.13c0-.51-.16-.98-.42-1.38.27-.39.42-.87.42-1.38v-4.13c0-.51-.16-.98-.42-1.38.27-.39.42-.87.42-1.38v-4.13c0-.51-.16-.98-.42-1.38.27-.39.42-.87.42-1.38v-4.13c0-.51-.16-.98-.42-1.38.27-.39.42-.87.42-1.38v-4.13c0-.51-.16-.98-.42-1.38.27-.39.42-.87.42-1.38v-4.13c0-.51-.16-.98-.42-1.38.27-.39.42-.87.42-1.38v-4.13c0-1.36-1.1-2.46-2.46-2.46z"/><path d="m75.44 160.12h-4.13c-.11 0-.21 0-.32.02.01-.1.02-.21.02-.32v-4.13c0-1.36-1.1-2.46-2.46-2.46h-4.13c-.11 0-.21 0-.32.02.01-.1.02-.21.02-.32v-4.13c0-1.36-1.1-2.46-2.46-2.46h-4.13c-1.36 0-2.46 1.1-2.46 2.46v4.13c0 .11 0 .21.02.32-.1-.01-.21-.02-.32-.02h-4.13c-1.36 0-2.46 1.1-2.46 2.46v4.13c0 .11 0 .21.02.32-.1-.01-.21-.02-.32-.02h-4.13c-1.36 0-2.46 1.1-2.46 2.46v4.13c0 .51.16.98.42 1.38-.27.39-.42.87-.42 1.38v4.13c0 .51.16.98.42 1.38-.27.39-.42.87-.42 1.38v4.13c0 .51.16.98.42 1.38-.27.39-.42.87-.42 1.38v4.13c0 .51.16.98.42 1.38-.27.39-.42.87-.42 1.38v4.13c0 1.36 1.1 2.46 2.46 2.46h4.13c1.36 0 2.46-1.1 2.46-2.46v-4.13c0-.51-.16-.98-.42-1.38.27-.39.42-.87.42-1.38v-4.13c0-.11 0-.21-.02-.32.1.01.21.02.32.02h4.13c.51 0 .98-.16 1.38-.42.39.27.87.42 1.38.42h4.13c.51 0 .98-.16 1.38-.42.39.27.87.42 1.38.42h4.13c.11 0 .21 0 .32-.02-.01.1-.02.21-.02.32v4.13c0 .51.16.98.42 1.38-.27.39-.42.87-.42 1.38v4.13c0 1.36 1.1 2.46 2.46 2.46h4.13c1.36 0 2.46-1.1 2.46-2.46v-4.13c0-.51-.16-.98-.42-1.38.27-.39.42-.87.42-1.38v-4.13c0-.51-.16-.98-.42-1.38.27-.39.42-.87.42-1.38v-4.13c0-.51-.16-.98-.42-1.38.27-.39.42-.87.42-1.38v-4.13c0-.51-.16-.98-.42-1.38.27-.39.42-.87.42-1.38v-4.13c0-1.36-1.1-2.46-2.46-2.46zm-6.59 9.34v4.13c0 .11 0 .21.02.32-.1-.01-.21-.02-.32-.02h-4.13c-.51 0-.98.16-1.38.42-.39-.27-.87-.42-1.38-.42h-4.13c-.51 0-.98.16-1.38.42-.39-.27-.87-.42-1.38-.42h-4.13c-.11 0-.21 0-.32.02.01-.1.02-.21.02-.32v-4.13c0-.51-.16-.98-.42-1.38.27-.39.42-.87.42-1.38v-4.13c0-.11 0-.21-.02-.32.1.01.21.02.32.02h4.13c1.36 0 2.46-1.1 2.46-2.46v-4.13c0-.11 0-.21-.02-.32.1.01.21.02.32.02h4.13c.11 0 .21 0 .32-.02-.01.1-.02.21-.02.32v4.13c0 1.36 1.1 2.46 2.46 2.46h4.13c.11 0 .21 0 .32-.02-.01.1-.02.21-.02.32v4.13c0 .51.16.98.42 1.38-.27.39-.42.87-.42 1.38z"/><path d="m116.74 153.24h-4.13c-.11 0-.21 0-.32.02.01-.1.02-.21.02-.32v-4.13c0-1.36-1.1-2.46-2.46-2.46h-4.13c-.51 0-.98.16-1.38.42-.39-.27-.87-.42-1.38-.42h-4.13c-.51 0-.98.16-1.38.42-.39-.27-.87-.42-1.38-.42h-4.13c-1.36 0-2.46 1.1-2.46 2.46v4.13c0 .11 0 .21.02.32-.1-.01-.21-.02-.32-.02h-4.13c-1.36 0-2.46 1.1-2.46 2.46v4.13c0 .51.16.98.42 1.38-.27.39-.42.87-.42 1.38v4.13c0 .51.16.98.42 1.38-.27.39-.42.87-.42 1.38v4.13c0 .51.16.98.42 1.38-.27.39-.42.87-.42 1.38v4.13c0 .51.16.98.42 1.38-.27.39-.42.87-.42 1.38v4.13c0 1.36 1.1 2.46 2.46 2.46h4.13c.11 0 .21 0 .32-.02-.01.1-.02.21-.02.32v4.13c0 1.36 1.1 2.46 2.46 2.46h4.13c.51 0 .98-.16 1.38-.42.39.27.87.42 1.38.42h4.13c.51 0 .98-.16 1.38-.42.39.27.87.42 1.38.42h4.13c1.36 0 2.46-1.1 2.46-2.46v-4.13c0-.11 0-.21-.02-.32.1.01.21.02.32.02h4.13c1.36 0 2.46-1.1 2.46-2.46v-4.13c0-1.36-1.1-2.46-2.46-2.46h-4.13c-1.36 0-2.46 1.1-2.46 2.46v4.13c0 .11 0 .21.02.32-.1-.01-.21-.02-.32-.02h-4.13c-.51 0-.98.16-1.38.42-.39-.27-.87-.42-1.38-.42h-4.13c-.51 0-.98.16-1.38.42-.39-.27-.87-.42-1.38-.42h-4.13c-.11 0-.21 0-.32.02.01-.1.02-.21.02-.32v-4.13c0-.51-.16-.98-.42-1.38.27-.39.42-.87.42-1.38v-4.13c0-.51-.16-.98-.42-1.38.27-.39.42-.87.42-1.38v-4.13c0-.51-.16-.98-.42-1.38.27-.39.42-.87.42-1.38v-4.13c0-.51-.16-.98-.42-1.38.27-.39.42-.87.42-1.38v-4.13c0-.11 0-.21-.02-.32.1.01.21.02.32.02h4.13c.51 0 .98-.16 1.38-.42.39.27.87.42 1.38.42h4.13c.51 0 .98-.16 1.38-.42.39.27.87.42 1.38.42h4.13c.11 0 .21 0 .32-.02-.01.1-.02.21-.02.32v4.13c0 1.36 1.1 2.46 2.46 2.46h4.13c1.36 0 2.46-1.1 2.46-2.46v-4.13c0-1.36-1.1-2.46-2.46-2.46z"/><path d="m158.05 146.35h-4.13c-1.36 0-2.46 1.1-2.46 2.46v4.13c0 .51.16.98.42 1.38-.27.39-.42.87-.42 1.38v4.13c0 .51.16.98.42 1.38-.27.39-.42.87-.42 1.38v4.13c0 .11 0 .21.02.32-.1-.01-.21-.02-.32-.02h-4.13c-.51 0-.98.16-1.38.42-.39-.27-.87-.42-1.38-.42h-4.13c-.51 0-.98.16-1.38.42-.39-.27-.87-.42-1.38-.42h-4.13c-.11 0-.21 0-.32.02.01-.1.02-.21.02-.32v-4.13c0-.51-.16-.98-.42-1.38.27-.39.42-.87.42-1.38v-4.13c0-.51-.16-.98-.42-1.38.27-.39.42-.87.42-1.38v-4.13c0-1.36-1.1-2.46-2.46-2.46h-4.13c-1.36 0-2.46 1.1-2.46 2.46v4.13c0 .51.16.98.42 1.38-.27.39-.42.87-.42 1.38v4.13c0 .51.16.98.42 1.38-.27.39-.42.87-.42 1.38v4.13c0 .51.16.98.42 1.38-.27.39-.42.87-.42 1.38v4.13c0 .51.16.98.42 1.38-.27.39-.42.87-.42 1.38v4.13c0 .51.16.98.42 1.38-.27.39-.42.87-.42 1.38v4.13c0 .51.16.98.42 1.38-.27.39-.42.87-.42 1.38v4.13c0 1.36 1.1 2.46 2.46 2.46h4.13c1.36 0 2.46-1.1 2.46-2.46v-4.13c0-.51-.16-.98-.42-1.38.27-.39.42-.87.42-1.38v-4.13c0-.51-.16-.98-.42-1.38.27-.39.42-.87.42-1.38v-4.13c0-.11 0-.21-.02-.32.1.01.21.02.32.02h4.13c.51 0 .98-.16 1.38-.42.39.27.87.42 1.38.42h4.13c.51 0 .98-.16 1.38-.42.39.27.87.42 1.38.42h4.13c.11 0 .21 0 .32-.02-.01.1-.02.21-.02.32v4.13c0 .51.16.98.42 1.38-.27.39-.42.87-.42 1.38v4.13c0 .51.16.98.42 1.38-.27.39-.42.87-.42 1.38v4.13c0 1.36 1.1 2.46 2.46 2.46h4.13c1.36 0 2.46-1.1 2.46-2.46v-4.13c0-.51-.16-.98-.42-1.38.27-.39.42-.87.42-1.38v-4.13c0-.51-.16-.98-.42-1.38.27-.39.42-.87.42-1.38v-4.13c0-.51-.16-.98-.42-1.38.27-.39.42-.87.42-1.38v-4.13c0-.51-.16-.98-.42-1.38.27-.39.42-.87.42-1.38v-4.13c0-.51-.16-.98-.42-1.38.27-.39.42-.87.42-1.38v-4.13c0-.51-.16-.98-.42-1.38.27-.39.42-.87.42-1.38v-4.13c0-1.36-1.1-2.46-2.46-2.46z"/><path d="m192.48 146.35h-4.13c-.51 0-.98.16-1.38.42-.39-.27-.87-.42-1.38-.42h-4.13c-.51 0-.98.16-1.38.42-.39-.27-.87-.42-1.38-.42h-4.13c-1.36 0-2.46 1.1-2.46 2.46v4.13c0 1.36 1.1 2.46 2.46 2.46h4.13c.11 0 .21 0 .32-.02-.01.1-.02.21-.02.32v4.13c0 .51.16.98.42 1.38-.27.39-.42.87-.42 1.38v4.13c0 .51.16.98.42 1.38-.27.39-.42.87-.42 1.38v4.13c0 .51.16.98.42 1.38-.27.39-.42.87-.42 1.38v4.13c0 .51.16.98.42 1.38-.27.39-.42.87-.42 1.38v4.13c0 .11 0 .21.02.32-.1-.01-.21-.02-.32-.02h-4.13c-1.36 0-2.46 1.1-2.46 2.46v4.13c0 1.36 1.1 2.46 2.46 2.46h4.13c.51 0 .98-.16 1.38-.42.39.27.87.42 1.38.42h4.13c.51 0 .98-.16 1.38-.42.39.27.87.42 1.38.42h4.13c1.36 0 2.46-1.1 2.46-2.46v-4.13c0-1.36-1.1-2.46-2.46-2.46h-4.13c-.11 0-.21 0-.32.02.01-.1.02-.21.02-.32v-4.13c0-.51-.16-.98-.42-1.38.27-.39.42-.87.42-1.38v-4.13c0-.51-.16-.98-.42-1.38.27-.39.42-.87.42-1.38v-4.13c0-.51-.16-.98-.42-1.38.27-.39.42-.87.42-1.38v-4.13c0-.51-.16-.98-.42-1.38.27-.39.42-.87.42-1.38v-4.13c0-.11 0-.21-.02-.32.1.01.21.02.32.02h4.13c1.36 0 2.46-1.1 2.46-2.46v-4.13c0-1.36-1.1-2.46-2.46-2.46z"/><path d="m240.67 146.35h-4.13c-1.36 0-2.46 1.1-2.46 2.46v4.13c0 .51.16.98.42 1.38-.27.39-.42.87-.42 1.38v4.13c0 .51.16.98.42 1.38-.27.39-.42.87-.42 1.38v4.13c0 .51.16.98.42 1.38-.27.39-.42.87-.42 1.38v4.13c0 .11 0 .21.02.32-.1-.01-.21-.02-.32-.02h-4.13c-.11 0-.21 0-.32.02.01-.1.02-.21.02-.32v-4.13c0-1.36-1.1-2.46-2.46-2.46h-4.13c-.11 0-.21 0-.32.02.01-.1.02-.21.02-.32v-4.13c0-1.36-1.1-2.46-2.46-2.46h-4.13c-.11 0-.21 0-.32.02.01-.1.02-.21.02-.32v-4.13c0-.51-.16-.98-.42-1.38.27-.39.42-.87.42-1.38v-4.13c0-1.36-1.1-2.46-2.46-2.46h-4.13c-1.36 0-2.46 1.1-2.46 2.46v4.13c0 .51.16.98.42 1.38-.27.39-.42.87-.42 1.38v4.13c0 .51.16.98.42 1.38-.27.39-.42.87-.42 1.38v4.13c0 .51.16.98.42 1.38-.27.39-.42.87-.42 1.38v4.13c0 .51.16.98.42 1.38-.27.39-.42.87-.42 1.38v4.13c0 .51.16.98.42 1.38-.27.39-.42.87-.42 1.38v4.13c0 .51.16.98.42 1.38-.27.39-.42.87-.42 1.38v4.13c0 1.36 1.1 2.46 2.46 2.46h4.13c1.36 0 2.46-1.1 2.46-2.46v-4.13c0-.51-.16-.98-.42-1.38.27-.39.42-.87.42-1.38v-4.13c0-.51-.16-.98-.42-1.38.27-.39.42-.87.42-1.38v-4.13c0-.51-.16-.98-.42-1.38.27-.39.42-.87.42-1.38v-4.13c0-.11 0-.21-.02-.32.1.01.21.02.32.02h4.13c.11 0 .21 0 .32-.02-.01.1-.02.21-.02.32v4.13c0 1.36 1.1 2.46 2.46 2.46h4.13c.11 0 .21 0 .32-.02-.01.1-.02.21-.02.32v4.13c0 1.36 1.1 2.46 2.46 2.46h4.13c.11 0 .21 0 .32-.02-.01.1-.02.21-.02.32v4.13c0 .51.16.98.42 1.38-.27.39-.42.87-.42 1.38v4.13c0 1.36 1.1 2.46 2.46 2.46h4.13c1.36 0 2.46-1.1 2.46-2.46v-4.13c0-.51-.16-.98-.42-1.38.27-.39.42-.87.42-1.38v-4.13c0-.51-.16-.98-.42-1.38.27-.39.42-.87.42-1.38v-4.13c0-.51-.16-.98-.42-1.38.27-.39.42-.87.42-1.38v-4.13c0-.51-.16-.98-.42-1.38.27-.39.42-.87.42-1.38v-4.13c0-.51-.16-.98-.42-1.38.27-.39.42-.87.42-1.38v-4.13c0-.51-.16-.98-.42-1.38.27-.39.42-.87.42-1.38v-4.13c0-1.36-1.1-2.46-2.46-2.46z"/><path d="m281.98 146.35h-4.13c-.51 0-.98.16-1.38.42-.39-.27-.87-.42-1.38-.42h-4.13c-.51 0-.98.16-1.38.42-.39-.27-.87-.42-1.38-.42h-4.13c-.51 0-.98.16-1.38.42-.39-.27-.87-.42-1.38-.42h-4.13c-.51 0-.98.16-1.38.42-.39-.27-.87-.42-1.38-.42h-4.13c-1.36 0-2.46 1.1-2.46 2.46v4.13c0 .51.16.98.42 1.38-.27.39-.42.87-.42 1.38v4.13c0 .51.16.98.42 1.38-.27.39-.42.87-.42 1.38v4.13c0 .51.16.98.42 1.38-.27.39-.42.87-.42 1.38v4.13c0 .51.16.98.42 1.38-.27.39-.42.87-.42 1.38v4.13c0 .51.16.98.42 1.38-.27.39-.42.87-.42 1.38v4.13c0 .51.16.98.42 1.38-.27.39-.42.87-.42 1.38v4.13c0 1.36 1.1 2.46 2.46 2.46h4.13c.51 0 .98-.16 1.38-.42.39.27.87.42 1.38.42h4.13c.51 0 .98-.16 1.38-.42.39.27.87.42 1.38.42h4.13c.51 0 .98-.16 1.38-.42.39.27.87.42 1.38.42h4.13c.51 0 .98-.16 1.38-.42.39.27.87.42 1.38.42h4.13c1.36 0 2.46-1.1 2.46-2.46v-4.13c0-1.36-1.1-2.46-2.46-2.46h-4.13c-.51 0-.98.16-1.38.42-.39-.27-.87-.42-1.38-.42h-4.13c-.51 0-.98.16-1.38.42-.39-.27-.87-.42-1.38-.42h-4.13c-.51 0-.98.16-1.38.42-.39-.27-.87-.42-1.38-.42h-4.13c-.11 0-.21 0-.32.02.01-.1.02-.21.02-.32v-4.13c0-.51-.16-.98-.42-1.38.27-.39.42-.87.42-1.38v-4.13c0-.11 0-.21-.02-.32.1.01.21.02.32.02h4.13c.51 0 .98-.16 1.38-.42.39.27.87.42 1.38.42h4.13c.51 0 .98-.16 1.38-.42.39.27.87.42 1.38.42h4.13c1.36 0 2.46-1.1 2.46-2.46v-4.13c0-1.36-1.1-2.46-2.46-2.46h-4.13c-.51 0-.98.16-1.38.42-.39-.27-.87-.42-1.38-.42h-4.13c-.51 0-.98.16-1.38.42-.39-.27-.87-.42-1.38-.42h-4.13c-.11 0-.21 0-.32.02.01-.1.02-.21.02-.32v-4.13c0-.51-.16-.98-.42-1.38.27-.39.42-.87.42-1.38v-4.13c0-.11 0-.21-.02-.32.1.01.21.02.32.02h4.13c.51 0 .98-.16 1.38-.42.39.27.87.42 1.38.42h4.13c.51 0 .98-.16 1.38-.42.39.27.87.42 1.38.42h4.13c.51 0 .98-.16 1.38-.42.39.27.87.42 1.38.42h4.13c1.36 0 2.46-1.1 2.46-2.46v-4.13c0-1.36-1.1-2.46-2.46-2.46z"/></svg>